<svg width="369" height="369" viewBox="0 0 369 369" fill="none" xmlns="http://www.w3.org/2000/svg">
<path d="M184.5 368.815C286.307 368.815 368.837 321.167 368.837 262.39C368.837 203.613 286.307 155.965 184.5 155.965C82.6934 155.965 0.162781 203.613 0.162781 262.39C0.162781 321.167 82.6934 368.815 184.5 368.815Z" fill="#F5F5F5"/>
<path d="M216.052 320.906C234.771 320.906 249.946 312.145 249.946 301.338C249.946 290.53 234.771 281.77 216.052 281.77C197.332 281.77 182.157 290.53 182.157 301.338C182.157 312.145 197.332 320.906 216.052 320.906Z" fill="#E0E0E0"/>
<path d="M304.227 309.316C322.946 309.316 338.121 300.555 338.121 289.748C338.121 278.941 322.946 270.18 304.227 270.18C285.508 270.18 270.333 278.941 270.333 289.748C270.333 300.555 285.508 309.316 304.227 309.316Z" fill="#E0E0E0"/>
<path d="M118.833 350.246C137.552 350.246 152.727 341.485 152.727 330.678C152.727 319.87 137.552 311.109 118.833 311.109C100.114 311.109 84.939 319.87 84.939 330.678C84.939 341.485 100.114 350.246 118.833 350.246Z" fill="#E0E0E0"/>
<path d="M63.2821 266.328C63.2821 266.328 62.3975 245.637 53.7233 234.121C45.0491 222.605 34.4172 220.95 29.1505 224.194C25.3007 226.553 25.8167 233.564 32.476 238.118C39.1352 242.672 51.9704 254.344 53.9772 261.954L63.2821 266.328Z" fill="#37474F"/>
<path d="M57.5485 263.315C57.408 263.304 57.2771 263.239 57.1838 263.134C57.0904 263.028 57.042 262.89 57.0488 262.75C57.9416 243.976 41.486 232.271 37.0056 230.166C36.877 230.106 36.7774 229.997 36.7284 229.864C36.6793 229.73 36.6847 229.583 36.7435 229.454C36.8056 229.324 36.9158 229.225 37.0505 229.176C37.1852 229.127 37.3337 229.132 37.4643 229.191C42.0594 231.37 59.0392 243.435 58.1218 262.774C58.1134 262.916 58.0493 263.049 57.9435 263.144C57.8377 263.239 57.6987 263.289 57.5567 263.282L57.5485 263.315Z" fill="white"/>
<path d="M59.1866 259.794C58.0041 259.778 56.8669 259.336 55.984 258.549C54.9765 257.443 55.0584 255.748 54.5915 254.322C53.8298 251.98 51.5199 250.391 49.1118 249.891C46.6701 249.51 44.1742 249.678 41.8055 250.383C36.9728 251.57 32.3285 248.597 27.4877 248.949C25.741 249.005 24.0424 249.535 22.5731 250.481C21.8484 250.96 21.2547 251.613 20.8457 252.379C20.4367 253.146 20.2252 254.002 20.2305 254.871C20.3965 256.309 21.1128 257.627 22.2291 258.549C23.3485 259.468 24.5818 260.239 25.8986 260.842L30.1497 263.013C30.8846 263.339 31.5622 263.782 32.1565 264.324C32.7182 264.925 33.1418 265.642 33.3978 266.425C33.6539 267.207 33.7362 268.036 33.6391 268.853C33.3114 270.491 32.0009 271.736 31.5832 273.342C31.0671 275.447 32.3531 277.699 34.2043 278.838C36.127 279.879 38.3218 280.307 40.4949 280.066C42.6655 279.944 44.8115 279.51 46.9821 279.469C48.4507 279.364 49.9184 279.685 51.2087 280.394C52.6657 281.449 53.7156 282.973 54.182 284.711C54.4633 285.825 54.9106 286.891 55.5089 287.872C56.2466 288.805 57.2399 289.502 58.3675 289.879C60.5485 290.682 62.9441 290.682 65.1251 289.879C66.9189 289.191 67.7953 287.168 68.467 285.415C69.1381 283.58 69.4577 281.635 69.4089 279.682C69.3058 274.661 68.171 269.715 66.0752 265.151C65.0677 263.054 63.6179 260.957 61.39 260.236C60.6685 260.031 59.9317 259.883 59.1866 259.794Z" fill="#455A64"/>
<path d="M63.8391 282.302C63.7401 282.302 63.6434 282.271 63.5627 282.214C63.4819 282.157 63.421 282.076 63.3886 281.982C58.3348 267.492 34.4254 254.886 25.7103 253.437C25.6484 253.426 25.5892 253.404 25.5359 253.371C25.4827 253.338 25.4365 253.295 25.4 253.244C25.3635 253.193 25.3374 253.135 25.3232 253.074C25.3089 253.013 25.3069 252.95 25.3171 252.888C25.3273 252.826 25.3496 252.767 25.3827 252.714C25.4158 252.66 25.4591 252.614 25.5101 252.578C25.561 252.541 25.6187 252.515 25.6797 252.501C25.7408 252.487 25.804 252.484 25.8659 252.495C34.7776 253.969 59.1621 266.853 64.3633 281.663C64.3852 281.722 64.395 281.786 64.392 281.849C64.3889 281.913 64.3732 281.975 64.3457 282.032C64.3182 282.089 64.2795 282.141 64.2319 282.183C64.1843 282.225 64.1287 282.257 64.0685 282.277C63.9948 282.302 63.9164 282.311 63.8391 282.302Z" fill="white"/>
<path d="M42.3461 274.356C42.2546 274.349 42.1672 274.315 42.0946 274.258C42.022 274.202 41.9672 274.126 41.9369 274.04C41.9066 273.953 41.902 273.859 41.9237 273.77C41.9455 273.681 41.9926 273.6 42.0594 273.537C45.9688 270.833 50.5921 269.348 55.3451 269.27C55.4614 269.285 55.5682 269.342 55.6455 269.43C55.7229 269.518 55.7656 269.631 55.7656 269.749C55.7656 269.866 55.7229 269.979 55.6455 270.067C55.5682 270.156 55.4614 270.213 55.3451 270.228C50.7987 270.338 46.3811 271.76 42.6245 274.323C42.5369 274.361 42.4401 274.372 42.3461 274.356Z" fill="white"/>
<path d="M64.1013 293.506C63.5862 293.156 63.1606 292.689 62.859 292.144C62.5574 291.599 62.3881 290.991 62.3648 290.369V119.678C62.4005 119.036 62.5866 118.412 62.9082 117.856C63.2298 117.299 63.6778 116.826 64.216 116.475L265.025 0.532368C265.559 0.196539 266.174 0.0126911 266.804 0.000633754C267.435 -0.0114236 268.057 0.148767 268.603 0.463944C269.149 0.779122 269.598 1.23734 269.903 1.78922C270.208 2.3411 270.357 2.96572 270.333 3.59578V174.295C270.297 174.937 270.111 175.561 269.79 176.117C269.468 176.674 269.02 177.146 268.482 177.498L67.6726 293.44C67.1237 293.729 66.5149 293.886 65.8947 293.897C65.2746 293.909 64.6604 293.775 64.1013 293.506Z" fill="#455A64"/>
<path d="M67.3204 293.597H67.2466C67.1906 293.63 67.1299 293.655 67.0664 293.671H66.9272C66.845 293.699 66.7598 293.718 66.6733 293.728C66.6183 293.75 66.5603 293.764 66.5013 293.769L66.2228 293.81C65.4919 293.909 64.7482 293.78 64.0931 293.441C63.5788 293.093 63.1541 292.628 62.8537 292.084C62.5534 291.54 62.3858 290.933 62.3648 290.312V141.557L65.8378 143.563V292.368C65.8378 293.187 66.2555 293.695 66.8617 293.695C66.9431 293.708 67.026 293.708 67.1074 293.695C67.183 293.674 67.2548 293.64 67.3204 293.597Z" fill="#ADA4EE"/>
<path opacity="0.81" d="M67.3204 293.597H67.2466C67.1906 293.63 67.1299 293.655 67.0664 293.671H66.9272C66.845 293.699 66.7598 293.718 66.6733 293.728C66.6183 293.75 66.5603 293.764 66.5013 293.769L66.2228 293.81C65.4919 293.909 64.7482 293.78 64.0931 293.441C63.5788 293.093 63.1541 292.628 62.8537 292.084C62.5534 291.54 62.3858 290.933 62.3648 290.312V141.557L65.8378 143.563V292.368C65.8378 293.187 66.2555 293.695 66.8617 293.695C66.9431 293.708 67.026 293.708 67.1074 293.695C67.183 293.674 67.2548 293.64 67.3204 293.597Z" fill="#E0E0E0"/>
<path d="M65.8296 143.563L62.3566 141.557V174.607L65.8296 176.63V143.563Z" fill="#ADA4EE"/>
<path opacity="0.15" d="M65.8296 143.563L62.3566 141.557V174.607L65.8296 176.63V143.563Z" fill="black"/>
<path d="M66.362 119.858C66.0342 120.41 65.8511 121.035 65.8296 121.677V143.563L62.3566 141.556V119.678C62.3526 119.604 62.3526 119.531 62.3566 119.457C62.3725 119.303 62.3971 119.15 62.4304 118.998C62.5324 118.598 62.6866 118.212 62.889 117.852L66.362 119.858Z" fill="#263238"/>
<path d="M270.333 3.60515V13.4834L123.133 98.4645C122.118 99.0542 121.29 98.5709 121.29 97.3996V93.6564C121.29 92.4851 120.471 92.0182 119.439 92.5916L74.6103 118.483C74.0721 118.834 73.6241 119.307 73.3025 119.864C72.9809 120.42 72.7948 121.044 72.7591 121.686V125.421C72.7244 126.062 72.5395 126.686 72.2194 127.242C71.8992 127.798 71.4528 128.271 70.9162 128.624L65.8296 131.589V121.759C65.8643 121.119 66.0492 120.495 66.3694 119.939C66.6895 119.382 67.1359 118.909 67.6726 118.557L268.49 2.54033C269.506 1.95058 270.333 2.42566 270.333 3.60515Z" fill="#37474F"/>
<path d="M270.341 174.305C270.304 174.946 270.117 175.568 269.796 176.123C269.474 176.678 269.027 177.149 268.49 177.5L67.6726 293.443C66.6569 294.024 65.8296 293.549 65.8296 292.37V131.59L70.9162 128.657C71.9318 128.067 73.5864 119.107 74.6103 118.517L118.686 93.0676C119.71 92.4778 122.118 99.0961 123.133 98.5063L270.333 13.4844V174.305H270.341Z" fill="#ADA4EE"/>
<path opacity="0.9" d="M270.341 174.305C270.304 174.946 270.117 175.568 269.796 176.123C269.474 176.678 269.027 177.149 268.49 177.5L67.6726 293.443C66.6569 294.024 65.8296 293.549 65.8296 292.37V131.59L70.9162 128.657C71.9318 128.067 73.5864 119.107 74.6103 118.517L118.686 93.0676C119.71 92.4778 122.118 99.0961 123.133 98.5063L270.333 13.4844V174.305H270.341Z" fill="white"/>
<g opacity="0.4">
<path d="M269.514 14.9014V174.305C269.474 174.797 269.324 175.273 269.074 175.699C268.824 176.124 268.482 176.488 268.072 176.763L67.263 292.73C67.1391 292.814 66.9946 292.862 66.8453 292.869C66.6569 292.869 66.6487 292.46 66.6487 292.37V132.024L71.3257 129.321C72.0465 128.903 72.5052 127.47 73.5373 123.784C73.912 122.196 74.4274 120.644 75.0772 119.148L118.792 93.9112C119.315 94.6244 119.786 95.3744 120.201 96.1556C121.389 98.2361 122.044 99.3173 122.994 99.3173C123.186 99.3168 123.374 99.2689 123.543 99.178L269.514 14.9014ZM270.333 13.4844L123.133 98.4654C123.088 98.4768 123.04 98.4768 122.994 98.4654C121.962 98.4654 119.865 92.9529 118.825 92.9529C118.779 92.9411 118.731 92.9411 118.686 92.9529L74.6103 118.484C73.5864 119.074 71.9319 128.035 70.9162 128.624L65.8296 131.59V292.37C65.8296 293.189 66.2474 293.688 66.8453 293.688C67.1346 293.676 67.4163 293.592 67.6644 293.443L268.49 177.5C269.027 177.149 269.474 176.678 269.796 176.123C270.117 175.568 270.304 174.946 270.341 174.305V13.4844H270.333Z" fill="#ADA4EE"/>
</g>
<path d="M65.8296 143.564V176.631L270.333 58.575V25.5L65.8296 143.564Z" fill="#ADA4EE"/>
<path d="M270.333 13.4844V25.5005L65.8296 143.565V131.59L69.622 129.394C70.6377 128.805 70.9817 127.904 71.465 126.192L72.7591 121.719C73.1605 120.163 73.5782 119.107 74.6103 118.517L118.686 93.0676C119.71 92.4778 120.512 92.4123 121.29 93.6983L122.871 96.5651C123.445 97.5726 123.74 98.1623 124.755 97.5726L270.333 13.4844Z" fill="#F0F0F0"/>
<path d="M261.667 9.79791C262.953 9.06072 263.993 9.65866 263.993 11.1412C263.949 11.9485 263.716 12.7341 263.312 13.4343C262.908 14.1344 262.344 14.7295 261.667 15.1712C260.389 15.9083 259.349 15.3104 259.349 13.8278C259.393 13.0216 259.626 12.237 260.028 11.537C260.431 10.8371 260.992 10.2414 261.667 9.79791Z" fill="#ADA4EE"/>
<path d="M253.312 14.6221C254.59 13.8849 255.63 14.4829 255.63 15.9654C255.586 16.7717 255.353 17.5563 254.951 18.2562C254.548 18.9562 253.987 19.5519 253.312 19.9954C252.026 20.7326 250.986 20.1346 250.986 18.6521C251.03 17.8448 251.263 17.0592 251.667 16.359C252.071 15.6588 252.635 15.0638 253.312 14.6221Z" fill="#ADA4EE"/>
<path d="M244.933 19.4463C246.211 18.7092 247.259 19.3071 247.259 20.7897C247.213 21.5965 246.979 22.3813 246.575 23.0812C246.171 23.7811 245.609 24.3765 244.933 24.8196C243.647 25.565 242.607 24.9588 242.607 23.4763C242.65 22.669 242.884 21.8834 243.288 21.1832C243.692 20.4831 244.256 19.888 244.933 19.4463Z" fill="#ADA4EE"/>
<path opacity="0.5" d="M74.299 132.406L71.3994 134.044L72.5052 131.923C72.5489 131.843 72.5718 131.752 72.5718 131.661C72.5718 131.569 72.5489 131.479 72.5052 131.399C72.4233 131.3 72.2758 131.399 72.1776 131.554L70.6049 134.585C70.6015 134.623 70.6015 134.662 70.6049 134.7C70.6013 134.752 70.6013 134.804 70.6049 134.855C70.5999 134.902 70.5999 134.948 70.6049 134.995C70.6009 135.016 70.6009 135.038 70.6049 135.06L72.1776 136.272C72.2009 136.287 72.2279 136.295 72.2554 136.295C72.2829 136.295 72.3098 136.287 72.3332 136.272C72.4083 136.211 72.4673 136.132 72.5052 136.043C72.5871 135.846 72.5789 135.625 72.5052 135.552L71.3994 134.732L74.299 133.094C74.3749 133.035 74.436 132.959 74.4772 132.873C74.5185 132.786 74.5388 132.691 74.5365 132.595C74.5365 132.406 74.4301 132.341 74.299 132.406Z" fill="#455A64"/>
<path opacity="0.5" d="M76.7236 131.014L79.6232 129.376L78.5174 128.557C78.4191 128.483 78.4109 128.262 78.5174 128.065C78.6239 127.869 78.7467 127.762 78.845 127.836L80.4177 129.048C80.4383 129.063 80.4551 129.083 80.4668 129.106C80.4754 129.149 80.4754 129.193 80.4668 129.237C80.4754 129.288 80.4754 129.341 80.4668 129.392C80.4668 129.392 80.4668 129.392 80.4668 129.433C80.454 129.473 80.4375 129.511 80.4177 129.548L78.845 132.546C78.8109 132.619 78.757 132.682 78.6894 132.726C78.6664 132.748 78.6355 132.761 78.6034 132.761C78.5712 132.761 78.5403 132.748 78.5174 132.726C78.4714 132.646 78.4471 132.556 78.4471 132.464C78.4471 132.372 78.4714 132.281 78.5174 132.202L79.6232 130.072L76.7236 131.751C76.5925 131.825 76.4942 131.751 76.4942 131.522C76.489 131.425 76.5072 131.328 76.5471 131.24C76.587 131.152 76.6475 131.074 76.7236 131.014Z" fill="#455A64"/>
<path opacity="0.5" d="M86.2168 122.659C86.2168 122.487 86.0448 122.511 85.9711 122.7L85.5698 123.674C84.8899 123.601 84.0708 124.256 83.5138 125.435C82.8012 126.951 82.8012 128.712 83.5138 129.441C83.6888 129.605 83.9153 129.702 84.1544 129.717C84.3935 129.732 84.6304 129.663 84.8244 129.523C85.4035 129.134 85.8563 128.585 86.1267 127.942C86.1721 127.865 86.1961 127.777 86.1961 127.688C86.1961 127.599 86.1721 127.511 86.1267 127.434C86.0285 127.344 85.881 127.434 85.7909 127.622C85.2585 128.753 84.3821 129.261 83.8497 128.745C83.3172 128.229 83.3091 126.885 83.8497 125.747C84.2264 124.928 84.7752 124.461 85.2585 124.436L84.9554 125.165C84.8817 125.354 84.9554 125.534 85.0701 125.452L86.2578 124.682C86.3032 124.641 86.3385 124.59 86.3613 124.533C86.384 124.476 86.3934 124.415 86.3889 124.354L86.2168 122.659Z" fill="#455A64"/>
<path opacity="0.5" d="M117.416 98.5142L118.473 96.2699C118.535 96.1643 118.567 96.0442 118.567 95.9218C118.567 95.7994 118.535 95.6792 118.473 95.5737C118.35 95.459 118.145 95.5737 118.022 95.8358L116.966 98.0719L115.901 97.0562C115.778 96.9334 115.573 97.0562 115.45 97.3183C115.388 97.4239 115.356 97.5441 115.356 97.6665C115.356 97.7888 115.388 97.909 115.45 98.0146L116.507 99.0303L115.45 101.283C115.388 101.388 115.356 101.508 115.356 101.631C115.356 101.753 115.388 101.873 115.45 101.979C115.483 102.006 115.523 102.02 115.565 102.02C115.607 102.02 115.647 102.006 115.68 101.979C115.781 101.916 115.859 101.821 115.901 101.709L116.966 99.4644L118.022 100.488C118.053 100.514 118.092 100.528 118.133 100.528C118.173 100.528 118.213 100.514 118.243 100.488C118.345 100.423 118.425 100.329 118.473 100.218C118.535 100.112 118.567 99.9922 118.567 99.8698C118.567 99.7474 118.535 99.6273 118.473 99.5217L117.416 98.5142Z" fill="#455A64"/>
<path d="M90.0912 125.413V121.678C90.129 121.037 90.317 120.414 90.64 119.859C90.9629 119.304 91.4119 118.833 91.9505 118.484L258.104 22.6497C259.128 22.06 259.955 22.535 259.955 23.7145V27.4004C259.919 28.0421 259.733 28.6663 259.412 29.2227C259.09 29.7791 258.642 30.2519 258.104 30.6031L91.9505 126.486C90.9184 127.076 90.0912 126.593 90.0912 125.413Z" fill="white"/>
<path d="M255.573 30.8398C255.53 30.8484 255.485 30.8484 255.442 30.8398C255.355 30.7964 255.285 30.7252 255.244 30.6377C255.202 30.5501 255.191 30.4511 255.212 30.3565L255.393 28.8084L254.639 28.2678C254.585 28.2285 254.542 28.1765 254.514 28.1165C254.485 28.0564 254.472 27.9902 254.475 27.9238C254.476 27.8111 254.501 27.6999 254.549 27.598C254.597 27.4961 254.667 27.406 254.754 27.334L255.835 26.5149C255.871 26.4822 255.897 26.4394 255.909 26.3921L256.392 24.803C256.419 24.6871 256.479 24.5815 256.565 24.4988C256.651 24.416 256.758 24.3596 256.875 24.3362C256.948 24.3337 257.02 24.3525 257.083 24.3903C257.145 24.4281 257.196 24.4833 257.227 24.5491L257.662 25.4829L258.644 25.1061C258.714 25.0765 258.79 25.0693 258.864 25.0855C258.937 25.1016 259.004 25.1403 259.054 25.1962C259.118 25.2948 259.153 25.4101 259.153 25.5279C259.153 25.6458 259.118 25.761 259.054 25.8597L258.235 27.334C258.226 27.3773 258.226 27.4218 258.235 27.4651L258.423 28.8002C258.435 28.9095 258.421 29.0198 258.384 29.1233C258.348 29.2267 258.288 29.3206 258.21 29.3982C258.167 29.4501 258.111 29.4907 258.048 29.5164C257.986 29.5421 257.917 29.5521 257.85 29.5456L256.875 29.4227L255.933 30.6841C255.888 30.7343 255.832 30.7741 255.77 30.8009C255.708 30.8278 255.641 30.841 255.573 30.8398ZM254.95 27.8337L255.704 28.3743C255.767 28.4272 255.815 28.4962 255.842 28.5741C255.87 28.6519 255.876 28.7357 255.859 28.8166L255.769 30.0944L256.588 29.0623C256.635 28.9958 256.698 28.9422 256.771 28.9064C256.844 28.8706 256.925 28.8538 257.006 28.8576L257.981 28.9804C257.981 28.9804 258.022 28.8494 257.981 28.7838L257.793 27.4487C257.78 27.3009 257.811 27.1526 257.883 27.0228L258.702 25.5484L257.801 25.8924C257.758 25.9112 257.712 25.9213 257.665 25.922C257.618 25.9226 257.571 25.914 257.528 25.8964C257.484 25.8789 257.445 25.8528 257.411 25.8198C257.378 25.7867 257.352 25.7474 257.334 25.704L256.933 24.8849L256.449 26.474C256.409 26.6201 256.323 26.7493 256.204 26.8426L255.122 27.6617C255.046 27.6962 254.985 27.7573 254.95 27.8337Z" fill="#E0E0E0"/>
<g opacity="0.5">
<path d="M262.117 22.1408C261.976 22.1423 261.837 22.0965 261.724 22.0107C261.611 21.9249 261.53 21.8039 261.494 21.6669C261.457 21.5298 261.467 21.3845 261.522 21.2538C261.577 21.1231 261.674 21.0144 261.798 20.945L266.991 17.9471C267.064 17.9046 267.144 17.8768 267.227 17.8654C267.311 17.8539 267.395 17.8589 267.477 17.8802C267.558 17.9015 267.634 17.9387 267.702 17.9895C267.769 18.0403 267.825 18.1038 267.867 18.1764C267.91 18.249 267.938 18.3293 267.949 18.4126C267.961 18.496 267.956 18.5808 267.934 18.6621C267.913 18.7435 267.876 18.8199 267.825 18.887C267.774 18.954 267.711 19.0104 267.638 19.0529L262.437 22.0589C262.339 22.1137 262.229 22.142 262.117 22.1408Z" fill="#455A64"/>
<path d="M262.117 25.1458C262.005 25.1456 261.894 25.1161 261.796 25.0601C261.699 25.004 261.617 24.9235 261.56 24.8264C261.518 24.7533 261.49 24.6726 261.479 24.5889C261.468 24.5052 261.474 24.4201 261.496 24.3386C261.518 24.2571 261.556 24.1808 261.608 24.1141C261.66 24.0474 261.724 23.9916 261.798 23.9499L266.991 20.9439C267.137 20.8767 267.303 20.8664 267.457 20.915C267.61 20.9636 267.74 21.0677 267.821 21.2068C267.901 21.346 267.928 21.5103 267.894 21.6676C267.86 21.825 267.769 21.9641 267.638 22.0578L262.437 25.0557C262.34 25.113 262.23 25.1441 262.117 25.1458Z" fill="#455A64"/>
<path d="M262.117 28.1448C262.005 28.1446 261.894 28.115 261.796 28.059C261.699 28.003 261.617 27.9224 261.56 27.8253C261.518 27.7529 261.491 27.6728 261.48 27.5897C261.469 27.5066 261.475 27.4222 261.497 27.3413C261.519 27.2605 261.557 27.1849 261.609 27.1189C261.66 27.0529 261.725 26.9979 261.798 26.9571L266.991 23.951C267.064 23.9085 267.144 23.8807 267.227 23.8693C267.31 23.8578 267.395 23.8629 267.477 23.8841C267.558 23.9054 267.634 23.9426 267.701 23.9934C267.768 24.0442 267.825 24.1077 267.867 24.1803C267.91 24.2529 267.938 24.3332 267.949 24.4165C267.961 24.4999 267.955 24.5847 267.934 24.6661C267.913 24.7474 267.876 24.8238 267.825 24.8909C267.774 24.9579 267.711 25.0143 267.638 25.0568L262.437 28.0628C262.339 28.1176 262.229 28.1459 262.117 28.1448Z" fill="#455A64"/>
</g>
<path d="M65.8296 131.547V143.564L62.3566 141.557V129.549L65.8296 131.547Z" fill="#E0E0E0"/>
<path d="M180.637 101.823C180.54 101.88 180.449 101.891 180.364 101.856C180.291 101.814 180.255 101.73 180.255 101.604C180.255 101.547 180.267 101.477 180.291 101.393L184.678 85.23C184.714 85.0682 184.781 84.9097 184.878 84.7546C184.987 84.5783 185.133 84.4369 185.315 84.3305L187.298 83.1708C187.48 83.0644 187.62 83.039 187.717 83.0947C187.814 83.1363 187.887 83.2132 187.935 83.3254L192.322 94.3594C192.334 94.4225 192.34 94.4822 192.34 94.5385C192.34 94.665 192.304 94.7916 192.231 94.9185C192.158 95.0454 192.073 95.1372 191.976 95.194L190.392 96.1197C190.223 96.219 190.095 96.2513 190.01 96.2167C189.937 96.1608 189.889 96.0978 189.865 96.0277L189.009 93.9557L183.604 97.1159L182.748 100.188C182.724 100.287 182.669 100.41 182.584 100.558C182.512 100.685 182.39 100.798 182.22 100.897L180.637 101.823ZM184.241 94.319L188.372 91.9036L186.297 86.6021L184.241 94.319ZM199.062 91.2619C198.359 91.6733 197.77 91.8768 197.297 91.8724C196.836 91.8608 196.454 91.7259 196.15 91.4675V92.2476C196.15 92.3881 196.108 92.5324 196.023 92.6804C195.95 92.8214 195.847 92.9309 195.714 93.0089L194.276 93.8495C194.154 93.9204 194.051 93.9315 193.966 93.8828C193.881 93.8341 193.839 93.7394 193.839 93.5989V79.6422C193.839 79.5017 193.881 79.3574 193.966 79.2093C194.051 79.0613 194.154 78.9518 194.276 78.8809L195.823 77.9764C195.956 77.8984 196.059 77.8873 196.132 77.9431C196.217 77.9919 196.26 78.0865 196.26 78.2271V82.9074C196.563 82.3225 196.939 81.7723 197.388 81.2568C197.849 80.7202 198.407 80.2604 199.062 79.8773C199.706 79.5014 200.264 79.3016 200.737 79.2779C201.21 79.2543 201.604 79.3821 201.92 79.6615C202.248 79.9197 202.496 80.3014 202.666 80.8064C202.836 81.3115 202.927 81.9119 202.939 82.6075C202.951 82.8534 202.957 83.0818 202.957 83.2926C202.957 83.4894 202.951 83.7178 202.939 83.9779C202.915 84.7229 202.818 85.4543 202.648 86.1721C202.478 86.8757 202.235 87.5447 201.92 88.1789C201.604 88.8131 201.21 89.395 200.737 89.9246C200.264 90.4402 199.706 90.886 199.062 91.2619ZM198.389 89.3998C198.911 89.0948 199.317 88.7306 199.608 88.3074C199.9 87.8701 200.106 87.4052 200.227 86.9126C200.361 86.4129 200.44 85.903 200.464 85.3828C200.488 84.947 200.488 84.5253 200.464 84.1178C200.44 83.6261 200.361 83.2083 200.227 82.8647C200.106 82.514 199.9 82.2973 199.608 82.2145C199.317 82.1177 198.911 82.2218 198.389 82.5269C197.904 82.8106 197.509 83.1676 197.206 83.598C196.903 84.0283 196.672 84.4863 196.514 84.9721C196.357 85.4438 196.272 85.894 196.26 86.3228C196.247 86.5829 196.241 86.8605 196.241 87.1556C196.241 87.4367 196.247 87.7002 196.26 87.9461C196.284 88.3676 196.363 88.7502 196.496 89.0938C196.642 89.4163 196.866 89.6224 197.17 89.7121C197.485 89.7947 197.892 89.6906 198.389 89.3998ZM209.169 85.3536C208.198 85.921 207.379 86.2031 206.712 86.1997C206.057 86.1892 205.553 85.9284 205.201 85.4173C204.861 84.8991 204.667 84.1763 204.619 83.249C204.607 83.0031 204.601 82.6974 204.601 82.332C204.601 81.9666 204.607 81.6538 204.619 81.3937C204.667 80.3955 204.867 79.4422 205.219 78.5338C205.583 77.6041 206.093 76.751 206.748 75.9744C207.416 75.1908 208.222 74.5223 209.169 73.969C210.115 73.4157 210.916 73.1443 211.571 73.1548C212.239 73.1582 212.748 73.4154 213.1 73.9265C213.464 74.4165 213.67 75.1321 213.719 76.0736C213.731 76.3195 213.737 76.6251 213.737 76.9906C213.737 77.356 213.731 77.6687 213.719 77.9288C213.67 78.9129 213.47 79.8663 213.118 80.7888C212.779 81.7042 212.275 82.5538 211.608 83.3375C210.953 84.114 210.14 84.7861 209.169 85.3536ZM209.169 83.2664C209.812 82.8904 210.309 82.3677 210.661 81.6982C211.013 81.0146 211.207 80.2054 211.244 79.2705C211.256 79.0526 211.262 78.775 211.262 78.4376C211.262 78.1003 211.256 77.8298 211.244 77.6261C211.207 76.7478 211.013 76.1726 210.661 75.9005C210.309 75.6283 209.812 75.6802 209.169 76.0562C208.526 76.4321 208.028 76.9619 207.676 77.6455C207.325 78.329 207.13 79.1312 207.094 80.052C207.082 80.27 207.076 80.5476 207.076 80.8849C207.076 81.2222 207.082 81.4928 207.094 81.6965C207.13 82.5888 207.325 83.171 207.676 83.4432C208.028 83.7013 208.526 83.6423 209.169 83.2664ZM219.266 79.4504C218.526 79.8831 217.883 80.0693 217.337 80.009C216.803 79.9276 216.391 79.6206 216.1 79.0881C215.808 78.5415 215.663 77.7834 215.663 76.8136V70.8894C215.663 70.7488 215.705 70.6045 215.79 70.4565C215.875 70.3084 215.978 70.1989 216.1 70.128L217.701 69.1917C217.835 69.1136 217.938 69.1025 218.011 69.1584C218.096 69.2071 218.138 69.3017 218.138 69.4423V75.24C218.138 76.9828 218.799 77.4676 220.122 76.6944C220.753 76.3256 221.25 75.8028 221.614 75.1262C221.99 74.4425 222.179 73.693 222.179 72.8778V67.0801C222.179 66.9396 222.221 66.7953 222.306 66.6472C222.391 66.4992 222.494 66.3897 222.615 66.3188L224.217 65.3824C224.338 65.3115 224.441 65.3004 224.526 65.3491C224.611 65.3979 224.654 65.4925 224.654 65.6331V75.584C224.654 75.7246 224.611 75.8689 224.526 76.0169C224.441 76.165 224.338 76.2744 224.217 76.3454L222.743 77.2072C222.609 77.2853 222.5 77.2999 222.415 77.2512C222.342 77.1954 222.306 77.0972 222.306 76.9566V76.0922C221.978 76.7757 221.572 77.3998 221.087 77.9647C220.601 78.5295 219.994 79.0247 219.266 79.4504ZM231.335 72.184C230.607 72.6096 229.994 72.8203 229.497 72.816C228.999 72.8116 228.629 72.5923 228.387 72.1579C228.144 71.7095 228.023 71.0495 228.023 70.1781V65.3924L226.585 66.233C226.463 66.3039 226.36 66.315 226.275 66.2663C226.19 66.2175 226.148 66.1229 226.148 65.9823V64.7596C226.148 64.619 226.19 64.4747 226.275 64.3267C226.36 64.1786 226.463 64.0691 226.585 63.9982L228.023 63.1576V59.6579C228.023 59.5174 228.059 59.3766 228.132 59.2357C228.217 59.0876 228.326 58.9746 228.459 58.8966L229.934 58.0347C230.055 57.9638 230.158 57.9527 230.243 58.0014C230.328 58.0501 230.37 58.1448 230.37 58.2853V61.785L232.646 60.455C232.767 60.384 232.87 60.3729 232.955 60.4217C233.04 60.4704 233.082 60.565 233.082 60.7056V61.9284C233.082 62.0689 233.04 62.2132 232.955 62.3613C232.87 62.5093 232.767 62.6188 232.646 62.6897L230.37 64.0198V68.5947C230.37 69.1709 230.455 69.5711 230.625 69.795C230.807 70.0119 231.117 69.9926 231.554 69.7373L232.809 69.0031C232.931 68.9321 233.034 68.921 233.119 68.9698C233.204 69.0185 233.246 69.1131 233.246 69.2537V70.5608C233.246 70.7014 233.204 70.8457 233.119 70.9937C233.034 71.1417 232.931 71.2512 232.809 71.3222L231.335 72.184ZM242.533 65.8487C241.792 66.2814 241.149 66.4676 240.603 66.4073C240.069 66.3259 239.657 66.0189 239.366 65.4864C239.074 64.9398 238.929 64.1817 238.929 63.2119V57.2877C238.929 57.1471 238.971 57.0028 239.056 56.8548C239.141 56.7067 239.244 56.5972 239.366 56.5263L240.967 55.59C241.101 55.5119 241.204 55.5008 241.277 55.5567C241.362 55.6054 241.404 55.7 241.404 55.8406V61.6383C241.404 63.3811 242.065 63.8659 243.388 63.0927C244.019 62.7239 244.516 62.2011 244.88 61.5245C245.257 60.8408 245.445 60.0913 245.445 59.2761V53.4784C245.445 53.3379 245.487 53.1936 245.572 53.0455C245.657 52.8975 245.76 52.788 245.881 52.7171L247.483 51.7807C247.604 51.7098 247.708 51.6987 247.793 51.7474C247.877 51.7962 247.92 51.8908 247.92 52.0313V61.9823C247.92 62.1229 247.877 62.2672 247.793 62.4152C247.708 62.5632 247.604 62.6727 247.483 62.7437L246.009 63.6055C245.875 63.6836 245.766 63.6982 245.681 63.6495C245.608 63.5937 245.572 63.4955 245.572 63.3549V62.4905C245.244 63.174 244.838 63.7981 244.353 64.363C243.867 64.9278 243.261 65.423 242.533 65.8487ZM253.91 59.1975C253.182 59.6231 252.557 59.89 252.035 59.9983C251.525 60.0994 251.107 60.0982 250.779 59.9946C250.451 59.8909 250.209 59.7376 250.051 59.5347C249.893 59.3318 249.808 59.1355 249.796 58.9458C249.784 58.7983 249.821 58.6575 249.905 58.5235C250.003 58.3684 250.106 58.2589 250.215 58.1951L251.653 57.3545C251.701 57.3261 251.744 57.3083 251.78 57.3011C251.817 57.2939 251.865 57.3076 251.926 57.3425C252.083 57.4048 252.247 57.4707 252.417 57.5401C252.599 57.6023 252.811 57.6258 253.054 57.6104C253.297 57.581 253.6 57.4598 253.964 57.247C254.437 56.9704 254.832 56.6344 255.147 56.2392C255.475 55.8228 255.639 55.4108 255.639 55.0032C255.639 54.708 255.566 54.5116 255.42 54.4141C255.287 54.3094 255.032 54.2967 254.656 54.376C254.28 54.4413 253.746 54.5918 253.054 54.8275C252.375 55.042 251.81 55.14 251.362 55.1213C250.913 55.1027 250.579 54.9464 250.36 54.6524C250.142 54.3584 250.033 53.9303 250.033 53.3681C250.033 52.82 250.172 52.2184 250.451 51.5633C250.743 50.8871 251.167 50.2242 251.726 49.5746C252.296 48.918 253 48.3449 253.837 47.8554C254.492 47.4724 255.062 47.2374 255.548 47.1504C256.033 47.0494 256.433 47.0472 256.749 47.1439C257.076 47.2335 257.325 47.3762 257.495 47.572C257.665 47.7538 257.756 47.9466 257.768 48.1503C257.78 48.2978 257.744 48.4456 257.659 48.5936C257.574 48.7276 257.477 48.8265 257.368 48.8904L256.021 49.6777C255.96 49.7132 255.906 49.7311 255.857 49.7313C255.809 49.7316 255.76 49.7248 255.711 49.7111C255.578 49.6485 255.432 49.5861 255.275 49.5237C255.117 49.4613 254.923 49.4413 254.692 49.4636C254.474 49.4648 254.183 49.5718 253.819 49.7846C253.358 50.0542 253.006 50.3793 252.763 50.7601C252.52 51.1269 252.399 51.486 252.399 51.8373C252.399 52.0763 252.454 52.2552 252.563 52.374C252.684 52.4718 252.921 52.4951 253.273 52.444C253.624 52.3929 254.158 52.2424 254.874 51.9925C255.687 51.6859 256.33 51.563 256.803 51.6236C257.289 51.6632 257.629 51.844 257.823 52.1662C258.029 52.4673 258.132 52.8778 258.132 53.3979C258.132 54.0304 257.968 54.6953 257.641 55.3929C257.325 56.0833 256.852 56.7605 256.221 57.4245C255.602 58.0674 254.832 58.6584 253.91 59.1975Z" fill="#455A64"/>
<path opacity="0.1" d="M74.7004 184.429L131.259 151.771V243.977L74.5366 276.544L74.7004 184.429Z" fill="#ADA4EE"/>
<path opacity="0.15" d="M143.725 146.276L211.956 106.886C213.332 106.067 214.413 106.689 214.413 108.221C214.362 109.068 214.113 109.892 213.686 110.626C213.26 111.36 212.667 111.984 211.956 112.447L143.717 152.28C142.349 153.099 141.26 152.444 141.26 150.863V150.576C141.306 149.717 141.553 148.88 141.981 148.133C142.409 147.386 143.007 146.75 143.725 146.276Z" fill="#ADA4EE"/>
<path opacity="0.1" d="M143.013 158.209L255.917 93.0258C256.9 92.4606 257.694 92.862 257.694 93.9186C257.651 94.5153 257.468 95.0934 257.159 95.6058C256.85 96.1182 256.424 96.5504 255.917 96.8673L143.013 162.051C142.038 162.616 141.244 162.215 141.244 161.158C141.287 160.562 141.469 159.985 141.777 159.473C142.084 158.96 142.507 158.528 143.013 158.209Z" fill="#ADA4EE"/>
<path opacity="0.1" d="M143.013 165.924L255.917 100.741C256.9 100.175 257.694 100.577 257.694 101.633C257.651 102.23 257.468 102.808 257.159 103.321C256.85 103.833 256.424 104.265 255.917 104.582L143.013 169.766C142.038 170.331 141.244 169.93 141.244 168.865C141.288 168.27 141.471 167.695 141.778 167.184C142.086 166.673 142.508 166.242 143.013 165.924Z" fill="#ADA4EE"/>
<path opacity="0.1" d="M143.013 173.633L255.917 108.449C256.9 107.884 257.694 108.286 257.694 109.35C257.65 109.946 257.466 110.522 257.157 111.033C256.848 111.544 256.423 111.975 255.917 112.291L143.013 177.458C142.038 178.023 141.244 177.622 141.244 176.557C141.292 175.966 141.476 175.394 141.784 174.886C142.091 174.379 142.511 173.95 143.013 173.633Z" fill="#ADA4EE"/>
<path opacity="0.1" d="M143.013 181.348L255.917 116.164C256.9 115.599 257.694 116.001 257.694 117.057C257.651 117.654 257.468 118.232 257.159 118.744C256.85 119.257 256.424 119.689 255.917 120.006L143.013 185.19C142.038 185.755 141.244 185.353 141.244 184.297C141.287 183.701 141.469 183.124 141.777 182.611C142.084 182.099 142.507 181.666 143.013 181.348Z" fill="#ADA4EE"/>
<path opacity="0.1" d="M143.013 189.065L221.793 143.195C222.768 142.63 223.563 143.032 223.563 144.096C223.518 144.691 223.335 145.267 223.028 145.777C222.721 146.288 222.298 146.719 221.793 147.037L143.013 192.906C142.038 193.471 141.244 193.07 141.244 192.005C141.288 191.411 141.471 190.835 141.778 190.324C142.086 189.814 142.508 189.382 143.013 189.065Z" fill="#ADA4EE"/>
<path opacity="0.1" d="M143.013 204.489L255.917 139.305C256.9 138.74 257.694 139.141 257.694 140.198C257.651 140.795 257.468 141.373 257.159 141.885C256.85 142.397 256.424 142.83 255.917 143.147L143.013 208.33C142.038 208.895 141.244 208.494 141.244 207.437C141.287 206.842 141.469 206.264 141.777 205.752C142.084 205.24 142.507 204.807 143.013 204.489Z" fill="#ADA4EE"/>
<path opacity="0.1" d="M143.013 212.203L255.917 147.02C256.9 146.455 257.694 146.856 257.694 147.913C257.651 148.509 257.468 149.088 257.159 149.6C256.85 150.112 256.424 150.545 255.917 150.861L143.013 216.045C142.038 216.61 141.244 216.209 141.244 215.144C141.288 214.55 141.471 213.974 141.778 213.463C142.086 212.952 142.508 212.521 143.013 212.203Z" fill="#ADA4EE"/>
<path opacity="0.1" d="M143.013 219.912L255.917 154.729C256.9 154.163 257.694 154.565 257.694 155.63C257.65 156.225 257.466 156.801 257.157 157.312C256.848 157.823 256.423 158.254 255.917 158.57L143.013 223.762C142.038 224.327 141.244 223.926 141.244 222.861C141.288 222.265 141.471 221.689 141.778 221.177C142.085 220.664 142.508 220.231 143.013 219.912Z" fill="#ADA4EE"/>
<path opacity="0.1" d="M143.013 227.627L184.508 203.414C185.483 202.849 186.277 203.25 186.277 204.315C186.233 204.91 186.05 205.485 185.743 205.996C185.435 206.507 185.013 206.938 184.508 207.256L143.021 231.468C142.046 232.033 141.252 231.632 141.252 230.575C141.294 229.98 141.475 229.403 141.781 228.891C142.087 228.379 142.509 227.946 143.013 227.627Z" fill="#ADA4EE"/>
<path d="M293.89 183.356C299.894 163.878 305.734 151.043 299.779 147.07C294.242 148.102 291.761 150.846 290.581 158.153C289.344 165.811 286.772 176.492 285.273 182.652C283.978 187.799 282.124 192.79 279.744 197.535C279.386 198.192 278.805 198.7 278.106 198.968C276.255 199.697 275.37 200.606 273.863 201.72C272.676 202.539 271.807 202.654 271.865 203.006C271.962 203.402 272.21 203.743 272.556 203.957C272.902 204.172 273.319 204.242 273.716 204.153C274.606 203.985 275.472 203.71 276.296 203.334C275.588 205.129 274.485 206.741 273.069 208.052C270.161 210.509 270.612 212.909 275.272 213.188C276.91 213.286 280.817 211.762 284.413 205.644C285.629 203.363 286.699 201.008 287.616 198.591C290.122 192.317 292.686 187.288 293.89 183.356Z" fill="#FFA8A7"/>
<path d="M300.82 146.84C300.82 146.84 296.2 146.603 293.399 149.691C290.597 152.779 287.337 171.225 287.337 171.225C287.337 171.225 290.401 175.435 298.477 173.682L300.82 146.84Z" fill="#ADA4EE"/>
<path opacity="0.3" d="M300.82 146.84C300.82 146.84 296.2 146.603 293.399 149.691C290.597 152.779 287.337 171.225 287.337 171.225C287.337 171.225 290.401 175.435 298.477 173.682L300.82 146.84Z" fill="black"/>
<path d="M322.452 277.699H316.252V288.757H322.452V277.699Z" fill="#FFA8A7"/>
<path d="M300.951 277.109L294.75 277.338L294.439 265.633L300.951 265.412V277.109Z" fill="#FFA8A7"/>
<path d="M323.328 181.962C323.328 188.13 322.419 237.767 322.419 237.767C322.559 239.545 324.156 242.821 323.812 249.636C323.345 258.892 322.714 283.219 322.714 283.219C321.65 283.767 320.475 284.065 319.279 284.09C318.082 284.116 316.896 283.868 315.809 283.366C315.809 283.366 309.944 249.661 308.839 240.478C307.864 232.476 306.218 205.511 306.218 205.511L302.859 236.858C303.575 240.232 303.834 243.687 303.629 247.13C303.334 251.372 301.344 273.48 301.344 273.48C300.272 274.112 299.07 274.491 297.83 274.589C296.589 274.687 295.343 274.501 294.185 274.045C294.185 274.045 290.655 240.757 290.581 236.858C290.499 232.419 292.645 181.889 292.645 181.889L323.328 181.962Z" fill="#37474F"/>
<path d="M316.251 285.577V284.651C315.654 284.922 314.277 290.385 311.82 292.744C309.863 294.595 307.192 296.741 306.512 298.814C305.833 300.886 310.231 302.164 312.058 301.828C314.179 301.435 317.865 299.878 318.782 298.429C319.7 296.979 320.142 294.857 320.896 293.801C321.649 292.744 323.353 291.565 323.779 290.336C324.008 289.664 323.779 288.19 323.427 286.945C323.075 285.7 322.829 284.545 322.452 284.651V285.356C321.583 286.077 320.485 286.466 319.356 286.453C318.447 286.478 316.243 286.29 316.251 285.577Z" fill="#263238"/>
<path d="M294.685 275.339C294.365 275.339 294.103 275.822 293.391 276.625C292.338 277.735 291.106 278.66 289.746 279.361C287.419 280.573 282.906 282.433 280.858 283.391C279.589 283.989 279.646 285.594 280.965 286.512C282.284 287.429 285.47 288.084 289.295 287.191C291.376 286.708 294.095 284.734 295.807 284.808C297.519 284.882 300.721 284.898 302.007 283.989C303.293 283.08 302.769 281.138 302.409 279.467C302.016 277.649 301.532 274.807 300.951 274.93V275.56C300.205 276.732 296.356 277.199 294.717 276.379L294.685 275.339Z" fill="#263238"/>
<path d="M306.218 205.52C302.991 204.466 300.041 202.703 297.584 200.359C297.584 200.359 299.222 203.636 304.203 206.634L303.146 234.63L306.218 205.52Z" fill="#263238"/>
<path d="M320.101 148.314C320.101 148.314 324.95 148.764 324.606 158.003L323.533 172.747V194.863C318.971 200.031 298.756 199.646 291.834 194.445C291.834 194.445 292.612 168.291 293.079 158.225C293.415 151.074 295.061 147.47 302.089 146.684L310.731 147.06L320.101 148.314Z" fill="#ADA4EE"/>
<path opacity="0.3" d="M306.316 153.164L305.202 160.929L302.614 160.88L305.538 161.347L306.316 153.164Z" fill="black"/>
<path d="M312.787 127.493C312.837 129.993 311.893 132.411 310.163 134.215C308.432 136.02 306.055 137.064 303.556 137.117C298.453 137.117 294.545 132.801 294.316 127.501C293.915 118.106 298.453 117.877 303.556 117.877C306.054 117.931 308.429 118.973 310.16 120.776C311.89 122.579 312.835 124.995 312.787 127.493Z" fill="#263238"/>
<path d="M318.021 132.252C318.021 132.252 316.604 139.181 316.038 140.32C315.673 141.015 315.049 141.538 314.302 141.778L314.4 136.904L318.021 132.252Z" fill="#263238"/>
<path d="M316.268 122.324C316.268 122.324 317.284 122.07 318.365 123.758C319.29 125.199 319.503 128.443 318.045 132.252L315.383 132.571L316.268 122.324Z" fill="#263238"/>
<path d="M314.58 132.572C315.113 132.908 315.875 131.835 316.538 131.114C317.202 130.393 319.348 129.419 320.429 131.77C321.51 134.12 319.479 137.348 317.783 137.905C314.859 138.863 314.425 136.905 314.425 136.905L314.196 147.881C310.321 153.885 301.532 153.664 304.694 147.594V144.253C303.393 144.469 302.071 144.54 300.754 144.466C298.608 144.113 297.257 142.352 296.601 139.928C295.553 136.037 295.16 132.9 296.044 125.241C297.027 116.846 306.398 116.772 311.468 120.122C316.538 123.472 314.58 132.572 314.58 132.572Z" fill="#FFA8A7"/>
<path d="M314.245 145.423C313.343 147.267 312.049 148.892 310.452 150.182C309.095 151.184 307.521 151.852 305.857 152.131C307.23 153.061 308.355 154.312 309.134 155.776C310.108 157.906 316.931 152.033 316.866 147.864C316.866 147.864 315.801 143.678 314.327 143.416L314.245 145.423Z" fill="#263238"/>
<path d="M305.857 152.13C305.857 152.13 303.752 151.089 304.694 147.592V144.25L303.768 144.373C302.69 145.424 301.924 146.754 301.557 148.214C301.344 149.173 300.82 154.022 301.745 154.98C302.671 155.938 303.965 152.392 305.857 152.13Z" fill="#263238"/>
<path d="M310.993 123.398C311.232 123.346 311.482 123.36 311.714 123.439C312.533 123.8 312.68 126.273 312.819 126.986C313.286 129.386 313.68 133.457 314.581 133.473C314.851 133.473 315.875 131.712 316.538 131.082C317.464 130.205 316.268 122.293 316.268 122.293C316.512 121.609 316.558 120.871 316.402 120.163C316.246 119.454 315.892 118.804 315.383 118.287C313.745 116.387 311.108 115.961 308.724 115.83C305.915 115.674 303.064 115.887 300.296 115.273C299.426 115.031 298.542 114.843 297.65 114.708C297.612 114.692 297.572 114.684 297.531 114.684C297.49 114.684 297.45 114.692 297.412 114.708C297.322 114.782 297.339 114.921 297.363 115.035C297.537 115.865 297.829 116.665 298.231 117.411C296.583 117.281 294.956 116.959 293.382 116.453C293.292 116.424 293.195 116.424 293.104 116.453C292.915 116.51 292.883 116.756 292.899 116.952C293.006 118.934 293.948 121.932 295.561 123.095C296.992 124.032 298.652 124.556 300.361 124.611C304.702 124.775 307.373 123.857 310.993 123.398Z" fill="#263238"/>
<path d="M316.268 122.743L319.503 120.932C319.404 120.71 319.26 120.51 319.08 120.346C318.899 120.182 318.687 120.058 318.455 119.981C318.224 119.903 317.979 119.875 317.737 119.898C317.494 119.921 317.259 119.994 317.046 120.113C316.616 120.379 316.298 120.794 316.155 121.279C316.011 121.764 316.051 122.285 316.268 122.743Z" fill="#263238"/>
<path d="M304.702 144.251C304.702 144.251 309.494 143.243 311.173 142.318C312.168 141.77 312.975 140.937 313.491 139.926C313.241 140.943 312.793 141.9 312.172 142.743C310.952 144.382 304.702 145.578 304.702 145.578V144.251Z" fill="#F28F8F"/>
<path d="M305.857 131.326C305.875 131.51 305.945 131.686 306.061 131.831C306.176 131.977 306.331 132.085 306.507 132.144C306.683 132.203 306.872 132.21 307.052 132.163C307.231 132.117 307.393 132.019 307.519 131.882C307.644 131.745 307.727 131.575 307.757 131.392C307.787 131.209 307.763 131.021 307.689 130.851C307.615 130.681 307.492 130.537 307.337 130.435C307.182 130.333 307.001 130.278 306.816 130.277C306.683 130.281 306.553 130.312 306.433 130.367C306.312 130.423 306.204 130.502 306.115 130.599C306.026 130.697 305.957 130.812 305.913 130.936C305.868 131.061 305.849 131.194 305.857 131.326Z" fill="#263238"/>
<path d="M307.372 127.181L309.428 128.36C309.577 128.077 309.617 127.748 309.54 127.437C309.463 127.127 309.274 126.855 309.011 126.673C308.873 126.585 308.718 126.528 308.556 126.506C308.394 126.484 308.23 126.498 308.074 126.546C307.918 126.595 307.774 126.677 307.653 126.786C307.532 126.896 307.436 127.03 307.372 127.181Z" fill="#263238"/>
<path d="M305.136 138.238L302.941 139.057C302.985 139.208 303.059 139.348 303.158 139.47C303.258 139.591 303.382 139.69 303.521 139.761C303.661 139.833 303.814 139.875 303.971 139.885C304.127 139.895 304.284 139.872 304.432 139.819C304.724 139.689 304.957 139.456 305.087 139.164C305.217 138.872 305.235 138.542 305.136 138.238Z" fill="#F28F8F"/>
<path d="M297.036 128.058L298.911 126.55C298.827 126.418 298.715 126.306 298.584 126.22C298.452 126.135 298.304 126.078 298.149 126.054C297.995 126.03 297.836 126.039 297.685 126.081C297.534 126.123 297.394 126.196 297.273 126.297C297.023 126.509 296.86 126.806 296.816 127.131C296.772 127.457 296.85 127.787 297.036 128.058Z" fill="#263238"/>
<path d="M297.863 131.039C297.857 131.17 297.878 131.3 297.923 131.423C297.968 131.546 298.038 131.659 298.127 131.755C298.216 131.851 298.323 131.928 298.442 131.982C298.561 132.036 298.69 132.067 298.821 132.071C299.097 132.071 299.362 131.961 299.557 131.766C299.752 131.571 299.861 131.306 299.861 131.03C299.861 130.755 299.752 130.49 299.557 130.295C299.362 130.1 299.097 129.99 298.821 129.99C298.556 130.005 298.307 130.123 298.128 130.319C297.949 130.515 297.854 130.773 297.863 131.039Z" fill="#263238"/>
<path d="M303.007 130.236L302.892 136.306L299.444 135.511L303.007 130.236Z" fill="#F28F8F"/>
<path d="M329.537 136.34C330.921 134.505 333.723 138.576 335.017 141.386C336.311 144.195 336.336 145.784 335.271 146.898C334.206 148.012 332.199 147.34 330.192 144.678C328.186 142.016 328.743 137.691 329.537 136.34Z" fill="#ADA4EE"/>
<path opacity="0.5" d="M329.537 136.34C330.921 134.505 333.723 138.576 335.017 141.386C336.311 144.195 336.336 145.784 335.271 146.898C334.206 148.012 332.199 147.34 330.192 144.678C328.186 142.016 328.743 137.691 329.537 136.34Z" fill="black"/>
<path d="M339.317 136.881C334.403 148.348 327.563 154.811 324.492 162.191C320.47 161.921 317.333 152.198 320.331 148.045C320.331 148.045 332.109 135.292 333.174 130.279C334.124 125.831 335.394 118.492 335.287 114.716C335.245 114.101 334.987 113.521 334.558 113.078C333.321 111.743 333.321 110.678 332.527 109.212C331.913 108.065 331.233 107.639 331.429 107.377C331.684 107.105 332.032 106.938 332.404 106.911C332.776 106.884 333.144 106.997 333.436 107.23C334.004 107.645 334.514 108.136 334.951 108.688C335.103 107.215 334.863 105.729 334.255 104.379C332.887 101.283 333.223 99.7104 337.392 100.808C340.013 101.504 341.652 103.683 342.045 109.966C342.227 112.58 342.243 115.204 342.094 117.821C341.635 122.661 341.349 127.707 340.751 131.745C340.493 133.511 340.011 135.237 339.317 136.881Z" fill="#FFA8A7"/>
<path d="M319.102 148.184L329.488 136.307C329.488 136.307 328.251 139.198 330.954 143.416C333.657 147.635 335.263 146.898 335.263 146.898C335.263 146.898 329.128 155.85 327.489 158.848C325.851 161.846 324.139 164.377 324.139 164.377C323.958 164.727 323.676 165.014 323.33 165.202C322.985 165.391 322.59 165.471 322.198 165.434C320.675 165.434 316.636 158.668 319.102 148.184Z" fill="#ADA4EE"/>
<path opacity="0.3" d="M319.102 148.184L329.488 136.307C329.488 136.307 328.251 139.198 330.954 143.416C333.657 147.635 335.263 146.898 335.263 146.898C335.263 146.898 329.128 155.85 327.489 158.848C325.851 161.846 324.139 164.377 324.139 164.377C323.958 164.727 323.676 165.014 323.33 165.202C322.985 165.391 322.59 165.471 322.198 165.434C320.675 165.434 316.636 158.668 319.102 148.184Z" fill="black"/>
<path d="M234.817 174.877L239.707 181.389L234.448 187.409L227.675 179.488L234.817 174.877Z" fill="#F28F8F"/>
<path d="M218.804 160.068C223.071 160.265 225.103 160.887 227.339 163.558C229.575 166.228 240.747 182.372 240.747 182.372C240.747 182.372 238.773 187.909 234.448 187.434L226.593 179.333L218.804 160.068Z" fill="#455A64"/>
<path d="M197.868 295.316C197.564 297.015 197.4 298.735 197.376 300.46C197.319 303.573 196.746 304.687 196.672 307.242C196.582 310.167 197.09 311.264 198.31 312.902C199.53 314.541 202.61 316.039 203.929 313.263C205.248 310.486 205.076 308.668 204.65 305.793C204.224 302.918 204.158 301.189 203.913 298.929C203.683 296.93 203.421 295.415 203.421 295.415L197.868 295.316Z" fill="#263238"/>
<path d="M206.722 270.833L196.443 270.645C196.598 277.509 197.688 288.927 197.868 295.357C197.868 296.569 197.868 304.768 198.294 307.266C198.982 311.01 203.421 310.502 203.659 308.266C203.896 306.029 203.372 296.446 203.388 295.455C203.347 291.359 205.281 280.564 206.296 273.151C206.345 272.75 206.673 271.144 206.722 270.833Z" fill="#FFBDA7"/>
<path d="M221.818 289.984C221.818 289.984 221.294 289.984 221.204 290.443C221.114 290.902 221.081 291.77 220.868 292.622C220.519 293.957 220.397 295.342 220.508 296.717C220.68 297.676 222.866 299.101 224.365 299.355C225.864 299.609 227.969 301.083 229.141 302.189C231.022 303.741 233.349 304.654 235.784 304.794C238.241 304.794 240.018 303.975 240.837 302.631C241.657 301.288 240.092 301.132 237.242 299.281L235.022 297.839C230.509 294.891 228.854 293.31 227.576 290.361L221.818 289.984Z" fill="#263238"/>
<path d="M227.609 288.378C227.535 286.248 228.617 270.604 228.617 270.604L219.778 271.603C221.875 284.069 222.039 288.321 221.802 290.139C221.757 290.307 221.738 290.481 221.744 290.655C221.744 293.112 224.488 294.39 226.659 296.004C227.478 296.643 229.665 298.608 232.204 299.468C233.842 300.034 236.881 300.287 237.266 299.247C234.678 297.265 231.139 294.677 229.075 292.408C228.06 291.31 227.683 290.491 227.609 288.378Z" fill="#FFBDA7"/>
<path d="M198.826 199.868C194.01 210.402 199.006 247.49 199.006 247.49C198.859 249.202 196.901 252.56 196.18 260.088C195.32 268.967 197.761 292.761 197.761 292.761C198.622 293.284 199.605 293.57 200.612 293.591C201.618 293.613 202.613 293.369 203.495 292.884C203.495 292.884 209.712 257.925 210.867 249.096C211.841 241.38 213.709 224.424 213.709 224.424L219.017 249.046C218.238 251.533 217.674 254.081 217.329 256.664C216.83 261.857 221.892 287.945 221.892 287.945C222.804 288.322 223.784 288.506 224.771 288.486C225.757 288.467 226.729 288.243 227.625 287.831C227.625 287.831 229.862 254.133 230.337 247.875C231.156 237.358 228.33 204.553 226.405 198.328L198.826 199.868Z" fill="#ADA4EE"/>
<path opacity="0.5" d="M198.826 199.868C194.01 210.402 199.006 247.49 199.006 247.49C198.859 249.202 196.901 252.56 196.18 260.088C195.32 268.967 197.761 292.761 197.761 292.761C198.622 293.284 199.605 293.57 200.612 293.591C201.618 293.613 202.613 293.369 203.495 292.884C203.495 292.884 209.712 257.925 210.867 249.096C211.841 241.38 213.709 224.424 213.709 224.424L219.017 249.046C218.238 251.533 217.674 254.081 217.329 256.664C216.83 261.857 221.892 287.945 221.892 287.945C222.804 288.322 223.784 288.506 224.771 288.486C225.757 288.467 226.729 288.243 227.625 287.831C227.625 287.831 229.862 254.133 230.337 247.875C231.156 237.358 228.33 204.553 226.405 198.328L198.826 199.868Z" fill="black"/>
<path opacity="0.2" d="M213.693 224.425L215.257 214.645C215.257 214.645 221.875 213.277 224.881 210.451C222.808 212.882 220.096 214.684 217.051 215.652L215.29 223.188L218.37 245.983L213.693 224.425Z" fill="black"/>
<path d="M201.3 167.161L207.852 168.865V154.997C204.232 154.056 201.3 156.144 201.3 159.666V167.161Z" fill="#ADA4EE"/>
<path opacity="0.6" d="M201.3 167.161L207.852 168.865V154.997C204.232 154.056 201.3 156.144 201.3 159.666V167.161Z" fill="black"/>
<path d="M214.274 156.98L211.923 156.931C204.748 156.759 199.064 150.575 199.219 143.105C199.219 134.963 205.526 128.361 213.34 128.287C221.155 128.246 227.527 134.84 227.568 142.949V143.768C227.372 151.247 221.433 157.136 214.274 156.98Z" fill="#ADA4EE"/>
<path opacity="0.6" d="M214.274 156.98L211.923 156.931C204.748 156.759 199.064 150.575 199.219 143.105C199.219 134.963 205.526 128.361 213.34 128.287C221.155 128.246 227.527 134.84 227.568 142.949V143.768C227.372 151.247 221.433 157.136 214.274 156.98Z" fill="black"/>
<path d="M203.29 131.686C203.233 131.449 203.128 131.225 202.98 131.03C202.833 130.835 202.647 130.673 202.434 130.553C202.221 130.433 201.986 130.358 201.743 130.333C201.5 130.309 201.254 130.334 201.021 130.408L201.652 132.866C201.521 132.7 201.36 132.561 201.177 132.456C200.964 132.336 200.729 132.262 200.486 132.238C200.243 132.215 199.998 132.242 199.766 132.32C199.535 132.397 199.322 132.522 199.141 132.686C198.961 132.851 198.817 133.052 198.72 133.275L201.914 135.151C202.08 134.831 202.154 134.471 202.127 134.111C202.584 133.919 202.955 133.567 203.17 133.12C203.384 132.673 203.427 132.163 203.29 131.686Z" fill="#ADA4EE"/>
<path opacity="0.6" d="M203.29 131.686C203.233 131.449 203.128 131.225 202.98 131.03C202.833 130.835 202.647 130.673 202.434 130.553C202.221 130.433 201.986 130.358 201.743 130.333C201.5 130.309 201.254 130.334 201.021 130.408L201.652 132.866C201.521 132.7 201.36 132.561 201.177 132.456C200.964 132.336 200.729 132.262 200.486 132.238C200.243 132.215 199.998 132.242 199.766 132.32C199.535 132.397 199.322 132.522 199.141 132.686C198.961 132.851 198.817 133.052 198.72 133.275L201.914 135.151C202.08 134.831 202.154 134.471 202.127 134.111C202.584 133.919 202.955 133.567 203.17 133.12C203.384 132.673 203.427 132.163 203.29 131.686Z" fill="black"/>
<path d="M207.164 160.632C204.959 160.931 202.771 161.352 200.612 161.893C203.151 168.118 199.17 177.734 199.17 177.734L202.93 189.308C200.333 194.624 198.195 197.261 197.311 201.594C199.702 206.263 216.584 210.719 227.576 202.209C227.576 202.209 227.224 190.389 225.823 183.501C229.419 176.481 228.838 174.417 228.1 171.968C226.389 166.275 222.932 164.088 218.812 160.075L216.355 159.812L207.164 160.632Z" fill="#37474F"/>
<path d="M203.347 193.946C205.387 191.857 209.712 191.259 209.712 191.259L205.739 188.999L201.3 178.277C203.163 174.627 204.083 170.57 203.978 166.474L201.423 165.859C201.734 171.536 199.162 177.744 199.162 177.744L202.922 189.318C200.325 194.634 198.187 197.272 197.303 201.605C198.941 204.799 207.369 207.895 216.052 206.798C204.42 206.011 201.39 195.969 203.347 193.946Z" fill="#263238"/>
<path d="M215.101 206.887L215.577 206.838C215.417 206.841 215.258 206.857 215.101 206.887Z" fill="#E6E6E6"/>
<path d="M222.293 135.545C223.702 136.839 225.463 139.64 225.324 147.831C225.201 154.794 223.047 156.522 221.957 157.022C220.868 157.521 218.779 157.235 216.74 156.891V159.774C216.74 159.774 219.426 162.755 219.262 164.688C219.099 166.621 215.429 167.399 212.783 165.507C210.919 164.096 209.265 162.427 207.869 160.552V151.796C207.869 151.796 206.673 153.016 204.592 151.181C202.954 149.658 202.332 147.086 203.634 145.693C203.968 145.364 204.379 145.121 204.829 144.987C205.279 144.853 205.755 144.832 206.215 144.925C206.675 145.018 207.106 145.222 207.468 145.521C207.831 145.819 208.115 146.202 208.295 146.635C211.416 146.309 214.456 145.433 217.272 144.047C218.856 143.285 220.178 142.071 221.072 140.558C221.966 139.044 222.391 137.3 222.293 135.545Z" fill="#FFBDA7"/>
<path d="M216.731 146.267C216.731 146.426 216.684 146.581 216.597 146.714C216.509 146.847 216.385 146.952 216.239 147.015C216.093 147.078 215.932 147.098 215.775 147.071C215.618 147.045 215.473 146.973 215.356 146.865C215.239 146.757 215.156 146.617 215.118 146.463C215.079 146.308 215.086 146.146 215.138 145.996C215.19 145.846 215.285 145.714 215.411 145.616C215.537 145.519 215.688 145.46 215.847 145.447C216.072 145.443 216.289 145.526 216.454 145.678C216.619 145.831 216.719 146.042 216.731 146.267Z" fill="#263238"/>
<path d="M217.051 152.064L219.238 152.777C219.203 152.926 219.138 153.067 219.047 153.19C218.955 153.313 218.839 153.417 218.707 153.493C218.574 153.57 218.427 153.619 218.274 153.637C218.122 153.654 217.968 153.64 217.821 153.596C217.523 153.485 217.278 153.265 217.136 152.981C216.993 152.697 216.963 152.37 217.051 152.064Z" fill="#F79776"/>
<path d="M224.644 143.13L222.654 142.45C222.685 142.317 222.744 142.192 222.827 142.084C222.909 141.975 223.014 141.885 223.133 141.819C223.253 141.754 223.385 141.714 223.521 141.703C223.657 141.691 223.794 141.709 223.923 141.754C224.192 141.854 224.414 142.05 224.547 142.304C224.68 142.558 224.715 142.852 224.644 143.13Z" fill="#263238"/>
<path d="M208.303 145.857V148.798C208.492 148.806 208.68 148.775 208.856 148.707C209.032 148.64 209.193 148.537 209.328 148.405C209.463 148.273 209.57 148.115 209.641 147.94C209.713 147.765 209.748 147.578 209.745 147.389C209.747 146.997 209.599 146.62 209.331 146.335C209.062 146.049 208.694 145.878 208.303 145.857Z" fill="#ADA4EE"/>
<path opacity="0.6" d="M208.303 145.857V148.798C208.492 148.806 208.68 148.775 208.856 148.707C209.032 148.64 209.193 148.537 209.328 148.405C209.463 148.273 209.57 148.115 209.641 147.94C209.713 147.765 209.748 147.578 209.745 147.389C209.747 146.997 209.599 146.62 209.331 146.335C209.062 146.049 208.694 145.878 208.303 145.857Z" fill="black"/>
<path d="M223.923 145.981C223.941 146.216 223.865 146.45 223.712 146.629C223.558 146.809 223.34 146.92 223.104 146.939C222.924 146.957 222.742 146.92 222.582 146.834C222.423 146.747 222.293 146.615 222.209 146.454C222.125 146.294 222.092 146.112 222.112 145.931C222.133 145.751 222.207 145.581 222.324 145.443C222.442 145.306 222.598 145.206 222.773 145.158C222.948 145.11 223.133 145.115 223.305 145.172C223.477 145.23 223.628 145.338 223.738 145.482C223.848 145.626 223.912 145.8 223.923 145.981Z" fill="#263238"/>
<path d="M219.254 144.791L219.238 150.492L221.892 149.615L219.254 144.791Z" fill="#F79776"/>
<path d="M216.74 156.923C214.585 156.644 210.187 155.342 209.458 153.523C209.735 154.436 210.28 155.243 211.022 155.841C212.349 157.013 216.756 158.299 216.756 158.299L216.74 156.923Z" fill="#F79776"/>
<path d="M190.529 189.744C190.529 189.744 195.787 197.214 196.688 198.189C197.589 199.164 198.212 198.836 199.186 198.402C200.375 197.922 201.596 197.525 202.84 197.214C204.478 196.813 204.789 198.295 203.2 199.352C202.053 200.122 200.743 200.45 201.283 201.08C202.404 202.095 203.704 202.892 205.117 203.431C208.999 204.963 208.696 205.733 207.984 206.986C207.361 208.084 205.526 210.443 198.613 207.658C195.746 206.503 191.716 203.235 189.816 201.105C187.072 198.066 182.788 192.619 182.788 192.619L190.529 189.744Z" fill="#FFBDA7"/>
<path d="M201.619 161.625C199.719 161.748 196.139 162.207 191.651 169.66C187.711 176.213 181.609 185.067 180.478 188.237C180.02 189.523 181.805 192.185 184.107 194.913C187.244 194.774 190.103 192.603 191.585 190.867C191.196 189.943 190.713 189.062 190.144 188.237L199.35 177.737C199.35 177.737 202.848 174.534 203.577 170.365C204.363 165.843 204.117 162.288 201.619 161.625Z" fill="#455A64"/>
<path d="M253.165 175.762L230.468 181.741L224.218 207.42L245.801 201.154L253.165 175.762Z" fill="#ADA4EE"/>
<path opacity="0.25" d="M253.165 175.762L230.468 181.741L224.218 207.42L245.801 201.154L253.165 175.762Z" fill="black"/>
<g opacity="0.1">
<path d="M242.91 193.945C243.29 194.738 243.895 195.402 244.649 195.853C245.404 196.305 246.274 196.524 247.153 196.485L247.316 195.919L242.91 193.945Z" fill="black"/>
</g>
<g opacity="0.1">
<path d="M246.325 179.841L246.514 178.973C246.62 178.498 245.285 178.473 243.541 178.973L240.19 179.792C238.446 180.251 236.914 181.004 236.84 181.479L236.66 182.348L246.325 179.841Z" fill="black"/>
</g>
<path d="M248.07 176.589C248.136 176.286 247.595 176.204 246.866 176.409L245.539 176.777C245.539 176.777 245.932 174.902 243 175.557C242.213 175.673 241.469 175.99 240.84 176.478C240.212 176.966 239.72 177.608 239.412 178.342L238.003 178.743C237.184 178.964 236.513 179.382 236.422 179.677L236.25 180.218L247.947 177.138L248.07 176.589Z" fill="#37474F"/>
<path d="M246.456 177.507C245.392 177.769 244.941 177.908 244.818 178.645C244.695 179.383 244.556 180.103 244.556 180.103L239.388 181.471C239.388 181.471 239.642 180.406 239.723 179.997C239.805 179.587 239.625 179.325 238.798 179.546L238.732 179.219L246.841 177.146L246.456 177.507Z" fill="#37474F"/>
<path d="M246.637 179.915L246.825 179.047C246.931 178.572 245.596 178.548 243.852 179.047L240.502 179.866C238.757 180.325 237.225 181.079 237.151 181.554L236.971 182.422L246.637 179.915Z" fill="#37474F"/>
<path d="M250.773 184.01C250.773 184.01 249.954 186.918 249.733 187.606C249.512 188.294 246.989 189.547 245.326 190.006C243.663 190.465 241.829 191.005 242.623 193.34C243.344 195.494 246.096 195.986 247.488 195.92C248.881 195.854 250.806 194.528 251.584 192.373C252.542 189.621 252.026 186.689 252.403 185.083C252.78 183.478 251.609 183.052 250.773 184.01Z" fill="#FFBDA7"/>
<path d="M164.793 184.691C161.68 181.553 160.566 182.774 160.173 186.214C160.027 187.657 159.677 189.072 159.133 190.416C159.036 189.702 158.84 189.004 158.551 188.344C158.414 187.987 158.147 187.694 157.804 187.526C157.461 187.357 157.066 187.324 156.7 187.435C156.397 187.557 156.774 188.254 156.7 189.622C156.643 191.325 156.086 192.267 156.487 194.077C156.627 194.758 156.519 195.467 156.184 196.076C154.546 199.189 149.148 204.939 145.364 209.083L130.989 196.101C126.074 191.677 124.485 189.687 119.742 190.007C121.226 190.569 122.593 191.402 123.772 192.464C125.976 194.323 125.452 204.963 125.452 204.963C125.452 204.963 141.768 216.66 143.472 217.774C143.717 217.938 143.971 218.085 144.217 218.224C145.022 218.644 145.946 218.78 146.838 218.609C147.73 218.438 148.538 217.97 149.132 217.282C152.613 213.302 157.691 205.463 160.599 201.392C161.928 199.421 163.114 197.357 164.146 195.216C167.062 189.425 166.742 186.656 164.793 184.691Z" fill="#914F4E"/>
<path d="M120.25 189.744C121.396 189.535 122.573 189.573 123.703 189.856C124.833 190.138 125.89 190.659 126.803 191.382C129.604 193.512 141.547 204.487 141.547 204.487C141.547 204.487 141.874 210.295 135.813 213.751L121.176 203.431L120.25 189.744Z" fill="#ADA4EE"/>
<path opacity="0.3" d="M120.25 189.744C121.396 189.535 122.573 189.573 123.703 189.856C124.833 190.138 125.89 190.659 126.803 191.382C129.604 193.512 141.547 204.487 141.547 204.487C141.547 204.487 141.874 210.295 135.813 213.751L121.176 203.431L120.25 189.744Z" fill="black"/>
<path d="M106.121 320.766H99.9203V331.823H106.121V320.766Z" fill="#914F4E"/>
<path d="M121.422 320.176L127.622 320.397L127.933 308.692L121.422 308.471V320.176Z" fill="#914F4E"/>
<path d="M99.0439 225.023C99.0439 231.191 99.9531 280.836 99.9531 280.836C99.8139 282.606 98.2167 285.882 98.5607 292.697C99.0276 301.961 99.6583 326.28 99.6583 326.28C100.723 326.825 101.898 327.121 103.095 327.145C104.291 327.169 105.477 326.921 106.563 326.419C106.563 326.419 112.428 292.713 113.542 283.539C114.508 275.529 116.155 248.564 116.155 248.564L119.513 279.919C118.797 283.29 118.539 286.742 118.743 290.182C119.038 294.425 121.028 316.533 121.028 316.533C122.101 317.167 123.304 317.548 124.546 317.648C125.788 317.747 127.036 317.562 128.196 317.106C128.196 317.106 131.718 283.81 131.791 279.919C131.873 275.48 129.727 224.941 129.727 224.941L99.0439 225.023Z" fill="#37474F"/>
<path d="M106.121 328.629V327.711C106.719 327.982 108.095 333.445 110.552 335.796C112.51 337.655 115.18 339.801 115.86 341.874C116.54 343.946 112.141 345.215 110.315 344.88C108.193 344.486 104.507 342.93 103.59 341.489C102.673 340.047 102.23 337.909 101.477 336.853C100.723 335.796 99.0194 334.616 98.5934 333.388C98.4717 332.245 98.5917 331.09 98.9456 329.997C99.2323 328.858 99.5436 327.605 99.9204 327.711V328.416C100.795 329.132 101.894 329.518 103.025 329.505C103.926 329.538 106.129 329.35 106.121 328.629Z" fill="#263238"/>
<path d="M127.688 318.408C128.007 318.408 128.269 318.891 128.982 319.694C130.035 320.801 131.267 321.724 132.627 322.421C134.953 323.634 139.466 325.501 141.514 326.46C142.792 327.058 142.726 328.663 141.407 329.572C140.089 330.481 136.902 331.145 133.077 330.26C130.997 329.769 128.277 327.803 126.525 327.877C124.772 327.95 121.61 327.959 120.324 327.058C119.038 326.157 119.562 324.199 119.923 322.536C120.316 320.71 120.807 317.867 121.381 317.99V318.621C122.126 319.8 125.976 320.259 127.614 319.44L127.688 318.408Z" fill="#263238"/>
<path d="M116.155 248.578C119.382 247.524 122.332 245.761 124.788 243.418C124.788 243.418 123.15 246.694 118.17 249.692L119.226 277.697L116.155 248.578Z" fill="#263238"/>
<path d="M102.271 191.382C102.271 191.382 97.4221 191.824 97.7662 201.072L98.8392 215.816L98.7409 237.931C103.295 243.1 123.518 242.723 130.44 237.513C130.44 237.513 129.727 211.36 129.26 201.293C128.925 194.142 127.278 190.538 120.25 189.752L111.601 190.129L102.271 191.382Z" fill="#ADA4EE"/>
<path opacity="0.3" d="M116.057 196.232L117.171 203.997L119.767 203.948L116.835 204.407L116.057 196.232Z" fill="black"/>
<path d="M86.8804 223.13C89.395 202.898 95.186 192.823 102.238 191.66L101.739 204.602C98.8023 211.504 96.5526 218.678 95.0222 226.021C94.0966 231.001 93.0236 239.659 93.3021 243.91C93.3577 244.659 93.677 245.364 94.2031 245.901C95.5955 247.318 96.0133 248.546 96.947 250.143C97.6842 251.397 98.4378 251.839 98.2412 252.142C97.9878 252.461 97.6203 252.668 97.2165 252.72C96.8128 252.772 96.4046 252.665 96.0788 252.421C95.3396 251.897 94.6635 251.289 94.0638 250.61C93.9741 252.539 94.3213 254.462 95.0795 256.238C96.7177 259.645 96.4556 261.439 91.885 260.431C89.0182 259.809 86.9705 256.786 86.1514 249.734C85.9359 247.102 85.8894 244.459 86.0121 241.821C86.3234 235.08 86.3807 227.176 86.8804 223.13Z" fill="#914F4E"/>
<path d="M102.64 191.326C98.9784 191.326 95.6365 191.957 92.9744 197.06C90.427 201.974 88.4694 212.369 87.4783 215.768C87.4783 215.768 92.827 218.93 97.7497 218.848L101.215 206.823C101.215 206.823 103.557 201.213 102.64 191.326Z" fill="#ADA4EE"/>
<path opacity="0.3" d="M102.64 191.326C98.9784 191.326 95.6365 191.957 92.9744 197.06C90.427 201.974 88.4694 212.369 87.4783 215.768C87.4783 215.768 92.827 218.93 97.7497 218.848L101.215 206.823C101.215 206.823 103.557 201.213 102.64 191.326Z" fill="black"/>
<path d="M110.2 170.503C110.274 172.313 110.878 174.061 111.938 175.53C112.997 176.999 114.465 178.125 116.159 178.766C117.853 179.408 119.698 179.538 121.465 179.139C123.232 178.74 124.843 177.831 126.097 176.525C127.351 175.218 128.194 173.571 128.52 171.789C128.846 170.008 128.641 168.169 127.931 166.503C127.221 164.837 126.036 163.416 124.525 162.418C123.014 161.419 121.243 160.887 119.431 160.887C116.933 160.94 114.558 161.983 112.827 163.786C111.097 165.589 110.152 168.004 110.2 170.503Z" fill="#263238"/>
<path d="M104.327 175.312C104.327 175.312 105.744 182.242 106.309 183.381C106.678 184.078 107.304 184.604 108.054 184.847L107.947 179.932L104.327 175.312Z" fill="#263238"/>
<path d="M106.105 165.384C106.105 165.384 105.056 165.171 104.008 166.809C103.082 168.251 102.877 171.495 104.327 175.303L106.989 175.623L106.105 165.384Z" fill="#263238"/>
<path d="M107.792 175.631C107.259 175.967 106.498 174.894 105.834 174.181C105.171 173.468 103.025 172.477 101.952 174.836C100.879 177.195 102.894 180.414 104.589 180.963C107.513 181.922 107.947 179.964 107.947 179.964L108.177 190.948C112.051 196.944 120.84 196.731 117.678 190.653V187.287C118.98 187.503 120.301 187.574 121.618 187.5C123.764 187.156 125.116 185.386 125.771 182.962C126.819 179.071 127.213 175.934 126.328 168.284C125.353 159.896 115.991 159.806 110.929 163.123C105.867 166.441 107.792 175.631 107.792 175.631Z" fill="#914F4E"/>
<path d="M108.128 188.483C109.029 190.328 110.323 191.952 111.92 193.242C113.278 194.244 114.852 194.914 116.515 195.2C115.144 196.128 114.02 197.377 113.239 198.837C112.272 200.975 105.441 195.102 105.507 190.932C105.507 190.932 106.58 186.747 108.046 186.477L108.128 188.483Z" fill="#263238"/>
<path d="M116.523 195.2C116.523 195.2 118.628 194.151 117.687 190.654V187.287L118.612 187.41C119.691 188.461 120.456 189.791 120.824 191.252C121.037 192.21 121.561 197.059 120.635 198.017C119.71 198.976 118.407 195.478 116.523 195.2Z" fill="#263238"/>
<path d="M107.792 176.572C107.522 176.572 106.498 174.811 105.834 174.18C104.909 173.304 106.105 165.383 106.105 165.383C105.863 164.699 105.818 163.962 105.975 163.254C106.131 162.546 106.482 161.896 106.989 161.378C108.259 159.928 110.372 159.739 113.976 159.182C115.415 159.005 116.843 158.746 118.252 158.404C119.74 157.848 121.171 157.151 122.527 156.324C122.954 156.047 123.465 155.931 123.969 155.996C124.202 156.074 124.41 156.213 124.572 156.397C124.734 156.581 124.846 156.804 124.895 157.045C124.977 157.524 124.977 158.015 124.895 158.494C125.35 158.071 125.955 157.845 126.577 157.866C127.199 157.888 127.787 158.155 128.212 158.609C128.614 159.088 128.876 159.669 128.969 160.288C129.061 160.907 128.981 161.539 128.736 162.115C128.213 163.261 127.357 164.223 126.279 164.875C121.749 167.939 116.401 167.087 111.322 166.513C111.082 166.46 110.832 166.477 110.601 166.562C109.782 166.923 109.635 169.388 109.496 170.101C109.086 172.476 108.693 176.555 107.792 176.572Z" fill="#263238"/>
<path d="M106.105 165.801L102.877 163.991C102.975 163.767 103.119 163.566 103.299 163.402C103.479 163.237 103.692 163.112 103.924 163.035C104.156 162.958 104.401 162.93 104.644 162.953C104.887 162.977 105.122 163.051 105.335 163.171C105.764 163.438 106.079 163.854 106.221 164.339C106.363 164.824 106.322 165.344 106.105 165.801Z" fill="#263238"/>
<path d="M117.67 187.288C117.67 187.288 112.878 186.28 111.199 185.355C110.203 184.81 109.394 183.976 108.881 182.963C109.131 183.98 109.579 184.937 110.2 185.781C111.42 187.419 117.67 188.623 117.67 188.623V187.288Z" fill="#783736"/>
<path d="M115.934 174.099C115.939 174.231 115.919 174.362 115.873 174.485C115.828 174.608 115.759 174.722 115.67 174.818C115.581 174.915 115.474 174.993 115.355 175.048C115.236 175.103 115.107 175.134 114.975 175.14C114.71 175.125 114.462 175.007 114.282 174.811C114.103 174.615 114.008 174.356 114.017 174.091C114.017 173.837 114.118 173.593 114.298 173.414C114.477 173.234 114.721 173.133 114.975 173.133C115.229 173.133 115.473 173.234 115.653 173.414C115.833 173.593 115.934 173.837 115.934 174.091V174.099Z" fill="#263238"/>
<path d="M114.287 169.938L112.231 171.118C112.083 170.826 112.05 170.489 112.138 170.174C112.226 169.859 112.429 169.588 112.706 169.414C112.843 169.338 112.994 169.291 113.15 169.276C113.306 169.262 113.463 169.28 113.612 169.329C113.761 169.378 113.897 169.458 114.014 169.563C114.13 169.668 114.223 169.796 114.287 169.938Z" fill="#263238"/>
<path d="M117.236 181.299L119.431 182.159C119.388 182.31 119.314 182.45 119.214 182.571C119.114 182.692 118.99 182.79 118.85 182.861C118.71 182.932 118.557 182.973 118.401 182.982C118.244 182.991 118.087 182.967 117.94 182.912C117.641 182.782 117.402 182.543 117.272 182.244C117.141 181.945 117.128 181.607 117.236 181.299Z" fill="#783736"/>
<path d="M125.533 171.085L123.371 170.036C123.424 169.89 123.507 169.756 123.616 169.644C123.724 169.532 123.855 169.444 123.999 169.386C124.144 169.328 124.299 169.301 124.455 169.308C124.611 169.314 124.763 169.353 124.903 169.422C125.195 169.572 125.421 169.825 125.538 170.132C125.654 170.439 125.653 170.779 125.533 171.085Z" fill="#263238"/>
<path d="M124.116 174.098C124.129 174.232 124.113 174.367 124.07 174.495C124.028 174.622 123.959 174.739 123.868 174.839C123.778 174.938 123.667 175.017 123.544 175.072C123.421 175.126 123.288 175.154 123.154 175.154C123.02 175.154 122.887 175.126 122.764 175.072C122.641 175.017 122.53 174.938 122.44 174.839C122.349 174.739 122.28 174.622 122.238 174.495C122.195 174.367 122.179 174.232 122.192 174.098C122.186 173.968 122.207 173.837 122.252 173.714C122.297 173.591 122.366 173.479 122.456 173.383C122.545 173.287 122.652 173.209 122.771 173.155C122.89 173.101 123.019 173.071 123.15 173.066C123.414 173.077 123.664 173.191 123.845 173.384C124.025 173.578 124.123 173.834 124.116 174.098Z" fill="#263238"/>
<path d="M118.669 173.354L118.776 179.423L122.224 178.637L118.669 173.354Z" fill="#783736"/>
<path d="M114.451 171.593C113.815 171.593 113.204 171.846 112.754 172.296C112.304 172.746 112.051 173.356 112.051 173.993C112.051 174.629 112.304 175.24 112.754 175.69C113.204 176.14 113.815 176.393 114.451 176.393H114.885C115.522 176.393 116.132 176.14 116.582 175.69C117.032 175.24 117.285 174.629 117.285 173.993C117.285 173.356 117.032 172.746 116.582 172.296C116.132 171.846 115.522 171.593 114.885 171.593H114.451ZM111.609 173.993C111.602 173.234 111.897 172.503 112.428 171.961C112.959 171.419 113.684 171.11 114.443 171.102H114.885C115.581 171.193 116.22 171.534 116.683 172.061C117.145 172.589 117.4 173.267 117.4 173.968C117.4 174.67 117.145 175.348 116.683 175.875C116.22 176.403 115.581 176.744 114.885 176.835H114.451C113.699 176.831 112.978 176.53 112.446 175.998C111.914 175.466 111.613 174.745 111.609 173.993Z" fill="#263238"/>
<path d="M123.076 171.593C122.44 171.593 121.829 171.846 121.379 172.296C120.929 172.746 120.676 173.356 120.676 173.993C120.676 174.629 120.929 175.24 121.379 175.69C121.829 176.14 122.44 176.393 123.076 176.393H123.51C124.147 176.393 124.757 176.14 125.207 175.69C125.657 175.24 125.91 174.629 125.91 173.993C125.91 173.356 125.657 172.746 125.207 172.296C124.757 171.846 124.147 171.593 123.51 171.593H123.076ZM120.242 173.993C120.236 173.234 120.53 172.503 121.061 171.961C121.593 171.419 122.317 171.11 123.076 171.102H123.51C124.206 171.193 124.845 171.534 125.308 172.061C125.77 172.589 126.026 173.267 126.026 173.968C126.026 174.67 125.77 175.348 125.308 175.875C124.845 176.403 124.206 176.744 123.51 176.835H123.076C122.328 176.825 121.614 176.521 121.087 175.989C120.56 175.458 120.263 174.741 120.258 173.993H120.242Z" fill="#263238"/>
<path d="M117.687 173.42C117.858 173.182 118.083 172.988 118.343 172.853C118.604 172.718 118.892 172.645 119.185 172.642C119.427 172.616 119.672 172.648 119.899 172.737C120.125 172.825 120.327 172.967 120.488 173.15L120.873 172.855C120.668 172.605 120.404 172.411 120.105 172.289C119.806 172.167 119.482 172.123 119.161 172.159C118.789 172.162 118.423 172.256 118.095 172.431C117.767 172.607 117.487 172.859 117.277 173.166L117.687 173.42Z" fill="#263238"/>
<path d="M111.871 173.395H106.989V173.878H111.871V173.395Z" fill="#263238"/>
</svg>
