<svg width="303" height="146" viewBox="0 0 303 146" fill="none" xmlns="http://www.w3.org/2000/svg">
<rect width="302.667" height="146" rx="24" fill="url(#paint0_radial_518_6400)"/>
<g clip-path="url(#clip0_518_6400)">
<rect x="27" y="49" width="2" height="22" fill="url(#paint1_radial_518_6400)"/>
<g filter="url(#filter0_ii_518_6400)">
<rect x="27" y="86" width="2" height="22" fill="url(#paint2_radial_518_6400)"/>
</g>
<rect x="27" y="86" width="2" height="22" stroke="black" stroke-opacity="0.08" stroke-width="0.2"/>
<g filter="url(#filter1_di_518_6400)">
<rect x="18" y="32" width="20" height="20" rx="10" fill="url(#paint3_radial_518_6400)" shape-rendering="crispEdges"/>
<g clip-path="url(#clip1_518_6400)">
<path d="M23.3335 42.0003L26.6668 45.3337L33.3335 38.667" stroke="white" stroke-width="1.5" stroke-linecap="round" stroke-linejoin="round"/>
</g>
</g>
<g filter="url(#filter2_di_518_6400)">
<rect x="18" y="69" width="20" height="20" rx="10" fill="url(#paint4_radial_518_6400)" shape-rendering="crispEdges"/>
<g clip-path="url(#clip2_518_6400)">
<circle cx="28" cy="79" r="5" stroke="white" stroke-opacity="0.2" stroke-width="1.5" stroke-linecap="round" stroke-linejoin="round"/>
<path d="M24.4645 75.4648C23.8126 76.1168 23.3536 76.9362 23.1383 77.8327C22.923 78.7291 22.9597 79.6676 23.2444 80.5445C23.5291 81.4214 24.0507 82.2025 24.7516 82.8014C25.4525 83.4004 26.3053 83.7939 27.2158 83.9385" stroke="white" stroke-width="1.5" stroke-linecap="round" stroke-linejoin="round"/>
</g>
</g>
<g clip-path="url(#clip3_518_6400)">
<g filter="url(#filter3_ii_518_6400)">
<circle cx="28" cy="115.5" r="7.5" fill="url(#paint5_radial_518_6400)"/>
</g>
<circle cx="28" cy="115.5" r="7.5" stroke="black" stroke-opacity="0.08" stroke-width="0.2"/>
</g>
</g>
<path d="M54.7727 36.2727C54.7045 35.697 54.428 35.25 53.9432 34.9318C53.4583 34.6136 52.8636 34.4545 52.1591 34.4545C51.6439 34.4545 51.1932 34.5379 50.8068 34.7045C50.4242 34.8712 50.125 35.1004 49.9091 35.392C49.697 35.6837 49.5909 36.0152 49.5909 36.3864C49.5909 36.697 49.6648 36.964 49.8125 37.1875C49.964 37.4072 50.1572 37.5909 50.392 37.7386C50.6269 37.8826 50.8731 38.0019 51.1307 38.0966C51.3883 38.1875 51.625 38.2614 51.8409 38.3182L53.0227 38.6364C53.3258 38.7159 53.6629 38.8258 54.0341 38.9659C54.4091 39.1061 54.767 39.2973 55.108 39.5398C55.4527 39.7784 55.7367 40.0852 55.9602 40.4602C56.1837 40.8352 56.2955 41.2955 56.2955 41.8409C56.2955 42.4697 56.1307 43.0379 55.8011 43.5455C55.4754 44.053 54.9981 44.4564 54.3693 44.7557C53.7443 45.0549 52.9848 45.2045 52.0909 45.2045C51.2576 45.2045 50.536 45.0701 49.9261 44.8011C49.3201 44.5322 48.8428 44.1572 48.4943 43.6761C48.1496 43.1951 47.9545 42.6364 47.9091 42H49.3636C49.4015 42.4394 49.5492 42.803 49.8068 43.0909C50.0682 43.375 50.3977 43.5871 50.7955 43.7273C51.197 43.8636 51.6288 43.9318 52.0909 43.9318C52.6288 43.9318 53.1117 43.8447 53.5398 43.6705C53.9678 43.4924 54.3068 43.2462 54.5568 42.9318C54.8068 42.6136 54.9318 42.2424 54.9318 41.8182C54.9318 41.4318 54.8239 41.1174 54.608 40.875C54.392 40.6326 54.108 40.4356 53.7557 40.2841C53.4034 40.1326 53.0227 40 52.6136 39.8864L51.1818 39.4773C50.2727 39.2159 49.553 38.8428 49.0227 38.358C48.4924 37.8731 48.2273 37.2386 48.2273 36.4545C48.2273 35.803 48.4034 35.2348 48.7557 34.75C49.1117 34.2614 49.589 33.8826 50.1875 33.6136C50.7898 33.3409 51.4621 33.2045 52.2045 33.2045C52.9545 33.2045 53.6212 33.339 54.2045 33.608C54.7879 33.8731 55.25 34.2367 55.5909 34.6989C55.9356 35.161 56.1174 35.6856 56.1364 36.2727H54.7727ZM63.9304 41.4318V36.2727H65.2713V45H63.9304V43.5227H63.8395C63.6349 43.9659 63.3168 44.3428 62.8849 44.6534C62.4531 44.9602 61.9077 45.1136 61.2486 45.1136C60.7031 45.1136 60.2183 44.9943 59.794 44.7557C59.3698 44.5133 59.0365 44.1496 58.794 43.6648C58.5516 43.1761 58.4304 42.5606 58.4304 41.8182V36.2727H59.7713V41.7273C59.7713 42.3636 59.9493 42.8712 60.3054 43.25C60.6652 43.6288 61.1236 43.8182 61.6804 43.8182C62.0137 43.8182 62.3527 43.733 62.6974 43.5625C63.0459 43.392 63.3376 43.1307 63.5724 42.7784C63.8111 42.4261 63.9304 41.9773 63.9304 41.4318ZM67.9091 45V33.3636H69.25V37.6591H69.3636C69.4621 37.5076 69.5985 37.3144 69.7727 37.0795C69.9508 36.8409 70.2045 36.6288 70.5341 36.4432C70.8674 36.2538 71.3182 36.1591 71.8864 36.1591C72.6212 36.1591 73.2689 36.3428 73.8295 36.7102C74.3902 37.0777 74.8277 37.5985 75.142 38.2727C75.4564 38.947 75.6136 39.7424 75.6136 40.6591C75.6136 41.5833 75.4564 42.3845 75.142 43.0625C74.8277 43.7367 74.392 44.2595 73.8352 44.6307C73.2784 44.9981 72.6364 45.1818 71.9091 45.1818C71.3485 45.1818 70.8996 45.089 70.5625 44.9034C70.2254 44.714 69.9659 44.5 69.7841 44.2614C69.6023 44.0189 69.4621 43.8182 69.3636 43.6591H69.2045V45H67.9091ZM69.2273 40.6364C69.2273 41.2955 69.3239 41.8769 69.517 42.3807C69.7102 42.8807 69.9924 43.2727 70.3636 43.5568C70.7348 43.8371 71.1894 43.9773 71.7273 43.9773C72.2879 43.9773 72.7557 43.8295 73.1307 43.5341C73.5095 43.2348 73.7936 42.8333 73.983 42.3295C74.1761 41.822 74.2727 41.2576 74.2727 40.6364C74.2727 40.0227 74.178 39.4697 73.9886 38.9773C73.803 38.4811 73.5208 38.089 73.142 37.8011C72.767 37.5095 72.2955 37.3636 71.7273 37.3636C71.1818 37.3636 70.7235 37.5019 70.3523 37.7784C69.9811 38.0511 69.7008 38.4337 69.5114 38.9261C69.322 39.4148 69.2273 39.9848 69.2273 40.6364ZM77.6648 45V36.2727H78.9602V37.6364H79.0739C79.2557 37.1705 79.5492 36.8087 79.9545 36.5511C80.3598 36.2898 80.8466 36.1591 81.4148 36.1591C81.9905 36.1591 82.4697 36.2898 82.8523 36.5511C83.2386 36.8087 83.5398 37.1705 83.7557 37.6364H83.8466C84.0701 37.1856 84.4053 36.8277 84.8523 36.5625C85.2992 36.2936 85.8352 36.1591 86.4602 36.1591C87.2405 36.1591 87.8788 36.4034 88.375 36.892C88.8712 37.3769 89.1193 38.1326 89.1193 39.1591V45H87.7784V39.1591C87.7784 38.5152 87.6023 38.0549 87.25 37.7784C86.8977 37.5019 86.483 37.3636 86.0057 37.3636C85.392 37.3636 84.9167 37.5492 84.5795 37.9205C84.2424 38.2879 84.0739 38.7538 84.0739 39.3182V45H82.7102V39.0227C82.7102 38.5265 82.5492 38.1269 82.2273 37.8239C81.9053 37.517 81.4905 37.3636 80.983 37.3636C80.6345 37.3636 80.3087 37.4564 80.0057 37.642C79.7064 37.8277 79.464 38.0852 79.2784 38.4148C79.0966 38.7405 79.0057 39.1174 79.0057 39.5455V45H77.6648ZM91.571 45V36.2727H92.9119V45H91.571ZM92.2528 34.8182C91.9915 34.8182 91.7661 34.7292 91.5767 34.5511C91.3911 34.3731 91.2983 34.1591 91.2983 33.9091C91.2983 33.6591 91.3911 33.4451 91.5767 33.267C91.7661 33.089 91.9915 33 92.2528 33C92.5142 33 92.7377 33.089 92.9233 33.267C93.1127 33.4451 93.2074 33.6591 93.2074 33.9091C93.2074 34.1591 93.1127 34.3731 92.9233 34.5511C92.7377 34.7292 92.5142 34.8182 92.2528 34.8182ZM99.1634 36.2727V37.4091H94.6406V36.2727H99.1634ZM95.9588 34.1818H97.2997V42.5C97.2997 42.8788 97.3546 43.1629 97.4645 43.3523C97.5781 43.5379 97.7221 43.6629 97.8963 43.7273C98.0743 43.7879 98.2618 43.8182 98.4588 43.8182C98.6065 43.8182 98.7277 43.8106 98.8224 43.7955C98.9171 43.7765 98.9929 43.7614 99.0497 43.75L99.3224 44.9545C99.2315 44.9886 99.1046 45.0227 98.9418 45.0568C98.7789 45.0947 98.5724 45.1136 98.3224 45.1136C97.9437 45.1136 97.5724 45.0322 97.2088 44.8693C96.849 44.7064 96.5497 44.4583 96.3111 44.125C96.0762 43.7917 95.9588 43.3712 95.9588 42.8636V34.1818ZM104.976 36.2727V37.4091H100.453V36.2727H104.976ZM101.771 34.1818H103.112V42.5C103.112 42.8788 103.167 43.1629 103.277 43.3523C103.391 43.5379 103.535 43.6629 103.709 43.7273C103.887 43.7879 104.074 43.8182 104.271 43.8182C104.419 43.8182 104.54 43.8106 104.635 43.7955C104.73 43.7765 104.805 43.7614 104.862 43.75L105.135 44.9545C105.044 44.9886 104.917 45.0227 104.754 45.0568C104.591 45.0947 104.385 45.1136 104.135 45.1136C103.756 45.1136 103.385 45.0322 103.021 44.8693C102.661 44.7064 102.362 44.4583 102.124 44.125C101.889 43.7917 101.771 43.3712 101.771 42.8636V34.1818ZM110.558 45.1818C109.717 45.1818 108.992 44.9962 108.382 44.625C107.776 44.25 107.308 43.7273 106.979 43.0568C106.653 42.3826 106.49 41.5985 106.49 40.7045C106.49 39.8106 106.653 39.0227 106.979 38.3409C107.308 37.6553 107.767 37.1212 108.354 36.7386C108.945 36.3523 109.634 36.1591 110.422 36.1591C110.876 36.1591 111.325 36.2348 111.768 36.3864C112.212 36.5379 112.615 36.7841 112.979 37.125C113.342 37.4621 113.632 37.9091 113.848 38.4659C114.064 39.0227 114.172 39.7083 114.172 40.5227V41.0909H107.445V39.9318H112.808C112.808 39.4394 112.71 39 112.513 38.6136C112.32 38.2273 112.043 37.9223 111.683 37.6989C111.327 37.4754 110.907 37.3636 110.422 37.3636C109.888 37.3636 109.426 37.4962 109.036 37.7614C108.649 38.0227 108.352 38.3636 108.143 38.7841C107.935 39.2045 107.831 39.6553 107.831 40.1364V40.9091C107.831 41.5682 107.945 42.1269 108.172 42.5852C108.403 43.0398 108.723 43.3864 109.132 43.625C109.541 43.8598 110.017 43.9773 110.558 43.9773C110.911 43.9773 111.229 43.928 111.513 43.8295C111.801 43.7273 112.049 43.5758 112.257 43.375C112.465 43.1705 112.626 42.9167 112.74 42.6136L114.036 42.9773C113.899 43.4167 113.67 43.803 113.348 44.1364C113.026 44.4659 112.628 44.7235 112.155 44.9091C111.681 45.0909 111.149 45.1818 110.558 45.1818ZM119.507 45.1818C118.78 45.1818 118.138 44.9981 117.581 44.6307C117.024 44.2595 116.589 43.7367 116.274 43.0625C115.96 42.3845 115.803 41.5833 115.803 40.6591C115.803 39.7424 115.96 38.947 116.274 38.2727C116.589 37.5985 117.026 37.0777 117.587 36.7102C118.147 36.3428 118.795 36.1591 119.53 36.1591C120.098 36.1591 120.547 36.2538 120.876 36.4432C121.21 36.6288 121.464 36.8409 121.638 37.0795C121.816 37.3144 121.954 37.5076 122.053 37.6591H122.166V33.3636H123.507V45H122.212V43.6591H122.053C121.954 43.8182 121.814 44.0189 121.632 44.2614C121.45 44.5 121.191 44.714 120.854 44.9034C120.517 45.089 120.068 45.1818 119.507 45.1818ZM119.689 43.9773C120.227 43.9773 120.681 43.8371 121.053 43.5568C121.424 43.2727 121.706 42.8807 121.899 42.3807C122.092 41.8769 122.189 41.2955 122.189 40.6364C122.189 39.9848 122.094 39.4148 121.905 38.9261C121.715 38.4337 121.435 38.0511 121.064 37.7784C120.693 37.5019 120.234 37.3636 119.689 37.3636C119.121 37.3636 118.647 37.5095 118.268 37.8011C117.893 38.089 117.611 38.4811 117.422 38.9773C117.236 39.4697 117.143 40.0227 117.143 40.6364C117.143 41.2576 117.238 41.822 117.428 42.3295C117.621 42.8333 117.905 43.2348 118.28 43.5341C118.659 43.8295 119.128 43.9773 119.689 43.9773Z" fill="#121417" fill-opacity="0.9"/>
<path d="M48.4091 83V71.3636H55.4318V72.6136H49.8182V76.5455H55.0682V77.7955H49.8182V81.75H55.5227V83H48.4091ZM64.9261 74.2727L61.6989 83H60.3352L57.108 74.2727H58.5625L60.9716 81.2273H61.0625L63.4716 74.2727H64.9261ZM68.9986 83.2045C68.4455 83.2045 67.9437 83.1004 67.4929 82.892C67.0421 82.6799 66.6842 82.375 66.419 81.9773C66.1539 81.5758 66.0213 81.0909 66.0213 80.5227C66.0213 80.0227 66.1198 79.6174 66.3168 79.3068C66.5137 78.9924 66.777 78.7462 67.1065 78.5682C67.4361 78.3902 67.7997 78.2576 68.1974 78.1705C68.599 78.0795 69.0024 78.0076 69.4077 77.9545C69.938 77.8864 70.3679 77.8352 70.6974 77.8011C71.0308 77.7633 71.2732 77.7008 71.4247 77.6136C71.58 77.5265 71.6577 77.375 71.6577 77.1591V77.1136C71.6577 76.553 71.5043 76.1174 71.1974 75.8068C70.8944 75.4962 70.4342 75.3409 69.8168 75.3409C69.1766 75.3409 68.6747 75.4811 68.3111 75.7614C67.9474 76.0417 67.6918 76.3409 67.544 76.6591L66.2713 76.2045C66.4986 75.6742 66.8016 75.2614 67.1804 74.9659C67.563 74.6667 67.9796 74.4583 68.4304 74.3409C68.8849 74.2197 69.3319 74.1591 69.7713 74.1591C70.0516 74.1591 70.3736 74.1932 70.7372 74.2614C71.1046 74.3258 71.4588 74.4602 71.7997 74.6648C72.1444 74.8693 72.4304 75.178 72.6577 75.5909C72.8849 76.0038 72.9986 76.5568 72.9986 77.25V83H71.6577V81.8182H71.5895C71.4986 82.0076 71.3471 82.2102 71.1349 82.4261C70.9228 82.642 70.6406 82.8258 70.2884 82.9773C69.9361 83.1288 69.5062 83.2045 68.9986 83.2045ZM69.2031 82C69.7334 82 70.1804 81.8958 70.544 81.6875C70.9115 81.4792 71.188 81.2102 71.3736 80.8807C71.563 80.5511 71.6577 80.2045 71.6577 79.8409V78.6136C71.6009 78.6818 71.4759 78.7443 71.2827 78.8011C71.0933 78.8542 70.8736 78.9015 70.6236 78.9432C70.3774 78.9811 70.1368 79.0152 69.902 79.0455C69.6709 79.072 69.4834 79.0947 69.3395 79.1136C68.991 79.1591 68.6652 79.233 68.3622 79.3352C68.063 79.4337 67.8205 79.5833 67.6349 79.7841C67.4531 79.9811 67.3622 80.25 67.3622 80.5909C67.3622 81.0568 67.5346 81.4091 67.8793 81.6477C68.2277 81.8826 68.669 82 69.2031 82ZM76.7869 71.3636V83H75.446V71.3636H76.7869ZM84.7429 79.4318V74.2727H86.0838V83H84.7429V81.5227H84.652C84.4474 81.9659 84.1293 82.3428 83.6974 82.6534C83.2656 82.9602 82.7202 83.1136 82.0611 83.1136C81.5156 83.1136 81.0308 82.9943 80.6065 82.7557C80.1823 82.5133 79.849 82.1496 79.6065 81.6648C79.3641 81.1761 79.2429 80.5606 79.2429 79.8182V74.2727H80.5838V79.7273C80.5838 80.3636 80.7618 80.8712 81.1179 81.25C81.4777 81.6288 81.9361 81.8182 82.4929 81.8182C82.8262 81.8182 83.1652 81.733 83.5099 81.5625C83.8584 81.392 84.1501 81.1307 84.3849 80.7784C84.6236 80.4261 84.7429 79.9773 84.7429 79.4318ZM91.108 83.2045C90.5549 83.2045 90.053 83.1004 89.6023 82.892C89.1515 82.6799 88.7936 82.375 88.5284 81.9773C88.2633 81.5758 88.1307 81.0909 88.1307 80.5227C88.1307 80.0227 88.2292 79.6174 88.4261 79.3068C88.6231 78.9924 88.8864 78.7462 89.2159 78.5682C89.5455 78.3902 89.9091 78.2576 90.3068 78.1705C90.7083 78.0795 91.1117 78.0076 91.517 77.9545C92.0473 77.8864 92.4773 77.8352 92.8068 77.8011C93.1402 77.7633 93.3826 77.7008 93.5341 77.6136C93.6894 77.5265 93.767 77.375 93.767 77.1591V77.1136C93.767 76.553 93.6136 76.1174 93.3068 75.8068C93.0038 75.4962 92.5436 75.3409 91.9261 75.3409C91.286 75.3409 90.7841 75.4811 90.4205 75.7614C90.0568 76.0417 89.8011 76.3409 89.6534 76.6591L88.3807 76.2045C88.608 75.6742 88.911 75.2614 89.2898 74.9659C89.6723 74.6667 90.089 74.4583 90.5398 74.3409C90.9943 74.2197 91.4413 74.1591 91.8807 74.1591C92.161 74.1591 92.483 74.1932 92.8466 74.2614C93.214 74.3258 93.5682 74.4602 93.9091 74.6648C94.2538 74.8693 94.5398 75.178 94.767 75.5909C94.9943 76.0038 95.108 76.5568 95.108 77.25V83H93.767V81.8182H93.6989C93.608 82.0076 93.4564 82.2102 93.2443 82.4261C93.0322 82.642 92.75 82.8258 92.3977 82.9773C92.0455 83.1288 91.6155 83.2045 91.108 83.2045ZM91.3125 82C91.8428 82 92.2898 81.8958 92.6534 81.6875C93.0208 81.4792 93.2973 81.2102 93.483 80.8807C93.6723 80.5511 93.767 80.2045 93.767 79.8409V78.6136C93.7102 78.6818 93.5852 78.7443 93.392 78.8011C93.2027 78.8542 92.983 78.9015 92.733 78.9432C92.4867 78.9811 92.2462 79.0152 92.0114 79.0455C91.7803 79.072 91.5928 79.0947 91.4489 79.1136C91.1004 79.1591 90.7746 79.233 90.4716 79.3352C90.1723 79.4337 89.9299 79.5833 89.7443 79.7841C89.5625 79.9811 89.4716 80.25 89.4716 80.5909C89.4716 81.0568 89.6439 81.4091 89.9886 81.6477C90.3371 81.8826 90.7784 82 91.3125 82ZM101.351 74.2727V75.4091H96.8281V74.2727H101.351ZM98.1463 72.1818H99.4872V80.5C99.4872 80.8788 99.5421 81.1629 99.652 81.3523C99.7656 81.5379 99.9096 81.6629 100.084 81.7273C100.262 81.7879 100.449 81.8182 100.646 81.8182C100.794 81.8182 100.915 81.8106 101.01 81.7955C101.105 81.7765 101.18 81.7614 101.237 81.75L101.51 82.9545C101.419 82.9886 101.292 83.0227 101.129 83.0568C100.966 83.0947 100.76 83.1136 100.51 83.1136C100.131 83.1136 99.7599 83.0322 99.3963 82.8693C99.0365 82.7064 98.7372 82.4583 98.4986 82.125C98.2637 81.7917 98.1463 81.3712 98.1463 80.8636V72.1818ZM103.368 83V74.2727H104.709V83H103.368ZM104.05 72.8182C103.788 72.8182 103.563 72.7292 103.374 72.5511C103.188 72.3731 103.095 72.1591 103.095 71.9091C103.095 71.6591 103.188 71.4451 103.374 71.267C103.563 71.089 103.788 71 104.05 71C104.311 71 104.535 71.089 104.72 71.267C104.91 71.4451 105.004 71.6591 105.004 71.9091C105.004 72.1591 104.91 72.3731 104.72 72.5511C104.535 72.7292 104.311 72.8182 104.05 72.8182ZM108.506 77.75V83H107.165V74.2727H108.46V75.6364H108.574C108.778 75.1932 109.089 74.8371 109.506 74.5682C109.922 74.2955 110.46 74.1591 111.119 74.1591C111.71 74.1591 112.227 74.2803 112.67 74.5227C113.114 74.7614 113.458 75.125 113.705 75.6136C113.951 76.0985 114.074 76.7121 114.074 77.4545V83H112.733V77.5455C112.733 76.8598 112.555 76.3258 112.199 75.9432C111.843 75.5568 111.354 75.3636 110.733 75.3636C110.305 75.3636 109.922 75.4564 109.585 75.642C109.252 75.8277 108.989 76.0985 108.795 76.4545C108.602 76.8106 108.506 77.2424 108.506 77.75ZM120.047 86.4545C119.399 86.4545 118.842 86.3712 118.376 86.2045C117.911 86.0417 117.522 85.8258 117.212 85.5568C116.905 85.2917 116.661 85.0076 116.479 84.7045L117.547 83.9545C117.668 84.1136 117.821 84.2955 118.007 84.5C118.193 84.7083 118.446 84.8883 118.768 85.0398C119.094 85.1951 119.52 85.2727 120.047 85.2727C120.751 85.2727 121.333 85.1023 121.791 84.7614C122.25 84.4205 122.479 83.8864 122.479 83.1591V81.3864H122.365C122.267 81.5455 122.126 81.7424 121.945 81.9773C121.767 82.2083 121.509 82.4148 121.172 82.5966C120.839 82.7746 120.388 82.8636 119.82 82.8636C119.115 82.8636 118.482 82.697 117.922 82.3636C117.365 82.0303 116.924 81.5455 116.598 80.9091C116.276 80.2727 116.115 79.5 116.115 78.5909C116.115 77.697 116.272 76.9186 116.587 76.2557C116.901 75.589 117.339 75.0739 117.899 74.7102C118.46 74.3428 119.107 74.1591 119.842 74.1591C120.411 74.1591 120.861 74.2538 121.195 74.4432C121.532 74.6288 121.789 74.8409 121.967 75.0795C122.149 75.3144 122.289 75.5076 122.388 75.6591H122.524V74.2727H123.82V83.25C123.82 84 123.649 84.6098 123.308 85.0795C122.971 85.553 122.517 85.8996 121.945 86.1193C121.376 86.3428 120.744 86.4545 120.047 86.4545ZM120.001 81.6591C120.539 81.6591 120.994 81.536 121.365 81.2898C121.736 81.0436 122.018 80.6894 122.212 80.2273C122.405 79.7652 122.501 79.2121 122.501 78.5682C122.501 77.9394 122.407 77.3845 122.217 76.9034C122.028 76.4223 121.748 76.0455 121.376 75.7727C121.005 75.5 120.547 75.3636 120.001 75.3636C119.433 75.3636 118.96 75.5076 118.581 75.7955C118.206 76.0833 117.924 76.4697 117.734 76.9545C117.549 77.4394 117.456 77.9773 117.456 78.5682C117.456 79.1742 117.551 79.7102 117.74 80.1761C117.933 80.6383 118.217 81.0019 118.592 81.267C118.971 81.5284 119.441 81.6591 120.001 81.6591Z" fill="#121417" fill-opacity="0.9"/>
<path d="M57.7727 113H56.3636C56.2803 112.595 56.1345 112.239 55.9261 111.932C55.7216 111.625 55.4716 111.367 55.1761 111.159C54.8845 110.947 54.5606 110.788 54.2045 110.682C53.8485 110.576 53.4773 110.523 53.0909 110.523C52.3864 110.523 51.7481 110.701 51.1761 111.057C50.608 111.413 50.1553 111.938 49.8182 112.631C49.4848 113.324 49.3182 114.174 49.3182 115.182C49.3182 116.189 49.4848 117.04 49.8182 117.733C50.1553 118.426 50.608 118.951 51.1761 119.307C51.7481 119.663 52.3864 119.841 53.0909 119.841C53.4773 119.841 53.8485 119.788 54.2045 119.682C54.5606 119.576 54.8845 119.419 55.1761 119.21C55.4716 118.998 55.7216 118.739 55.9261 118.432C56.1345 118.121 56.2803 117.765 56.3636 117.364H57.7727C57.6667 117.958 57.4735 118.491 57.1932 118.96C56.9129 119.43 56.5644 119.83 56.1477 120.159C55.7311 120.485 55.2633 120.733 54.7443 120.903C54.2292 121.074 53.678 121.159 53.0909 121.159C52.0985 121.159 51.2159 120.917 50.4432 120.432C49.6705 119.947 49.0625 119.258 48.6193 118.364C48.1761 117.47 47.9545 116.409 47.9545 115.182C47.9545 113.955 48.1761 112.894 48.6193 112C49.0625 111.106 49.6705 110.417 50.4432 109.932C51.2159 109.447 52.0985 109.205 53.0909 109.205C53.678 109.205 54.2292 109.29 54.7443 109.46C55.2633 109.631 55.7311 109.881 56.1477 110.21C56.5644 110.536 56.9129 110.934 57.1932 111.403C57.4735 111.869 57.6667 112.402 57.7727 113ZM63.4134 121.182C62.6255 121.182 61.9342 120.994 61.3395 120.619C60.7486 120.244 60.2865 119.72 59.9531 119.045C59.6236 118.371 59.4588 117.583 59.4588 116.682C59.4588 115.773 59.6236 114.979 59.9531 114.301C60.2865 113.623 60.7486 113.097 61.3395 112.722C61.9342 112.347 62.6255 112.159 63.4134 112.159C64.2012 112.159 64.8906 112.347 65.4815 112.722C66.0762 113.097 66.5384 113.623 66.8679 114.301C67.2012 114.979 67.3679 115.773 67.3679 116.682C67.3679 117.583 67.2012 118.371 66.8679 119.045C66.5384 119.72 66.0762 120.244 65.4815 120.619C64.8906 120.994 64.2012 121.182 63.4134 121.182ZM63.4134 119.977C64.0118 119.977 64.5043 119.824 64.8906 119.517C65.277 119.21 65.563 118.807 65.7486 118.307C65.9342 117.807 66.027 117.265 66.027 116.682C66.027 116.098 65.9342 115.555 65.7486 115.051C65.563 114.547 65.277 114.14 64.8906 113.83C64.5043 113.519 64.0118 113.364 63.4134 113.364C62.8149 113.364 62.3224 113.519 61.9361 113.83C61.5497 114.14 61.2637 114.547 61.0781 115.051C60.8925 115.555 60.7997 116.098 60.7997 116.682C60.7997 117.265 60.8925 117.807 61.0781 118.307C61.2637 118.807 61.5497 119.21 61.9361 119.517C62.3224 119.824 62.8149 119.977 63.4134 119.977ZM69.4148 121V112.273H70.7102V113.636H70.8239C71.0057 113.17 71.2992 112.809 71.7045 112.551C72.1098 112.29 72.5966 112.159 73.1648 112.159C73.7405 112.159 74.2197 112.29 74.6023 112.551C74.9886 112.809 75.2898 113.17 75.5057 113.636H75.5966C75.8201 113.186 76.1553 112.828 76.6023 112.562C77.0492 112.294 77.5852 112.159 78.2102 112.159C78.9905 112.159 79.6288 112.403 80.125 112.892C80.6212 113.377 80.8693 114.133 80.8693 115.159V121H79.5284V115.159C79.5284 114.515 79.3523 114.055 79 113.778C78.6477 113.502 78.233 113.364 77.7557 113.364C77.142 113.364 76.6667 113.549 76.3295 113.92C75.9924 114.288 75.8239 114.754 75.8239 115.318V121H74.4602V115.023C74.4602 114.527 74.2992 114.127 73.9773 113.824C73.6553 113.517 73.2405 113.364 72.733 113.364C72.3845 113.364 72.0587 113.456 71.7557 113.642C71.4564 113.828 71.214 114.085 71.0284 114.415C70.8466 114.741 70.7557 115.117 70.7557 115.545V121H69.4148ZM83.321 124.273V112.273H84.6165V113.659H84.7756C84.8741 113.508 85.0104 113.314 85.1847 113.08C85.3627 112.841 85.6165 112.629 85.946 112.443C86.2794 112.254 86.7301 112.159 87.2983 112.159C88.0331 112.159 88.6809 112.343 89.2415 112.71C89.8021 113.078 90.2396 113.598 90.554 114.273C90.8684 114.947 91.0256 115.742 91.0256 116.659C91.0256 117.583 90.8684 118.384 90.554 119.062C90.2396 119.737 89.804 120.259 89.2472 120.631C88.6903 120.998 88.0483 121.182 87.321 121.182C86.7604 121.182 86.3116 121.089 85.9744 120.903C85.6373 120.714 85.3778 120.5 85.196 120.261C85.0142 120.019 84.8741 119.818 84.7756 119.659H84.6619V124.273H83.321ZM84.6392 116.636C84.6392 117.295 84.7358 117.877 84.929 118.381C85.1222 118.881 85.4044 119.273 85.7756 119.557C86.1468 119.837 86.6013 119.977 87.1392 119.977C87.6998 119.977 88.1676 119.83 88.5426 119.534C88.9214 119.235 89.2055 118.833 89.3949 118.33C89.5881 117.822 89.6847 117.258 89.6847 116.636C89.6847 116.023 89.59 115.47 89.4006 114.977C89.215 114.481 88.9328 114.089 88.554 113.801C88.179 113.509 87.7074 113.364 87.1392 113.364C86.5938 113.364 86.1354 113.502 85.7642 113.778C85.393 114.051 85.1127 114.434 84.9233 114.926C84.7339 115.415 84.6392 115.985 84.6392 116.636ZM94.4119 109.364V121H93.071V109.364H94.4119ZM100.527 121.182C99.6861 121.182 98.9607 120.996 98.3509 120.625C97.7448 120.25 97.277 119.727 96.9474 119.057C96.6217 118.383 96.4588 117.598 96.4588 116.705C96.4588 115.811 96.6217 115.023 96.9474 114.341C97.277 113.655 97.7353 113.121 98.3224 112.739C98.9134 112.352 99.6027 112.159 100.391 112.159C100.845 112.159 101.294 112.235 101.737 112.386C102.18 112.538 102.584 112.784 102.947 113.125C103.311 113.462 103.601 113.909 103.817 114.466C104.033 115.023 104.141 115.708 104.141 116.523V117.091H97.4134V115.932H102.777C102.777 115.439 102.679 115 102.482 114.614C102.288 114.227 102.012 113.922 101.652 113.699C101.296 113.475 100.875 113.364 100.391 113.364C99.8565 113.364 99.3944 113.496 99.0043 113.761C98.6179 114.023 98.3205 114.364 98.1122 114.784C97.9039 115.205 97.7997 115.655 97.7997 116.136V116.909C97.7997 117.568 97.9134 118.127 98.1406 118.585C98.3717 119.04 98.6918 119.386 99.1009 119.625C99.5099 119.86 99.9853 119.977 100.527 119.977C100.879 119.977 101.197 119.928 101.482 119.83C101.769 119.727 102.018 119.576 102.226 119.375C102.434 119.17 102.595 118.917 102.709 118.614L104.004 118.977C103.868 119.417 103.639 119.803 103.317 120.136C102.995 120.466 102.597 120.723 102.124 120.909C101.65 121.091 101.118 121.182 100.527 121.182ZM109.976 112.273V113.409H105.453V112.273H109.976ZM106.771 110.182H108.112V118.5C108.112 118.879 108.167 119.163 108.277 119.352C108.391 119.538 108.535 119.663 108.709 119.727C108.887 119.788 109.074 119.818 109.271 119.818C109.419 119.818 109.54 119.811 109.635 119.795C109.73 119.777 109.805 119.761 109.862 119.75L110.135 120.955C110.044 120.989 109.917 121.023 109.754 121.057C109.591 121.095 109.385 121.114 109.135 121.114C108.756 121.114 108.385 121.032 108.021 120.869C107.661 120.706 107.362 120.458 107.124 120.125C106.889 119.792 106.771 119.371 106.771 118.864V110.182ZM115.558 121.182C114.717 121.182 113.992 120.996 113.382 120.625C112.776 120.25 112.308 119.727 111.979 119.057C111.653 118.383 111.49 117.598 111.49 116.705C111.49 115.811 111.653 115.023 111.979 114.341C112.308 113.655 112.767 113.121 113.354 112.739C113.945 112.352 114.634 112.159 115.422 112.159C115.876 112.159 116.325 112.235 116.768 112.386C117.212 112.538 117.615 112.784 117.979 113.125C118.342 113.462 118.632 113.909 118.848 114.466C119.064 115.023 119.172 115.708 119.172 116.523V117.091H112.445V115.932H117.808C117.808 115.439 117.71 115 117.513 114.614C117.32 114.227 117.043 113.922 116.683 113.699C116.327 113.475 115.907 113.364 115.422 113.364C114.888 113.364 114.426 113.496 114.036 113.761C113.649 114.023 113.352 114.364 113.143 114.784C112.935 115.205 112.831 115.655 112.831 116.136V116.909C112.831 117.568 112.945 118.127 113.172 118.585C113.403 119.04 113.723 119.386 114.132 119.625C114.541 119.86 115.017 119.977 115.558 119.977C115.911 119.977 116.229 119.928 116.513 119.83C116.801 119.727 117.049 119.576 117.257 119.375C117.465 119.17 117.626 118.917 117.74 118.614L119.036 118.977C118.899 119.417 118.67 119.803 118.348 120.136C118.026 120.466 117.628 120.723 117.155 120.909C116.681 121.091 116.149 121.182 115.558 121.182ZM124.507 121.182C123.78 121.182 123.138 120.998 122.581 120.631C122.024 120.259 121.589 119.737 121.274 119.062C120.96 118.384 120.803 117.583 120.803 116.659C120.803 115.742 120.96 114.947 121.274 114.273C121.589 113.598 122.026 113.078 122.587 112.71C123.147 112.343 123.795 112.159 124.53 112.159C125.098 112.159 125.547 112.254 125.876 112.443C126.21 112.629 126.464 112.841 126.638 113.08C126.816 113.314 126.954 113.508 127.053 113.659H127.166V109.364H128.507V121H127.212V119.659H127.053C126.954 119.818 126.814 120.019 126.632 120.261C126.45 120.5 126.191 120.714 125.854 120.903C125.517 121.089 125.068 121.182 124.507 121.182ZM124.689 119.977C125.227 119.977 125.681 119.837 126.053 119.557C126.424 119.273 126.706 118.881 126.899 118.381C127.092 117.877 127.189 117.295 127.189 116.636C127.189 115.985 127.094 115.415 126.905 114.926C126.715 114.434 126.435 114.051 126.064 113.778C125.693 113.502 125.234 113.364 124.689 113.364C124.121 113.364 123.647 113.509 123.268 113.801C122.893 114.089 122.611 114.481 122.422 114.977C122.236 115.47 122.143 116.023 122.143 116.636C122.143 117.258 122.238 117.822 122.428 118.33C122.621 118.833 122.905 119.235 123.28 119.534C123.659 119.83 124.128 119.977 124.689 119.977Z" fill="#121417" fill-opacity="0.9"/>
<rect x="194.667" y="16" width="92" height="24" rx="12" fill="#1B1C20"/>
<g filter="url(#filter4_ii_518_6400)">
<rect x="203.667" y="25" width="6" height="6" rx="3" fill="url(#paint6_radial_518_6400)"/>
</g>
<path d="M219.625 32V23.2727H225.097V24.4062H220.942V27.0653H224.811V28.1946H220.942V30.8665H225.148V32H219.625ZM232.353 25.4545L229.979 32H228.616L226.238 25.4545H227.606L229.263 30.4915H229.332L230.985 25.4545H232.353ZM235.268 32.1449C234.853 32.1449 234.478 32.0682 234.143 31.9148C233.807 31.7585 233.542 31.5327 233.346 31.2372C233.153 30.9418 233.056 30.5795 233.056 30.1506C233.056 29.7812 233.127 29.4773 233.269 29.2386C233.411 29 233.603 28.8111 233.844 28.6719C234.086 28.5327 234.356 28.4276 234.654 28.3565C234.952 28.2855 235.256 28.2315 235.566 28.1946C235.958 28.1491 236.276 28.1122 236.521 28.0838C236.765 28.0526 236.942 28.0028 237.053 27.9347C237.164 27.8665 237.219 27.7557 237.219 27.6023V27.5724C237.219 27.2003 237.114 26.9119 236.904 26.7074C236.697 26.5028 236.387 26.4006 235.975 26.4006C235.546 26.4006 235.208 26.4957 234.961 26.6861C234.717 26.8736 234.548 27.0824 234.454 27.3125L233.256 27.0398C233.398 26.642 233.606 26.321 233.879 26.0767C234.154 25.8295 234.471 25.6506 234.829 25.5398C235.187 25.4261 235.563 25.3693 235.958 25.3693C236.219 25.3693 236.496 25.4006 236.789 25.4631C237.084 25.5227 237.36 25.6335 237.616 25.7955C237.874 25.9574 238.086 26.1889 238.251 26.4901C238.415 26.7884 238.498 27.1761 238.498 27.6534V32H237.254V31.1051H237.202C237.12 31.2699 236.996 31.4318 236.832 31.5909C236.667 31.75 236.455 31.8821 236.197 31.9872C235.938 32.0923 235.629 32.1449 235.268 32.1449ZM235.545 31.1222C235.897 31.1222 236.198 31.0526 236.448 30.9134C236.701 30.7741 236.893 30.5923 237.023 30.3679C237.157 30.1406 237.224 29.8977 237.224 29.6392V28.7955C237.178 28.8409 237.09 28.8835 236.959 28.9233C236.832 28.9602 236.685 28.9929 236.521 29.0213C236.356 29.0469 236.195 29.071 236.039 29.0938C235.883 29.1136 235.752 29.1307 235.647 29.1449C235.4 29.1761 235.174 29.2287 234.969 29.3026C234.768 29.3764 234.606 29.483 234.484 29.6222C234.364 29.7585 234.305 29.9403 234.305 30.1676C234.305 30.483 234.421 30.7216 234.654 30.8835C234.887 31.0426 235.184 31.1222 235.545 31.1222ZM241.469 23.2727V32H240.195V23.2727H241.469ZM247.33 29.2855V25.4545H248.608V32H247.355V30.8665H247.287C247.136 31.2159 246.895 31.5071 246.562 31.7401C246.233 31.9702 245.822 32.0852 245.331 32.0852C244.91 32.0852 244.538 31.9929 244.214 31.8082C243.893 31.6207 243.641 31.3438 243.456 30.9773C243.274 30.6108 243.183 30.1577 243.183 29.6179V25.4545H244.457V29.4645C244.457 29.9105 244.581 30.2656 244.828 30.5298C245.075 30.794 245.396 30.9261 245.791 30.9261C246.03 30.9261 246.267 30.8665 246.503 30.7472C246.741 30.6278 246.939 30.4474 247.095 30.206C247.254 29.9645 247.332 29.6577 247.33 29.2855ZM252.225 32.1449C251.81 32.1449 251.435 32.0682 251.1 31.9148C250.765 31.7585 250.499 31.5327 250.303 31.2372C250.11 30.9418 250.013 30.5795 250.013 30.1506C250.013 29.7812 250.084 29.4773 250.226 29.2386C250.368 29 250.56 28.8111 250.801 28.6719C251.043 28.5327 251.313 28.4276 251.611 28.3565C251.909 28.2855 252.213 28.2315 252.523 28.1946C252.915 28.1491 253.233 28.1122 253.478 28.0838C253.722 28.0526 253.899 28.0028 254.01 27.9347C254.121 27.8665 254.176 27.7557 254.176 27.6023V27.5724C254.176 27.2003 254.071 26.9119 253.861 26.7074C253.654 26.5028 253.344 26.4006 252.932 26.4006C252.503 26.4006 252.165 26.4957 251.918 26.6861C251.674 26.8736 251.505 27.0824 251.411 27.3125L250.213 27.0398C250.355 26.642 250.563 26.321 250.836 26.0767C251.111 25.8295 251.428 25.6506 251.786 25.5398C252.144 25.4261 252.52 25.3693 252.915 25.3693C253.176 25.3693 253.453 25.4006 253.746 25.4631C254.042 25.5227 254.317 25.6335 254.573 25.7955C254.831 25.9574 255.043 26.1889 255.208 26.4901C255.372 26.7884 255.455 27.1761 255.455 27.6534V32H254.211V31.1051H254.159C254.077 31.2699 253.953 31.4318 253.789 31.5909C253.624 31.75 253.412 31.8821 253.154 31.9872C252.895 32.0923 252.586 32.1449 252.225 32.1449ZM252.502 31.1222C252.854 31.1222 253.155 31.0526 253.405 30.9134C253.658 30.7741 253.85 30.5923 253.98 30.3679C254.114 30.1406 254.181 29.8977 254.181 29.6392V28.7955C254.135 28.8409 254.047 28.8835 253.917 28.9233C253.789 28.9602 253.642 28.9929 253.478 29.0213C253.313 29.0469 253.152 29.071 252.996 29.0938C252.84 29.1136 252.709 29.1307 252.604 29.1449C252.357 29.1761 252.131 29.2287 251.926 29.3026C251.725 29.3764 251.563 29.483 251.441 29.6222C251.321 29.7585 251.262 29.9403 251.262 30.1676C251.262 30.483 251.378 30.7216 251.611 30.8835C251.844 31.0426 252.141 31.1222 252.502 31.1222ZM260.207 25.4545V26.4773H256.632V25.4545H260.207ZM257.591 23.8864H258.865V30.0781C258.865 30.3253 258.902 30.5114 258.976 30.6364C259.05 30.7585 259.145 30.8423 259.261 30.8878C259.381 30.9304 259.51 30.9517 259.649 30.9517C259.751 30.9517 259.841 30.9446 259.918 30.9304C259.994 30.9162 260.054 30.9048 260.097 30.8963L260.327 31.9489C260.253 31.9773 260.148 32.0057 260.011 32.0341C259.875 32.0653 259.705 32.0824 259.5 32.0852C259.165 32.0909 258.852 32.0312 258.562 31.9062C258.273 31.7812 258.038 31.5881 257.859 31.3267C257.68 31.0653 257.591 30.7372 257.591 30.3423V23.8864ZM261.617 32V25.4545H262.891V32H261.617ZM262.26 24.4446C262.039 24.4446 261.848 24.3707 261.689 24.223C261.533 24.0724 261.455 23.8935 261.455 23.6861C261.455 23.4759 261.533 23.2969 261.689 23.1491C261.848 22.9986 262.039 22.9233 262.26 22.9233C262.482 22.9233 262.671 22.9986 262.827 23.1491C262.986 23.2969 263.066 23.4759 263.066 23.6861C263.066 23.8935 262.986 24.0724 262.827 24.223C262.671 24.3707 262.482 24.4446 262.26 24.4446ZM265.879 28.1136V32H264.605V25.4545H265.828V26.5199H265.909C266.06 26.1733 266.295 25.8949 266.616 25.6847C266.94 25.4744 267.348 25.3693 267.839 25.3693C268.285 25.3693 268.676 25.4631 269.011 25.6506C269.347 25.8352 269.606 26.1108 269.791 26.4773C269.976 26.8437 270.068 27.2969 270.068 27.8366V32H268.794V27.9901C268.794 27.5156 268.67 27.1449 268.423 26.8778C268.176 26.608 267.837 26.473 267.405 26.473C267.109 26.473 266.847 26.5369 266.616 26.6648C266.389 26.7926 266.209 26.9801 266.075 27.2273C265.945 27.4716 265.879 27.767 265.879 28.1136ZM274.521 34.5909C274.001 34.5909 273.554 34.5227 273.179 34.3864C272.807 34.25 272.503 34.0696 272.267 33.8452C272.031 33.6207 271.855 33.375 271.739 33.108L272.834 32.6562C272.91 32.7812 273.013 32.9134 273.141 33.0526C273.271 33.1946 273.447 33.3153 273.669 33.4148C273.893 33.5142 274.182 33.5639 274.534 33.5639C275.017 33.5639 275.416 33.446 275.731 33.2102C276.047 32.9773 276.205 32.6051 276.205 32.0938V30.8068H276.124C276.047 30.946 275.936 31.1009 275.791 31.2713C275.649 31.4418 275.453 31.5895 275.203 31.7145C274.953 31.8395 274.628 31.902 274.227 31.902C273.71 31.902 273.244 31.7812 272.83 31.5398C272.418 31.2955 272.091 30.9361 271.849 30.4616C271.611 29.9844 271.491 29.3977 271.491 28.7017C271.491 28.0057 271.609 27.4091 271.845 26.9119C272.084 26.4148 272.41 26.0341 272.825 25.7699C273.24 25.5028 273.71 25.3693 274.236 25.3693C274.642 25.3693 274.97 25.4375 275.22 25.5739C275.47 25.7074 275.665 25.8636 275.804 26.0426C275.946 26.2216 276.055 26.3793 276.132 26.5156H276.226V25.4545H277.474V32.1449C277.474 32.7074 277.344 33.169 277.082 33.5298C276.821 33.8906 276.467 34.1577 276.021 34.331C275.578 34.5043 275.078 34.5909 274.521 34.5909ZM274.508 30.8452C274.875 30.8452 275.185 30.7599 275.437 30.5895C275.693 30.4162 275.886 30.169 276.017 29.848C276.151 29.5241 276.217 29.1364 276.217 28.6847C276.217 28.2443 276.152 27.8565 276.021 27.5213C275.891 27.1861 275.699 26.9247 275.446 26.7372C275.193 26.5469 274.881 26.4517 274.508 26.4517C274.125 26.4517 273.805 26.5511 273.55 26.75C273.294 26.946 273.101 27.2131 272.97 27.5511C272.842 27.8892 272.778 28.267 272.778 28.6847C272.778 29.1136 272.844 29.4901 272.974 29.8139C273.105 30.1378 273.298 30.3906 273.554 30.5724C273.812 30.7543 274.131 30.8452 274.508 30.8452Z" fill="url(#paint7_radial_518_6400)"/>
<defs>
<filter id="filter0_ii_518_6400" x="26.8999" y="85.9004" width="2.2002" height="23.5238" filterUnits="userSpaceOnUse" color-interpolation-filters="sRGB">
<feFlood flood-opacity="0" result="BackgroundImageFix"/>
<feBlend mode="normal" in="SourceGraphic" in2="BackgroundImageFix" result="shape"/>
<feColorMatrix in="SourceAlpha" type="matrix" values="0 0 0 0 0 0 0 0 0 0 0 0 0 0 0 0 0 0 127 0" result="hardAlpha"/>
<feOffset dy="1.32458"/>
<feGaussianBlur stdDeviation="10.5977"/>
<feComposite in2="hardAlpha" operator="arithmetic" k2="-1" k3="1"/>
<feColorMatrix type="matrix" values="0 0 0 0 1 0 0 0 0 1 0 0 0 0 1 0 0 0 0.12 0"/>
<feBlend mode="normal" in2="shape" result="effect1_innerShadow_518_6400"/>
<feColorMatrix in="SourceAlpha" type="matrix" values="0 0 0 0 0 0 0 0 0 0 0 0 0 0 0 0 0 0 127 0" result="hardAlpha"/>
<feOffset dy="1.32458"/>
<feGaussianBlur stdDeviation="0.662843"/>
<feComposite in2="hardAlpha" operator="arithmetic" k2="-1" k3="1"/>
<feColorMatrix type="matrix" values="0 0 0 0 1 0 0 0 0 1 0 0 0 0 1 0 0 0 0.09 0"/>
<feBlend mode="normal" in2="effect1_innerShadow_518_6400" result="effect2_innerShadow_518_6400"/>
</filter>
<filter id="filter1_di_518_6400" x="12.74" y="30.685" width="30.5199" height="31.8349" filterUnits="userSpaceOnUse" color-interpolation-filters="sRGB">
<feFlood flood-opacity="0" result="BackgroundImageFix"/>
<feColorMatrix in="SourceAlpha" type="matrix" values="0 0 0 0 0 0 0 0 0 0 0 0 0 0 0 0 0 0 127 0" result="hardAlpha"/>
<feOffset dy="5.25997"/>
<feGaussianBlur stdDeviation="2.62999"/>
<feComposite in2="hardAlpha" operator="out"/>
<feColorMatrix type="matrix" values="0 0 0 0 0.992157 0 0 0 0 0.588235 0 0 0 0 0.180392 0 0 0 0.07 0"/>
<feBlend mode="normal" in2="BackgroundImageFix" result="effect1_dropShadow_518_6400"/>
<feBlend mode="normal" in="SourceGraphic" in2="effect1_dropShadow_518_6400" result="shape"/>
<feColorMatrix in="SourceAlpha" type="matrix" values="0 0 0 0 0 0 0 0 0 0 0 0 0 0 0 0 0 0 127 0" result="hardAlpha"/>
<feOffset dy="-1.31499"/>
<feGaussianBlur stdDeviation="0.657495"/>
<feComposite in2="hardAlpha" operator="arithmetic" k2="-1" k3="1"/>
<feColorMatrix type="matrix" values="0 0 0 0 1 0 0 0 0 1 0 0 0 0 1 0 0 0 0.29 0"/>
<feBlend mode="normal" in2="shape" result="effect2_innerShadow_518_6400"/>
</filter>
<filter id="filter2_di_518_6400" x="12.74" y="67.685" width="30.5199" height="31.8349" filterUnits="userSpaceOnUse" color-interpolation-filters="sRGB">
<feFlood flood-opacity="0" result="BackgroundImageFix"/>
<feColorMatrix in="SourceAlpha" type="matrix" values="0 0 0 0 0 0 0 0 0 0 0 0 0 0 0 0 0 0 127 0" result="hardAlpha"/>
<feOffset dy="5.25997"/>
<feGaussianBlur stdDeviation="2.62999"/>
<feComposite in2="hardAlpha" operator="out"/>
<feColorMatrix type="matrix" values="0 0 0 0 0.992157 0 0 0 0 0.588235 0 0 0 0 0.180392 0 0 0 0.07 0"/>
<feBlend mode="normal" in2="BackgroundImageFix" result="effect1_dropShadow_518_6400"/>
<feBlend mode="normal" in="SourceGraphic" in2="effect1_dropShadow_518_6400" result="shape"/>
<feColorMatrix in="SourceAlpha" type="matrix" values="0 0 0 0 0 0 0 0 0 0 0 0 0 0 0 0 0 0 127 0" result="hardAlpha"/>
<feOffset dy="-1.31499"/>
<feGaussianBlur stdDeviation="0.657495"/>
<feComposite in2="hardAlpha" operator="arithmetic" k2="-1" k3="1"/>
<feColorMatrix type="matrix" values="0 0 0 0 1 0 0 0 0 1 0 0 0 0 1 0 0 0 0.29 0"/>
<feBlend mode="normal" in2="shape" result="effect2_innerShadow_518_6400"/>
</filter>
<filter id="filter3_ii_518_6400" x="20.3999" y="107.9" width="15.2002" height="16.5238" filterUnits="userSpaceOnUse" color-interpolation-filters="sRGB">
<feFlood flood-opacity="0" result="BackgroundImageFix"/>
<feBlend mode="normal" in="SourceGraphic" in2="BackgroundImageFix" result="shape"/>
<feColorMatrix in="SourceAlpha" type="matrix" values="0 0 0 0 0 0 0 0 0 0 0 0 0 0 0 0 0 0 127 0" result="hardAlpha"/>
<feOffset dy="1.32458"/>
<feGaussianBlur stdDeviation="10.5977"/>
<feComposite in2="hardAlpha" operator="arithmetic" k2="-1" k3="1"/>
<feColorMatrix type="matrix" values="0 0 0 0 1 0 0 0 0 1 0 0 0 0 1 0 0 0 0.12 0"/>
<feBlend mode="normal" in2="shape" result="effect1_innerShadow_518_6400"/>
<feColorMatrix in="SourceAlpha" type="matrix" values="0 0 0 0 0 0 0 0 0 0 0 0 0 0 0 0 0 0 127 0" result="hardAlpha"/>
<feOffset dy="1.32458"/>
<feGaussianBlur stdDeviation="0.662843"/>
<feComposite in2="hardAlpha" operator="arithmetic" k2="-1" k3="1"/>
<feColorMatrix type="matrix" values="0 0 0 0 1 0 0 0 0 1 0 0 0 0 1 0 0 0 0.09 0"/>
<feBlend mode="normal" in2="effect1_innerShadow_518_6400" result="effect2_innerShadow_518_6400"/>
</filter>
<filter id="filter4_ii_518_6400" x="203.667" y="25" width="6" height="7" filterUnits="userSpaceOnUse" color-interpolation-filters="sRGB">
<feFlood flood-opacity="0" result="BackgroundImageFix"/>
<feBlend mode="normal" in="SourceGraphic" in2="BackgroundImageFix" result="shape"/>
<feColorMatrix in="SourceAlpha" type="matrix" values="0 0 0 0 0 0 0 0 0 0 0 0 0 0 0 0 0 0 127 0" result="hardAlpha"/>
<feOffset dy="1"/>
<feGaussianBlur stdDeviation="0.5"/>
<feComposite in2="hardAlpha" operator="arithmetic" k2="-1" k3="1"/>
<feColorMatrix type="matrix" values="0 0 0 0 1 0 0 0 0 1 0 0 0 0 1 0 0 0 0.09 0"/>
<feBlend mode="normal" in2="shape" result="effect1_innerShadow_518_6400"/>
<feColorMatrix in="SourceAlpha" type="matrix" values="0 0 0 0 0 0 0 0 0 0 0 0 0 0 0 0 0 0 127 0" result="hardAlpha"/>
<feOffset dy="1"/>
<feGaussianBlur stdDeviation="8"/>
<feComposite in2="hardAlpha" operator="arithmetic" k2="-1" k3="1"/>
<feColorMatrix type="matrix" values="0 0 0 0 1 0 0 0 0 1 0 0 0 0 1 0 0 0 0.12 0"/>
<feBlend mode="normal" in2="effect1_innerShadow_518_6400" result="effect2_innerShadow_518_6400"/>
</filter>
<radialGradient id="paint0_radial_518_6400" cx="0" cy="0" r="1" gradientUnits="userSpaceOnUse" gradientTransform="translate(151.333 -2.81288) rotate(89.0997) scale(195.558 388.026)">
<stop stop-color="#AAA0DD" stop-opacity="0.17"/>
<stop offset="1" stop-color="#B2A9E3" stop-opacity="0.42"/>
</radialGradient>
<radialGradient id="paint1_radial_518_6400" cx="0" cy="0" r="1" gradientUnits="userSpaceOnUse" gradientTransform="translate(29.25 49) rotate(90) scale(14.8879 3.42155)">
<stop stop-color="#AAA0DD" stop-opacity="0.42"/>
<stop offset="1" stop-color="#A9A0DD"/>
</radialGradient>
<radialGradient id="paint2_radial_518_6400" cx="0" cy="0" r="1" gradientUnits="userSpaceOnUse" gradientTransform="translate(28 85.5761) rotate(89.9605) scale(29.464 2.56436)">
<stop stop-color="white" stop-opacity="0.67"/>
<stop offset="1" stop-color="#AAA0DD" stop-opacity="0.55"/>
</radialGradient>
<radialGradient id="paint3_radial_518_6400" cx="0" cy="0" r="1" gradientUnits="userSpaceOnUse" gradientTransform="translate(40.5 32) rotate(90) scale(13.5345 34.2155)">
<stop stop-color="#AAA0DD" stop-opacity="0.79"/>
<stop offset="1" stop-color="#A9A0DD"/>
</radialGradient>
<radialGradient id="paint4_radial_518_6400" cx="0" cy="0" r="1" gradientUnits="userSpaceOnUse" gradientTransform="translate(40.5 69) rotate(90) scale(13.5345 34.2155)">
<stop stop-color="#AAA0DD" stop-opacity="0.79"/>
<stop offset="1" stop-color="#A9A0DD"/>
</radialGradient>
<radialGradient id="paint5_radial_518_6400" cx="0" cy="0" r="1" gradientUnits="userSpaceOnUse" gradientTransform="translate(28 107.711) rotate(89.5657) scale(20.0896 19.2322)">
<stop stop-color="white" stop-opacity="0.67"/>
<stop offset="1" stop-color="#AAA0DD" stop-opacity="0.55"/>
</radialGradient>
<radialGradient id="paint6_radial_518_6400" cx="0" cy="0" r="1" gradientUnits="userSpaceOnUse" gradientTransform="translate(210.417 25) rotate(90) scale(4.06034 10.2647)">
<stop stop-color="#AAA0DD" stop-opacity="0.42"/>
<stop offset="1" stop-color="#A9A0DD"/>
</radialGradient>
<radialGradient id="paint7_radial_518_6400" cx="0" cy="0" r="1" gradientUnits="userSpaceOnUse" gradientTransform="translate(286.166 20) rotate(90) scale(10.8276 102.647)">
<stop stop-color="#C2EFFE"/>
<stop offset="1" stop-color="#C0BCD2"/>
</radialGradient>
<clipPath id="clip0_518_6400">
<rect width="24" height="96" fill="white" transform="translate(16 32)"/>
</clipPath>
<clipPath id="clip1_518_6400">
<rect width="16" height="16" fill="white" transform="translate(20 34)"/>
</clipPath>
<clipPath id="clip2_518_6400">
<rect width="16" height="16" fill="white" transform="translate(20 71)"/>
</clipPath>
<clipPath id="clip3_518_6400">
<rect width="24" height="24" fill="white" transform="translate(16 104)"/>
</clipPath>
</defs>
</svg>
