<svg width="127" height="25" viewBox="0 0 127 25" fill="none" xmlns="http://www.w3.org/2000/svg">
<path d="M15.6765 5.12402V19.4859H12.7928V10.1436L8.9397 19.4859H6.75668L2.88372 10.1436V19.4859H0V5.12402H3.27606L7.84972 15.8036L12.4234 5.12402H15.6765Z" fill="#535AB4"/>
<path d="M29.4369 8.08496L22.3703 24.8759H19.3004L21.7719 19.1961L17.1982 8.08496H20.4331L23.3794 16.0489L26.3669 8.08496H29.4369Z" fill="#535AB4"/>
<path d="M34.3223 17.396H39.0638V19.6816H31.437V5.31055H34.3223V17.396Z" fill="#8E89D0"/>
<path d="M43.0009 19.134C42.1216 18.6476 41.4301 17.9568 40.9294 17.0648C40.4271 16.1728 40.1768 15.1436 40.1768 13.9756C40.1768 12.8092 40.4348 11.7799 40.9492 10.8864C41.4652 9.99442 42.169 9.30522 43.062 8.81729C43.9551 8.32936 44.9519 8.08691 46.0511 8.08691C47.1502 8.08691 48.1471 8.33088 49.0401 8.81729C49.9332 9.30522 50.6385 9.99442 51.1529 10.8864C51.6689 11.7784 51.9254 12.8076 51.9254 13.9756C51.9254 15.1421 51.6613 16.1728 51.1316 17.0648C50.6018 17.9568 49.8874 18.6476 48.9882 19.134C48.0875 19.6219 47.0815 19.8643 45.9686 19.8643C44.8695 19.8659 43.8803 19.6219 43.0009 19.134ZM47.4433 16.9718C47.9028 16.7187 48.2707 16.3375 48.5455 15.8298C48.8203 15.322 48.9577 14.7045 48.9577 13.9771C48.9577 12.893 48.6722 12.059 48.1028 11.475C47.5319 10.8925 46.8357 10.5998 46.0099 10.5998C45.1855 10.5998 44.4955 10.891 43.9383 11.475C43.3811 12.059 43.1032 12.893 43.1032 13.9771C43.1032 15.0613 43.375 15.8953 43.9169 16.4793C44.4588 17.0633 45.1428 17.3545 45.9686 17.3545C46.4907 17.353 46.9823 17.2265 47.4433 16.9718Z" fill="#8E89D0"/>
<path d="M53.9987 10.8686C54.4597 9.97655 55.0841 9.2904 55.8749 8.81009C56.6656 8.32978 57.548 8.08887 58.5235 8.08887C59.3753 8.08887 60.1218 8.26117 60.7599 8.60424C61.3996 8.94732 61.911 9.38036 62.2957 9.90184V8.27489H65.2023V19.6818H62.2957V18.0137C61.9247 18.5489 61.4118 18.9911 60.7599 19.3418C60.1066 19.6925 59.3539 19.8663 58.5021 19.8663C57.5404 19.8663 56.6641 19.6193 55.8733 19.1252C55.0826 18.6312 54.4582 17.9344 53.9971 17.0348C53.5361 16.1352 53.3071 15.1029 53.3071 13.9364C53.3071 12.7822 53.5376 11.759 53.9987 10.8686ZM61.882 12.1738C61.6072 11.6721 61.2362 11.2879 60.7691 11.021C60.302 10.7542 59.7997 10.62 59.2639 10.62C58.728 10.62 58.2334 10.7511 57.78 11.0104C57.3266 11.2711 56.9587 11.6523 56.6778 12.1524C56.3954 12.6541 56.255 13.2472 56.255 13.9334C56.255 14.6195 56.3954 15.2203 56.6778 15.7341C56.9587 16.2495 57.3297 16.6444 57.7907 16.9189C58.2517 17.1933 58.7418 17.3306 59.2654 17.3306C59.8012 17.3306 60.3035 17.1964 60.7706 16.9296C61.2378 16.6612 61.6087 16.2785 61.8835 15.7768C62.1583 15.2752 62.2957 14.6759 62.2957 13.9745C62.2957 13.2731 62.1568 12.6769 61.882 12.1738Z" fill="#8E89D0"/>
<path d="M77.6516 9.39532C78.4897 10.2538 78.9095 11.4507 78.9095 12.9877V19.68H76.0242V13.3796C76.0242 12.4738 75.7968 11.777 75.3434 11.2891C74.89 10.8027 74.2717 10.5587 73.4886 10.5587C72.6917 10.5587 72.0627 10.8027 71.6017 11.2891C71.1407 11.777 70.9117 12.4723 70.9117 13.3796V19.68H68.0249V8.27307H70.9117V9.69417C71.2964 9.20014 71.7879 8.81285 72.3848 8.53076C72.9833 8.2502 73.6382 8.1084 74.3541 8.1084C75.7128 8.1084 76.8119 8.53839 77.6516 9.39532Z" fill="#8E89D0"/>
<path d="M82.3137 8.67524C82.9533 7.55605 83.825 6.6854 84.9318 6.06024C86.0386 5.43508 87.2781 5.12402 88.6521 5.12402C90.2596 5.12402 91.6686 5.53572 92.8777 6.3591C94.0867 7.18248 94.9325 8.32149 95.4133 9.77766H92.0945C91.7648 9.09151 91.3007 8.57613 90.7038 8.23305C90.1054 7.88998 89.4154 7.71768 88.6322 7.71768C87.7941 7.71768 87.0476 7.91285 86.3958 8.30472C85.7424 8.69506 85.2341 9.24856 84.8707 9.96216C84.5059 10.6758 84.3242 11.5129 84.3242 12.4735C84.3242 13.4204 84.5059 14.2544 84.8707 14.9756C85.2341 15.6969 85.7439 16.2519 86.3958 16.6438C87.0476 17.0356 87.7941 17.2308 88.6322 17.2308C89.4154 17.2308 90.1069 17.0554 90.7038 16.7063C91.3022 16.3556 91.7648 15.8387 92.0945 15.151H95.4133C94.9325 16.6194 94.0898 17.763 92.8884 18.5787C91.6854 19.396 90.2733 19.8031 88.6521 19.8031C87.2781 19.8031 86.037 19.4905 84.9318 18.8669C83.825 18.2417 82.9533 17.3741 82.3137 16.2626C81.674 15.151 81.355 13.8885 81.355 12.4735C81.3535 11.06 81.674 9.79443 82.3137 8.67524Z" fill="#535AB4"/>
<path d="M105.307 19.6816L102.132 14.0811H100.772V19.6816H97.8848V5.31055H103.286C104.399 5.31055 105.347 5.50572 106.13 5.89759C106.913 6.28946 107.501 6.81703 107.893 7.48336C108.285 8.14969 108.481 8.89379 108.481 9.71717C108.481 10.6641 108.206 11.5195 107.656 12.2803C107.107 13.0427 106.289 13.5672 105.203 13.8554L108.646 19.6816H105.307ZM100.772 11.9174H103.184C103.967 11.9174 104.551 11.7284 104.936 11.3517C105.321 10.9736 105.513 10.4491 105.513 9.77664C105.513 9.11793 105.321 8.60712 104.936 8.2427C104.551 7.8798 103.967 7.69683 103.184 7.69683H100.772V11.9174Z" fill="#535AB4"/>
<path d="M126.786 5.30957V19.6806H123.9V10.3337L120.045 19.6806H117.86L113.984 10.3337V19.6806H111.099V5.30957H114.377L118.953 15.9953L123.53 5.30957H126.786Z" fill="#535AB4"/>
</svg>
