<svg width="729" height="96" viewBox="0 0 729 96" fill="none" xmlns="http://www.w3.org/2000/svg">
<path d="M241.029 9.19105V6.90909H251.78V9.19105H247.772V20H245.037V9.19105H241.029ZM252.48 20V10.1818H255.12V11.8949H255.222C255.401 11.2855 255.702 10.8253 256.124 10.5142C256.546 10.1989 257.031 10.0412 257.581 10.0412C257.717 10.0412 257.864 10.0497 258.022 10.0668C258.18 10.0838 258.318 10.1072 258.438 10.1371V12.5533C258.31 12.5149 258.133 12.4808 257.907 12.451C257.681 12.4212 257.475 12.4062 257.287 12.4062C256.886 12.4062 256.528 12.4936 256.213 12.6683C255.902 12.8388 255.655 13.0774 255.472 13.3842C255.293 13.6911 255.203 14.0447 255.203 14.4453V20H252.48ZM266.142 15.8196V10.1818H268.865V20H266.25V18.2166H266.148C265.926 18.7919 265.558 19.2543 265.042 19.6037C264.531 19.9531 263.907 20.1278 263.169 20.1278C262.513 20.1278 261.936 19.9787 261.437 19.6804C260.938 19.3821 260.549 18.9581 260.267 18.4084C259.99 17.8587 259.85 17.2003 259.845 16.4332V10.1818H262.568V15.9474C262.573 16.527 262.728 16.9851 263.035 17.3217C263.342 17.6584 263.753 17.8267 264.269 17.8267C264.597 17.8267 264.904 17.7521 265.189 17.603C265.475 17.4496 265.705 17.2237 265.88 16.9254C266.059 16.6271 266.146 16.2585 266.142 15.8196ZM279.212 12.9815L276.719 13.1349C276.676 12.9219 276.585 12.7301 276.444 12.5597C276.303 12.3849 276.118 12.2464 275.888 12.1442C275.662 12.0376 275.391 11.9844 275.076 11.9844C274.654 11.9844 274.298 12.0739 274.009 12.2528C273.719 12.4276 273.574 12.6619 273.574 12.956C273.574 13.1903 273.668 13.3885 273.855 13.5504C274.043 13.7124 274.364 13.8423 274.82 13.9403L276.597 14.2983C277.552 14.4943 278.264 14.8097 278.732 15.2443C279.201 15.679 279.435 16.25 279.435 16.9574C279.435 17.6009 279.246 18.1655 278.867 18.6513C278.492 19.1371 277.976 19.5163 277.32 19.7891C276.668 20.0575 275.916 20.1918 275.063 20.1918C273.764 20.1918 272.728 19.9212 271.957 19.38C271.19 18.8345 270.74 18.093 270.608 17.1555L273.286 17.0149C273.367 17.4112 273.563 17.7138 273.874 17.9226C274.185 18.1271 274.584 18.2294 275.07 18.2294C275.547 18.2294 275.93 18.1378 276.22 17.9545C276.514 17.767 276.663 17.5263 276.668 17.2322C276.663 16.9851 276.559 16.7827 276.354 16.625C276.15 16.4631 275.835 16.3395 275.408 16.2543L273.708 15.9155C272.749 15.7237 272.036 15.3913 271.567 14.9183C271.102 14.4453 270.87 13.8423 270.87 13.1094C270.87 12.4787 271.041 11.9354 271.381 11.4794C271.727 11.0234 272.21 10.6719 272.832 10.4247C273.459 10.1776 274.192 10.054 275.031 10.054C276.271 10.054 277.247 10.3161 277.959 10.8402C278.675 11.3643 279.092 12.0781 279.212 12.9815ZM286.372 10.1818V12.2273H280.46V10.1818H286.372ZM281.802 7.82955H284.525V16.983C284.525 17.2344 284.563 17.4304 284.64 17.571C284.717 17.7074 284.823 17.8033 284.96 17.8587C285.1 17.9141 285.262 17.9418 285.446 17.9418C285.573 17.9418 285.701 17.9311 285.829 17.9098C285.957 17.8842 286.055 17.8651 286.123 17.8523L286.551 19.8786C286.415 19.9212 286.223 19.9702 285.976 20.0256C285.729 20.0852 285.429 20.1214 285.075 20.1342C284.419 20.1598 283.843 20.0724 283.349 19.8722C282.859 19.6719 282.478 19.3608 282.205 18.9389C281.932 18.517 281.798 17.9844 281.802 17.3409V7.82955ZM292.515 20.1918C291.505 20.1918 290.636 19.9872 289.907 19.5781C289.183 19.1648 288.625 18.581 288.233 17.8267C287.84 17.0682 287.644 16.1712 287.644 15.1357C287.644 14.1257 287.84 13.2393 288.233 12.4766C288.625 11.7138 289.176 11.1193 289.888 10.6932C290.604 10.267 291.443 10.054 292.407 10.054C293.054 10.054 293.657 10.1584 294.215 10.3672C294.778 10.5717 295.268 10.8807 295.686 11.294C296.108 11.7074 296.436 12.2273 296.67 12.8537C296.904 13.4759 297.022 14.2045 297.022 15.0398V15.7876H288.731V14.1001H294.458C294.458 13.7081 294.373 13.3608 294.203 13.0582C294.032 12.7557 293.796 12.5192 293.493 12.3487C293.195 12.174 292.848 12.0866 292.451 12.0866C292.038 12.0866 291.671 12.1825 291.352 12.3743C291.036 12.5618 290.789 12.8153 290.61 13.1349C290.431 13.4503 290.34 13.8018 290.335 14.1896V15.794C290.335 16.2798 290.425 16.6996 290.604 17.0533C290.787 17.407 291.045 17.6797 291.377 17.8714C291.71 18.0632 292.104 18.1591 292.56 18.1591C292.862 18.1591 293.139 18.1165 293.391 18.0312C293.642 17.946 293.858 17.8182 294.036 17.6477C294.215 17.4773 294.352 17.2685 294.446 17.0213L296.964 17.1875C296.836 17.7926 296.574 18.321 296.178 18.7727C295.786 19.2202 295.279 19.5696 294.657 19.821C294.039 20.0682 293.325 20.1918 292.515 20.1918ZM302.416 20.1598C301.671 20.1598 300.995 19.968 300.39 19.5845C299.789 19.1967 299.312 18.6278 298.958 17.8778C298.609 17.1236 298.434 16.1989 298.434 15.1037C298.434 13.9787 298.615 13.0433 298.978 12.2976C299.34 11.5476 299.821 10.9872 300.422 10.6165C301.027 10.2415 301.69 10.054 302.41 10.054C302.96 10.054 303.418 10.1477 303.784 10.3352C304.155 10.5185 304.453 10.7486 304.679 11.0256C304.909 11.2983 305.084 11.5668 305.203 11.831H305.286V6.90909H308.003V20H305.318V18.4276H305.203C305.076 18.7003 304.894 18.9709 304.66 19.2393C304.43 19.5036 304.13 19.723 303.759 19.8977C303.392 20.0724 302.945 20.1598 302.416 20.1598ZM303.279 17.9929C303.718 17.9929 304.089 17.8736 304.392 17.6349C304.698 17.392 304.933 17.0533 305.095 16.6186C305.261 16.1839 305.344 15.6747 305.344 15.0909C305.344 14.5071 305.263 14 305.101 13.5696C304.939 13.1392 304.705 12.8068 304.398 12.5724C304.091 12.3381 303.718 12.2209 303.279 12.2209C302.832 12.2209 302.455 12.3423 302.148 12.5852C301.841 12.8281 301.609 13.1648 301.451 13.5952C301.294 14.0256 301.215 14.5241 301.215 15.0909C301.215 15.6619 301.294 16.1669 301.451 16.6058C301.613 17.0405 301.845 17.3814 302.148 17.6286C302.455 17.8714 302.832 17.9929 303.279 17.9929ZM314.459 20V6.90909H317.182V11.831H317.265C317.384 11.5668 317.557 11.2983 317.783 11.0256C318.013 10.7486 318.311 10.5185 318.678 10.3352C319.049 10.1477 319.509 10.054 320.059 10.054C320.774 10.054 321.435 10.2415 322.04 10.6165C322.645 10.9872 323.129 11.5476 323.491 12.2976C323.853 13.0433 324.034 13.9787 324.034 15.1037C324.034 16.1989 323.858 17.1236 323.504 17.8778C323.154 18.6278 322.677 19.1967 322.072 19.5845C321.471 19.968 320.798 20.1598 320.052 20.1598C319.524 20.1598 319.074 20.0724 318.703 19.8977C318.337 19.723 318.036 19.5036 317.802 19.2393C317.568 18.9709 317.389 18.7003 317.265 18.4276H317.144V20H314.459ZM317.125 15.0909C317.125 15.6747 317.206 16.1839 317.367 16.6186C317.529 17.0533 317.764 17.392 318.071 17.6349C318.377 17.8736 318.75 17.9929 319.189 17.9929C319.632 17.9929 320.007 17.8714 320.314 17.6286C320.621 17.3814 320.853 17.0405 321.011 16.6058C321.173 16.1669 321.254 15.6619 321.254 15.0909C321.254 14.5241 321.175 14.0256 321.017 13.5952C320.86 13.1648 320.627 12.8281 320.321 12.5852C320.014 12.3423 319.637 12.2209 319.189 12.2209C318.746 12.2209 318.371 12.3381 318.064 12.5724C317.762 12.8068 317.529 13.1392 317.367 13.5696C317.206 14 317.125 14.5071 317.125 15.0909ZM327.216 23.6818C326.871 23.6818 326.547 23.6541 326.244 23.5987C325.946 23.5476 325.699 23.4815 325.503 23.4006L326.117 21.3679C326.436 21.4659 326.724 21.5192 326.979 21.5277C327.239 21.5362 327.463 21.4766 327.651 21.3487C327.842 21.2209 327.998 21.0036 328.117 20.6967L328.277 20.2812L324.755 10.1818H327.619L329.651 17.392H329.754L331.805 10.1818H334.688L330.872 21.0611C330.689 21.5895 330.44 22.0497 330.124 22.4418C329.813 22.8381 329.419 23.1428 328.942 23.3558C328.465 23.5732 327.889 23.6818 327.216 23.6818ZM343.067 6.90909V20H340.299V6.90909H343.067ZM348.016 14.3239V20H345.293V10.1818H347.888V11.9141H348.003C348.22 11.343 348.585 10.8913 349.096 10.5589C349.607 10.2223 350.227 10.054 350.956 10.054C351.638 10.054 352.232 10.2031 352.739 10.5014C353.247 10.7997 353.641 11.2259 353.922 11.7798C354.203 12.3295 354.344 12.9858 354.344 13.7486V20H351.621V14.2344C351.625 13.6335 351.472 13.1648 351.161 12.8281C350.85 12.4872 350.421 12.3168 349.876 12.3168C349.509 12.3168 349.185 12.3956 348.904 12.5533C348.627 12.7109 348.41 12.9411 348.252 13.2436C348.099 13.5419 348.02 13.902 348.016 14.3239ZM360.108 20.1598C359.362 20.1598 358.687 19.968 358.082 19.5845C357.481 19.1967 357.003 18.6278 356.65 17.8778C356.3 17.1236 356.126 16.1989 356.126 15.1037C356.126 13.9787 356.307 13.0433 356.669 12.2976C357.031 11.5476 357.513 10.9872 358.114 10.6165C358.719 10.2415 359.381 10.054 360.101 10.054C360.651 10.054 361.109 10.1477 361.476 10.3352C361.847 10.5185 362.145 10.7486 362.371 11.0256C362.601 11.2983 362.775 11.5668 362.895 11.831H362.978V6.90909H365.695V20H363.01V18.4276H362.895C362.767 18.7003 362.586 18.9709 362.351 19.2393C362.121 19.5036 361.821 19.723 361.45 19.8977C361.084 20.0724 360.636 20.1598 360.108 20.1598ZM360.971 17.9929C361.41 17.9929 361.78 17.8736 362.083 17.6349C362.39 17.392 362.624 17.0533 362.786 16.6186C362.952 16.1839 363.035 15.6747 363.035 15.0909C363.035 14.5071 362.954 14 362.793 13.5696C362.631 13.1392 362.396 12.8068 362.089 12.5724C361.783 12.3381 361.41 12.2209 360.971 12.2209C360.523 12.2209 360.146 12.3423 359.839 12.5852C359.533 12.8281 359.3 13.1648 359.143 13.5952C358.985 14.0256 358.906 14.5241 358.906 15.0909C358.906 15.6619 358.985 16.1669 359.143 16.6058C359.305 17.0405 359.537 17.3814 359.839 17.6286C360.146 17.8714 360.523 17.9929 360.971 17.9929ZM374.229 15.8196V10.1818H376.953V20H374.338V18.2166H374.236C374.014 18.7919 373.646 19.2543 373.13 19.6037C372.619 19.9531 371.994 20.1278 371.257 20.1278C370.601 20.1278 370.024 19.9787 369.525 19.6804C369.026 19.3821 368.636 18.9581 368.355 18.4084C368.078 17.8587 367.938 17.2003 367.933 16.4332V10.1818H370.656V15.9474C370.661 16.527 370.816 16.9851 371.123 17.3217C371.43 17.6584 371.841 17.8267 372.357 17.8267C372.685 17.8267 372.992 17.7521 373.277 17.603C373.563 17.4496 373.793 17.2237 373.967 16.9254C374.146 16.6271 374.234 16.2585 374.229 15.8196ZM387.3 12.9815L384.807 13.1349C384.764 12.9219 384.672 12.7301 384.532 12.5597C384.391 12.3849 384.206 12.2464 383.976 12.1442C383.75 12.0376 383.479 11.9844 383.164 11.9844C382.742 11.9844 382.386 12.0739 382.097 12.2528C381.807 12.4276 381.662 12.6619 381.662 12.956C381.662 13.1903 381.756 13.3885 381.943 13.5504C382.131 13.7124 382.452 13.8423 382.908 13.9403L384.685 14.2983C385.64 14.4943 386.351 14.8097 386.82 15.2443C387.289 15.679 387.523 16.25 387.523 16.9574C387.523 17.6009 387.334 18.1655 386.954 18.6513C386.579 19.1371 386.064 19.5163 385.408 19.7891C384.756 20.0575 384.003 20.1918 383.151 20.1918C381.851 20.1918 380.816 19.9212 380.045 19.38C379.278 18.8345 378.828 18.093 378.696 17.1555L381.374 17.0149C381.455 17.4112 381.651 17.7138 381.962 17.9226C382.273 18.1271 382.672 18.2294 383.158 18.2294C383.635 18.2294 384.018 18.1378 384.308 17.9545C384.602 17.767 384.751 17.5263 384.756 17.2322C384.751 16.9851 384.647 16.7827 384.442 16.625C384.238 16.4631 383.922 16.3395 383.496 16.2543L381.796 15.9155C380.837 15.7237 380.123 15.3913 379.655 14.9183C379.19 14.4453 378.958 13.8423 378.958 13.1094C378.958 12.4787 379.128 11.9354 379.469 11.4794C379.815 11.0234 380.298 10.6719 380.92 10.4247C381.547 10.1776 382.28 10.054 383.119 10.054C384.359 10.054 385.335 10.3161 386.047 10.8402C386.763 11.3643 387.18 12.0781 387.3 12.9815ZM394.46 10.1818V12.2273H388.548V10.1818H394.46ZM389.89 7.82955H392.613V16.983C392.613 17.2344 392.651 17.4304 392.728 17.571C392.805 17.7074 392.911 17.8033 393.048 17.8587C393.188 17.9141 393.35 17.9418 393.533 17.9418C393.661 17.9418 393.789 17.9311 393.917 17.9098C394.045 17.8842 394.143 17.8651 394.211 17.8523L394.639 19.8786C394.503 19.9212 394.311 19.9702 394.064 20.0256C393.817 20.0852 393.516 20.1214 393.163 20.1342C392.506 20.1598 391.931 20.0724 391.437 19.8722C390.947 19.6719 390.565 19.3608 390.293 18.9389C390.02 18.517 389.886 17.9844 389.89 17.3409V7.82955ZM396.234 20V10.1818H398.874V11.8949H398.976C399.155 11.2855 399.456 10.8253 399.878 10.5142C400.299 10.1989 400.785 10.0412 401.335 10.0412C401.471 10.0412 401.618 10.0497 401.776 10.0668C401.934 10.0838 402.072 10.1072 402.191 10.1371V12.5533C402.064 12.5149 401.887 12.4808 401.661 12.451C401.435 12.4212 401.228 12.4062 401.041 12.4062C400.64 12.4062 400.282 12.4936 399.967 12.6683C399.656 12.8388 399.409 13.0774 399.226 13.3842C399.047 13.6911 398.957 14.0447 398.957 14.4453V20H396.234ZM405.579 23.6818C405.234 23.6818 404.91 23.6541 404.608 23.5987C404.309 23.5476 404.062 23.4815 403.866 23.4006L404.48 21.3679C404.799 21.4659 405.087 21.5192 405.343 21.5277C405.603 21.5362 405.826 21.4766 406.014 21.3487C406.206 21.2209 406.361 21.0036 406.481 20.6967L406.64 20.2812L403.118 10.1818H405.982L408.015 17.392H408.117L410.169 10.1818H413.052L409.236 21.0611C409.052 21.5895 408.803 22.0497 408.488 22.4418C408.177 22.8381 407.782 23.1428 407.305 23.3558C406.828 23.5732 406.253 23.6818 405.579 23.6818ZM418.662 20V6.90909H421.43V17.718H427.042V20H418.662ZM433.298 20.1918C432.288 20.1918 431.419 19.9872 430.69 19.5781C429.966 19.1648 429.408 18.581 429.016 17.8267C428.624 17.0682 428.428 16.1712 428.428 15.1357C428.428 14.1257 428.624 13.2393 429.016 12.4766C429.408 11.7138 429.96 11.1193 430.671 10.6932C431.387 10.267 432.227 10.054 433.19 10.054C433.837 10.054 434.44 10.1584 434.999 10.3672C435.561 10.5717 436.051 10.8807 436.469 11.294C436.891 11.7074 437.219 12.2273 437.453 12.8537C437.688 13.4759 437.805 14.2045 437.805 15.0398V15.7876H429.514V14.1001H435.242C435.242 13.7081 435.156 13.3608 434.986 13.0582C434.815 12.7557 434.579 12.5192 434.276 12.3487C433.978 12.174 433.631 12.0866 433.234 12.0866C432.821 12.0866 432.455 12.1825 432.135 12.3743C431.82 12.5618 431.573 12.8153 431.394 13.1349C431.215 13.4503 431.123 13.8018 431.119 14.1896V15.794C431.119 16.2798 431.208 16.6996 431.387 17.0533C431.57 17.407 431.828 17.6797 432.161 17.8714C432.493 18.0632 432.887 18.1591 433.343 18.1591C433.646 18.1591 433.923 18.1165 434.174 18.0312C434.426 17.946 434.641 17.8182 434.82 17.6477C434.999 17.4773 435.135 17.2685 435.229 17.0213L437.747 17.1875C437.619 17.7926 437.357 18.321 436.961 18.7727C436.569 19.2202 436.062 19.5696 435.44 19.821C434.822 20.0682 434.108 20.1918 433.298 20.1918ZM442.381 20.1854C441.755 20.1854 441.197 20.0767 440.707 19.8594C440.217 19.6378 439.829 19.3118 439.543 18.8814C439.262 18.4467 439.122 17.9055 439.122 17.2578C439.122 16.7124 439.222 16.2543 439.422 15.8835C439.622 15.5128 439.895 15.2145 440.24 14.9886C440.585 14.7628 440.977 14.5923 441.416 14.4773C441.859 14.3622 442.324 14.2812 442.81 14.2344C443.381 14.1747 443.841 14.1193 444.19 14.0682C444.54 14.0128 444.793 13.9318 444.951 13.8253C445.109 13.7187 445.188 13.5611 445.188 13.3523V13.3139C445.188 12.9091 445.06 12.5959 444.804 12.3743C444.553 12.1527 444.195 12.0419 443.73 12.0419C443.24 12.0419 442.85 12.1506 442.56 12.3679C442.271 12.581 442.079 12.8494 441.985 13.1733L439.467 12.9688C439.595 12.3722 439.846 11.8565 440.221 11.4219C440.596 10.983 441.08 10.6463 441.672 10.4119C442.269 10.1733 442.959 10.054 443.743 10.054C444.288 10.054 444.81 10.1179 445.309 10.2457C445.812 10.3736 446.257 10.5717 446.645 10.8402C447.037 11.1087 447.346 11.4538 447.572 11.8757C447.798 12.2933 447.911 12.794 447.911 13.3778V20H445.328V18.6385H445.252C445.094 18.9453 444.883 19.2159 444.619 19.4503C444.354 19.6804 444.037 19.8615 443.666 19.9936C443.296 20.1214 442.867 20.1854 442.381 20.1854ZM443.161 18.3061C443.562 18.3061 443.916 18.2273 444.222 18.0696C444.529 17.9077 444.77 17.6903 444.945 17.4176C445.119 17.1449 445.207 16.8359 445.207 16.4908V15.4489C445.122 15.5043 445.004 15.5554 444.855 15.6023C444.71 15.6449 444.546 15.6854 444.363 15.7237C444.18 15.7578 443.997 15.7898 443.813 15.8196C443.63 15.8452 443.464 15.8686 443.315 15.8899C442.995 15.9368 442.716 16.0114 442.477 16.1136C442.239 16.2159 442.053 16.3544 441.921 16.5291C441.789 16.6996 441.723 16.9126 441.723 17.1683C441.723 17.5391 441.857 17.8224 442.126 18.0185C442.399 18.2102 442.744 18.3061 443.161 18.3061ZM453.641 20.1598C452.895 20.1598 452.22 19.968 451.615 19.5845C451.014 19.1967 450.537 18.6278 450.183 17.8778C449.834 17.1236 449.659 16.1989 449.659 15.1037C449.659 13.9787 449.84 13.0433 450.202 12.2976C450.564 11.5476 451.046 10.9872 451.647 10.6165C452.252 10.2415 452.915 10.054 453.635 10.054C454.184 10.054 454.642 10.1477 455.009 10.3352C455.38 10.5185 455.678 10.7486 455.904 11.0256C456.134 11.2983 456.309 11.5668 456.428 11.831H456.511V6.90909H459.228V20H456.543V18.4276H456.428C456.3 18.7003 456.119 18.9709 455.885 19.2393C455.655 19.5036 455.354 19.723 454.983 19.8977C454.617 20.0724 454.169 20.1598 453.641 20.1598ZM454.504 17.9929C454.943 17.9929 455.314 17.8736 455.616 17.6349C455.923 17.392 456.157 17.0533 456.319 16.6186C456.486 16.1839 456.569 15.6747 456.569 15.0909C456.569 14.5071 456.488 14 456.326 13.5696C456.164 13.1392 455.929 12.8068 455.623 12.5724C455.316 12.3381 454.943 12.2209 454.504 12.2209C454.057 12.2209 453.679 12.3423 453.373 12.5852C453.066 12.8281 452.834 13.1648 452.676 13.5952C452.518 14.0256 452.439 14.5241 452.439 15.0909C452.439 15.6619 452.518 16.1669 452.676 16.6058C452.838 17.0405 453.07 17.3814 453.373 17.6286C453.679 17.8714 454.057 17.9929 454.504 17.9929ZM465.941 20.1918C464.931 20.1918 464.062 19.9872 463.333 19.5781C462.609 19.1648 462.05 18.581 461.658 17.8267C461.266 17.0682 461.07 16.1712 461.07 15.1357C461.07 14.1257 461.266 13.2393 461.658 12.4766C462.05 11.7138 462.602 11.1193 463.314 10.6932C464.03 10.267 464.869 10.054 465.832 10.054C466.48 10.054 467.083 10.1584 467.641 10.3672C468.204 10.5717 468.694 10.8807 469.111 11.294C469.533 11.7074 469.861 12.2273 470.096 12.8537C470.33 13.4759 470.447 14.2045 470.447 15.0398V15.7876H462.157V14.1001H467.884C467.884 13.7081 467.799 13.3608 467.628 13.0582C467.458 12.7557 467.222 12.5192 466.919 12.3487C466.621 12.174 466.273 12.0866 465.877 12.0866C465.464 12.0866 465.097 12.1825 464.778 12.3743C464.462 12.5618 464.215 12.8153 464.036 13.1349C463.857 13.4503 463.766 13.8018 463.761 14.1896V15.794C463.761 16.2798 463.851 16.6996 464.03 17.0533C464.213 17.407 464.471 17.6797 464.803 17.8714C465.136 18.0632 465.53 18.1591 465.986 18.1591C466.288 18.1591 466.565 18.1165 466.817 18.0312C467.068 17.946 467.283 17.8182 467.462 17.6477C467.641 17.4773 467.778 17.2685 467.871 17.0213L470.39 17.1875C470.262 17.7926 470 18.321 469.604 18.7727C469.212 19.2202 468.704 19.5696 468.082 19.821C467.464 20.0682 466.751 20.1918 465.941 20.1918ZM472.224 20V10.1818H474.864V11.8949H474.967C475.146 11.2855 475.446 10.8253 475.868 10.5142C476.29 10.1989 476.775 10.0412 477.325 10.0412C477.462 10.0412 477.609 10.0497 477.766 10.0668C477.924 10.0838 478.062 10.1072 478.182 10.1371V12.5533C478.054 12.5149 477.877 12.4808 477.651 12.451C477.425 12.4212 477.219 12.4062 477.031 12.4062C476.631 12.4062 476.273 12.4936 475.957 12.6683C475.646 12.8388 475.399 13.0774 475.216 13.3842C475.037 13.6911 474.947 14.0447 474.947 14.4453V20H472.224ZM487.759 12.9815L485.266 13.1349C485.223 12.9219 485.131 12.7301 484.991 12.5597C484.85 12.3849 484.665 12.2464 484.435 12.1442C484.209 12.0376 483.938 11.9844 483.623 11.9844C483.201 11.9844 482.845 12.0739 482.555 12.2528C482.266 12.4276 482.121 12.6619 482.121 12.956C482.121 13.1903 482.215 13.3885 482.402 13.5504C482.59 13.7124 482.911 13.8423 483.367 13.9403L485.144 14.2983C486.099 14.4943 486.81 14.8097 487.279 15.2443C487.748 15.679 487.982 16.25 487.982 16.9574C487.982 17.6009 487.793 18.1655 487.413 18.6513C487.038 19.1371 486.523 19.5163 485.867 19.7891C485.215 20.0575 484.462 20.1918 483.61 20.1918C482.31 20.1918 481.275 19.9212 480.504 19.38C479.737 18.8345 479.287 18.093 479.155 17.1555L481.833 17.0149C481.914 17.4112 482.11 17.7138 482.421 17.9226C482.732 18.1271 483.131 18.2294 483.617 18.2294C484.094 18.2294 484.477 18.1378 484.767 17.9545C485.061 17.767 485.21 17.5263 485.215 17.2322C485.21 16.9851 485.106 16.7827 484.901 16.625C484.697 16.4631 484.381 16.3395 483.955 16.2543L482.255 15.9155C481.296 15.7237 480.582 15.3913 480.114 14.9183C479.649 14.4453 479.417 13.8423 479.417 13.1094C479.417 12.4787 479.587 11.9354 479.928 11.4794C480.274 11.0234 480.757 10.6719 481.379 10.4247C482.006 10.1776 482.739 10.054 483.578 10.054C484.818 10.054 485.794 10.3161 486.506 10.8402C487.222 11.3643 487.639 12.0781 487.759 12.9815Z" fill="#333333"/>
<path d="M100.925 66.3792C100.925 69.6009 98.3135 72.2126 95.0919 72.2126C91.8702 72.2126 89.2585 69.6009 89.2585 66.3792C89.2585 63.1576 91.8702 60.5459 95.0919 60.5459C98.3135 60.5459 100.925 63.1576 100.925 66.3792Z" stroke="#3D3D3D" stroke-width="2"/>
<path d="M103.842 72.2126C107.063 72.2126 109.675 69.6009 109.675 66.3792C109.675 63.1576 107.063 60.5459 103.842 60.5459" stroke="#3D3D3D" stroke-width="2" stroke-linecap="round" stroke-linejoin="round"/>
<path d="M98.0085 76.5879H92.1752C88.1481 76.5879 84.8835 79.8525 84.8835 83.8796C84.8835 85.4904 86.1894 86.7962 87.8002 86.7962H102.384C103.994 86.7962 105.3 85.4904 105.3 83.8796C105.3 79.8525 102.036 76.5879 98.0085 76.5879Z" stroke="#3D3D3D" stroke-width="2" stroke-linejoin="round"/>
<path d="M106.759 76.5879C110.786 76.5879 114.05 79.8525 114.05 83.8796C114.05 85.4904 112.744 86.7962 111.134 86.7962H108.946" stroke="#3D3D3D" stroke-width="2" stroke-linecap="round" stroke-linejoin="round"/>
<path d="M129.586 73.1615C128.45 73.1615 127.433 72.9484 126.535 72.5223C125.637 72.0905 124.924 71.4996 124.396 70.7496C123.873 69.9996 123.595 69.1416 123.561 68.1757H126.629C126.686 68.8916 126.995 69.4768 127.558 69.9314C128.12 70.3802 128.796 70.6047 129.586 70.6047C130.205 70.6047 130.757 70.4626 131.24 70.1785C131.722 69.8944 132.103 69.4996 132.382 68.9939C132.66 68.4882 132.796 67.9115 132.791 67.2638C132.796 66.6047 132.657 66.0194 132.373 65.5081C132.089 64.9967 131.7 64.5961 131.205 64.3064C130.711 64.0109 130.143 63.8632 129.501 63.8632C128.978 63.8575 128.464 63.9541 127.958 64.153C127.453 64.3518 127.052 64.6132 126.757 64.9371L123.901 64.4683L124.813 55.4683H134.938V58.1104H127.43L126.927 62.7382H127.029C127.353 62.3575 127.811 62.0422 128.401 61.7922C128.992 61.5365 129.64 61.4086 130.345 61.4086C131.401 61.4086 132.345 61.6586 133.174 62.1586C134.004 62.653 134.657 63.3348 135.134 64.2041C135.612 65.0734 135.85 66.0677 135.85 67.1871C135.85 68.3405 135.583 69.3689 135.049 70.2723C134.521 71.17 133.785 71.8774 132.842 72.3944C131.904 72.9058 130.819 73.1615 129.586 73.1615ZM145.637 73.2552C144.234 73.2552 143.029 72.9001 142.024 72.1899C141.024 71.474 140.254 70.4427 139.714 69.0961C139.18 67.7439 138.913 66.116 138.913 64.2126C138.918 62.3092 139.188 60.6899 139.722 59.3547C140.262 58.0138 141.032 56.991 142.032 56.2865C143.038 55.5819 144.239 55.2297 145.637 55.2297C147.035 55.2297 148.237 55.5819 149.242 56.2865C150.248 56.991 151.018 58.0138 151.552 59.3547C152.092 60.6956 152.362 62.3149 152.362 64.2126C152.362 66.1217 152.092 67.7524 151.552 69.1047C151.018 70.4513 150.248 71.4797 149.242 72.1899C148.242 72.9001 147.041 73.2552 145.637 73.2552ZM145.637 70.5876C146.728 70.5876 147.589 70.0507 148.22 68.9768C148.856 67.8973 149.174 66.3092 149.174 64.2126C149.174 62.8263 149.029 61.6615 148.739 60.7183C148.45 59.7751 148.041 59.0649 147.512 58.5876C146.984 58.1047 146.359 57.8632 145.637 57.8632C144.552 57.8632 143.694 58.403 143.063 59.4825C142.433 60.5564 142.114 62.1331 142.109 64.2126C142.103 65.6047 142.242 66.7751 142.526 67.724C142.816 68.6729 143.225 69.3888 143.754 69.8717C144.282 70.349 144.91 70.5876 145.637 70.5876ZM162.125 73.2552C160.722 73.2552 159.517 72.9001 158.511 72.1899C157.511 71.474 156.741 70.4427 156.202 69.0961C155.668 67.7439 155.401 66.116 155.401 64.2126C155.406 62.3092 155.676 60.6899 156.21 59.3547C156.75 58.0138 157.52 56.991 158.52 56.2865C159.526 55.5819 160.727 55.2297 162.125 55.2297C163.523 55.2297 164.724 55.5819 165.73 56.2865C166.736 56.991 167.506 58.0138 168.04 59.3547C168.579 60.6956 168.849 62.3149 168.849 64.2126C168.849 66.1217 168.579 67.7524 168.04 69.1047C167.506 70.4513 166.736 71.4797 165.73 72.1899C164.73 72.9001 163.528 73.2552 162.125 73.2552ZM162.125 70.5876C163.216 70.5876 164.077 70.0507 164.707 68.9768C165.344 67.8973 165.662 66.3092 165.662 64.2126C165.662 62.8263 165.517 61.6615 165.227 60.7183C164.937 59.7751 164.528 59.0649 164 58.5876C163.472 58.1047 162.847 57.8632 162.125 57.8632C161.04 57.8632 160.182 58.403 159.551 59.4825C158.92 60.5564 158.602 62.1331 158.597 64.2126C158.591 65.6047 158.73 66.7751 159.014 67.724C159.304 68.6729 159.713 69.3888 160.241 69.8717C160.77 70.349 161.398 70.5876 162.125 70.5876ZM177.343 70.1274V58.3319H180.019V70.1274H177.343ZM172.783 65.5677V62.8916H184.579V65.5677H172.783Z" fill="#3D3D3D"/>
<path d="M122.662 87.6709V79.6709H124.354V86.2764H127.783V87.6709H122.662ZM131.803 87.7881C131.196 87.7881 130.671 87.6592 130.229 87.4014C129.789 87.141 129.449 86.779 129.209 86.3154C128.97 85.8493 128.85 85.3089 128.85 84.6943C128.85 84.0745 128.97 83.5329 129.209 83.0693C129.449 82.6032 129.789 82.2412 130.229 81.9834C130.671 81.723 131.196 81.5928 131.803 81.5928C132.41 81.5928 132.933 81.723 133.373 81.9834C133.816 82.2412 134.157 82.6032 134.397 83.0693C134.636 83.5329 134.756 84.0745 134.756 84.6943C134.756 85.3089 134.636 85.8493 134.397 86.3154C134.157 86.779 133.816 87.141 133.373 87.4014C132.933 87.6592 132.41 87.7881 131.803 87.7881ZM131.811 86.499C132.087 86.499 132.317 86.4209 132.502 86.2646C132.687 86.1058 132.826 85.8896 132.92 85.6162C133.017 85.3428 133.065 85.0316 133.065 84.6826C133.065 84.3337 133.017 84.0225 132.92 83.749C132.826 83.4756 132.687 83.2594 132.502 83.1006C132.317 82.9417 132.087 82.8623 131.811 82.8623C131.532 82.8623 131.298 82.9417 131.108 83.1006C130.92 83.2594 130.778 83.4756 130.682 83.749C130.588 84.0225 130.541 84.3337 130.541 84.6826C130.541 85.0316 130.588 85.3428 130.682 85.6162C130.778 85.8896 130.92 86.1058 131.108 86.2646C131.298 86.4209 131.532 86.499 131.811 86.499ZM137.769 87.7842C137.386 87.7842 137.045 87.7178 136.746 87.585C136.446 87.4495 136.209 87.2503 136.035 86.9873C135.863 86.7217 135.777 86.391 135.777 85.9951C135.777 85.6618 135.838 85.3818 135.961 85.1553C136.083 84.9287 136.25 84.7464 136.461 84.6084C136.671 84.4704 136.911 84.3662 137.179 84.2959C137.45 84.2256 137.734 84.1761 138.031 84.1475C138.38 84.111 138.661 84.0771 138.875 84.0459C139.088 84.012 139.243 83.9626 139.339 83.8975C139.436 83.8324 139.484 83.736 139.484 83.6084V83.585C139.484 83.3376 139.406 83.1462 139.25 83.0107C139.096 82.8753 138.877 82.8076 138.593 82.8076C138.294 82.8076 138.056 82.874 137.878 83.0068C137.701 83.137 137.584 83.3011 137.527 83.499L135.988 83.374C136.066 83.0094 136.22 82.6943 136.449 82.4287C136.678 82.1605 136.974 81.9548 137.336 81.8115C137.7 81.6657 138.122 81.5928 138.601 81.5928C138.934 81.5928 139.253 81.6318 139.558 81.71C139.865 81.7881 140.138 81.9092 140.375 82.0732C140.614 82.2373 140.803 82.4482 140.941 82.7061C141.079 82.9613 141.148 83.2673 141.148 83.624V87.6709H139.57V86.8389H139.523C139.427 87.0264 139.298 87.1917 139.136 87.335C138.975 87.4756 138.781 87.5863 138.554 87.667C138.328 87.7451 138.066 87.7842 137.769 87.7842ZM138.246 86.6357C138.49 86.6357 138.707 86.5876 138.894 86.4912C139.082 86.3923 139.229 86.2594 139.336 86.0928C139.442 85.9261 139.496 85.7373 139.496 85.5264V84.8896C139.444 84.9235 139.372 84.9548 139.281 84.9834C139.192 85.0094 139.092 85.0342 138.98 85.0576C138.868 85.0785 138.756 85.098 138.644 85.1162C138.532 85.1318 138.431 85.1462 138.339 85.1592C138.144 85.1878 137.974 85.2334 137.828 85.2959C137.682 85.3584 137.569 85.443 137.488 85.5498C137.407 85.654 137.367 85.7842 137.367 85.9404C137.367 86.167 137.449 86.3402 137.613 86.46C137.78 86.5771 137.99 86.6357 138.246 86.6357ZM144.323 84.2021V87.6709H142.659V81.6709H144.245V82.7295H144.315C144.448 82.3805 144.671 82.1045 144.983 81.9014C145.296 81.6956 145.675 81.5928 146.12 81.5928C146.537 81.5928 146.9 81.6839 147.21 81.8662C147.52 82.0485 147.761 82.3089 147.932 82.6475C148.104 82.9834 148.19 83.3844 148.19 83.8506V87.6709H146.526V84.1475C146.529 83.7803 146.435 83.4938 146.245 83.2881C146.055 83.0798 145.793 82.9756 145.46 82.9756C145.236 82.9756 145.038 83.0238 144.866 83.1201C144.697 83.2165 144.564 83.3571 144.468 83.542C144.374 83.7243 144.326 83.9443 144.323 84.2021ZM155.355 87.6709H152.519V79.6709H155.378C156.183 79.6709 156.876 79.8311 157.456 80.1514C158.037 80.4691 158.484 80.9261 158.796 81.5225C159.111 82.1188 159.269 82.8324 159.269 83.6631C159.269 84.4964 159.111 85.2126 158.796 85.8115C158.484 86.4105 158.035 86.8701 157.449 87.1904C156.865 87.5107 156.167 87.6709 155.355 87.6709ZM154.21 86.2217H155.285C155.785 86.2217 156.205 86.1331 156.546 85.9561C156.89 85.7764 157.148 85.499 157.32 85.124C157.494 84.7464 157.581 84.2594 157.581 83.6631C157.581 83.0719 157.494 82.5889 157.32 82.2139C157.148 81.8389 156.891 81.5628 156.55 81.3857C156.209 81.2087 155.788 81.1201 155.288 81.1201H154.21V86.2217ZM165.082 81.9717C165.05 81.6566 164.916 81.4118 164.679 81.2373C164.442 81.0628 164.121 80.9756 163.715 80.9756C163.438 80.9756 163.205 81.0146 163.015 81.0928C162.825 81.1683 162.679 81.2738 162.578 81.4092C162.479 81.5446 162.429 81.6982 162.429 81.8701C162.424 82.0133 162.454 82.1383 162.519 82.2451C162.587 82.3519 162.679 82.4443 162.797 82.5225C162.914 82.598 163.049 82.6644 163.203 82.7217C163.356 82.7764 163.521 82.8232 163.695 82.8623L164.414 83.0342C164.763 83.1123 165.083 83.2165 165.375 83.3467C165.666 83.4769 165.919 83.637 166.132 83.8271C166.346 84.0173 166.511 84.2412 166.629 84.499C166.748 84.7568 166.81 85.0524 166.812 85.3857C166.81 85.8753 166.685 86.2998 166.437 86.6592C166.192 87.016 165.838 87.2933 165.375 87.4912C164.914 87.6865 164.358 87.7842 163.707 87.7842C163.061 87.7842 162.498 87.6852 162.019 87.4873C161.543 87.2894 161.17 86.9964 160.902 86.6084C160.636 86.2178 160.497 85.7347 160.484 85.1592H162.121C162.139 85.4274 162.216 85.6514 162.351 85.8311C162.489 86.0081 162.673 86.1423 162.902 86.2334C163.134 86.3219 163.396 86.3662 163.687 86.3662C163.974 86.3662 164.222 86.3245 164.433 86.2412C164.647 86.1579 164.812 86.042 164.929 85.8936C165.047 85.7451 165.105 85.5745 165.105 85.3818C165.105 85.2021 165.052 85.0511 164.945 84.9287C164.841 84.8063 164.687 84.7021 164.484 84.6162C164.284 84.5303 164.037 84.4521 163.746 84.3818L162.875 84.1631C162.2 83.999 161.668 83.7425 161.277 83.3936C160.886 83.0446 160.692 82.5745 160.695 81.9834C160.692 81.499 160.821 81.0758 161.082 80.7139C161.345 80.3519 161.705 80.0693 162.164 79.8662C162.622 79.6631 163.143 79.5615 163.726 79.5615C164.32 79.5615 164.838 79.6631 165.281 79.8662C165.726 80.0693 166.073 80.3519 166.32 80.7139C166.567 81.0758 166.695 81.4951 166.703 81.9717H165.082ZM169.366 87.6709H167.554L170.315 79.6709H172.495L175.253 87.6709H173.44L171.436 81.499H171.374L169.366 87.6709ZM169.253 84.5264H173.534V85.8467H169.253V84.5264ZM176.671 79.6709V80.5146C176.671 80.7542 176.624 80.999 176.531 81.249C176.439 81.4964 176.317 81.7308 176.163 81.9521C176.01 82.1709 175.842 82.3571 175.659 82.5107L174.925 82.0771C175.055 81.8714 175.17 81.6436 175.269 81.3936C175.37 81.1436 175.421 80.8532 175.421 80.5225V79.6709H176.671ZM182.24 83.3818L180.716 83.4756C180.69 83.3454 180.634 83.2282 180.548 83.124C180.462 83.0173 180.349 82.9326 180.209 82.8701C180.07 82.805 179.905 82.7725 179.712 82.7725C179.455 82.7725 179.237 82.8271 179.06 82.9365C178.883 83.0433 178.794 83.1865 178.794 83.3662C178.794 83.5094 178.852 83.6305 178.966 83.7295C179.081 83.8285 179.278 83.9079 179.556 83.9678L180.642 84.1865C181.225 84.3063 181.66 84.499 181.947 84.7646C182.233 85.0303 182.376 85.3792 182.376 85.8115C182.376 86.2048 182.261 86.5498 182.029 86.8467C181.8 87.1436 181.485 87.3753 181.084 87.542C180.685 87.7061 180.225 87.7881 179.705 87.7881C178.91 87.7881 178.278 87.6227 177.806 87.292C177.337 86.9587 177.063 86.5055 176.982 85.9326L178.619 85.8467C178.668 86.0889 178.788 86.2738 178.978 86.4014C179.168 86.5264 179.412 86.5889 179.709 86.5889C180 86.5889 180.235 86.5329 180.412 86.4209C180.591 86.3063 180.682 86.1592 180.685 85.9795C180.682 85.8285 180.619 85.7048 180.494 85.6084C180.369 85.5094 180.176 85.4339 179.916 85.3818L178.876 85.1748C178.291 85.0576 177.854 84.8545 177.568 84.5654C177.284 84.2764 177.142 83.9079 177.142 83.46C177.142 83.0745 177.246 82.7425 177.455 82.4639C177.666 82.1852 177.961 81.9704 178.341 81.8193C178.724 81.6683 179.172 81.5928 179.685 81.5928C180.443 81.5928 181.039 81.7529 181.474 82.0732C181.912 82.3936 182.167 82.8298 182.24 83.3818Z" fill="#686868"/>
<g filter="url(#filter0_d_1241_5061)">
<line x1="250.004" y1="61.2871" x2="250.004" y2="86.0535" stroke="#141B34" stroke-width="1.03193"/>
</g>
<path d="M325.865 59.0879C326.639 59.0881 327.381 59.3955 327.928 59.9425L333.761 65.7758C334.308 66.3227 334.615 67.0644 334.615 67.8379V78.0462C334.615 78.8198 334.308 79.5616 333.761 80.1086C333.214 80.6556 332.472 80.9629 331.699 80.9629H320.032C319.259 80.9629 318.517 80.6556 317.97 80.1086C317.423 79.5616 317.115 78.8198 317.115 78.0462V62.0046C317.115 61.231 317.423 60.4891 317.97 59.9422C318.517 59.3952 319.259 59.0879 320.032 59.0879H325.865Z" stroke="#3D3D3D" stroke-width="2.25" stroke-linecap="round" stroke-linejoin="round"/>
<path d="M325.865 59.0879V64.9212C325.865 65.6948 326.173 66.4366 326.72 66.9836C327.267 67.5306 328.009 67.8379 328.782 67.8379H334.615" stroke="#3D3D3D" stroke-width="2.25" stroke-linecap="round" stroke-linejoin="round"/>
<path d="M311.282 66.3789C310.509 66.3789 309.767 66.6862 309.22 67.2332C308.673 67.7802 308.365 68.522 308.365 69.2956V85.3372C308.365 86.1108 308.673 86.8527 309.22 87.3996C309.767 87.9466 310.509 88.2539 311.282 88.2539H322.949C323.461 88.2539 323.964 88.1191 324.407 87.8631C324.85 87.6071 325.219 87.239 325.475 86.7956" stroke="#3D3D3D" stroke-width="2.25" stroke-linecap="round" stroke-linejoin="round"/>
<path d="M352.641 55.4683V72.9229H349.479V58.545H349.377L345.294 61.153V58.2552L349.633 55.4683H352.641ZM364.005 73.2552C362.601 73.2552 361.397 72.9001 360.391 72.1899C359.391 71.474 358.621 70.4427 358.081 69.0961C357.547 67.7439 357.28 66.116 357.28 64.2126C357.286 62.3092 357.556 60.6899 358.09 59.3547C358.63 58.0138 359.399 56.991 360.399 56.2865C361.405 55.5819 362.607 55.2297 364.005 55.2297C365.402 55.2297 366.604 55.5819 367.61 56.2865C368.615 56.991 369.385 58.0138 369.919 59.3547C370.459 60.6956 370.729 62.3149 370.729 64.2126C370.729 66.1217 370.459 67.7524 369.919 69.1047C369.385 70.4513 368.615 71.4797 367.61 72.1899C366.61 72.9001 365.408 73.2552 364.005 73.2552ZM364.005 70.5876C365.095 70.5876 365.956 70.0507 366.587 68.9768C367.223 67.8973 367.542 66.3092 367.542 64.2126C367.542 62.8263 367.397 61.6615 367.107 60.7183C366.817 59.7751 366.408 59.0649 365.88 58.5876C365.351 58.1047 364.726 57.8632 364.005 57.8632C362.919 57.8632 362.061 58.403 361.431 59.4825C360.8 60.5564 360.482 62.1331 360.476 64.2126C360.47 65.6047 360.61 66.7751 360.894 67.724C361.184 68.6729 361.593 69.3888 362.121 69.8717C362.649 70.349 363.277 70.5876 364.005 70.5876ZM379.222 70.1274V58.3319H381.899V70.1274H379.222ZM374.663 65.5677V62.8916H386.458V65.5677H374.663Z" fill="#3D3D3D"/>
<path d="M344.686 87.6709V79.6709H346.377V86.2764H349.807V87.6709H344.686ZM353.827 87.7881C353.22 87.7881 352.695 87.6592 352.252 87.4014C351.812 87.141 351.473 86.779 351.233 86.3154C350.993 85.8493 350.874 85.3089 350.874 84.6943C350.874 84.0745 350.993 83.5329 351.233 83.0693C351.473 82.6032 351.812 82.2412 352.252 81.9834C352.695 81.723 353.22 81.5928 353.827 81.5928C354.433 81.5928 354.957 81.723 355.397 81.9834C355.84 82.2412 356.181 82.6032 356.42 83.0693C356.66 83.5329 356.78 84.0745 356.78 84.6943C356.78 85.3089 356.66 85.8493 356.42 86.3154C356.181 86.779 355.84 87.141 355.397 87.4014C354.957 87.6592 354.433 87.7881 353.827 87.7881ZM353.835 86.499C354.111 86.499 354.341 86.4209 354.526 86.2646C354.711 86.1058 354.85 85.8896 354.944 85.6162C355.04 85.3428 355.088 85.0316 355.088 84.6826C355.088 84.3337 355.04 84.0225 354.944 83.749C354.85 83.4756 354.711 83.2594 354.526 83.1006C354.341 82.9417 354.111 82.8623 353.835 82.8623C353.556 82.8623 353.321 82.9417 353.131 83.1006C352.944 83.2594 352.802 83.4756 352.706 83.749C352.612 84.0225 352.565 84.3337 352.565 84.6826C352.565 85.0316 352.612 85.3428 352.706 85.6162C352.802 85.8896 352.944 86.1058 353.131 86.2646C353.321 86.4209 353.556 86.499 353.835 86.499ZM359.793 87.7842C359.41 87.7842 359.069 87.7178 358.769 87.585C358.47 87.4495 358.233 87.2503 358.058 86.9873C357.887 86.7217 357.801 86.391 357.801 85.9951C357.801 85.6618 357.862 85.3818 357.984 85.1553C358.107 84.9287 358.273 84.7464 358.484 84.6084C358.695 84.4704 358.935 84.3662 359.203 84.2959C359.474 84.2256 359.758 84.1761 360.055 84.1475C360.403 84.111 360.685 84.0771 360.898 84.0459C361.112 84.012 361.267 83.9626 361.363 83.8975C361.459 83.8324 361.508 83.736 361.508 83.6084V83.585C361.508 83.3376 361.43 83.1462 361.273 83.0107C361.12 82.8753 360.901 82.8076 360.617 82.8076C360.318 82.8076 360.079 82.874 359.902 83.0068C359.725 83.137 359.608 83.3011 359.551 83.499L358.012 83.374C358.09 83.0094 358.243 82.6943 358.472 82.4287C358.702 82.1605 358.997 81.9548 359.359 81.8115C359.724 81.6657 360.146 81.5928 360.625 81.5928C360.958 81.5928 361.277 81.6318 361.582 81.71C361.889 81.7881 362.161 81.9092 362.398 82.0732C362.638 82.2373 362.827 82.4482 362.965 82.7061C363.103 82.9613 363.172 83.2673 363.172 83.624V87.6709H361.594V86.8389H361.547C361.45 87.0264 361.321 87.1917 361.16 87.335C360.999 87.4756 360.805 87.5863 360.578 87.667C360.351 87.7451 360.09 87.7842 359.793 87.7842ZM360.269 86.6357C360.514 86.6357 360.73 86.5876 360.918 86.4912C361.105 86.3923 361.252 86.2594 361.359 86.0928C361.466 85.9261 361.519 85.7373 361.519 85.5264V84.8896C361.467 84.9235 361.396 84.9548 361.305 84.9834C361.216 85.0094 361.116 85.0342 361.004 85.0576C360.892 85.0785 360.78 85.098 360.668 85.1162C360.556 85.1318 360.454 85.1462 360.363 85.1592C360.168 85.1878 359.997 85.2334 359.851 85.2959C359.706 85.3584 359.592 85.443 359.512 85.5498C359.431 85.654 359.39 85.7842 359.39 85.9404C359.39 86.167 359.472 86.3402 359.637 86.46C359.803 86.5771 360.014 86.6357 360.269 86.6357ZM366.347 84.2021V87.6709H364.683V81.6709H366.269V82.7295H366.339C366.472 82.3805 366.694 82.1045 367.007 81.9014C367.319 81.6956 367.698 81.5928 368.144 81.5928C368.56 81.5928 368.924 81.6839 369.233 81.8662C369.543 82.0485 369.784 82.3089 369.956 82.6475C370.128 82.9834 370.214 83.3844 370.214 83.8506V87.6709H368.55V84.1475C368.552 83.7803 368.459 83.4938 368.269 83.2881C368.079 83.0798 367.817 82.9756 367.483 82.9756C367.26 82.9756 367.062 83.0238 366.89 83.1201C366.72 83.2165 366.588 83.3571 366.491 83.542C366.398 83.7243 366.349 83.9443 366.347 84.2021ZM374.543 87.6709V79.6709H377.699C378.306 79.6709 378.823 79.7868 379.25 80.0186C379.677 80.2477 380.002 80.5667 380.226 80.9756C380.453 81.3818 380.566 81.8506 380.566 82.3818C380.566 82.9131 380.451 83.3818 380.222 83.7881C379.993 84.1943 379.661 84.5107 379.226 84.7373C378.794 84.9639 378.27 85.0771 377.656 85.0771H375.644V83.7217H377.382C377.708 83.7217 377.976 83.6657 378.187 83.5537C378.401 83.4391 378.56 83.2816 378.664 83.0811C378.77 82.8779 378.824 82.6449 378.824 82.3818C378.824 82.1162 378.77 81.8844 378.664 81.6865C378.56 81.486 378.401 81.3311 378.187 81.2217C377.974 81.1097 377.703 81.0537 377.375 81.0537H376.234V87.6709H374.543ZM381.853 87.6709V81.6709H383.467V82.7178H383.529C383.639 82.3454 383.822 82.0641 384.08 81.874C384.338 81.6813 384.635 81.585 384.971 81.585C385.054 81.585 385.144 81.5902 385.24 81.6006C385.337 81.611 385.421 81.6253 385.494 81.6436V83.1201C385.416 83.0967 385.308 83.0758 385.17 83.0576C385.032 83.0394 384.906 83.0303 384.791 83.0303C384.546 83.0303 384.327 83.0837 384.135 83.1904C383.945 83.2946 383.794 83.4404 383.682 83.6279C383.572 83.8154 383.518 84.0316 383.518 84.2764V87.6709H381.853ZM389.006 87.7881C388.399 87.7881 387.875 87.6592 387.432 87.4014C386.992 87.141 386.652 86.779 386.412 86.3154C386.173 85.8493 386.053 85.3089 386.053 84.6943C386.053 84.0745 386.173 83.5329 386.412 83.0693C386.652 82.6032 386.992 82.2412 387.432 81.9834C387.875 81.723 388.399 81.5928 389.006 81.5928C389.613 81.5928 390.136 81.723 390.576 81.9834C391.019 82.2412 391.36 82.6032 391.6 83.0693C391.839 83.5329 391.959 84.0745 391.959 84.6943C391.959 85.3089 391.839 85.8493 391.6 86.3154C391.36 86.779 391.019 87.141 390.576 87.4014C390.136 87.6592 389.613 87.7881 389.006 87.7881ZM389.014 86.499C389.29 86.499 389.52 86.4209 389.705 86.2646C389.89 86.1058 390.03 85.8896 390.123 85.6162C390.22 85.3428 390.268 85.0316 390.268 84.6826C390.268 84.3337 390.22 84.0225 390.123 83.749C390.03 83.4756 389.89 83.2594 389.705 83.1006C389.52 82.9417 389.29 82.8623 389.014 82.8623C388.735 82.8623 388.501 82.9417 388.311 83.1006C388.123 83.2594 387.981 83.4756 387.885 83.749C387.791 84.0225 387.744 84.3337 387.744 84.6826C387.744 85.0316 387.791 85.3428 387.885 85.6162C387.981 85.8896 388.123 86.1058 388.311 86.2646C388.501 86.4209 388.735 86.499 389.014 86.499ZM395.472 87.7686C395.016 87.7686 394.604 87.6514 394.234 87.417C393.867 87.18 393.575 86.8324 393.359 86.374C393.145 85.9131 393.039 85.348 393.039 84.6787C393.039 83.9912 393.149 83.4196 393.371 82.9639C393.592 82.5055 393.886 82.1631 394.253 81.9365C394.623 81.7074 395.028 81.5928 395.468 81.5928C395.804 81.5928 396.084 81.6501 396.308 81.7646C396.535 81.8766 396.717 82.0173 396.855 82.1865C396.996 82.3532 397.102 82.5173 397.175 82.6787H397.226V79.6709H398.886V87.6709H397.246V86.71H397.175C397.097 86.8766 396.986 87.042 396.843 87.2061C396.703 87.3675 396.519 87.5016 396.292 87.6084C396.069 87.7152 395.795 87.7686 395.472 87.7686ZM396 86.4443C396.268 86.4443 396.494 86.3714 396.679 86.2256C396.867 86.0771 397.01 85.8701 397.109 85.6045C397.21 85.3389 397.261 85.0277 397.261 84.6709C397.261 84.3141 397.212 84.0042 397.113 83.7412C397.014 83.4782 396.871 83.2751 396.683 83.1318C396.496 82.9886 396.268 82.917 396 82.917C395.726 82.917 395.496 82.9912 395.308 83.1396C395.121 83.2881 394.979 83.4938 394.882 83.7568C394.786 84.0199 394.738 84.3245 394.738 84.6709C394.738 85.0199 394.786 85.3285 394.882 85.5967C394.981 85.8623 395.123 86.0706 395.308 86.2217C395.496 86.3701 395.726 86.4443 396 86.4443ZM404.322 85.1162V81.6709H405.986V87.6709H404.388V86.5811H404.326C404.191 86.9326 403.965 87.2152 403.65 87.4287C403.338 87.6423 402.956 87.749 402.506 87.749C402.105 87.749 401.752 87.6579 401.447 87.4756C401.142 87.2933 400.904 87.0342 400.732 86.6982C400.563 86.3623 400.477 85.96 400.474 85.4912V81.6709H402.138V85.1943C402.141 85.5485 402.236 85.8285 402.424 86.0342C402.611 86.2399 402.862 86.3428 403.178 86.3428C403.378 86.3428 403.566 86.2972 403.74 86.2061C403.914 86.1123 404.055 85.9743 404.162 85.792C404.271 85.6097 404.325 85.3844 404.322 85.1162ZM410.248 87.7881C409.634 87.7881 409.105 87.6579 408.662 87.3975C408.222 87.1344 407.884 86.7699 407.647 86.3037C407.412 85.8376 407.295 85.3011 407.295 84.6943C407.295 84.0798 407.413 83.5407 407.65 83.0771C407.89 82.611 408.23 82.2477 408.67 81.9873C409.11 81.7243 409.634 81.5928 410.24 81.5928C410.764 81.5928 411.222 81.6878 411.615 81.8779C412.009 82.068 412.32 82.335 412.549 82.6787C412.778 83.0225 412.904 83.4261 412.928 83.8896H411.357C411.313 83.5902 411.196 83.3493 411.006 83.167C410.818 82.9821 410.572 82.8896 410.268 82.8896C410.01 82.8896 409.785 82.96 409.592 83.1006C409.402 83.2386 409.253 83.4404 409.147 83.7061C409.04 83.9717 408.986 84.2933 408.986 84.6709C408.986 85.0537 409.038 85.3792 409.143 85.6475C409.249 85.9157 409.399 86.1201 409.592 86.2607C409.785 86.4014 410.01 86.4717 410.268 86.4717C410.458 86.4717 410.628 86.4326 410.779 86.3545C410.933 86.2764 411.059 86.1631 411.158 86.0146C411.26 85.8636 411.326 85.6826 411.357 85.4717H412.928C412.902 85.93 412.777 86.3337 412.553 86.6826C412.331 87.029 412.025 87.2998 411.635 87.4951C411.244 87.6904 410.782 87.7881 410.248 87.7881ZM417.405 81.6709V82.9209H413.791V81.6709H417.405ZM414.612 80.2334H416.276V85.8271C416.276 85.9808 416.299 86.1006 416.346 86.1865C416.393 86.2699 416.458 86.3285 416.541 86.3623C416.627 86.3962 416.726 86.4131 416.838 86.4131C416.916 86.4131 416.994 86.4066 417.073 86.3936C417.151 86.3779 417.211 86.3662 417.252 86.3584L417.514 87.5967C417.431 87.6227 417.313 87.6527 417.162 87.6865C417.011 87.723 416.828 87.7451 416.612 87.7529C416.211 87.7686 415.859 87.7152 415.557 87.5928C415.257 87.4704 415.024 87.2803 414.858 87.0225C414.691 86.7646 414.609 86.4391 414.612 86.0459V80.2334ZM423.626 83.3818L422.102 83.4756C422.076 83.3454 422.02 83.2282 421.934 83.124C421.848 83.0173 421.735 82.9326 421.594 82.8701C421.456 82.805 421.291 82.7725 421.098 82.7725C420.84 82.7725 420.623 82.8271 420.446 82.9365C420.269 83.0433 420.18 83.1865 420.18 83.3662C420.18 83.5094 420.238 83.6305 420.352 83.7295C420.467 83.8285 420.663 83.9079 420.942 83.9678L422.028 84.1865C422.611 84.3063 423.046 84.499 423.333 84.7646C423.619 85.0303 423.762 85.3792 423.762 85.8115C423.762 86.2048 423.646 86.5498 423.415 86.8467C423.185 87.1436 422.87 87.3753 422.469 87.542C422.071 87.7061 421.611 87.7881 421.09 87.7881C420.296 87.7881 419.663 87.6227 419.192 87.292C418.723 86.9587 418.449 86.5055 418.368 85.9326L420.005 85.8467C420.054 86.0889 420.174 86.2738 420.364 86.4014C420.554 86.5264 420.797 86.5889 421.094 86.5889C421.386 86.5889 421.62 86.5329 421.797 86.4209C421.977 86.3063 422.068 86.1592 422.071 85.9795C422.068 85.8285 422.005 85.7048 421.88 85.6084C421.755 85.5094 421.562 85.4339 421.301 85.3818L420.262 85.1748C419.676 85.0576 419.24 84.8545 418.954 84.5654C418.67 84.2764 418.528 83.9079 418.528 83.46C418.528 83.0745 418.632 82.7425 418.84 82.4639C419.051 82.1852 419.347 81.9704 419.727 81.8193C420.11 81.6683 420.558 81.5928 421.071 81.5928C421.829 81.5928 422.425 81.7529 422.86 82.0732C423.297 82.3936 423.553 82.8298 423.626 83.3818Z" fill="#686868"/>
<g filter="url(#filter1_d_1241_5061)">
<line x1="480.028" y1="61.2871" x2="480.028" y2="86.0535" stroke="#141B34" stroke-width="1.03193"/>
</g>
<path d="M567.514 87.1699C567.514 83.9873 566.25 80.9351 564 78.6846C561.749 76.4342 558.697 75.1699 555.514 75.1699C552.332 75.1699 549.28 76.4342 547.029 78.6846C544.779 80.9351 543.514 83.9873 543.514 87.1699" stroke="#3D3D3D" stroke-width="2.25" stroke-linecap="round" stroke-linejoin="round"/>
<path d="M555.514 75.1699C559.657 75.1699 563.014 71.8121 563.014 67.6699C563.014 63.5278 559.657 60.1699 555.514 60.1699C551.372 60.1699 548.014 63.5278 548.014 67.6699C548.014 71.8121 551.372 75.1699 555.514 75.1699Z" stroke="#3D3D3D" stroke-width="2.25" stroke-linecap="round" stroke-linejoin="round"/>
<path d="M573.514 85.6697C573.514 80.6147 570.514 75.9197 567.514 73.6697C568.5 72.9299 569.289 71.9584 569.81 70.8411C570.331 69.7239 570.569 68.4954 570.502 67.2644C570.436 66.0334 570.066 64.8379 569.428 63.7835C568.789 62.7292 567.9 61.8486 566.839 61.2197" stroke="#3D3D3D" stroke-width="2.25" stroke-linecap="round" stroke-linejoin="round"/>
<path d="M589.134 73.1605C587.997 73.1605 586.98 72.9474 586.083 72.5213C585.185 72.0895 584.472 71.4986 583.943 70.7486C583.421 69.9986 583.142 69.1406 583.108 68.1747H586.176C586.233 68.8906 586.543 69.4759 587.105 69.9304C587.668 70.3793 588.344 70.6037 589.134 70.6037C589.753 70.6037 590.304 70.4616 590.787 70.1776C591.27 69.8935 591.651 69.4986 591.929 68.9929C592.208 68.4872 592.344 67.9105 592.338 67.2628C592.344 66.6037 592.205 66.0185 591.921 65.5071C591.637 64.9957 591.247 64.5952 590.753 64.3054C590.259 64.0099 589.691 63.8622 589.048 63.8622C588.526 63.8565 588.012 63.9531 587.506 64.152C587 64.3509 586.6 64.6122 586.304 64.9361L583.449 64.4673L584.361 55.4673H594.486V58.1094H586.977L586.475 62.7372H586.577C586.901 62.3565 587.358 62.0412 587.949 61.7912C588.54 61.5355 589.188 61.4077 589.892 61.4077C590.949 61.4077 591.892 61.6577 592.722 62.1577C593.551 62.652 594.205 63.3338 594.682 64.2031C595.159 65.0724 595.398 66.0668 595.398 67.1861C595.398 68.3395 595.131 69.3679 594.597 70.2713C594.068 71.169 593.333 71.8764 592.389 72.3935C591.452 72.9048 590.367 73.1605 589.134 73.1605ZM605.185 73.2543C603.781 73.2543 602.577 72.8991 601.571 72.1889C600.571 71.473 599.801 70.4418 599.261 69.0952C598.727 67.7429 598.46 66.1151 598.46 64.2116C598.466 62.3082 598.736 60.6889 599.27 59.3537C599.81 58.0128 600.58 56.9901 601.58 56.2855C602.585 55.581 603.787 55.2287 605.185 55.2287C606.582 55.2287 607.784 55.581 608.79 56.2855C609.796 56.9901 610.565 58.0128 611.1 59.3537C611.639 60.6946 611.909 62.3139 611.909 64.2116C611.909 66.1207 611.639 67.7514 611.1 69.1037C610.565 70.4503 609.796 71.4787 608.79 72.1889C607.79 72.8991 606.588 73.2543 605.185 73.2543ZM605.185 70.5866C606.276 70.5866 607.136 70.0497 607.767 68.9759C608.403 67.8963 608.722 66.3082 608.722 64.2116C608.722 62.8253 608.577 61.6605 608.287 60.7173C607.997 59.7741 607.588 59.0639 607.06 58.5866C606.531 58.1037 605.906 57.8622 605.185 57.8622C604.1 57.8622 603.242 58.402 602.611 59.4815C601.98 60.5554 601.662 62.1321 601.656 64.2116C601.651 65.6037 601.79 66.7741 602.074 67.723C602.364 68.6719 602.773 69.3878 603.301 69.8707C603.83 70.348 604.457 70.5866 605.185 70.5866ZM620.403 70.1264V58.331H623.079V70.1264H620.403ZM615.843 65.5668V62.8906H627.638V65.5668H615.843Z" fill="#3D3D3D"/>
<path d="M586.55 81.9707C586.518 81.6556 586.384 81.4108 586.147 81.2363C585.91 81.0618 585.589 80.9746 585.182 80.9746C584.906 80.9746 584.673 81.0137 584.483 81.0918C584.293 81.1673 584.147 81.2728 584.046 81.4082C583.947 81.5436 583.897 81.6973 583.897 81.8691C583.892 82.0124 583.922 82.1374 583.987 82.2441C584.055 82.3509 584.147 82.4434 584.264 82.5215C584.382 82.597 584.517 82.6634 584.671 82.7207C584.824 82.7754 584.988 82.8223 585.163 82.8613L585.882 83.0332C586.231 83.1113 586.551 83.2155 586.843 83.3457C587.134 83.4759 587.387 83.6361 587.6 83.8262C587.814 84.0163 587.979 84.2402 588.096 84.498C588.216 84.7559 588.277 85.0514 588.28 85.3848C588.277 85.8743 588.152 86.2988 587.905 86.6582C587.66 87.015 587.306 87.2923 586.843 87.4902C586.382 87.6855 585.826 87.7832 585.175 87.7832C584.529 87.7832 583.966 87.6842 583.487 87.4863C583.01 87.2884 582.638 86.9954 582.37 86.6074C582.104 86.2168 581.965 85.7337 581.952 85.1582H583.589C583.607 85.4264 583.684 85.6504 583.819 85.8301C583.957 86.0072 584.141 86.1413 584.37 86.2324C584.602 86.321 584.863 86.3652 585.155 86.3652C585.441 86.3652 585.69 86.3236 585.901 86.2402C586.115 86.1569 586.28 86.041 586.397 85.8926C586.514 85.7441 586.573 85.5736 586.573 85.3809C586.573 85.2012 586.52 85.0501 586.413 84.9277C586.309 84.8053 586.155 84.7012 585.952 84.6152C585.751 84.5293 585.505 84.4512 585.214 84.3809L584.343 84.1621C583.668 83.998 583.135 83.7415 582.745 83.3926C582.354 83.0436 582.16 82.5736 582.163 81.9824C582.16 81.498 582.289 81.0749 582.55 80.7129C582.813 80.3509 583.173 80.0684 583.632 79.8652C584.09 79.6621 584.611 79.5605 585.194 79.5605C585.788 79.5605 586.306 79.6621 586.749 79.8652C587.194 80.0684 587.54 80.3509 587.788 80.7129C588.035 81.0749 588.163 81.4941 588.171 81.9707H586.55ZM589.638 79.6699H591.724L593.927 85.0449H594.021L596.224 79.6699H598.31V87.6699H596.669V82.4629H596.603L594.532 87.6309H593.415L591.345 82.4434H591.278V87.6699H589.638V79.6699ZM599.923 87.6699V79.6699H605.314V81.0645H601.615V82.9707H605.036V84.3652H601.615V86.2754H605.329V87.6699H599.923ZM616.703 82.4707H614.992C614.961 82.2493 614.897 82.0527 614.801 81.8809C614.704 81.7064 614.581 81.5579 614.43 81.4355C614.279 81.3132 614.104 81.2194 613.906 81.1543C613.711 81.0892 613.499 81.0566 613.269 81.0566C612.855 81.0566 612.495 81.1595 612.187 81.3652C611.88 81.5684 611.642 81.8652 611.473 82.2559C611.303 82.6439 611.219 83.1152 611.219 83.6699C611.219 84.2402 611.303 84.7194 611.473 85.1074C611.644 85.4954 611.884 85.7884 612.191 85.9863C612.499 86.1842 612.854 86.2832 613.258 86.2832C613.484 86.2832 613.694 86.2533 613.887 86.1934C614.082 86.1335 614.255 86.0462 614.406 85.9316C614.557 85.8145 614.682 85.6725 614.781 85.5059C614.883 85.3392 614.953 85.1491 614.992 84.9355L616.703 84.9434C616.659 85.3105 616.548 85.6647 616.371 86.0059C616.196 86.3444 615.961 86.6478 615.664 86.916C615.37 87.1816 615.018 87.3926 614.609 87.5488C614.203 87.7025 613.743 87.7793 613.23 87.7793C612.517 87.7793 611.879 87.6178 611.316 87.2949C610.756 86.972 610.314 86.5046 609.988 85.8926C609.665 85.2806 609.504 84.5397 609.504 83.6699C609.504 82.7975 609.668 82.0553 609.996 81.4434C610.324 80.8314 610.769 80.3652 611.332 80.0449C611.894 79.722 612.527 79.5605 613.23 79.5605C613.694 79.5605 614.124 79.6257 614.519 79.7559C614.918 79.8861 615.271 80.0762 615.578 80.3262C615.885 80.5736 616.135 80.877 616.328 81.2363C616.523 81.5957 616.648 82.0072 616.703 82.4707ZM619.769 79.6699V87.6699H618.105V79.6699H619.769ZM621.322 87.6699V81.6699H622.986V87.6699H621.322ZM622.158 80.8965C621.91 80.8965 621.698 80.8145 621.521 80.6504C621.346 80.4837 621.259 80.2845 621.259 80.0527C621.259 79.8236 621.346 79.627 621.521 79.4629C621.698 79.2962 621.91 79.2129 622.158 79.2129C622.405 79.2129 622.616 79.2962 622.79 79.4629C622.968 79.627 623.056 79.8236 623.056 80.0527C623.056 80.2845 622.968 80.4837 622.79 80.6504C622.616 80.8145 622.405 80.8965 622.158 80.8965ZM627.273 87.7871C626.656 87.7871 626.125 87.6621 625.679 87.4121C625.237 87.1595 624.896 86.8027 624.656 86.3418C624.416 85.8783 624.297 85.3301 624.297 84.6973C624.297 84.0801 624.416 83.5384 624.656 83.0723C624.896 82.6061 625.233 82.2428 625.668 81.9824C626.105 81.722 626.618 81.5918 627.207 81.5918C627.603 81.5918 627.971 81.6556 628.312 81.7832C628.656 81.9082 628.955 82.097 629.211 82.3496C629.468 82.6022 629.669 82.9199 629.812 83.3027C629.955 83.6829 630.027 84.1283 630.027 84.6387V85.0957H624.961V84.0645H628.461C628.461 83.8249 628.409 83.6126 628.304 83.4277C628.2 83.2428 628.056 83.0983 627.871 82.9941C627.689 82.8874 627.476 82.834 627.234 82.834C626.981 82.834 626.758 82.8926 626.562 83.0098C626.37 83.1243 626.218 83.2793 626.109 83.4746C626 83.6673 625.944 83.8822 625.941 84.1191V85.0996C625.941 85.3965 625.996 85.653 626.105 85.8691C626.217 86.0853 626.375 86.252 626.578 86.3691C626.781 86.4863 627.022 86.5449 627.3 86.5449C627.485 86.5449 627.655 86.5189 627.808 86.4668C627.962 86.4147 628.093 86.3366 628.203 86.2324C628.312 86.1283 628.396 86.0007 628.453 85.8496L629.992 85.9512C629.914 86.321 629.754 86.6439 629.511 86.9199C629.272 87.1934 628.962 87.4069 628.582 87.5605C628.204 87.7116 627.768 87.7871 627.273 87.7871ZM632.997 84.2012V87.6699H631.333V81.6699H632.919V82.7285H632.989C633.122 82.3796 633.345 82.1035 633.657 81.9004C633.97 81.6947 634.349 81.5918 634.794 81.5918C635.211 81.5918 635.574 81.6829 635.884 81.8652C636.194 82.0475 636.435 82.3079 636.606 82.6465C636.778 82.9824 636.864 83.3835 636.864 83.8496V87.6699H635.2V84.1465C635.203 83.7793 635.109 83.4928 634.919 83.2871C634.729 83.0788 634.467 82.9746 634.134 82.9746C633.91 82.9746 633.712 83.0228 633.54 83.1191C633.371 83.2155 633.238 83.3561 633.142 83.541C633.048 83.7233 633 83.9434 632.997 84.2012ZM641.587 81.6699V82.9199H637.974V81.6699H641.587ZM638.794 80.2324H640.458V85.8262C640.458 85.9798 640.482 86.0996 640.529 86.1855C640.575 86.2689 640.641 86.3275 640.724 86.3613C640.81 86.3952 640.909 86.4121 641.021 86.4121C641.099 86.4121 641.177 86.4056 641.255 86.3926C641.333 86.377 641.393 86.3652 641.435 86.3574L641.697 87.5957C641.613 87.6217 641.496 87.6517 641.345 87.6855C641.194 87.722 641.01 87.7441 640.794 87.752C640.393 87.7676 640.042 87.7142 639.74 87.5918C639.44 87.4694 639.207 87.2793 639.04 87.0215C638.874 86.7637 638.792 86.4382 638.794 86.0449V80.2324ZM647.808 83.3809L646.285 83.4746C646.259 83.3444 646.203 83.2272 646.117 83.123C646.031 83.0163 645.918 82.9316 645.777 82.8691C645.639 82.804 645.474 82.7715 645.281 82.7715C645.023 82.7715 644.806 82.8262 644.628 82.9355C644.451 83.0423 644.363 83.1855 644.363 83.3652C644.363 83.5085 644.42 83.6296 644.535 83.7285C644.649 83.8275 644.846 83.9069 645.125 83.9668L646.21 84.1855C646.794 84.3053 647.229 84.498 647.515 84.7637C647.802 85.0293 647.945 85.3783 647.945 85.8105C647.945 86.2038 647.829 86.5488 647.597 86.8457C647.368 87.1426 647.053 87.3743 646.652 87.541C646.253 87.7051 645.794 87.7871 645.273 87.7871C644.479 87.7871 643.846 87.6217 643.375 87.291C642.906 86.9577 642.631 86.5046 642.55 85.9316L644.187 85.8457C644.237 86.0879 644.356 86.2728 644.546 86.4004C644.737 86.5254 644.98 86.5879 645.277 86.5879C645.569 86.5879 645.803 86.5319 645.98 86.4199C646.16 86.3053 646.251 86.1582 646.253 85.9785C646.251 85.8275 646.187 85.7038 646.062 85.6074C645.937 85.5085 645.744 85.4329 645.484 85.3809L644.445 85.1738C643.859 85.0566 643.423 84.8535 643.136 84.5645C642.852 84.2754 642.71 83.9069 642.71 83.459C642.71 83.0736 642.815 82.7415 643.023 82.4629C643.234 82.1842 643.53 81.9694 643.91 81.8184C644.293 81.6673 644.74 81.5918 645.253 81.5918C646.011 81.5918 646.608 81.752 647.043 82.0723C647.48 82.3926 647.735 82.8288 647.808 83.3809Z" fill="#686868"/>
<defs>
<filter id="filter0_d_1241_5061" x="249.488" y="61.2871" width="1.54795" height="24.7666" filterUnits="userSpaceOnUse" color-interpolation-filters="sRGB">
<feFlood flood-opacity="0" result="BackgroundImageFix"/>
<feColorMatrix in="SourceAlpha" type="matrix" values="0 0 0 0 0 0 0 0 0 0 0 0 0 0 0 0 0 0 127 0" result="hardAlpha"/>
<feOffset dx="0.515967"/>
<feComposite in2="hardAlpha" operator="out"/>
<feColorMatrix type="matrix" values="0 0 0 0 1 0 0 0 0 1 0 0 0 0 1 0 0 0 1 0"/>
<feBlend mode="normal" in2="BackgroundImageFix" result="effect1_dropShadow_1241_5061"/>
<feBlend mode="normal" in="SourceGraphic" in2="effect1_dropShadow_1241_5061" result="shape"/>
</filter>
<filter id="filter1_d_1241_5061" x="479.512" y="61.2871" width="1.54795" height="24.7666" filterUnits="userSpaceOnUse" color-interpolation-filters="sRGB">
<feFlood flood-opacity="0" result="BackgroundImageFix"/>
<feColorMatrix in="SourceAlpha" type="matrix" values="0 0 0 0 0 0 0 0 0 0 0 0 0 0 0 0 0 0 127 0" result="hardAlpha"/>
<feOffset dx="0.515967"/>
<feComposite in2="hardAlpha" operator="out"/>
<feColorMatrix type="matrix" values="0 0 0 0 1 0 0 0 0 1 0 0 0 0 1 0 0 0 1 0"/>
<feBlend mode="normal" in2="BackgroundImageFix" result="effect1_dropShadow_1241_5061"/>
<feBlend mode="normal" in="SourceGraphic" in2="effect1_dropShadow_1241_5061" result="shape"/>
</filter>
</defs>
</svg>
