<svg width="526" height="526" viewBox="0 0 526 526" fill="none" xmlns="http://www.w3.org/2000/svg">
<g filter="url(#filter0_d_1560_25153)">
<path opacity="0.12" d="M263 438.201C371.358 438.201 459.2 350.359 459.2 242.001C459.2 133.643 371.358 45.8008 263 45.8008C154.642 45.8008 66.7998 133.643 66.7998 242.001C66.7998 350.359 154.642 438.201 263 438.201Z" fill="url(#paint0_linear_1560_25153)"/>
<path d="M296.79 111.199H163.81C158.392 111.199 154 115.591 154 121.009V297.589C154 303.007 158.392 307.399 163.81 307.399H296.79C302.208 307.399 306.6 303.007 306.6 297.589V121.009C306.6 115.591 302.208 111.199 296.79 111.199Z" fill="white"/>
<path d="M288.07 128.641H172.53C170.724 128.641 169.26 130.105 169.26 131.911V140.631C169.26 142.437 170.724 143.901 172.53 143.901H288.07C289.876 143.901 291.34 142.437 291.34 140.631V131.911C291.34 130.105 289.876 128.641 288.07 128.641Z" fill="#F2EEFF"/>
<path d="M264.09 152.619H172.53C170.724 152.619 169.26 154.083 169.26 155.889V158.069C169.26 159.875 170.724 161.339 172.53 161.339H264.09C265.896 161.339 267.36 159.875 267.36 158.069V155.889C267.36 154.083 265.896 152.619 264.09 152.619Z" fill="#F7F4FF"/>
<path d="M285.89 167.881H172.53C170.724 167.881 169.26 169.345 169.26 171.151C169.26 172.957 170.724 174.421 172.53 174.421H285.89C287.696 174.421 289.16 172.957 289.16 171.151C289.16 169.345 287.696 167.881 285.89 167.881Z" fill="#F7F4FF"/>
<path d="M253.19 179.869H172.53C170.724 179.869 169.26 181.333 169.26 183.139C169.26 184.945 170.724 186.409 172.53 186.409H253.19C254.996 186.409 256.46 184.945 256.46 183.139C256.46 181.333 254.996 179.869 253.19 179.869Z" fill="#F7F4FF"/>
<path d="M285.89 198.402H172.53C170.724 198.402 169.26 199.866 169.26 201.672C169.26 203.478 170.724 204.942 172.53 204.942H285.89C287.696 204.942 289.16 203.478 289.16 201.672C289.16 199.866 287.696 198.402 285.89 198.402Z" fill="#EFE9FF"/>
<path d="M285.89 211.479H172.53C170.724 211.479 169.26 212.943 169.26 214.749C169.26 216.554 170.724 218.019 172.53 218.019H285.89C287.696 218.019 289.16 216.554 289.16 214.749C289.16 212.943 287.696 211.479 285.89 211.479Z" fill="#EFE9FF"/>
<path d="M285.89 224.561H172.53C170.724 224.561 169.26 226.025 169.26 227.831C169.26 229.637 170.724 231.101 172.53 231.101H285.89C287.696 231.101 289.16 229.637 289.16 227.831C289.16 226.025 287.696 224.561 285.89 224.561Z" fill="#EFE9FF"/>
<path d="M216.143 284.321L227.043 273.421L243.393 278.871L259.743 262.521L276.093 267.971" stroke="#7C6AED" stroke-width="3.27" stroke-linecap="round" stroke-linejoin="round"/>
<path d="M354.034 295.065C352.638 293.909 349.95 294.851 348.03 297.169C346.111 299.488 345.687 302.305 347.083 303.461L369.842 322.304C371.239 323.46 373.927 322.518 375.847 320.2C377.766 317.881 378.19 315.064 376.794 313.908L354.034 295.065Z" fill="#5D47D8"/>
<path d="M317.501 310.67C343.386 310.67 364.371 289.685 364.371 263.8C364.371 237.914 343.386 216.93 317.501 216.93C291.615 216.93 270.631 237.914 270.631 263.8C270.631 289.685 291.615 310.67 317.501 310.67Z" fill="white" stroke="#DCD4FF" stroke-width="3.27"/>
<path d="M317.5 301.952C338.57 301.952 355.65 284.872 355.65 263.802C355.65 242.733 338.57 225.652 317.5 225.652C296.431 225.652 279.35 242.733 279.35 263.802C279.35 284.872 296.431 301.952 317.5 301.952Z" fill="#F7F4FF"/>
<path d="M326.951 254.745L325.502 258.189H308.879L310.341 254.745H326.951ZM315.159 273.82L308.372 263.738L308.879 260.641H313.066C313.999 260.641 314.808 260.468 315.494 260.121C316.179 259.774 316.728 259.303 317.141 258.709C317.554 258.114 317.827 257.437 317.959 256.678C318.149 255.538 317.975 254.609 317.438 253.891C316.902 253.164 315.882 252.801 314.379 252.801H309.771L311.505 248.453H315.097C317.203 248.453 318.904 248.771 320.201 249.407C321.505 250.034 322.414 250.93 322.926 252.095C323.438 253.259 323.557 254.646 323.285 256.256C323.045 257.668 322.604 258.907 321.959 259.972C321.324 261.038 320.444 261.929 319.321 262.648C318.206 263.366 316.811 263.907 315.135 264.27L314.998 264.32L321.043 273.597L320.993 273.82H315.159ZM328.029 248.453L326.518 251.946H312.868L314.354 248.453H328.029Z" fill="#5D47D8"/>
<path d="M209.117 398.937C209.08 398.598 209.001 398.298 208.88 398.038C208.764 397.773 208.604 397.551 208.399 397.369C208.195 397.184 207.947 397.042 207.654 396.944C207.361 396.847 207.022 396.798 206.637 396.798C205.907 396.798 205.225 396.979 204.588 397.342C203.957 397.704 203.418 398.231 202.972 398.923C202.526 399.611 202.222 400.451 202.059 401.445C201.892 402.439 201.892 403.285 202.059 403.981C202.231 404.678 202.554 405.21 203.028 405.577C203.506 405.939 204.122 406.12 204.874 406.12C205.557 406.12 206.17 406 206.713 405.758C207.257 405.512 207.7 405.166 208.044 404.72C208.392 404.274 208.615 403.747 208.713 403.138L209.312 403.229H205.64L206.017 400.958H211.988L211.681 402.755C211.481 404.009 211.042 405.087 210.364 405.988C209.686 406.889 208.841 407.581 207.828 408.064C206.82 408.547 205.715 408.789 204.512 408.789C203.174 408.789 202.048 408.494 201.133 407.904C200.222 407.309 199.574 406.466 199.189 405.375C198.808 404.279 198.74 402.978 198.987 401.473C199.177 400.317 199.516 399.285 200.004 398.38C200.496 397.469 201.098 396.698 201.808 396.066C202.519 395.435 203.306 394.954 204.17 394.624C205.039 394.294 205.942 394.13 206.881 394.13C207.689 394.13 208.42 394.248 209.075 394.485C209.735 394.717 210.299 395.047 210.768 395.474C211.242 395.902 211.6 396.41 211.841 397C212.087 397.585 212.201 398.231 212.183 398.937H209.117ZM222.392 398.47C222.415 397.89 222.245 397.441 221.883 397.126C221.525 396.81 220.984 396.652 220.26 396.652C219.767 396.652 219.34 396.721 218.978 396.861C218.615 396.995 218.325 397.184 218.107 397.425C217.893 397.662 217.761 397.936 217.71 398.247C217.658 398.503 217.675 398.726 217.758 398.916C217.847 399.107 217.984 399.271 218.169 399.411C218.36 399.546 218.585 399.664 218.845 399.766C219.105 399.864 219.382 399.947 219.674 400.017L220.901 400.324C221.5 400.463 222.039 400.649 222.517 400.881C223 401.113 223.404 401.399 223.729 401.738C224.059 402.077 224.291 402.476 224.426 402.936C224.561 403.396 224.579 403.923 224.482 404.518C224.333 405.391 223.987 406.148 223.444 406.789C222.9 407.426 222.187 407.92 221.305 408.273C220.422 408.622 219.4 408.796 218.239 408.796C217.087 408.796 216.114 408.619 215.32 408.266C214.525 407.913 213.947 407.391 213.585 406.699C213.227 406.002 213.12 405.14 213.264 404.114H216.184C216.133 404.592 216.202 404.992 216.393 405.312C216.588 405.628 216.878 405.867 217.264 406.03C217.649 406.188 218.102 406.267 218.622 406.267C219.138 406.267 219.595 406.192 219.995 406.044C220.399 405.895 220.726 405.688 220.977 405.424C221.228 405.159 221.381 404.855 221.437 404.511C221.493 404.19 221.444 403.921 221.291 403.703C221.137 403.484 220.891 403.299 220.552 403.145C220.218 402.987 219.802 402.848 219.305 402.727L217.814 402.337C216.662 402.044 215.791 401.587 215.201 400.965C214.611 400.342 214.4 399.504 214.567 398.449C214.716 397.585 215.076 396.831 215.647 396.185C216.223 395.535 216.948 395.031 217.821 394.673C218.699 394.311 219.658 394.13 220.699 394.13C221.758 394.13 222.652 394.313 223.381 394.68C224.11 395.042 224.642 395.549 224.976 396.199C225.311 396.849 225.413 397.606 225.283 398.47H222.392ZM227.243 396.812L227.661 394.325H239.38L238.962 396.812H234.593L232.642 408.594H229.66L231.611 396.812H227.243ZM245.941 408.594H242.708L250.003 394.325H253.891L256.441 408.594H253.208L251.473 397.585H251.362L245.941 408.594ZM246.68 402.985H254.316L253.912 405.34H246.276L246.68 402.985ZM262.116 402.407L261.085 408.594H258.124L259.907 397.892H262.729L262.422 399.78H262.541C262.88 399.153 263.358 398.658 263.976 398.296C264.599 397.934 265.307 397.753 266.101 397.753C266.844 397.753 267.464 397.915 267.961 398.24C268.463 398.565 268.816 399.028 269.02 399.627C269.229 400.226 269.264 400.944 269.125 401.78L267.982 408.594H265.014L266.066 402.309C266.173 401.654 266.09 401.143 265.815 400.776C265.546 400.405 265.112 400.219 264.513 400.219C264.113 400.219 263.746 400.305 263.412 400.477C263.077 400.649 262.796 400.899 262.569 401.229C262.346 401.554 262.195 401.947 262.116 402.407ZM273.331 408.796C272.653 408.796 272.066 408.677 271.569 408.44C271.076 408.199 270.714 407.841 270.482 407.367C270.25 406.894 270.192 406.306 270.308 405.605C270.41 405.01 270.603 404.513 270.886 404.114C271.174 403.71 271.525 403.385 271.938 403.138C272.351 402.892 272.809 402.704 273.311 402.574C273.817 402.444 274.339 402.356 274.878 402.309C275.501 402.244 276.007 402.181 276.397 402.121C276.792 402.061 277.087 401.975 277.282 401.863C277.477 401.747 277.595 401.575 277.637 401.348V401.306C277.707 400.869 277.626 400.53 277.393 400.289C277.166 400.043 276.801 399.919 276.3 399.919C275.77 399.919 275.319 400.036 274.948 400.268C274.581 400.5 274.319 400.795 274.161 401.153L271.457 400.93C271.699 400.279 272.063 399.717 272.551 399.244C273.043 398.765 273.636 398.398 274.328 398.143C275.02 397.883 275.796 397.753 276.655 397.753C277.249 397.753 277.804 397.822 278.32 397.962C278.84 398.101 279.289 398.317 279.665 398.61C280.046 398.902 280.32 399.278 280.487 399.738C280.659 400.193 280.694 400.739 280.591 401.376L279.386 408.594H276.571L276.822 407.11H276.738C276.511 407.444 276.232 407.739 275.902 407.995C275.573 408.245 275.194 408.443 274.767 408.587C274.339 408.726 273.861 408.796 273.331 408.796ZM274.523 406.747C274.955 406.747 275.352 406.661 275.714 406.49C276.081 406.313 276.383 406.076 276.62 405.779C276.862 405.482 277.015 405.145 277.08 404.769L277.261 403.633C277.168 403.693 277.033 403.747 276.857 403.793C276.685 403.84 276.497 403.884 276.293 403.926C276.093 403.963 275.891 403.998 275.686 404.03C275.482 404.058 275.299 404.086 275.136 404.114C274.778 404.165 274.458 404.246 274.175 404.358C273.891 404.469 273.661 404.62 273.485 404.81C273.308 404.996 273.199 405.229 273.157 405.507C273.092 405.911 273.187 406.22 273.443 406.434C273.703 406.643 274.063 406.747 274.523 406.747ZM287.026 394.325L284.657 408.594H281.689L284.058 394.325H287.026ZM288.212 412.607C287.831 412.607 287.483 412.577 287.167 412.516C286.851 412.461 286.591 412.389 286.387 412.3L287.432 410.085C287.761 410.192 288.061 410.247 288.33 410.252C288.604 410.257 288.855 410.187 289.083 410.043C289.31 409.899 289.519 409.662 289.71 409.332L289.975 408.879L287.968 397.892H290.978L291.884 405.765H291.995L295.542 397.892H298.795L292.671 409.75C292.369 410.331 292.011 410.835 291.598 411.262C291.189 411.69 290.704 412.019 290.142 412.252C289.585 412.488 288.941 412.607 288.212 412.607ZM298.496 408.594L298.781 406.824L305.087 400.337L305.115 400.261H300.056L300.454 397.892H309.093L308.786 399.822L302.815 406.148L302.788 406.225H307.888L307.504 408.594H298.496ZM314.32 408.803C313.224 408.803 312.316 408.58 311.596 408.134C310.876 407.683 310.37 407.047 310.077 406.225C309.789 405.398 309.74 404.42 309.931 403.292C310.117 402.191 310.491 401.225 311.053 400.393C311.619 399.562 312.33 398.914 313.185 398.449C314.039 397.985 314.991 397.753 316.041 397.753C316.747 397.753 317.386 397.866 317.957 398.094C318.533 398.317 319.012 398.656 319.392 399.111C319.773 399.562 320.033 400.126 320.173 400.804C320.317 401.482 320.314 402.277 320.166 403.187L320.033 404.002H311.004L311.289 402.163H317.532C317.602 401.736 317.574 401.357 317.449 401.027C317.323 400.697 317.114 400.44 316.822 400.254C316.529 400.063 316.169 399.968 315.742 399.968C315.305 399.968 314.896 400.075 314.515 400.289C314.134 400.502 313.814 400.783 313.554 401.132C313.298 401.475 313.134 401.849 313.059 402.253L312.732 404.079C312.639 404.641 312.657 405.108 312.787 405.479C312.922 405.851 313.154 406.13 313.484 406.315C313.814 406.497 314.232 406.587 314.738 406.587C315.068 406.587 315.377 406.541 315.665 406.448C315.958 406.355 316.218 406.218 316.445 406.037C316.673 405.851 316.859 405.621 317.003 405.347L319.713 405.528C319.462 406.188 319.081 406.764 318.57 407.256C318.059 407.744 317.444 408.125 316.724 408.399C316.009 408.668 315.207 408.803 314.32 408.803ZM321.216 408.594L323 397.892H325.877L325.564 399.759H325.675C325.982 399.095 326.393 398.593 326.908 398.254C327.429 397.911 327.988 397.739 328.588 397.739C328.736 397.739 328.892 397.748 329.054 397.767C329.222 397.78 329.37 397.804 329.5 397.836L329.054 400.477C328.924 400.43 328.739 400.393 328.497 400.365C328.26 400.333 328.035 400.317 327.821 400.317C327.389 400.317 326.987 400.412 326.616 400.602C326.244 400.788 325.931 401.048 325.675 401.383C325.424 401.717 325.26 402.103 325.181 402.539L324.184 408.594H321.216Z" fill="url(#paint1_linear_1560_25153)"/>
<path d="M180.843 134.766C180.83 134.646 180.802 134.54 180.76 134.448C180.719 134.355 180.662 134.276 180.59 134.212C180.518 134.147 180.43 134.097 180.327 134.062C180.224 134.028 180.104 134.011 179.968 134.011C179.71 134.011 179.469 134.075 179.245 134.202C179.022 134.33 178.832 134.516 178.674 134.761C178.517 135.003 178.41 135.3 178.352 135.651C178.293 136.002 178.293 136.3 178.352 136.546C178.413 136.792 178.527 136.98 178.694 137.109C178.863 137.237 179.08 137.301 179.346 137.301C179.587 137.301 179.803 137.258 179.995 137.173C180.187 137.086 180.343 136.964 180.465 136.807C180.587 136.649 180.666 136.463 180.701 136.248L180.912 136.28H179.616L179.749 135.479H181.856L181.748 136.113C181.678 136.556 181.523 136.936 181.283 137.254C181.044 137.572 180.746 137.816 180.388 137.987C180.033 138.157 179.642 138.243 179.218 138.243C178.746 138.243 178.348 138.139 178.025 137.93C177.704 137.721 177.475 137.423 177.339 137.038C177.205 136.651 177.181 136.192 177.268 135.661C177.335 135.252 177.455 134.889 177.627 134.569C177.801 134.248 178.013 133.975 178.264 133.752C178.514 133.529 178.792 133.36 179.097 133.243C179.404 133.127 179.723 133.069 180.054 133.069C180.339 133.069 180.597 133.111 180.828 133.194C181.061 133.276 181.26 133.393 181.426 133.543C181.593 133.694 181.719 133.874 181.805 134.082C181.892 134.289 181.932 134.516 181.925 134.766H180.843ZM185.528 134.601C185.537 134.396 185.477 134.238 185.349 134.126C185.223 134.015 185.032 133.959 184.776 133.959C184.602 133.959 184.451 133.984 184.323 134.033C184.196 134.08 184.093 134.147 184.016 134.232C183.941 134.316 183.894 134.412 183.876 134.522C183.858 134.612 183.864 134.691 183.893 134.758C183.924 134.825 183.973 134.884 184.038 134.933C184.105 134.98 184.185 135.022 184.277 135.058C184.368 135.093 184.466 135.122 184.569 135.147L185.002 135.255C185.214 135.304 185.404 135.37 185.573 135.452C185.743 135.534 185.886 135.634 186 135.754C186.117 135.874 186.199 136.015 186.246 136.177C186.294 136.339 186.3 136.525 186.266 136.735C186.214 137.043 186.091 137.311 185.9 137.537C185.708 137.762 185.456 137.936 185.145 138.061C184.833 138.184 184.473 138.245 184.063 138.245C183.656 138.245 183.313 138.183 183.032 138.058C182.752 137.934 182.548 137.749 182.42 137.505C182.294 137.259 182.256 136.955 182.307 136.593H183.337C183.319 136.762 183.344 136.902 183.411 137.016C183.48 137.127 183.582 137.212 183.718 137.269C183.855 137.325 184.014 137.353 184.198 137.353C184.38 137.353 184.541 137.326 184.682 137.274C184.825 137.221 184.941 137.148 185.029 137.055C185.118 136.962 185.172 136.854 185.191 136.733C185.211 136.62 185.194 136.525 185.14 136.448C185.086 136.371 184.999 136.305 184.879 136.251C184.761 136.195 184.614 136.146 184.439 136.103L183.913 135.966C183.506 135.862 183.199 135.701 182.991 135.481C182.782 135.261 182.708 134.966 182.767 134.593C182.819 134.289 182.946 134.022 183.148 133.794C183.351 133.565 183.607 133.387 183.915 133.261C184.225 133.133 184.564 133.069 184.931 133.069C185.305 133.069 185.62 133.134 185.878 133.263C186.135 133.391 186.323 133.57 186.441 133.799C186.559 134.029 186.595 134.296 186.549 134.601H185.528ZM187.24 134.016L187.388 133.138H191.524L191.377 134.016H189.835L189.146 138.174H188.094L188.782 134.016H187.24Z" fill="#5D47D8"/>
</g>
<defs>
<filter id="filter0_d_1560_25153" x="0.202702" y="0.0386543" width="525.595" height="525.595" filterUnits="userSpaceOnUse" color-interpolation-filters="sRGB">
<feFlood flood-opacity="0" result="BackgroundImageFix"/>
<feColorMatrix in="SourceAlpha" type="matrix" values="0 0 0 0 0 0 0 0 0 0 0 0 0 0 0 0 0 0 127 0" result="hardAlpha"/>
<feOffset dy="20.836"/>
<feGaussianBlur stdDeviation="22.3986"/>
<feColorMatrix type="matrix" values="0 0 0 0 0.329412 0 0 0 0 0.203922 0 0 0 0 0.882353 0 0 0 0.12 0"/>
<feBlend mode="normal" in2="BackgroundImageFix" result="effect1_dropShadow_1560_25153"/>
<feBlend mode="normal" in="SourceGraphic" in2="effect1_dropShadow_1560_25153" result="shape"/>
</filter>
<linearGradient id="paint0_linear_1560_25153" x1="66.7998" y1="45.8008" x2="459.2" y2="438.201" gradientUnits="userSpaceOnUse">
<stop stop-color="#7C6AED"/>
<stop offset="1" stop-color="#A89BFF"/>
</linearGradient>
<linearGradient id="paint1_linear_1560_25153" x1="263.328" y1="389.594" x2="263.328" y2="413.594" gradientUnits="userSpaceOnUse">
<stop stop-color="#5D47D8"/>
<stop offset="1" stop-color="#312572" stop-opacity="0.02"/>
</linearGradient>
</defs>
</svg>
