<svg width="720" height="579" viewBox="0 0 720 579" fill="none" xmlns="http://www.w3.org/2000/svg">
<g filter="url(#filter0_d_1474_57561)">
<path d="M563.104 324.967C562.833 315.377 563.608 299.022 554.862 292.288C547.179 286.376 541.205 294.4 539.048 300.873C533.825 316.574 536.277 333.889 536.293 350.097C536.293 350.343 536.293 350.589 536.293 350.865C535.886 362.797 534.392 375.704 535.75 387.613C535.75 387.613 534.416 375.681 524.672 380.795C514.928 385.908 529.544 412.744 529.544 412.744C529.544 412.744 518.027 404.651 512.708 411.469C507.389 418.287 519.353 425.95 519.353 425.95C519.353 425.95 508.275 422.971 508.275 425.95C508.275 428.929 511.821 431.486 522.013 432.768H576.945C576.945 432.768 585.811 428.077 584.038 422.971C582.265 417.865 572.952 420.806 572.952 420.806C572.952 420.806 587.137 404.19 586.25 396.95C585.364 389.709 567.194 398.232 567.194 398.232C567.194 398.232 581.37 363.726 578.711 348.393C576.618 336.315 566.866 344.554 561.555 349.222C562.805 341.196 563.324 333.08 563.104 324.967Z" fill="#ADA4EE" stroke="white" stroke-width="0.117243" stroke-linecap="round" stroke-linejoin="round"/>
<path opacity="0.5" d="M563.104 324.967C562.833 315.377 563.608 299.022 554.862 292.288C547.179 286.376 541.205 294.4 539.048 300.873C533.825 316.574 536.277 333.889 536.293 350.097C536.293 350.343 536.293 350.589 536.293 350.865C535.886 362.797 534.392 375.704 535.75 387.613C535.75 387.613 534.416 375.681 524.672 380.795C514.928 385.908 529.544 412.744 529.544 412.744C529.544 412.744 518.027 404.651 512.708 411.469C507.389 418.287 519.353 425.95 519.353 425.95C519.353 425.95 508.275 422.971 508.275 425.95C508.275 428.929 511.821 431.486 522.013 432.768H576.945C576.945 432.768 585.811 428.077 584.038 422.971C582.265 417.865 572.952 420.806 572.952 420.806C572.952 420.806 587.137 404.19 586.25 396.95C585.364 389.709 567.194 398.232 567.194 398.232C567.194 398.232 581.37 363.726 578.711 348.393C576.618 336.315 566.866 344.554 561.555 349.222C562.805 341.196 563.324 333.08 563.104 324.967Z" fill="white"/>
<path d="M545.478 432.308L549.471 315.162" stroke="white" stroke-width="0.117243" stroke-linecap="round" stroke-linejoin="round"/>
<path d="M547.698 383.321L568.52 364.578" stroke="white" stroke-width="0.117243" stroke-linecap="round" stroke-linejoin="round"/>
<path d="M557.441 374.799L561.874 362.875" stroke="white" stroke-width="0.117243" stroke-linecap="round" stroke-linejoin="round"/>
<path d="M530.415 397.803L546.364 414.418" stroke="white" stroke-width="0.117243" stroke-linecap="round" stroke-linejoin="round"/>
<path d="M572.952 407.178L546.364 420.384" stroke="white" stroke-width="0.117243" stroke-linecap="round" stroke-linejoin="round"/>
<path d="M558.775 414.84L568.519 414.418" stroke="white" stroke-width="0.117243" stroke-linecap="round" stroke-linejoin="round"/>
<path d="M545.478 432.308L549.471 315.162" stroke="#ADA4EE" stroke-width="0.117243" stroke-linecap="round" stroke-linejoin="round"/>
<path d="M547.698 383.321L568.52 364.578" stroke="#ADA4EE" stroke-width="0.117243" stroke-linecap="round" stroke-linejoin="round"/>
<path d="M557.441 374.799L561.874 362.875" stroke="#ADA4EE" stroke-width="0.117243" stroke-linecap="round" stroke-linejoin="round"/>
<path d="M530.415 397.803L546.364 414.418" stroke="#ADA4EE" stroke-width="0.117243" stroke-linecap="round" stroke-linejoin="round"/>
<path d="M572.952 407.178L546.364 420.384" stroke="#ADA4EE" stroke-width="0.117243" stroke-linecap="round" stroke-linejoin="round"/>
<path d="M558.775 414.84L568.519 414.418" stroke="#ADA4EE" stroke-width="0.117243" stroke-linecap="round" stroke-linejoin="round"/>
<g opacity="0.8">
<path d="M545.478 432.308L549.471 315.162" stroke="white" stroke-width="0.117243" stroke-linecap="round" stroke-linejoin="round"/>
<path d="M547.699 383.321L568.52 364.578" stroke="white" stroke-width="0.117243" stroke-linecap="round" stroke-linejoin="round"/>
<path d="M557.442 374.799L561.875 362.875" stroke="white" stroke-width="0.117243" stroke-linecap="round" stroke-linejoin="round"/>
<path d="M530.415 397.803L546.365 414.418" stroke="white" stroke-width="0.117243" stroke-linecap="round" stroke-linejoin="round"/>
<path d="M572.953 407.178L546.365 420.384" stroke="white" stroke-width="0.117243" stroke-linecap="round" stroke-linejoin="round"/>
<path d="M558.776 414.84L568.52 414.418" stroke="white" stroke-width="0.117243" stroke-linecap="round" stroke-linejoin="round"/>
</g>
<path d="M469.364 408.636C469.364 420.545 479.179 430.204 479.179 430.204C479.179 430.204 488.995 420.545 488.995 408.636C488.995 396.728 479.179 387.068 479.179 387.068C479.179 387.068 469.364 396.72 469.364 408.636Z" fill="#ADA4EE"/>
<path d="M462.559 427.011C467.351 432.178 475.45 432.739 475.45 432.739C475.45 432.739 475.841 424.915 471.081 419.747C466.321 414.58 458.19 414.02 458.19 414.02C458.19 414.02 457.791 421.844 462.559 427.011Z" fill="#ADA4EE"/>
<path d="M487.573 419.57C482.566 424.522 482.598 432.354 482.598 432.354C482.598 432.354 490.736 432.147 495.736 427.187C500.736 422.226 500.72 414.402 500.72 414.402C500.72 414.402 492.573 414.61 487.573 419.57Z" fill="#ADA4EE"/>
<g opacity="0.5">
<path d="M469.364 408.636C469.364 420.545 479.179 430.204 479.179 430.204C479.179 430.204 488.995 420.545 488.995 408.636C488.995 396.728 479.179 387.068 479.179 387.068C479.179 387.068 469.364 396.72 469.364 408.636Z" fill="white"/>
<path d="M479.179 430.204V387.068" stroke="white" stroke-width="0.117243" stroke-linecap="round" stroke-linejoin="round"/>
<path d="M479.179 402.402L473.685 397.787" stroke="white" stroke-width="0.117243" stroke-linecap="round" stroke-linejoin="round"/>
<path d="M479.268 409.528L486.072 400.053" stroke="white" stroke-width="0.117243" stroke-linecap="round" stroke-linejoin="round"/>
<path d="M479.179 413.634L471.065 406.678" stroke="white" stroke-width="0.117243" stroke-linecap="round" stroke-linejoin="round"/>
<path d="M479.268 419.171L487.294 412.299" stroke="white" stroke-width="0.117243" stroke-linecap="round" stroke-linejoin="round"/>
<path d="M479.267 423.953L472.981 419.17" stroke="white" stroke-width="0.117243" stroke-linecap="round" stroke-linejoin="round"/>
<path d="M462.559 427.009C467.351 432.176 475.45 432.737 475.45 432.737C475.45 432.737 475.841 424.913 471.081 419.746C466.321 414.578 458.19 414.018 458.19 414.018C458.19 414.018 457.791 421.842 462.559 427.009Z" fill="white"/>
<path d="M475.45 432.737L458.19 414.018" stroke="white" stroke-width="0.117243" stroke-linecap="round" stroke-linejoin="round"/>
<path d="M464.324 420.676L460.091 420.707" stroke="white" stroke-width="0.117243" stroke-linecap="round" stroke-linejoin="round"/>
<path d="M467.216 423.732L466.377 417.105" stroke="white" stroke-width="0.117243" stroke-linecap="round" stroke-linejoin="round"/>
<path d="M468.821 425.55L462.519 425.527" stroke="white" stroke-width="0.117243" stroke-linecap="round" stroke-linejoin="round"/>
<path d="M471.073 427.915L471.8 421.965" stroke="white" stroke-width="0.117243" stroke-linecap="round" stroke-linejoin="round"/>
<path d="M472.989 429.99L468.349 430.244" stroke="white" stroke-width="0.117243" stroke-linecap="round" stroke-linejoin="round"/>
<path d="M487.573 419.57C482.566 424.522 482.598 432.354 482.598 432.354C482.598 432.354 490.736 432.147 495.736 427.187C500.736 422.226 500.72 414.402 500.72 414.402C500.72 414.402 492.573 414.61 487.573 419.57Z" fill="white"/>
<path d="M482.598 432.354L500.72 414.402" stroke="white" stroke-width="0.117243" stroke-linecap="round" stroke-linejoin="round"/>
<path d="M494.274 420.783L493.931 416.729" stroke="white" stroke-width="0.117243" stroke-linecap="round" stroke-linejoin="round"/>
<path d="M491.319 423.786L498.132 422.48" stroke="white" stroke-width="0.117243" stroke-linecap="round" stroke-linejoin="round"/>
<path d="M489.554 425.459L489.107 419.416" stroke="white" stroke-width="0.117243" stroke-linecap="round" stroke-linejoin="round"/>
<path d="M487.262 427.793L493.492 428.054" stroke="white" stroke-width="0.117243" stroke-linecap="round" stroke-linejoin="round"/>
<path d="M485.257 429.782L484.65 425.359" stroke="white" stroke-width="0.117243" stroke-linecap="round" stroke-linejoin="round"/>
</g>
<path d="M479.18 430.204V387.068" stroke="#ADA4EE" stroke-width="0.117243" stroke-linecap="round" stroke-linejoin="round"/>
<path d="M479.179 402.402L473.685 397.787" stroke="#ADA4EE" stroke-width="0.117243" stroke-linecap="round" stroke-linejoin="round"/>
<path d="M479.268 409.528L486.072 400.053" stroke="#ADA4EE" stroke-width="0.117243" stroke-linecap="round" stroke-linejoin="round"/>
<path d="M479.179 413.634L471.065 406.678" stroke="#ADA4EE" stroke-width="0.117243" stroke-linecap="round" stroke-linejoin="round"/>
<path d="M479.268 419.171L487.294 412.299" stroke="#ADA4EE" stroke-width="0.117243" stroke-linecap="round" stroke-linejoin="round"/>
<path d="M479.268 423.955L472.982 419.172" stroke="#ADA4EE" stroke-width="0.117243" stroke-linecap="round" stroke-linejoin="round"/>
<g opacity="0.7">
<path d="M479.18 430.204V387.068" stroke="white" stroke-width="0.117243" stroke-linecap="round" stroke-linejoin="round"/>
<path d="M479.18 402.402L473.685 397.787" stroke="white" stroke-width="0.117243" stroke-linecap="round" stroke-linejoin="round"/>
<path d="M479.268 409.528L486.073 400.053" stroke="white" stroke-width="0.117243" stroke-linecap="round" stroke-linejoin="round"/>
<path d="M479.18 413.634L471.065 406.678" stroke="white" stroke-width="0.117243" stroke-linecap="round" stroke-linejoin="round"/>
<path d="M479.268 419.171L487.295 412.299" stroke="white" stroke-width="0.117243" stroke-linecap="round" stroke-linejoin="round"/>
<path d="M479.268 423.953L472.982 419.17" stroke="white" stroke-width="0.117243" stroke-linecap="round" stroke-linejoin="round"/>
</g>
<path d="M475.45 432.739L458.19 414.02" stroke="#ADA4EE" stroke-width="0.117243" stroke-linecap="round" stroke-linejoin="round"/>
<path d="M464.324 420.676L460.091 420.707" stroke="#ADA4EE" stroke-width="0.117243" stroke-linecap="round" stroke-linejoin="round"/>
<path d="M467.216 423.732L466.377 417.105" stroke="#ADA4EE" stroke-width="0.117243" stroke-linecap="round" stroke-linejoin="round"/>
<path d="M468.821 425.55L462.519 425.527" stroke="#ADA4EE" stroke-width="0.117243" stroke-linecap="round" stroke-linejoin="round"/>
<path d="M471.073 427.915L471.8 421.965" stroke="#ADA4EE" stroke-width="0.117243" stroke-linecap="round" stroke-linejoin="round"/>
<path d="M472.99 429.99L468.35 430.244" stroke="#ADA4EE" stroke-width="0.117243" stroke-linecap="round" stroke-linejoin="round"/>
<g opacity="0.7">
<path d="M475.45 432.739L458.191 414.02" stroke="white" stroke-width="0.117243" stroke-linecap="round" stroke-linejoin="round"/>
<path d="M464.325 420.676L460.092 420.707" stroke="white" stroke-width="0.117243" stroke-linecap="round" stroke-linejoin="round"/>
<path d="M467.216 423.732L466.377 417.105" stroke="white" stroke-width="0.117243" stroke-linecap="round" stroke-linejoin="round"/>
<path d="M468.821 425.552L462.52 425.529" stroke="white" stroke-width="0.117243" stroke-linecap="round" stroke-linejoin="round"/>
<path d="M471.073 427.917L471.8 421.967" stroke="white" stroke-width="0.117243" stroke-linecap="round" stroke-linejoin="round"/>
<path d="M472.99 429.99L468.35 430.244" stroke="white" stroke-width="0.117243" stroke-linecap="round" stroke-linejoin="round"/>
</g>
<path d="M482.598 432.354L500.72 414.402" stroke="#ADA4EE" stroke-width="0.117243" stroke-linecap="round" stroke-linejoin="round"/>
<path d="M494.274 420.783L493.931 416.729" stroke="#ADA4EE" stroke-width="0.117243" stroke-linecap="round" stroke-linejoin="round"/>
<path d="M491.319 423.786L498.132 422.48" stroke="#ADA4EE" stroke-width="0.117243" stroke-linecap="round" stroke-linejoin="round"/>
<path d="M489.555 425.459L489.107 419.416" stroke="#ADA4EE" stroke-width="0.117243" stroke-linecap="round" stroke-linejoin="round"/>
<path d="M487.262 427.793L493.492 428.054" stroke="#ADA4EE" stroke-width="0.117243" stroke-linecap="round" stroke-linejoin="round"/>
<path d="M485.257 429.782L484.65 425.359" stroke="#ADA4EE" stroke-width="0.117243" stroke-linecap="round" stroke-linejoin="round"/>
<g opacity="0.7">
<path d="M482.598 432.354L500.72 414.402" stroke="white" stroke-width="0.117243" stroke-linecap="round" stroke-linejoin="round"/>
<path d="M494.274 420.783L493.931 416.729" stroke="white" stroke-width="0.117243" stroke-linecap="round" stroke-linejoin="round"/>
<path d="M491.319 423.786L498.132 422.48" stroke="white" stroke-width="0.117243" stroke-linecap="round" stroke-linejoin="round"/>
<path d="M489.554 425.459L489.107 419.416" stroke="white" stroke-width="0.117243" stroke-linecap="round" stroke-linejoin="round"/>
<path d="M487.262 427.793L493.492 428.054" stroke="white" stroke-width="0.117243" stroke-linecap="round" stroke-linejoin="round"/>
<path d="M485.257 429.782L484.65 425.359" stroke="white" stroke-width="0.117243" stroke-linecap="round" stroke-linejoin="round"/>
</g>
<path d="M156.994 324.967C157.258 315.377 156.491 299.022 165.236 292.288C172.92 286.376 178.894 294.4 181.042 300.873C186.274 316.574 183.814 333.889 183.806 350.097C183.806 350.343 183.806 350.589 183.806 350.865C184.221 362.797 185.706 375.704 184.357 387.613C184.357 387.613 185.683 375.681 195.434 380.795C205.186 385.909 190.554 412.744 190.554 412.744C190.554 412.744 202.079 404.651 207.398 411.469C212.718 418.287 200.769 425.92 200.769 425.92C200.769 425.92 211.847 422.94 211.847 425.92C211.847 428.899 208.301 431.456 198.11 432.738H143.153C143.153 432.738 134.288 428.046 136.061 422.94C137.834 417.834 147.138 420.806 147.138 420.806C147.138 420.806 132.962 404.19 133.849 396.95C134.735 389.709 152.905 398.232 152.905 398.232C152.905 398.232 138.72 363.726 141.38 348.416C143.473 336.338 153.232 344.577 158.536 349.245C157.287 341.211 156.771 333.087 156.994 324.967Z" fill="#ADA4EE" stroke="white" stroke-width="0.117243" stroke-linecap="round" stroke-linejoin="round"/>
<path opacity="0.5" d="M156.994 324.967C157.258 315.377 156.491 299.022 165.236 292.288C172.92 286.376 178.894 294.4 181.042 300.873C186.274 316.574 183.814 333.889 183.806 350.097C183.806 350.343 183.806 350.589 183.806 350.865C184.221 362.797 185.706 375.704 184.357 387.613C184.357 387.613 185.683 375.681 195.434 380.795C205.186 385.909 190.554 412.744 190.554 412.744C190.554 412.744 202.079 404.651 207.398 411.469C212.718 418.287 200.769 425.92 200.769 425.92C200.769 425.92 211.847 422.94 211.847 425.92C211.847 428.899 208.301 431.456 198.11 432.738H143.153C143.153 432.738 134.288 428.046 136.061 422.94C137.834 417.834 147.138 420.806 147.138 420.806C147.138 420.806 132.962 404.19 133.849 396.95C134.735 389.709 152.905 398.232 152.905 398.232C152.905 398.232 138.72 363.726 141.38 348.416C143.473 336.338 153.232 344.577 158.536 349.245C157.287 341.211 156.771 333.087 156.994 324.967Z" fill="white"/>
<path d="M174.613 432.308L170.627 315.162" stroke="white" stroke-width="0.117243" stroke-linecap="round" stroke-linejoin="round"/>
<path d="M172.401 383.321L151.571 364.578" stroke="white" stroke-width="0.117243" stroke-linecap="round" stroke-linejoin="round"/>
<path d="M162.648 374.799L158.216 362.875" stroke="white" stroke-width="0.117243" stroke-linecap="round" stroke-linejoin="round"/>
<path d="M189.676 397.803L173.727 414.418" stroke="white" stroke-width="0.117243" stroke-linecap="round" stroke-linejoin="round"/>
<path d="M147.139 407.178L173.727 420.384" stroke="white" stroke-width="0.117243" stroke-linecap="round" stroke-linejoin="round"/>
<path d="M161.323 414.84L151.571 414.418" stroke="white" stroke-width="0.117243" stroke-linecap="round" stroke-linejoin="round"/>
<path d="M174.613 432.308L170.627 315.162" stroke="#ADA4EE" stroke-width="0.117243" stroke-linecap="round" stroke-linejoin="round"/>
<path d="M172.401 383.321L151.571 364.578" stroke="#ADA4EE" stroke-width="0.117243" stroke-linecap="round" stroke-linejoin="round"/>
<path d="M162.648 374.799L158.216 362.875" stroke="#ADA4EE" stroke-width="0.117243" stroke-linecap="round" stroke-linejoin="round"/>
<path d="M189.676 397.803L173.727 414.418" stroke="#ADA4EE" stroke-width="0.117243" stroke-linecap="round" stroke-linejoin="round"/>
<path d="M147.139 407.178L173.727 420.384" stroke="#ADA4EE" stroke-width="0.117243" stroke-linecap="round" stroke-linejoin="round"/>
<path d="M161.323 414.84L151.571 414.418" stroke="#ADA4EE" stroke-width="0.117243" stroke-linecap="round" stroke-linejoin="round"/>
<g opacity="0.8">
<path d="M174.613 432.308L170.627 315.162" stroke="white" stroke-width="0.117243" stroke-linecap="round" stroke-linejoin="round"/>
<path d="M172.401 383.321L151.571 364.578" stroke="white" stroke-width="0.117243" stroke-linecap="round" stroke-linejoin="round"/>
<path d="M162.648 374.799L158.216 362.875" stroke="white" stroke-width="0.117243" stroke-linecap="round" stroke-linejoin="round"/>
<path d="M189.676 397.803L173.727 414.418" stroke="white" stroke-width="0.117243" stroke-linecap="round" stroke-linejoin="round"/>
<path d="M147.139 407.178L173.727 420.384" stroke="white" stroke-width="0.117243" stroke-linecap="round" stroke-linejoin="round"/>
<path d="M161.323 414.84L151.571 414.418" stroke="white" stroke-width="0.117243" stroke-linecap="round" stroke-linejoin="round"/>
</g>
<path d="M252.332 408.636C252.332 420.545 242.516 430.204 242.516 430.204C242.516 430.204 232.716 420.545 232.716 408.636C232.716 396.728 242.532 387.068 242.532 387.068C242.532 387.068 252.332 396.72 252.332 408.636Z" fill="#ADA4EE"/>
<path d="M259.128 427.011C254.336 432.178 246.238 432.739 246.238 432.739C246.238 432.739 245.846 424.915 250.615 419.747C255.383 414.58 263.505 414.02 263.505 414.02C263.505 414.02 263.865 421.844 259.128 427.011Z" fill="#ADA4EE"/>
<path d="M234.122 419.57C239.122 424.522 239.098 432.354 239.098 432.354C239.098 432.354 230.96 432.147 225.952 427.187C220.944 422.226 220.976 414.402 220.976 414.402C220.976 414.402 229.115 414.61 234.122 419.57Z" fill="#ADA4EE"/>
<g opacity="0.5">
<path d="M252.332 408.636C252.332 420.545 242.516 430.204 242.516 430.204C242.516 430.204 232.716 420.545 232.716 408.636C232.716 396.728 242.532 387.068 242.532 387.068C242.532 387.068 252.332 396.72 252.332 408.636Z" fill="white"/>
<path d="M242.516 430.204V387.068" stroke="white" stroke-width="0.117243" stroke-linecap="round" stroke-linejoin="round"/>
<path d="M242.516 402.402L248.011 397.787" stroke="white" stroke-width="0.117243" stroke-linecap="round" stroke-linejoin="round"/>
<path d="M242.428 409.528L235.624 400.053" stroke="white" stroke-width="0.117243" stroke-linecap="round" stroke-linejoin="round"/>
<path d="M242.516 413.634L250.631 406.678" stroke="white" stroke-width="0.117243" stroke-linecap="round" stroke-linejoin="round"/>
<path d="M242.428 419.171L234.401 412.299" stroke="white" stroke-width="0.117243" stroke-linecap="round" stroke-linejoin="round"/>
<path d="M242.428 423.953L248.705 419.17" stroke="white" stroke-width="0.117243" stroke-linecap="round" stroke-linejoin="round"/>
<path d="M259.128 427.009C254.336 432.176 246.238 432.737 246.238 432.737C246.238 432.737 245.846 424.913 250.615 419.746C255.383 414.578 263.505 414.018 263.505 414.018C263.505 414.018 263.865 421.842 259.128 427.009Z" fill="white"/>
<path d="M246.238 432.737L263.505 414.018" stroke="white" stroke-width="0.117243" stroke-linecap="round" stroke-linejoin="round"/>
<path d="M257.371 420.676L261.596 420.707" stroke="white" stroke-width="0.117243" stroke-linecap="round" stroke-linejoin="round"/>
<path d="M254.48 423.732L255.319 417.105" stroke="white" stroke-width="0.117243" stroke-linecap="round" stroke-linejoin="round"/>
<path d="M252.867 425.55L259.176 425.527" stroke="white" stroke-width="0.117243" stroke-linecap="round" stroke-linejoin="round"/>
<path d="M250.614 427.915L249.888 421.965" stroke="white" stroke-width="0.117243" stroke-linecap="round" stroke-linejoin="round"/>
<path d="M248.706 429.99L253.346 430.244" stroke="white" stroke-width="0.117243" stroke-linecap="round" stroke-linejoin="round"/>
<path d="M234.122 419.57C239.121 424.522 239.098 432.354 239.098 432.354C239.098 432.354 230.959 432.147 225.951 427.187C220.944 422.226 220.976 414.402 220.976 414.402C220.976 414.402 229.114 414.61 234.122 419.57Z" fill="white"/>
<path d="M239.098 432.354L220.976 414.402" stroke="white" stroke-width="0.117243" stroke-linecap="round" stroke-linejoin="round"/>
<path d="M227.413 420.783L227.764 416.729" stroke="white" stroke-width="0.117243" stroke-linecap="round" stroke-linejoin="round"/>
<path d="M230.377 423.786L223.564 422.48" stroke="white" stroke-width="0.117243" stroke-linecap="round" stroke-linejoin="round"/>
<path d="M232.133 425.459L232.589 419.416" stroke="white" stroke-width="0.117243" stroke-linecap="round" stroke-linejoin="round"/>
<path d="M234.425 427.793L228.196 428.054" stroke="white" stroke-width="0.117243" stroke-linecap="round" stroke-linejoin="round"/>
<path d="M236.438 429.782L237.037 425.359" stroke="white" stroke-width="0.117243" stroke-linecap="round" stroke-linejoin="round"/>
</g>
<path d="M242.516 430.204V387.068" stroke="#ADA4EE" stroke-width="0.117243" stroke-linecap="round" stroke-linejoin="round"/>
<path d="M242.516 402.402L248.011 397.787" stroke="#ADA4EE" stroke-width="0.117243" stroke-linecap="round" stroke-linejoin="round"/>
<path d="M242.428 409.528L235.624 400.053" stroke="#ADA4EE" stroke-width="0.117243" stroke-linecap="round" stroke-linejoin="round"/>
<path d="M242.516 413.634L250.631 406.678" stroke="#ADA4EE" stroke-width="0.117243" stroke-linecap="round" stroke-linejoin="round"/>
<path d="M242.428 419.171L234.401 412.299" stroke="#ADA4EE" stroke-width="0.117243" stroke-linecap="round" stroke-linejoin="round"/>
<path d="M242.428 423.955L248.706 419.172" stroke="#ADA4EE" stroke-width="0.117243" stroke-linecap="round" stroke-linejoin="round"/>
<g opacity="0.7">
<path d="M242.516 430.204V387.068" stroke="white" stroke-width="0.117243" stroke-linecap="round" stroke-linejoin="round"/>
<path d="M242.516 402.402L248.011 397.787" stroke="white" stroke-width="0.117243" stroke-linecap="round" stroke-linejoin="round"/>
<path d="M242.428 409.528L235.624 400.053" stroke="white" stroke-width="0.117243" stroke-linecap="round" stroke-linejoin="round"/>
<path d="M242.516 413.634L250.631 406.678" stroke="white" stroke-width="0.117243" stroke-linecap="round" stroke-linejoin="round"/>
<path d="M242.428 419.171L234.401 412.299" stroke="white" stroke-width="0.117243" stroke-linecap="round" stroke-linejoin="round"/>
<path d="M242.428 423.953L248.706 419.17" stroke="white" stroke-width="0.117243" stroke-linecap="round" stroke-linejoin="round"/>
</g>
<path d="M246.238 432.739L263.506 414.02" stroke="#ADA4EE" stroke-width="0.117243" stroke-linecap="round" stroke-linejoin="round"/>
<path d="M257.372 420.676L261.597 420.707" stroke="#ADA4EE" stroke-width="0.117243" stroke-linecap="round" stroke-linejoin="round"/>
<path d="M254.48 423.732L255.319 417.105" stroke="#ADA4EE" stroke-width="0.117243" stroke-linecap="round" stroke-linejoin="round"/>
<path d="M252.867 425.55L259.177 425.527" stroke="#ADA4EE" stroke-width="0.117243" stroke-linecap="round" stroke-linejoin="round"/>
<path d="M250.615 427.915L249.888 421.965" stroke="#ADA4EE" stroke-width="0.117243" stroke-linecap="round" stroke-linejoin="round"/>
<path d="M248.706 429.99L253.346 430.244" stroke="#ADA4EE" stroke-width="0.117243" stroke-linecap="round" stroke-linejoin="round"/>
<g opacity="0.7">
<path d="M246.238 432.739L263.506 414.02" stroke="white" stroke-width="0.117243" stroke-linecap="round" stroke-linejoin="round"/>
<path d="M257.372 420.676L261.597 420.707" stroke="white" stroke-width="0.117243" stroke-linecap="round" stroke-linejoin="round"/>
<path d="M254.48 423.732L255.319 417.105" stroke="white" stroke-width="0.117243" stroke-linecap="round" stroke-linejoin="round"/>
<path d="M252.867 425.552L259.177 425.529" stroke="white" stroke-width="0.117243" stroke-linecap="round" stroke-linejoin="round"/>
<path d="M250.615 427.917L249.888 421.967" stroke="white" stroke-width="0.117243" stroke-linecap="round" stroke-linejoin="round"/>
<path d="M248.706 429.99L253.346 430.244" stroke="white" stroke-width="0.117243" stroke-linecap="round" stroke-linejoin="round"/>
</g>
<path d="M239.098 432.354L220.976 414.402" stroke="#ADA4EE" stroke-width="0.117243" stroke-linecap="round" stroke-linejoin="round"/>
<path d="M227.413 420.783L227.764 416.729" stroke="#ADA4EE" stroke-width="0.117243" stroke-linecap="round" stroke-linejoin="round"/>
<path d="M230.376 423.786L223.563 422.48" stroke="#ADA4EE" stroke-width="0.117243" stroke-linecap="round" stroke-linejoin="round"/>
<path d="M232.133 425.459L232.589 419.416" stroke="#ADA4EE" stroke-width="0.117243" stroke-linecap="round" stroke-linejoin="round"/>
<path d="M234.425 427.793L228.196 428.054" stroke="#ADA4EE" stroke-width="0.117243" stroke-linecap="round" stroke-linejoin="round"/>
<path d="M236.438 429.782L237.037 425.359" stroke="#ADA4EE" stroke-width="0.117243" stroke-linecap="round" stroke-linejoin="round"/>
<g opacity="0.7">
<path d="M239.098 432.354L220.976 414.402" stroke="white" stroke-width="0.117243" stroke-linecap="round" stroke-linejoin="round"/>
<path d="M227.413 420.783L227.764 416.729" stroke="white" stroke-width="0.117243" stroke-linecap="round" stroke-linejoin="round"/>
<path d="M230.377 423.786L223.564 422.48" stroke="white" stroke-width="0.117243" stroke-linecap="round" stroke-linejoin="round"/>
<path d="M232.133 425.459L232.589 419.416" stroke="white" stroke-width="0.117243" stroke-linecap="round" stroke-linejoin="round"/>
<path d="M234.425 427.793L228.196 428.054" stroke="white" stroke-width="0.117243" stroke-linecap="round" stroke-linejoin="round"/>
<path d="M236.438 429.782L237.037 425.359" stroke="white" stroke-width="0.117243" stroke-linecap="round" stroke-linejoin="round"/>
</g>
<path d="M473.422 204.542H257.516C257.452 204.543 257.387 204.532 257.327 204.509C257.267 204.486 257.213 204.451 257.167 204.408C257.12 204.364 257.084 204.312 257.059 204.255C257.034 204.197 257.021 204.136 257.021 204.074C257.021 203.947 257.073 203.826 257.166 203.737C257.259 203.648 257.385 203.598 257.516 203.598H473.422C473.487 203.598 473.551 203.61 473.61 203.634C473.67 203.658 473.724 203.693 473.769 203.738C473.815 203.782 473.85 203.834 473.874 203.892C473.898 203.95 473.91 204.012 473.909 204.074C473.909 204.198 473.858 204.317 473.767 204.405C473.675 204.493 473.551 204.542 473.422 204.542Z" fill="#ADA4EE"/>
<g opacity="0.3">
<path d="M473.422 204.542H257.516C257.452 204.543 257.387 204.532 257.327 204.509C257.267 204.486 257.213 204.451 257.167 204.408C257.12 204.364 257.084 204.312 257.059 204.255C257.034 204.197 257.021 204.136 257.021 204.074C257.021 203.947 257.073 203.826 257.166 203.737C257.259 203.648 257.385 203.598 257.516 203.598H473.422C473.487 203.598 473.551 203.61 473.61 203.634C473.67 203.658 473.724 203.693 473.769 203.738C473.815 203.782 473.85 203.834 473.874 203.892C473.898 203.95 473.91 204.012 473.909 204.074C473.909 204.198 473.858 204.317 473.767 204.405C473.675 204.493 473.551 204.542 473.422 204.542Z" fill="white"/>
</g>
<path d="M472.991 286.868H257.085C257.02 286.869 256.956 286.858 256.896 286.835C256.836 286.812 256.781 286.777 256.735 286.734C256.689 286.69 256.653 286.638 256.628 286.581C256.603 286.524 256.59 286.462 256.59 286.4C256.59 286.274 256.642 286.153 256.735 286.063C256.828 285.974 256.954 285.924 257.085 285.924H472.991C473.056 285.924 473.12 285.936 473.179 285.96C473.239 285.984 473.293 286.019 473.338 286.064C473.384 286.108 473.419 286.161 473.443 286.218C473.467 286.276 473.479 286.338 473.478 286.4C473.478 286.461 473.465 286.522 473.441 286.579C473.417 286.636 473.381 286.688 473.335 286.731C473.29 286.775 473.236 286.809 473.177 286.833C473.118 286.856 473.055 286.868 472.991 286.868Z" fill="#ADA4EE"/>
<g opacity="0.3">
<path d="M472.991 286.868H257.085C257.02 286.869 256.956 286.858 256.896 286.835C256.836 286.812 256.781 286.777 256.735 286.734C256.689 286.69 256.653 286.638 256.628 286.581C256.603 286.524 256.59 286.462 256.59 286.4C256.59 286.274 256.642 286.153 256.735 286.063C256.828 285.974 256.954 285.924 257.085 285.924H472.991C473.056 285.924 473.12 285.936 473.179 285.96C473.239 285.984 473.293 286.019 473.338 286.064C473.384 286.108 473.419 286.161 473.443 286.218C473.467 286.276 473.479 286.338 473.478 286.4C473.478 286.461 473.465 286.522 473.441 286.579C473.417 286.636 473.381 286.688 473.335 286.731C473.29 286.775 473.236 286.809 473.177 286.833C473.118 286.856 473.055 286.868 472.991 286.868Z" fill="white"/>
</g>
<path d="M472.991 354.167H257.085C256.954 354.167 256.828 354.117 256.735 354.028C256.642 353.938 256.59 353.817 256.59 353.691C256.59 353.629 256.603 353.567 256.628 353.51C256.653 353.453 256.689 353.401 256.735 353.357C256.781 353.314 256.836 353.279 256.896 353.256C256.956 353.233 257.02 353.222 257.085 353.223H472.991C473.055 353.223 473.118 353.235 473.177 353.258C473.236 353.282 473.29 353.316 473.335 353.36C473.381 353.403 473.417 353.455 473.441 353.512C473.465 353.569 473.478 353.63 473.478 353.691C473.479 353.753 473.467 353.815 473.443 353.873C473.419 353.93 473.384 353.983 473.338 354.027C473.293 354.072 473.239 354.107 473.179 354.131C473.12 354.155 473.056 354.167 472.991 354.167Z" fill="#ADA4EE"/>
<g opacity="0.3">
<path d="M472.991 354.167H257.085C256.954 354.167 256.828 354.117 256.735 354.028C256.642 353.938 256.59 353.817 256.59 353.691C256.59 353.629 256.603 353.567 256.628 353.51C256.653 353.453 256.689 353.401 256.735 353.357C256.781 353.314 256.836 353.279 256.896 353.256C256.956 353.233 257.02 353.222 257.085 353.223H472.991C473.055 353.223 473.118 353.235 473.177 353.258C473.236 353.282 473.29 353.316 473.335 353.36C473.381 353.403 473.417 353.455 473.441 353.512C473.465 353.569 473.478 353.63 473.478 353.691C473.479 353.753 473.467 353.815 473.443 353.873C473.419 353.93 473.384 353.983 473.338 354.027C473.293 354.072 473.239 354.107 473.179 354.131C473.12 354.155 473.056 354.167 472.991 354.167Z" fill="white"/>
</g>
<path d="M302.983 365.555V435.595" stroke="#263238" stroke-width="0.0310894" stroke-miterlimit="10"/>
<path d="M313.391 365.555V435.595" stroke="#263238" stroke-width="0.0310894" stroke-miterlimit="10"/>
<path d="M323.797 365.555V435.595" stroke="#263238" stroke-width="0.0310894" stroke-miterlimit="10"/>
<path d="M334.204 365.555V435.595" stroke="#263238" stroke-width="0.0310894" stroke-miterlimit="10"/>
<path d="M344.611 365.555V435.595" stroke="#263238" stroke-width="0.0310894" stroke-miterlimit="10"/>
<path d="M355.018 365.555V435.595" stroke="#263238" stroke-width="0.0310894" stroke-miterlimit="10"/>
<path d="M365.424 365.555V435.595" stroke="#263238" stroke-width="0.0310894" stroke-miterlimit="10"/>
<path d="M375.831 365.555V435.595" stroke="#263238" stroke-width="0.0310894" stroke-miterlimit="10"/>
<path d="M386.238 365.555V435.595" stroke="#263238" stroke-width="0.0310894" stroke-miterlimit="10"/>
<path d="M396.645 365.555V435.595" stroke="#263238" stroke-width="0.0310894" stroke-miterlimit="10"/>
<path d="M407.051 365.555V435.595" stroke="#263238" stroke-width="0.0310894" stroke-miterlimit="10"/>
<path d="M417.458 365.555V435.595" stroke="#263238" stroke-width="0.0310894" stroke-miterlimit="10"/>
<path d="M303.503 372.059H416.939" stroke="#263238" stroke-width="0.0310894" stroke-miterlimit="10"/>
<path d="M303.503 381.564H416.939" stroke="#263238" stroke-width="0.0310894" stroke-miterlimit="10"/>
<path d="M303.503 391.07H416.939" stroke="#263238" stroke-width="0.0310894" stroke-miterlimit="10"/>
<path d="M303.503 400.574H416.939" stroke="#263238" stroke-width="0.0310894" stroke-miterlimit="10"/>
<path d="M303.503 410.08H416.939" stroke="#263238" stroke-width="0.0310894" stroke-miterlimit="10"/>
<path d="M303.503 419.586H416.939" stroke="#263238" stroke-width="0.0310894" stroke-miterlimit="10"/>
<path d="M303.503 429.092H416.939" stroke="#263238" stroke-width="0.0310894" stroke-miterlimit="10"/>
<path d="M327.336 390.126L312.113 435.243H343.996L328.765 390.126C328.717 389.981 328.621 389.854 328.493 389.764C328.364 389.674 328.209 389.625 328.05 389.625C327.891 389.625 327.736 389.674 327.608 389.764C327.48 389.854 327.384 389.981 327.336 390.126Z" fill="#ADA4EE" stroke="#263238" stroke-width="0.124357" stroke-miterlimit="10"/>
<path d="M356.359 375.183L336.097 435.242H378.075L357.789 375.183C357.74 375.037 357.645 374.91 357.516 374.82C357.388 374.73 357.233 374.682 357.074 374.682C356.915 374.682 356.76 374.73 356.632 374.82C356.503 374.91 356.408 375.037 356.359 375.183Z" fill="#263238" stroke="#263238" stroke-width="0.124357" stroke-miterlimit="10"/>
<path d="M383.067 400.444L371.319 435.242H396.237L384.465 400.444C384.41 400.309 384.314 400.193 384.189 400.112C384.064 400.03 383.917 399.986 383.766 399.986C383.615 399.986 383.468 400.03 383.343 400.112C383.219 400.193 383.122 400.309 383.067 400.444Z" fill="#ADA4EE" stroke="#263238" stroke-width="0.124357" stroke-miterlimit="10"/>
<path d="M399.16 412.392L391.453 435.242H408.297L400.589 412.392C400.541 412.246 400.445 412.119 400.317 412.029C400.189 411.939 400.034 411.891 399.875 411.891C399.716 411.891 399.561 411.939 399.432 412.029C399.304 412.119 399.208 412.246 399.16 412.392Z" fill="#263238" stroke="#263238" stroke-width="0.124357" stroke-miterlimit="10"/>
<path d="M301.609 343.419C297.043 343.419 292.578 342.117 288.781 339.678C284.984 337.239 282.025 333.772 280.277 329.716C278.53 325.66 278.072 321.196 278.963 316.891C279.854 312.585 282.053 308.629 285.282 305.525C288.512 302.421 292.626 300.306 297.105 299.45C301.584 298.593 306.226 299.033 310.445 300.713C314.664 302.393 318.27 305.238 320.808 308.889C323.345 312.539 324.699 316.831 324.699 321.221C324.693 327.106 322.258 332.749 317.929 336.91C313.6 341.072 307.731 343.413 301.609 343.419ZM301.609 305.542C298.384 305.544 295.232 306.465 292.551 308.188C289.87 309.912 287.781 312.361 286.547 315.226C285.314 318.091 284.992 321.244 285.623 324.285C286.253 327.325 287.807 330.118 290.088 332.31C292.369 334.502 295.275 335.995 298.438 336.599C301.602 337.204 304.881 336.893 307.86 335.706C310.84 334.519 313.386 332.509 315.178 329.931C316.97 327.353 317.926 324.322 317.926 321.221C317.922 317.063 316.201 313.076 313.142 310.136C310.083 307.197 305.935 305.544 301.609 305.542Z" fill="#263238" stroke="#263238" stroke-width="0.124357" stroke-miterlimit="10"/>
<path d="M301.61 343.419C298.494 343.428 295.408 342.826 292.542 341.65C289.676 340.473 287.09 338.747 284.941 336.577L289.837 332.07C291.354 333.603 293.181 334.823 295.205 335.653C297.229 336.483 299.409 336.908 301.61 336.9C303.751 336.9 305.872 336.494 307.851 335.706C309.83 334.919 311.627 333.764 313.142 332.308C314.656 330.852 315.858 329.123 316.677 327.221C317.497 325.319 317.919 323.28 317.919 321.221C317.919 319.162 317.497 317.123 316.677 315.221C315.858 313.319 314.656 311.59 313.142 310.134C311.627 308.679 309.83 307.524 307.851 306.736C305.872 305.948 303.751 305.542 301.61 305.542V299.023C304.642 299.023 307.644 299.598 310.446 300.713C313.247 301.829 315.793 303.464 317.937 305.525C320.081 307.586 321.781 310.033 322.942 312.726C324.102 315.42 324.699 318.306 324.699 321.221C324.699 324.136 324.102 327.023 322.942 329.716C321.781 332.409 320.081 334.856 317.937 336.917C315.793 338.978 313.247 340.613 310.446 341.729C307.644 342.845 304.642 343.419 301.61 343.419Z" fill="#ADA4EE" stroke="#263238" stroke-width="0.124357" stroke-miterlimit="10"/>
<path d="M358.555 343.419C353.988 343.42 349.523 342.12 345.725 339.681C341.927 337.243 338.966 333.777 337.217 329.721C335.469 325.665 335.01 321.202 335.9 316.895C336.79 312.589 338.989 308.633 342.218 305.528C345.446 302.423 349.561 300.308 354.04 299.451C358.519 298.593 363.162 299.033 367.381 300.712C371.601 302.392 375.208 305.237 377.745 308.888C380.283 312.538 381.637 316.83 381.637 321.221C381.631 327.105 379.197 332.746 374.87 336.908C370.543 341.069 364.676 343.411 358.555 343.419ZM358.555 305.542C355.33 305.545 352.179 306.467 349.499 308.192C346.819 309.917 344.731 312.366 343.499 315.232C342.267 318.097 341.946 321.249 342.578 324.289C343.209 327.33 344.763 330.122 347.045 332.313C349.326 334.504 352.232 335.996 355.395 336.6C358.559 337.204 361.837 336.892 364.816 335.705C367.795 334.518 370.341 332.508 372.133 329.93C373.924 327.352 374.88 324.321 374.88 321.221C374.874 317.062 373.151 313.075 370.091 310.136C367.03 307.196 362.881 305.544 358.555 305.542Z" fill="#263238" stroke="#263238" stroke-width="0.124357" stroke-miterlimit="10"/>
<path d="M367.54 341.668L364.905 335.671C368.368 334.26 371.218 331.741 372.972 328.542C374.726 325.342 375.276 321.659 374.529 318.114C373.782 314.569 371.784 311.382 368.873 309.091C365.962 306.8 362.317 305.546 358.555 305.542V299.023C363.883 299.024 369.046 300.796 373.17 304.038C377.294 307.281 380.125 311.794 381.183 316.814C382.241 321.834 381.46 327.051 378.974 331.581C376.487 336.111 372.448 339.674 367.54 341.668Z" fill="#ADA4EE" stroke="#263238" stroke-width="0.124357" stroke-miterlimit="10"/>
<path d="M415.493 343.419C410.926 343.419 406.462 342.117 402.665 339.678C398.868 337.239 395.908 333.772 394.16 329.716C392.413 325.66 391.956 321.196 392.846 316.891C393.737 312.585 395.937 308.629 399.166 305.525C402.395 302.421 406.509 300.306 410.988 299.45C415.467 298.593 420.11 299.033 424.329 300.713C428.548 302.393 432.154 305.238 434.691 308.889C437.228 312.539 438.582 316.831 438.582 321.221C438.576 327.106 436.141 332.749 431.812 336.91C427.484 341.072 421.614 343.413 415.493 343.419ZM415.493 305.542C412.267 305.542 409.114 306.462 406.432 308.185C403.75 309.907 401.659 312.356 400.425 315.221C399.191 318.086 398.868 321.238 399.497 324.28C400.126 327.321 401.68 330.115 403.96 332.308C406.241 334.5 409.147 335.994 412.311 336.599C415.474 337.204 418.754 336.893 421.734 335.706C424.714 334.52 427.261 332.51 429.053 329.932C430.845 327.353 431.801 324.322 431.801 321.221C431.797 317.064 430.078 313.078 427.02 310.139C423.962 307.199 419.817 305.546 415.493 305.542Z" fill="#263238" stroke="#263238" stroke-width="0.124357" stroke-miterlimit="10"/>
<path d="M431.482 318.096C430.725 314.558 428.723 311.379 425.814 309.093C422.905 306.806 419.266 305.553 415.509 305.542V299.023C420.83 299.036 425.985 300.811 430.106 304.048C434.226 307.285 437.062 311.788 438.135 316.798L431.482 318.096Z" fill="#ADA4EE" stroke="#263238" stroke-width="0.124357" stroke-miterlimit="10"/>
<path d="M310.819 274.445H419.255" stroke="#263238" stroke-width="0.124357" stroke-miterlimit="10"/>
<path d="M310.819 274.446V272.227" stroke="#263238" stroke-width="0.124357" stroke-miterlimit="10"/>
<path d="M332.503 274.446V272.227" stroke="#263238" stroke-width="0.124357" stroke-miterlimit="10"/>
<path d="M354.195 274.446V272.227" stroke="#263238" stroke-width="0.124357" stroke-miterlimit="10"/>
<path d="M375.879 274.446V272.227" stroke="#263238" stroke-width="0.124357" stroke-miterlimit="10"/>
<path d="M397.563 274.446V272.227" stroke="#263238" stroke-width="0.124357" stroke-miterlimit="10"/>
<path d="M419.255 274.446V272.227" stroke="#263238" stroke-width="0.124357" stroke-miterlimit="10"/>
<path d="M329.468 244.814H313.854V262.589H329.468V244.814Z" fill="#ADA4EE" stroke="#263238" stroke-width="0.124357" stroke-miterlimit="10"/>
<path d="M351.152 224.076H335.538V265.554H351.152V224.076Z" fill="#ADA4EE" stroke="#263238" stroke-width="0.124357" stroke-miterlimit="10"/>
<path d="M372.844 195.045H357.23V241.268H372.844V195.045Z" fill="#ADA4EE" stroke="#263238" stroke-width="0.124357" stroke-miterlimit="10"/>
<path d="M394.528 238.303H378.914V247.194H394.528V238.303Z" fill="#ADA4EE" stroke="#263238" stroke-width="0.124357" stroke-miterlimit="10"/>
<path d="M416.212 232.967H400.598V256.078H416.212V232.967Z" fill="#ADA4EE" stroke="#263238" stroke-width="0.124357" stroke-miterlimit="10"/>
<path d="M329.468 262.598H313.854V274.453H329.468V262.598Z" fill="#263238" stroke="#263238" stroke-width="0.124357" stroke-miterlimit="10"/>
<path d="M351.152 265.561H335.538V274.452H351.152V265.561Z" fill="#263238" stroke="#263238" stroke-width="0.124357" stroke-miterlimit="10"/>
<path d="M372.844 241.26H357.23V274.445H372.844V241.26Z" fill="#263238" stroke="#263238" stroke-width="0.124357" stroke-miterlimit="10"/>
<path d="M394.528 247.188H378.914V274.445H394.528V247.188Z" fill="#263238" stroke="#263238" stroke-width="0.124357" stroke-miterlimit="10"/>
<path d="M416.212 256.078H400.598V274.444H416.212V256.078Z" fill="#263238" stroke="#263238" stroke-width="0.124357" stroke-miterlimit="10"/>
<path d="M448.151 186.653C447.963 186.654 447.778 186.611 447.612 186.526C447.446 186.442 447.305 186.319 447.2 186.169L413.608 139.071L379.529 174.007L344.73 152.201L311.066 159.71L276.875 186.407C276.638 186.593 276.334 186.68 276.03 186.649C275.726 186.619 275.446 186.474 275.254 186.246C275.061 186.018 274.97 185.726 275.002 185.433C275.033 185.141 275.184 184.873 275.421 184.687L310.028 157.668L345.17 149.828L379.177 171.143L413.896 135.547L449.101 184.918C449.221 185.083 449.291 185.277 449.304 185.478C449.317 185.68 449.272 185.88 449.175 186.059C449.078 186.238 448.932 186.387 448.753 186.492C448.574 186.597 448.368 186.652 448.159 186.653H448.151Z" fill="#263238"/>
<path d="M279.04 185.548C279.04 186.09 278.873 186.62 278.559 187.071C278.246 187.521 277.801 187.873 277.28 188.08C276.759 188.288 276.186 188.342 275.632 188.236C275.079 188.13 274.571 187.869 274.173 187.486C273.774 187.103 273.502 186.614 273.392 186.083C273.282 185.551 273.339 185 273.554 184.499C273.77 183.998 274.136 183.57 274.605 183.269C275.073 182.967 275.625 182.807 276.189 182.807C276.945 182.807 277.67 183.095 278.205 183.609C278.74 184.124 279.04 184.821 279.04 185.548Z" fill="#ADA4EE"/>
<path d="M310.547 161.431C312.122 161.431 313.398 160.204 313.398 158.69C313.398 157.176 312.122 155.949 310.547 155.949C308.972 155.949 307.696 157.176 307.696 158.69C307.696 160.204 308.972 161.431 310.547 161.431Z" fill="#ADA4EE"/>
<path d="M344.946 153.752C346.521 153.752 347.798 152.525 347.798 151.011C347.798 149.497 346.521 148.27 344.946 148.27C343.372 148.27 342.095 149.497 342.095 151.011C342.095 152.525 343.372 153.752 344.946 153.752Z" fill="#ADA4EE"/>
<path d="M379.345 175.312C380.92 175.312 382.197 174.085 382.197 172.571C382.197 171.057 380.92 169.83 379.345 169.83C377.771 169.83 376.494 171.057 376.494 172.571C376.494 174.085 377.771 175.312 379.345 175.312Z" fill="#ADA4EE"/>
<path d="M416.596 137.313C416.596 137.856 416.428 138.385 416.115 138.836C415.802 139.287 415.356 139.638 414.835 139.846C414.314 140.053 413.741 140.108 413.188 140.002C412.635 139.896 412.127 139.635 411.728 139.252C411.329 138.868 411.058 138.38 410.948 137.848C410.838 137.316 410.894 136.765 411.11 136.264C411.326 135.764 411.691 135.335 412.16 135.034C412.629 134.733 413.18 134.572 413.744 134.572C414.501 134.572 415.226 134.861 415.76 135.375C416.295 135.889 416.596 136.586 416.596 137.313Z" fill="#ADA4EE"/>
<path d="M450.995 185.548C450.995 186.09 450.827 186.62 450.514 187.071C450.201 187.521 449.755 187.873 449.234 188.08C448.713 188.288 448.14 188.342 447.587 188.236C447.034 188.13 446.526 187.869 446.127 187.486C445.728 187.103 445.457 186.614 445.347 186.083C445.237 185.551 445.293 185 445.509 184.499C445.725 183.998 446.09 183.57 446.559 183.269C447.028 182.967 447.579 182.807 448.143 182.807C448.899 182.807 449.625 183.095 450.159 183.609C450.694 184.124 450.995 184.821 450.995 185.548Z" fill="#ADA4EE"/>
<path d="M509.633 446.806C540.078 446.806 564.758 443.619 564.758 439.688C564.758 435.757 540.078 432.57 509.633 432.57C479.189 432.57 454.509 435.757 454.509 439.688C454.509 443.619 479.189 446.806 509.633 446.806Z" fill="#ADA4EE"/>
<path opacity="0.7" d="M509.633 446.806C540.078 446.806 564.758 443.619 564.758 439.688C564.758 435.757 540.078 432.57 509.633 432.57C479.189 432.57 454.509 435.757 454.509 439.688C454.509 443.619 479.189 446.806 509.633 446.806Z" fill="white"/>
<path d="M207.623 446.806C235.716 446.806 258.49 443.619 258.49 439.688C258.49 435.757 235.716 432.57 207.623 432.57C179.529 432.57 156.755 435.757 156.755 439.688C156.755 443.619 179.529 446.806 207.623 446.806Z" fill="#ADA4EE"/>
<path opacity="0.7" d="M207.623 446.806C235.716 446.806 258.49 443.619 258.49 439.688C258.49 435.757 235.716 432.57 207.623 432.57C179.529 432.57 156.755 435.757 156.755 439.688C156.755 443.619 179.529 446.806 207.623 446.806Z" fill="white"/>
<path d="M494.075 188.941C494.075 188.941 515.016 186.99 516.214 190.346C517.412 193.701 517.012 201.364 517.012 201.364C518.067 201.627 519.096 201.979 520.087 202.416C520.367 202.677 523.466 204.627 520.575 207.829C519.819 208.641 518.905 209.301 517.883 209.771C516.608 210.314 515.395 210.983 514.265 211.768L510.064 216.352L510.863 222.256C510.863 222.256 512.74 223.561 515.032 228.115C515.032 228.115 520.447 231.186 523.625 232.929C526.24 234.249 528.958 235.369 531.756 236.277C531.756 236.277 533.21 236.73 533.106 237.735C533.002 238.741 525.87 261.538 525.87 261.538L522.116 273.055C522.045 274.47 521.852 275.878 521.541 277.263C521.006 279.743 518.993 281.371 516.909 280.864L517.116 289.31C517.116 289.31 507.325 294.017 491.175 293.218C491.175 293.218 483.572 292.512 477.949 288.511L477.845 268.778L451.936 263.956C451.936 263.956 448.654 263.288 450.339 260.447C452.024 257.607 457.687 250.558 457.687 250.558L475.889 229.151C475.889 229.151 477.143 227.731 477.606 227.278C478.069 226.825 479.203 226.51 483.7 226.149C488.196 225.788 493.236 224.951 493.236 224.951C493.236 224.951 495.967 222.694 496.359 222.694C496.75 222.694 496.83 219.315 496.83 219.315C495.449 218.357 494.3 217.122 493.463 215.696C492.626 214.27 492.121 212.686 491.982 211.054C491.591 205.571 494.091 192.726 494.091 192.726L494.075 188.941Z" fill="white"/>
<path d="M478.269 288.434C478.269 288.434 476.065 319.914 476.065 334.979C476.065 350.043 477.047 362.244 477.535 372.825C478.022 383.405 476.065 390.692 477.774 398.447C479.483 406.202 483.405 428.776 483.405 428.776L488.013 431.448C488.013 431.448 488.812 413.488 490.489 407.146C492.166 400.804 492.693 373.999 493.684 365.768C494.674 357.537 497.845 328.391 497.845 328.391C497.845 328.391 510.073 358.95 513.02 370.943C515.967 382.937 525.982 409.964 528.194 416.544C530.407 423.124 533.817 432.876 533.817 432.876C534.853 433.167 535.942 433.245 537.012 433.106C537.474 433.07 537.919 432.922 538.305 432.675C538.691 432.427 539.004 432.09 539.216 431.693C539.216 431.693 535.966 412.006 534.536 402.439C532.771 390.607 529.896 372.825 528.147 366.244C526.397 359.664 523.746 349.314 523.746 344.377C523.746 339.44 517.149 289.862 517.149 289.862C517.149 289.862 494.163 299.483 478.269 288.434Z" fill="#263238"/>
<path d="M497.829 328.392L488.021 317.396" stroke="white" stroke-width="0.0621787" stroke-miterlimit="10" stroke-linecap="round"/>
<path d="M485.513 318.201L493.588 325.426" stroke="white" stroke-width="0.0621787" stroke-miterlimit="10" stroke-linecap="round"/>
<path d="M502.772 319.009C504.84 313.98 508.682 309.81 513.626 307.23" stroke="white" stroke-width="0.0621787" stroke-miterlimit="10" stroke-linecap="round"/>
<path d="M514.178 292.518C514.178 292.518 513.068 296.526 514.457 298.937C515.847 301.347 517.245 301.347 517.245 301.347C517.245 301.347 519.745 314.454 519.745 321.948C519.745 329.442 518.075 330.241 519.745 338.533C521.414 346.825 522.532 349.505 522.532 354.319C522.532 359.134 524.752 362.351 526.701 365.291C528.65 368.232 529.209 376.809 529.209 380.272C529.209 383.734 530.319 387.497 531.437 390.975C531.437 390.975 531.701 398.776 533.106 400.603C534.512 402.431 534.776 408.635 534.776 408.635" stroke="white" stroke-width="0.0621787" stroke-miterlimit="10" stroke-linecap="round"/>
<path d="M495.816 327.301C495.816 327.301 496.367 333.443 494.419 344.154C492.47 354.865 491.08 357.799 490.801 370.107C490.521 382.415 491.639 384.557 491.08 390.976C490.521 397.395 487.183 407.538 487.183 412.145C487.183 416.752 487.694 431.478 487.694 431.478" stroke="white" stroke-width="0.0621787" stroke-miterlimit="10" stroke-linecap="round"/>
<path d="M489.69 294.123L490.25 296.265L493.867 297.064L493.308 294.392" stroke="white" stroke-width="0.0621787" stroke-miterlimit="10" stroke-linecap="round"/>
<path d="M493.883 297.064C493.883 297.064 500.56 296.795 503.899 295.728L503.1 293.586" stroke="white" stroke-width="0.0621787" stroke-miterlimit="10" stroke-linecap="round"/>
<path d="M506.111 293.049L506.91 295.729C506.91 295.729 512.253 295.437 513.051 294.669" stroke="white" stroke-width="0.0621787" stroke-miterlimit="10" stroke-linecap="round"/>
<path d="M490.249 296.266C488.403 296.21 486.595 295.751 484.962 294.922L482.454 293.586L483.253 291.713" stroke="white" stroke-width="0.0621787" stroke-miterlimit="10" stroke-linecap="round"/>
<path d="M483.405 428.775C483.405 428.775 471.425 436.292 469.708 439.817C467.991 443.341 474.843 441.936 479.731 440.055C484.619 438.173 487.718 431.447 487.718 431.447L483.405 428.775Z" fill="white" stroke="#263238" stroke-width="0.124357" stroke-miterlimit="10" stroke-linecap="round"/>
<path d="M534.2 432.976C534.804 436.196 535.994 439.289 537.714 442.113C540.35 446.052 545.326 449.43 545.326 443.234C545.326 437.038 539.184 431.717 539.184 431.717C539.184 431.717 536.133 433.306 534.2 432.976Z" fill="white" stroke="#263238" stroke-width="0.124357" stroke-miterlimit="10" stroke-linecap="round"/>
<path d="M494.003 193.193C494.003 193.193 491.407 208.673 492.286 212.512C494.291 221.104 501.327 220.735 505.728 219.092C509.841 217.556 513.946 212.128 514.473 211.414C514.511 211.363 514.564 211.326 514.625 211.306C515.28 211.13 519.345 209.886 521.134 206.868C523.091 203.574 519.425 202.169 519.425 202.169" fill="white"/>
<mask id="mask0_1474_57561" style="mask-type:luminance" maskUnits="userSpaceOnUse" x="492" y="193" width="30" height="28">
<path d="M494.003 193.193C494.003 193.193 491.407 208.673 492.286 212.512C494.291 221.104 501.327 220.735 505.728 219.092C509.841 217.556 513.946 212.128 514.473 211.414C514.511 211.363 514.564 211.326 514.625 211.306C515.28 211.13 519.345 209.886 521.134 206.868C523.091 203.574 519.425 202.169 519.425 202.169" fill="white"/>
</mask>
<g mask="url(#mask0_1474_57561)">
<g style="mix-blend-mode:multiply" opacity="0.5">
<path d="M510.656 215.398L514.537 211.298C514.537 211.298 519.13 209.939 521.134 206.83C522.308 205.01 521.661 203.42 520.951 202.991C519.977 202.484 518.971 202.035 517.94 201.647L516.638 204.403L515.528 204.588C515.528 204.588 515.991 201.747 514.649 200.065C513.307 198.384 513.004 193.516 513.004 193.516C513.004 193.516 511.127 203.221 510.895 207.283C510.836 209.543 510.101 211.739 508.779 213.609C508.779 213.609 509.018 216.09 509.482 218.57C509.538 218.861 509.593 219.299 509.649 219.844L510.288 218.861L510.64 219.798C510.24 218.186 510.057 216.473 510.656 215.398Z" fill="#ADA4EE"/>
</g>
</g>
<path d="M494.003 193.193C494.003 193.193 491.407 208.673 492.286 212.512C494.291 221.104 501.327 220.735 505.728 219.092C509.841 217.556 513.946 212.128 514.473 211.414C514.511 211.363 514.564 211.326 514.625 211.306C515.28 211.13 519.345 209.886 521.134 206.868C523.091 203.574 519.425 202.169 519.425 202.169" stroke="#263238" stroke-width="0.124357" stroke-miterlimit="10" stroke-linecap="round"/>
<path d="M503.939 201.064C503.787 201.678 503.939 202.231 504.234 202.3C504.53 202.369 504.929 201.939 505.081 201.333C505.232 200.726 505.081 200.173 504.785 200.097C504.49 200.02 504.09 200.458 503.939 201.064Z" fill="#263238"/>
<path d="M497.078 199.459C496.926 200.073 497.078 200.626 497.374 200.695C497.669 200.765 498.069 200.335 498.22 199.728C498.372 199.121 498.22 198.561 497.925 198.492C497.629 198.423 497.222 198.845 497.078 199.459Z" fill="#263238"/>
<path d="M508.196 198.375C507.818 197.737 507.281 197.199 506.632 196.812C505.984 196.424 505.244 196.199 504.482 196.156" stroke="#263238" stroke-width="0.124357" stroke-miterlimit="10" stroke-linecap="round"/>
<path d="M499.226 196.272C498.598 196.008 497.9 195.934 497.227 196.06C496.553 196.186 495.936 196.506 495.457 196.978" stroke="#263238" stroke-width="0.124357" stroke-miterlimit="10" stroke-linecap="round"/>
<path d="M499.69 199.066C499.705 200.095 499.624 201.123 499.45 202.138C499.186 203.42 498.148 203.673 498.412 204.664C498.675 205.654 500.009 205.754 500.009 205.754" stroke="#263238" stroke-width="0.124357" stroke-miterlimit="10" stroke-linecap="round"/>
<path d="M501.399 209.755C501.964 209.928 502.562 209.981 503.151 209.911C503.739 209.84 504.305 209.648 504.809 209.348" stroke="#263238" stroke-width="0.124357" stroke-miterlimit="10" stroke-linecap="round"/>
<path d="M514.05 182.383C514.05 182.383 508.675 177.914 503.539 177.914C498.404 177.914 494.242 180.74 491.064 180.985C487.885 181.231 485.689 178.398 483.732 182.16C481.775 185.922 489.115 192.272 494.003 193.209C498.891 194.146 505.735 192.741 507.692 192.503C509.567 192.379 511.448 192.379 513.323 192.503C513.323 192.503 511.853 196.971 513.323 198.384C514.792 199.797 515.032 200.734 515.032 201.67C515.116 202.704 515.279 203.731 515.519 204.742L516.989 205.218L517.723 202.63C519.706 200.598 521.061 198.075 521.637 195.344C522.364 191.113 518.698 186.898 518.698 186.898L514.05 182.383Z" fill="#263238"/>
<path d="M493.46 191.282C493.46 191.282 501.822 192.817 508.371 190.199C514.92 187.581 509.274 182.383 509.274 182.383" stroke="white" stroke-width="0.0621787" stroke-miterlimit="10" stroke-linecap="round"/>
<path d="M510.656 181.945C511.335 181.945 516.981 186.069 515.847 189.109C514.713 192.15 512.461 192.372 512.461 192.372" stroke="white" stroke-width="0.0621787" stroke-miterlimit="10" stroke-linecap="round"/>
<path d="M509.729 275.213L502.669 271.635C500.854 271.538 499.05 271.312 497.27 270.959C495.624 270.506 478.74 268.955 478.74 268.955L478.485 272.794C478.485 272.794 497.741 275.282 501.726 275.735C505.712 276.188 509.242 277.992 509.945 279.121C510.647 280.25 512.061 281.378 511.358 284.496C510.655 287.613 505.959 292.174 505.959 292.174C505.736 291.851 517.253 291.053 517.141 289.87C516.893 287.521 515.591 280.657 515.591 280.657L509.729 275.213Z" fill="#ADA4EE"/>
<path opacity="0.5" d="M509.729 275.213L502.669 271.635C500.854 271.538 499.05 271.312 497.27 270.959C495.624 270.506 478.74 268.955 478.74 268.955L478.485 272.794C478.485 272.794 497.741 275.282 501.726 275.735C505.712 276.188 509.242 277.992 509.945 279.121C510.647 280.25 512.061 281.378 511.358 284.496C510.655 287.613 505.959 292.174 505.959 292.174C505.776 291.828 517.277 291.045 517.141 289.87C516.765 286.876 515.591 280.657 515.591 280.657L509.729 275.213Z" fill="white"/>
<path d="M533.018 237.65C532.395 234.839 527.747 235.216 524.943 233.657C522.14 232.098 515.359 228.49 515.359 228.49L512.077 223.744C511.484 222.465 511.006 221.14 510.647 219.782L510.296 218.846L509.657 219.829C510.064 224.036 510.455 234.809 510.455 234.809L511.861 241.581C511.861 241.581 517.268 263.924 518.674 268.892C520.079 273.86 520.079 277.238 519.145 278.82C518.211 280.402 518.522 281.123 518.522 281.123C518.522 281.123 522.188 278.398 521.964 275.695C521.669 272.516 533.457 239.554 533.018 237.65Z" fill="#ADA4EE"/>
<path opacity="0.5" d="M533.018 237.65C532.699 234.793 527.747 235.216 524.943 233.657C522.14 232.098 515.359 228.49 515.359 228.49L512.077 223.744C511.484 222.465 511.006 221.14 510.647 219.782L510.296 218.846L509.657 219.829C510.064 224.036 510.455 234.809 510.455 234.809L511.861 241.581C511.861 241.581 517.268 263.924 518.674 268.892C520.079 273.86 520.079 277.238 519.145 278.82C518.211 280.402 518.522 281.123 518.522 281.123C518.522 281.123 522.292 278.39 521.964 275.695C521.589 272.8 533.306 240.022 533.018 237.65Z" fill="white"/>
<path d="M512.501 234.832C512.501 234.832 511.031 222.14 510.296 218.846C509.561 215.552 510.057 213.679 506.878 213.679C503.699 213.679 499.786 213.203 500.489 214.854C501.191 216.505 506.079 215.084 506.878 215.79C507.677 216.497 507.118 218.14 507.118 218.14C507.118 218.14 500.728 218.616 500.728 220.259C500.728 221.902 500.976 226.402 502.198 226.839C503.42 227.277 503.907 224.728 503.907 224.728C503.907 224.728 504.154 230.103 505.376 232.014C506.155 233.195 507.057 234.296 508.068 235.301L512.501 234.832Z" fill="white" stroke="#263238" stroke-width="0.124357" stroke-miterlimit="10" stroke-linecap="round"/>
<path d="M508.099 238.356C508.099 238.356 507.365 267.533 508.587 272.209C509.809 276.885 516.414 283.258 519.832 280.202C523.25 277.146 521.549 270.566 521.549 267.51C521.549 264.454 513.722 241.888 513.722 240.237C513.606 238.866 513.275 237.52 512.74 236.244" stroke="#263238" stroke-width="0.124357" stroke-miterlimit="10" stroke-linecap="round"/>
<path d="M508.586 241.888L513.474 241.412" stroke="#263238" stroke-width="0.124357" stroke-miterlimit="10" stroke-linecap="round"/>
<path d="M477.326 256.478L478.269 230.518C478.269 230.518 477.095 229.842 476.624 232.322C476.152 234.802 475.921 239.778 475.921 239.778C475.921 239.778 470.282 236.391 471.696 238.419C473.109 240.446 475.45 244.968 475.45 244.968L466.728 253.314L470.721 254.896L477.326 256.478Z" fill="#ADA4EE"/>
<path opacity="0.5" d="M477.326 256.478L478.269 230.518C478.269 230.518 477.095 229.842 476.624 232.322C476.152 234.802 475.921 239.778 475.921 239.778C475.921 239.778 470.282 236.391 471.696 238.419C473.109 240.446 475.45 244.968 475.45 244.968L466.728 253.314L470.721 254.896L477.326 256.478Z" fill="white"/>
<path d="M489.019 236.313C489.019 236.313 488.572 237.849 490.449 237.849C492.326 237.849 495.624 236.567 495.624 236.567L495.385 234.018C495.385 234.018 490.872 236.129 489.019 236.313Z" fill="#ADA4EE"/>
<path opacity="0.5" d="M489.019 236.313C489.019 236.313 488.572 237.849 490.449 237.849C492.326 237.849 495.624 236.567 495.624 236.567L495.385 234.018C495.385 234.018 490.872 236.129 489.019 236.313Z" fill="white"/>
<path d="M497.078 219.146C497.078 219.146 494.634 232.967 496.104 236.038C497.573 239.11 499.769 238.388 501.479 236.983C503.188 235.578 505.392 232.046 505.392 232.046" stroke="#263238" stroke-width="0.124357" stroke-miterlimit="10" stroke-linecap="round"/>
<path d="M477.774 269.154L478.269 288.434C478.269 288.434 483.86 293.602 494.65 293.602C505.44 293.602 517.149 289.839 517.149 289.839V283.021" stroke="#263238" stroke-width="0.124357" stroke-miterlimit="10" stroke-linecap="round"/>
<path d="M510.791 221.902C510.791 221.902 515.192 226.133 515.192 230.133C515.192 234.134 514.457 235.07 514.457 235.07" stroke="#263238" stroke-width="0.124357" stroke-miterlimit="10" stroke-linecap="round"/>
<path d="M514.696 227.783C514.696 227.783 521.301 231.538 524.967 233.657C528.633 235.776 533.042 235.769 533.042 237.65C533.042 239.531 522.771 271.503 522.771 271.503" stroke="#263238" stroke-width="0.124357" stroke-miterlimit="10" stroke-linecap="round"/>
<path d="M518.858 238.357L516.414 247.763" stroke="#263238" stroke-width="0.124357" stroke-miterlimit="10" stroke-linecap="round"/>
<path d="M477.838 243.878L473.885 235.908" stroke="#263238" stroke-width="0.0621787" stroke-miterlimit="10" stroke-linecap="round"/>
<path d="M477.838 246.157L471.912 242.74" stroke="#263238" stroke-width="0.0621787" stroke-miterlimit="10" stroke-linecap="round"/>
<path d="M497.173 263.986L495.991 269.684" stroke="#263238" stroke-width="0.0621787" stroke-miterlimit="10" stroke-linecap="round"/>
<path d="M529.145 237.428C529.145 237.428 523.227 238.564 517.7 245.014" stroke="#263238" stroke-width="0.0621787" stroke-miterlimit="10" stroke-linecap="round"/>
<path d="M525.199 237.082C525.199 237.082 523.602 236.698 518.099 241.251" stroke="#263238" stroke-width="0.0621787" stroke-miterlimit="10" stroke-linecap="round"/>
<path d="M497.174 238.947L494.81 256.776L496.783 257.16L498.364 251.47" stroke="#263238" stroke-width="0.0621787" stroke-miterlimit="10" stroke-linecap="round"/>
<path d="M498.755 285.615C491.647 291.312 481.783 290.929 481.783 290.929" stroke="#263238" stroke-width="0.0621787" stroke-miterlimit="10" stroke-linecap="round"/>
<path d="M468.717 254.649C468.717 254.649 463.885 250.396 457.04 255.809" stroke="#263238" stroke-width="0.0621787" stroke-miterlimit="10" stroke-linecap="round"/>
<path d="M496.607 222.609C496.607 222.609 494.65 223.078 492.446 226.372C490.242 229.666 487.558 235.301 489.515 235.77C491.472 236.238 495.106 234.127 495.106 234.127" stroke="#263238" stroke-width="0.124357" stroke-miterlimit="10" stroke-linecap="round"/>
<path d="M504.186 235.07L506.63 237.182" stroke="#263238" stroke-width="0.124357" stroke-miterlimit="10" stroke-linecap="round"/>
<path d="M493.18 224.959C493.18 224.959 484.132 226.134 480.466 226.372C476.8 226.61 477.51 227.907 476.312 228.721C474.38 230.019 452.208 257.038 450.755 259.626C449.301 262.214 449.533 263.388 451.977 264.095C454.421 264.801 478.764 268.917 478.764 268.917L500.273 271.036L501.982 265.861C501.982 265.861 506.982 266.498 507.86 266.498" stroke="#263238" stroke-width="0.124357" stroke-miterlimit="10" stroke-linecap="round"/>
<path d="M499.538 263.955C494.791 262.631 490.202 260.829 485.849 258.58" stroke="#263238" stroke-width="0.124357" stroke-miterlimit="10" stroke-linecap="round"/>
<path d="M483.892 258.104C483.892 258.104 476.704 255.54 472.814 255.071C468.925 254.603 462.967 254.449 462.967 254.449" stroke="#263238" stroke-width="0.124357" stroke-miterlimit="10" stroke-linecap="round"/>
<path d="M477.287 255.048L478.021 236.475" stroke="#263238" stroke-width="0.124357" stroke-miterlimit="10" stroke-linecap="round"/>
<path d="M500.273 271.035C501.951 271.846 503.709 272.494 505.52 272.97" stroke="#263238" stroke-width="0.124357" stroke-miterlimit="10" stroke-linecap="round"/>
<path d="M180.268 256.071L183.151 240.922L201.4 234.011C201.4 234.011 202.287 229.304 203.182 229.097C204.076 228.89 204.955 226.955 204.955 226.955L204.515 223.077C204.515 223.077 206.185 216.935 214.579 221.718C214.579 221.718 212.039 223.346 212.478 224.022C212.917 224.698 211.991 226.847 213.101 226.847C214.211 226.847 216.456 228.206 217.59 229.304C218.383 230.124 219.085 231.022 219.682 231.984L229.13 232.506C230.099 232.514 231.062 232.64 231.998 232.882C232.157 228.444 231.59 225.058 230.472 222.425C226.407 212.919 218.995 209.525 217.933 204.765C216.871 200.004 217.406 199.505 217.406 199.505C218.486 198.45 219.277 197.153 219.708 195.731C220.138 194.309 220.195 192.807 219.874 191.359C218.82 186.268 214.754 182.698 200.099 182.022C185.443 181.346 187.567 191.013 187.567 191.013L187.743 191.689C187.743 191.689 178.383 194.76 180.156 206.116C181.929 217.472 187.04 222.409 186.865 225.972C186.689 229.535 181.21 230.894 173.439 239.025C165.668 247.156 164.086 259.388 167.265 267.365C168.862 271.289 171.985 274.56 175.907 277.001L180.268 256.071Z" fill="#263238"/>
<path d="M192.503 257.568V260.993L185.738 281.087C189.965 282.162 194.398 282.251 198.669 281.348C201.079 280.744 203.383 279.799 205.505 278.545L192.503 257.568Z" fill="#263238"/>
<path d="M211.951 223.898L212.75 227.354C212.75 227.354 215.146 225.05 219.826 232.045C219.826 232.045 229.554 231.822 232.205 233.097C232.205 233.097 232.757 233.251 234.554 235.086C236.351 236.921 243.107 242.764 243.107 242.764C243.107 242.764 251.781 250.503 252.644 251.102C253.506 251.701 256.741 254.673 259.161 255.709L265.646 241.512L268.537 234.487L270.135 228.705H270.646L270.758 224.044L270.366 218.485C270.43 218.203 270.564 217.939 270.758 217.718C271.427 216.825 271.942 215.835 272.283 214.784C272.283 214.262 271.732 211.176 271.732 211.176C271.732 211.176 271.46 210.408 272.051 210.316C272.642 210.224 274.823 210.953 275.094 212.42L275.893 212.159C276.554 210.639 277.379 209.191 278.353 207.836C279.647 206.223 280.973 205.21 281.795 205.732C282.021 205.882 282.184 206.104 282.254 206.359C282.324 206.614 282.298 206.884 282.179 207.122L279.607 211.667C279.607 211.667 278.473 213.134 279.878 213.656C279.878 213.656 282.921 215.537 283.121 217.188C283.321 218.839 282.219 220.259 281.244 221.472C280.27 222.685 278.553 225.311 278.553 225.311L276.556 227.008L275.757 229.934L276.7 231.062L275.294 236.921L274.28 241.313L273.769 243.977L270.574 254.496L267.379 263.664C267.379 263.664 265.734 268.916 261.748 268.77C257.763 268.624 253.394 266.551 251.981 265.875C250.567 265.199 238.914 259.349 238.914 259.349L236.518 258.258C236.838 259.307 236.976 260.399 236.926 261.491C236.886 263.518 234.617 267.987 233.955 269L233.563 276.924C233.409 278.299 233.435 279.687 233.643 281.055C233.994 283.12 235.792 294.807 236.183 296.265C236.183 296.265 232.301 299.644 220.736 301.249C209.172 302.853 203.757 300.25 203.757 300.25L198.605 297.34L204.955 285.278C204.955 285.278 206.552 281.692 206.392 280.748C206.233 279.803 203.501 275.734 203.501 275.734L193.478 258.581L193.006 258.734L191.449 263.741L185.818 280.717L178.407 301.909C178.407 301.909 176.378 307.284 175.539 308.873L173.199 315.73C173.329 316.954 173.644 318.155 174.134 319.292L168.248 315.63L169.294 310.255L170.596 302.239L172.193 293.524L173.599 286.314L175.843 276.701L176.642 274.045L178.239 266.535L181.05 252.914L183.446 241.251L200.219 234.84L201.265 234.072C201.497 232.588 202.064 231.17 202.926 229.918C203.524 229.095 204.236 228.353 205.043 227.715C205.043 227.715 204.963 226.709 204.907 225.757C204.851 224.805 204.595 223.054 204.595 223.054C204.595 223.054 209.779 225.196 211.951 223.898Z" fill="white"/>
<path d="M189.484 193.041C189.484 193.041 192.591 186.43 198.805 186.43C205.019 186.43 217.885 198.162 217.885 198.162" stroke="white" stroke-width="0.0621787" stroke-miterlimit="10" stroke-linecap="round"/>
<path d="M192.144 194.084C192.144 194.084 195.913 190.244 200.578 191.734C205.242 193.224 205.905 198.56 205.905 198.56" stroke="white" stroke-width="0.0621787" stroke-miterlimit="10" stroke-linecap="round"/>
<path d="M189.037 194.744C189.037 194.744 183.494 197.731 183.047 203.282C182.6 208.834 190.81 215.437 191.92 222.908C193.03 230.379 187.264 232.075 177.943 238.264C168.623 244.453 170.18 258.312 172.177 261.299" stroke="white" stroke-width="0.0621787" stroke-miterlimit="10" stroke-linecap="round"/>
<path d="M173.287 263.012C173.287 263.012 174.613 265.784 176.61 266.636" stroke="white" stroke-width="0.0621787" stroke-miterlimit="10" stroke-linecap="round"/>
<path d="M189.708 209.25C189.445 209.792 189.328 210.388 189.365 210.985C189.403 211.581 189.595 212.159 189.923 212.667C191.034 214.586 199.508 224.184 198.805 228.668C198.102 233.152 193.701 235.916 193.701 235.916" stroke="white" stroke-width="0.0621787" stroke-miterlimit="10" stroke-linecap="round"/>
<path d="M193.917 194.744C193.917 194.744 188.813 196.879 189.037 201.785C189.261 206.691 190.371 207.974 190.371 207.974" stroke="white" stroke-width="0.0621787" stroke-miterlimit="10" stroke-linecap="round"/>
<path d="M217.885 210.977C219.471 214.428 221.647 217.599 224.323 220.359C228.316 224.198 228.755 229.75 228.755 229.75" stroke="white" stroke-width="0.0621787" stroke-miterlimit="10" stroke-linecap="round"/>
<path d="M222.542 223.115C222.542 223.115 224.538 227.599 224.538 230.371" stroke="white" stroke-width="0.0621787" stroke-miterlimit="10" stroke-linecap="round"/>
<path d="M211.495 224.307L205.226 229.735C205.226 229.735 204.555 231.378 203.293 234.012C202.031 236.645 202.239 241.69 202.239 241.69L206.104 249.084C206.104 249.084 198.669 240.884 198.245 239.87C197.822 238.857 190.043 240.684 188.574 241.291C187.104 241.897 185.203 243.111 185.626 244.93C186.05 246.75 187.943 249.169 187.096 249.576C186.249 249.983 183.941 248.969 183.941 250.182C183.941 251.395 186.681 256.048 185.419 257.661C184.157 259.273 176.162 285.364 176.162 285.364C176.162 285.364 181.21 281.317 179.948 282.937C178.686 284.557 172.592 297.695 172.592 297.695L170.276 305.373L175.747 278.085L180.371 255.05L183.151 240.922C185.834 240.062 201.4 234.012 201.4 234.012C201.4 234.012 202.63 229.036 204.954 226.956L204.515 223.078C204.515 223.078 208.756 224.506 211.495 224.307Z" fill="#ADA4EE"/>
<path opacity="0.5" d="M211.495 224.307L205.226 229.735C205.226 229.735 204.555 231.378 203.293 234.012C202.031 236.645 202.239 241.69 202.239 241.69L206.104 249.084C206.104 249.084 198.669 240.884 198.245 239.87C197.822 238.857 190.043 240.684 188.574 241.291C187.104 241.897 185.203 243.111 185.626 244.93C186.05 246.75 187.943 249.169 187.096 249.576C186.249 249.983 183.941 248.969 183.941 250.182C183.941 251.395 186.681 256.048 185.419 257.661C184.157 259.273 176.162 285.364 176.162 285.364C176.162 285.364 181.21 281.317 179.948 282.937C178.686 284.557 172.592 297.695 172.592 297.695L170.276 305.373L175.747 278.085L180.371 255.05L183.151 240.922C185.834 240.062 201.4 234.012 201.4 234.012C201.4 234.012 201.736 229.405 204.962 227.793L204.515 223.078C204.515 223.078 208.756 224.506 211.495 224.307Z" fill="white"/>
<path d="M234.833 251.593C234.833 251.593 238.618 245.535 239.042 246.948C239.465 248.361 237.987 253.206 237.987 253.206C237.987 253.206 241.981 251.793 241.565 253.006C241.15 254.219 240.303 254.826 240.511 255.432C240.719 256.039 254.392 262.911 256.077 263.717C257.762 264.523 261.756 259.878 263.649 261.291C265.542 262.704 263.649 267.549 259.863 267.556C256.077 267.564 245.143 262.949 245.143 262.949L236.534 258.135" fill="#ADA4EE"/>
<path opacity="0.5" d="M234.833 251.593C234.833 251.593 238.618 245.535 239.042 246.948C239.465 248.361 237.987 253.206 237.987 253.206C237.987 253.206 241.981 251.793 241.565 253.006C241.15 254.219 240.303 254.826 240.511 255.432C240.719 256.039 254.392 262.911 256.077 263.717C257.762 264.523 261.756 259.878 263.649 261.291C265.542 262.704 263.649 267.549 259.863 267.556C256.077 267.564 245.143 262.949 245.143 262.949L236.566 258.15" fill="white"/>
<path d="M212.126 276.057C212.126 276.057 236.71 263.526 232.716 268.171C228.723 272.817 215.489 278.084 212.126 276.057Z" fill="#ADA4EE"/>
<path opacity="0.5" d="M212.126 276.057C212.126 276.057 236.71 263.526 232.716 268.171C228.723 272.817 215.489 278.084 212.126 276.057Z" fill="white"/>
<path d="M204.516 223.115C204.516 223.115 204.691 226.34 205.226 229.734C205.762 233.128 205.578 233.128 208.932 237.197C212.287 241.266 215.817 244.668 216.344 243.992" stroke="#263238" stroke-width="0.124357" stroke-miterlimit="10" stroke-linecap="round"/>
<path d="M216.519 242.802C216.519 242.802 216.871 236.859 215.641 232.958C214.411 229.058 212.638 227.691 212.638 226.816C212.578 225.904 212.46 224.996 212.286 224.098" stroke="#263238" stroke-width="0.124357" stroke-miterlimit="10" stroke-linecap="round"/>
<path d="M204.515 228.037C203.105 229.258 202.118 230.866 201.688 232.644C201.161 235.354 200.634 238.579 200.634 238.579L206.105 249.106C206.581 247.273 207.292 245.504 208.221 243.839C208.681 243.017 209.278 242.273 209.986 241.635" stroke="#263238" stroke-width="0.124357" stroke-miterlimit="10" stroke-linecap="round"/>
<path d="M217.757 239.915C218.144 239.822 218.545 239.804 218.939 239.862C219.333 239.92 219.71 240.053 220.05 240.253C221.463 240.937 224.291 244.499 224.291 244.499C224.291 244.499 222.35 235.669 218.995 231.093C215.641 226.517 213.341 226.847 213.341 226.847" stroke="#263238" stroke-width="0.124357" stroke-miterlimit="10" stroke-linecap="round"/>
<path d="M200.098 234.656L183.15 240.922C183.15 240.922 176.976 273.339 174.676 281.992C172.376 290.646 168.502 315.093 168.502 315.093L173.087 315.938L174.684 311.53" stroke="#263238" stroke-width="0.117243" stroke-linecap="round" stroke-linejoin="round"/>
<path d="M175.563 308.996C175.563 308.996 176.618 307.46 179.445 299.014C182.272 290.568 189.828 269.837 191.098 265.745C192.368 261.652 193.39 258.957 193.39 258.957" stroke="#263238" stroke-width="0.124357" stroke-miterlimit="10" stroke-linecap="round"/>
<path d="M190.387 253.975C190.387 253.975 204.683 278.545 205.921 279.604C207.159 280.664 205.394 283.505 205.034 285.033" stroke="#263238" stroke-width="0.124357" stroke-miterlimit="10" stroke-linecap="round"/>
<path d="M203.453 288.119L198.869 297.287C198.869 297.287 201.872 301.702 214.579 301.702C222.141 301.724 229.594 299.974 236.295 296.603C236.295 296.603 233.292 281.331 233.467 278.613C233.643 275.895 234.002 268.77 234.002 268.77C234.002 268.77 237.197 264.163 236.822 260.623C236.446 257.084 234.881 252.983 234.881 252.308C234.881 251.632 234.53 244.33 234.53 244.33" stroke="#263238" stroke-width="0.124357" stroke-miterlimit="10" stroke-linecap="round"/>
<path d="M214.555 273.032L227.206 265.568" stroke="#263238" stroke-width="0.0621787" stroke-miterlimit="10" stroke-linecap="round"/>
<path d="M221.216 270.691L228.092 266.852" stroke="#263238" stroke-width="0.0621787" stroke-miterlimit="10" stroke-linecap="round"/>
<path d="M259.073 255.871L256.493 261.945" stroke="#263238" stroke-width="0.0621787" stroke-miterlimit="10" stroke-linecap="round"/>
<path d="M258.042 258.527L255.606 260.877" stroke="#263238" stroke-width="0.0621787" stroke-miterlimit="10" stroke-linecap="round"/>
<path d="M185.93 280.08C185.93 280.08 181.713 284.771 178.83 286.691" stroke="#263238" stroke-width="0.0621787" stroke-miterlimit="10" stroke-linecap="round"/>
<path d="M183.494 281.355C183.494 281.355 176.171 286.899 174.397 288.181" stroke="#263238" stroke-width="0.0621787" stroke-miterlimit="10" stroke-linecap="round"/>
<path d="M184.796 241.889C187.004 244.89 189.005 248.027 190.786 251.279" stroke="#263238" stroke-width="0.0621787" stroke-miterlimit="10" stroke-linecap="round"/>
<path d="M191.481 252.77L193.03 255.326" stroke="#263238" stroke-width="0.0621787" stroke-miterlimit="10" stroke-linecap="round"/>
<path d="M234.881 252.308L236.822 242.803" stroke="#263238" stroke-width="0.0621787" stroke-miterlimit="10" stroke-linecap="round"/>
<path d="M235.592 252.984L238.587 248.914" stroke="#263238" stroke-width="0.0621787" stroke-miterlimit="10" stroke-linecap="round"/>
<path d="M193.389 258.927L184.916 254.512" stroke="#263238" stroke-width="0.0621787" stroke-miterlimit="10" stroke-linecap="round"/>
<path d="M216.168 244.838C216.168 244.838 219.363 250.98 220.409 255.365" stroke="#263238" stroke-width="0.0621787" stroke-miterlimit="10" stroke-linecap="round"/>
<path d="M268.601 234.141C269.446 234.081 270.295 234.187 271.097 234.451C271.898 234.714 272.636 235.132 273.265 235.677" stroke="#263238" stroke-width="0.0621787" stroke-miterlimit="10" stroke-linecap="round"/>
<path d="M171.57 310.877L173.758 311.66" stroke="#263238" stroke-width="0.0621787" stroke-miterlimit="10" stroke-linecap="round"/>
<path d="M168.447 315.4C168.475 318.32 168.315 321.238 167.968 324.138C167.441 327.709 167.617 335.855 168.32 338.397C169.022 340.938 169.382 341.468 170.085 339.932C170.787 338.397 172.912 329.413 172.912 329.413C172.912 329.413 173.263 335.348 174.853 334.842C176.442 334.335 175.564 331.448 175.564 328.899C175.564 326.349 175.739 325.505 175.564 323.47C175.388 321.435 173.032 316.406 173.032 316.406" fill="white"/>
<path d="M168.447 315.4C168.475 318.32 168.315 321.238 167.968 324.138C167.441 327.709 167.617 335.855 168.32 338.397C169.022 340.938 169.382 341.468 170.085 339.932C170.787 338.397 172.912 329.413 172.912 329.413C172.912 329.413 173.263 335.348 174.853 334.842C176.442 334.335 175.564 331.448 175.564 328.899C175.564 326.349 175.739 325.505 175.564 323.47C175.388 321.435 173.032 316.406 173.032 316.406" stroke="#263238" stroke-width="0.117243" stroke-miterlimit="10" stroke-linecap="round"/>
<path d="M270.661 228.576C270.581 227.074 270.581 225.57 270.661 224.069C270.805 222.656 270.222 220.544 270.366 218.694C270.51 216.843 272.418 216.16 272.123 213.764C271.827 211.369 271.244 211.085 271.684 210.524C272.123 209.964 274.878 210.801 275.054 212.352C275.211 213.948 275.211 215.554 275.054 217.15C274.91 217.573 275.933 220.222 275.35 221.373C275.015 221.997 274.768 222.661 274.615 223.347" stroke="#263238" stroke-width="0.103273" stroke-miterlimit="10" stroke-linecap="round"/>
<path d="M275.646 212.229C275.646 212.229 279.016 205.749 280.925 205.603C282.834 205.457 282.243 207.138 281.652 207.998C281.061 208.858 279.16 211.945 279.016 213.219C278.872 214.494 277.107 218.709 277.107 218.709" stroke="#263238" stroke-width="0.103273" stroke-miterlimit="10" stroke-linecap="round"/>
<path d="M279.039 213.219C279.039 213.219 284.175 216.175 283.033 218.593C281.891 221.012 281.268 221.98 280.389 221.665C279.61 221.282 278.914 220.761 278.336 220.129" stroke="#263238" stroke-width="0.103273" stroke-miterlimit="10" stroke-linecap="round"/>
<path d="M280.924 221.672C280.924 221.672 279.598 223.783 278.576 225.058C277.988 225.794 277.291 226.443 276.507 226.985L275.884 229.066" stroke="#263238" stroke-width="0.103273" stroke-miterlimit="10" stroke-linecap="round"/>
<path d="M219.347 231.939C219.347 231.939 231.526 231.77 233.116 233.636C234.705 235.501 253.953 252.478 256.277 254.006C258.602 255.534 259.105 255.872 259.105 255.872C259.105 255.872 268.633 235.14 268.633 234.142C268.633 233.144 270.23 228.545 270.23 228.545C270.23 228.545 273.233 228.883 273.944 228.883C274.655 228.883 276.588 231.094 276.588 231.094C276.588 231.094 273.944 241.444 273.944 242.611C273.944 243.778 269 259.926 266.7 264.878C264.4 269.831 261.229 269.116 256.11 267.589C250.99 266.061 237.045 258.428 237.045 258.428" stroke="#263238" stroke-width="0.124357" stroke-miterlimit="10" stroke-linecap="round"/>
<path d="M198.869 297.287C198.869 297.287 191.8 314.287 189.892 325.858C187.983 337.429 188.797 364.487 188.246 367.381C187.695 370.276 180.044 383.936 180.044 390.508C180.044 397.081 175.947 430.98 175.947 430.98L178.678 432.554C178.678 432.554 188.262 404.144 191.8 396.812C195.339 389.479 200.274 372.111 201.64 368.694C203.006 365.278 212.582 337.943 213.125 334.526C213.668 331.11 216.951 322.702 216.951 322.702C216.951 322.702 224.059 364.487 225.425 373.163C226.79 381.839 236.359 428.876 236.359 428.876C236.987 429.024 237.629 429.111 238.275 429.137C239.074 429.137 239.37 427.824 239.37 427.824C239.37 427.824 243.195 394.447 242.101 385.51C241.007 376.572 237.732 365.546 237.732 362.383C237.732 359.219 242.652 331.9 242.652 322.456C242.652 313.012 236.263 296.619 236.263 296.619C236.263 296.619 213.588 307.614 198.869 297.287Z" fill="#263238"/>
<path d="M237.628 364.117C237.628 364.117 235.192 374.145 231.862 379.474" stroke="white" stroke-width="0.0621787" stroke-miterlimit="10" stroke-linecap="round"/>
<path d="M236.965 374.361C236.965 374.361 234.968 381.61 230.975 385.026" stroke="white" stroke-width="0.0621787" stroke-miterlimit="10" stroke-linecap="round"/>
<path d="M189.708 371.158C189.708 371.158 191.257 379.904 193.03 383.528" stroke="white" stroke-width="0.0621787" stroke-miterlimit="10" stroke-linecap="round"/>
<path d="M189.26 376.279C189.26 376.279 190.594 382.468 193.03 386.092" stroke="white" stroke-width="0.0621787" stroke-miterlimit="10" stroke-linecap="round"/>
<path d="M217.662 322.74L226.535 315.699" stroke="white" stroke-width="0.0621787" stroke-miterlimit="10" stroke-linecap="round"/>
<path d="M221.878 319.754L232.309 315.27" stroke="white" stroke-width="0.0621787" stroke-miterlimit="10" stroke-linecap="round"/>
<path d="M199.02 307.807C199.02 307.807 205.905 312.068 209.898 315.7" stroke="white" stroke-width="0.0621787" stroke-miterlimit="10" stroke-linecap="round"/>
<path d="M176.234 430.957C176.234 430.957 165.851 439.403 165.851 443.595C165.851 447.788 169.948 447.534 174.325 443.595C178.702 439.656 178.925 431.541 178.925 431.541L176.234 430.957Z" fill="white" stroke="#263238" stroke-width="0.124357" stroke-miterlimit="10" stroke-linecap="round"/>
<path d="M236.358 428.876C236.358 428.876 239.913 437.284 243.746 440.969C247.58 444.655 249.76 445.96 249.76 442.013C249.76 438.067 247.3 433.606 239.377 427.824C239.369 427.824 241.558 429.398 236.358 428.876Z" fill="white" stroke="#263238" stroke-width="0.124357" stroke-miterlimit="10" stroke-linecap="round"/>
<path d="M199.683 196.158C198.973 195.905 198.302 195.598 197.607 195.314C196.912 195.03 195.642 194.876 195.163 196.972C194.452 200.044 199.396 202.577 197.807 205.119C196.818 206.665 195.332 207.859 193.574 208.52C193.287 208.615 192.989 208.672 192.687 208.689C191.273 208.858 188.981 208.689 189.684 211.062C190.387 213.434 192.687 215.477 194.101 215.477H195.514C195.514 215.477 197.112 220.084 203.102 222.602C209.092 225.121 213.165 224.982 214.579 221.758C215.992 218.533 217.055 215.815 217.055 211.569C217.055 207.323 215.457 200.197 215.457 200.197C215.457 200.197 214.044 202.071 208.573 199.69C204.955 198.116 201.568 196.842 199.683 196.158Z" fill="white"/>
<mask id="mask1_1474_57561" style="mask-type:luminance" maskUnits="userSpaceOnUse" x="189" y="195" width="29" height="30">
<path d="M199.683 196.158C198.973 195.905 198.302 195.598 197.607 195.314C196.912 195.03 195.642 194.876 195.163 196.972C194.452 200.044 199.396 202.577 197.807 205.119C196.818 206.665 195.332 207.859 193.574 208.52C193.287 208.615 192.989 208.672 192.687 208.689C191.273 208.858 188.981 208.689 189.684 211.062C190.387 213.434 192.687 215.477 194.101 215.477H195.514C195.514 215.477 197.112 220.084 203.102 222.602C209.092 225.121 213.165 224.982 214.579 221.758C215.992 218.533 217.055 215.815 217.055 211.569C217.055 207.323 215.457 200.197 215.457 200.197C215.457 200.197 214.044 202.071 208.573 199.69C204.955 198.116 201.568 196.842 199.683 196.158Z" fill="white"/>
</mask>
<g mask="url(#mask1_1474_57561)">
<g style="mix-blend-mode:multiply" opacity="0.5">
<path d="M208.581 199.69C208.581 199.69 200.139 199.237 198.877 199.437C197.615 199.636 199.084 203.276 198.669 206.915C198.254 210.555 198.454 216.421 200.139 218.241C202.127 220.117 204.235 221.873 206.448 223.5C206.448 223.5 199.971 222.494 197.615 219.861C195.259 217.227 194.883 215.814 194.883 215.814C194.883 215.814 189.413 212.743 188.989 210.355C188.566 207.967 192.184 209.234 193.917 208.052C194.891 207.407 198.925 206.194 197.91 202.961C196.896 199.729 195.259 199.122 195.195 196.957C195.147 195.421 196.553 194.976 197.415 194.838C197.804 194.775 198.204 194.831 198.557 194.999L208.581 199.69Z" fill="#ADA4EE"/>
</g>
</g>
<path d="M199.683 196.158C198.973 195.905 198.302 195.598 197.607 195.314C196.912 195.03 195.642 194.876 195.163 196.972C194.452 200.044 199.396 202.577 197.807 205.119C196.818 206.665 195.332 207.859 193.574 208.52C193.287 208.615 192.989 208.672 192.687 208.689C191.273 208.858 188.981 208.689 189.684 211.062C190.387 213.434 192.687 215.477 194.101 215.477H195.514C195.514 215.477 197.112 220.084 203.102 222.602C209.092 225.121 213.165 224.982 214.579 221.758C215.992 218.533 217.055 215.815 217.055 211.569C217.055 207.323 215.457 200.197 215.457 200.197C215.457 200.197 214.044 202.071 208.573 199.69C204.955 198.116 201.568 196.842 199.683 196.158Z" stroke="#263238" stroke-width="0.124357" stroke-miterlimit="10" stroke-linecap="round"/>
<path d="M205.921 206.215C206.033 206.86 205.849 207.428 205.505 207.482C205.162 207.536 204.811 207.052 204.707 206.407C204.603 205.762 204.787 205.186 205.122 205.133C205.457 205.079 205.809 205.601 205.921 206.215Z" fill="#263238"/>
<path d="M213.229 205.042C213.332 205.687 213.149 206.255 212.813 206.309C212.478 206.363 212.118 205.879 212.015 205.234C211.911 204.589 212.086 204.021 212.422 203.967C212.757 203.913 213.117 204.397 213.229 205.042Z" fill="#263238"/>
<path d="M201.688 203.084C202.135 202.446 202.741 201.925 203.451 201.569C204.161 201.214 204.953 201.035 205.753 201.05" stroke="#263238" stroke-width="0.124357" stroke-miterlimit="10" stroke-linecap="round"/>
<path d="M211.224 201.556C211.903 201.328 212.637 201.304 213.33 201.486C214.023 201.669 214.643 202.049 215.106 202.577" stroke="#263238" stroke-width="0.124357" stroke-miterlimit="10" stroke-linecap="round"/>
<path d="M210.522 204.443C210.424 205.516 210.424 206.595 210.522 207.668C210.697 209.027 211.752 209.365 211.4 210.386C211.049 211.407 209.635 211.4 209.635 211.4" stroke="#263238" stroke-width="0.124357" stroke-miterlimit="10" stroke-linecap="round"/>
<path d="M207.87 215.476C207.265 215.614 206.636 215.624 206.027 215.506C205.418 215.388 204.842 215.145 204.34 214.793" stroke="#263238" stroke-width="0.124357" stroke-miterlimit="10" stroke-linecap="round"/>
</g>
<defs>
<filter id="filter0_d_1474_57561" x="0.649994" y="0.47226" width="718.799" height="578.434" filterUnits="userSpaceOnUse" color-interpolation-filters="sRGB">
<feFlood flood-opacity="0" result="BackgroundImageFix"/>
<feColorMatrix in="SourceAlpha" type="matrix" values="0 0 0 0 0 0 0 0 0 0 0 0 0 0 0 0 0 0 127 0" result="hardAlpha"/>
<feOffset dy="-1"/>
<feGaussianBlur stdDeviation="66.55"/>
<feComposite in2="hardAlpha" operator="out"/>
<feColorMatrix type="matrix" values="0 0 0 0 0.662745 0 0 0 0 0.627451 0 0 0 0 0.866667 0 0 0 0.46 0"/>
<feBlend mode="normal" in2="BackgroundImageFix" result="effect1_dropShadow_1474_57561"/>
<feBlend mode="normal" in="SourceGraphic" in2="effect1_dropShadow_1474_57561" result="shape"/>
</filter>
</defs>
</svg>
