<svg width="189" height="43" viewBox="0 0 189 43" fill="none" xmlns="http://www.w3.org/2000/svg">
<path d="M50.2798 28.8537C49.968 28.8537 49.6666 28.9992 49.4691 29.2486C47.2659 32.0234 43.8676 33.8006 40.0639 33.811C33.4127 33.8006 28.0294 28.4172 28.0294 21.766C28.0294 15.1148 33.4127 9.73148 40.0535 9.72108C43.7429 9.73148 47.0373 11.3943 49.2405 14.0028C49.438 14.2314 49.7289 14.3665 50.0303 14.3665C50.9137 14.3665 51.3918 13.3377 50.8202 12.6622C48.2428 9.60677 44.3872 7.66336 40.0847 7.64258C40.0743 7.64258 40.0639 7.64258 40.0639 7.64258C40.0535 7.64258 40.0431 7.64258 40.0327 7.64258C32.2591 7.68415 25.9612 13.9924 25.9612 21.766C25.9612 29.5396 32.2487 35.8479 40.0223 35.8895C40.0327 35.8895 40.0431 35.8895 40.0639 35.8895C40.0743 35.8895 40.0743 35.8895 40.0847 35.8895C44.5431 35.8687 48.513 33.7902 51.08 30.5477C51.6308 29.8618 51.1527 28.8537 50.2798 28.8537Z" fill="#535AB4"/>
<path d="M45.9149 17.205C45.4784 16.7996 44.8964 16.5918 44.2937 16.5918H42.3191C41.5189 16.5918 40.8849 16.9244 40.4276 17.5791C39.9704 16.914 39.3364 16.5918 38.5258 16.5918H36.5097C35.8445 16.5918 35.2729 16.8412 34.8157 17.3297C34.4104 17.7662 34.2025 18.3481 34.2025 18.9405V26.5167C34.2233 27.1818 34.7741 27.7222 35.4496 27.7222C37.393 27.7222 39.3364 27.7222 41.2798 27.7222C41.2798 27.0779 41.0096 26.4439 40.5523 25.997C39.6066 25.0721 38.0997 25.3215 36.8838 25.3215C36.7383 25.3215 36.6136 25.1968 36.6136 25.0513V19.5017C36.6967 18.8054 37.1436 18.4521 37.923 18.4521C38.7025 18.4521 39.139 18.8054 39.2325 19.5017V23.9913C39.669 23.9913 40.0847 23.8666 40.438 23.6587C41.1239 23.243 41.5812 22.4948 41.5812 21.6426V19.5017C41.6747 18.8054 42.1216 18.4521 42.9218 18.4521C43.7221 18.4521 44.1689 18.8054 44.2625 19.5017V23.9913C45.5927 23.9913 46.6632 22.9105 46.6632 21.5906V18.8782C46.6632 18.2338 46.4137 17.6726 45.9149 17.205Z" fill="#8E89D0"/>
<path d="M62.9048 13.8876H66.7026L71.7886 26.3016H71.9894L77.0754 13.8876H80.8732V31.0195H77.8952V19.2497H77.7363L73.0016 30.9693H70.7764L66.0417 19.2246H65.8828V31.0195H62.9048V13.8876ZM86.4722 35.8379C86.0595 35.8379 85.6775 35.8044 85.3262 35.7375C84.9804 35.6762 84.7044 35.6037 84.498 35.52L85.2007 33.161C85.6413 33.2893 86.0345 33.3506 86.3802 33.3451C86.726 33.3395 87.0299 33.2307 87.292 33.0188C87.5597 32.8125 87.7856 32.4667 87.9696 31.9815L88.2289 31.2872L83.5695 18.1706H86.7817L89.743 27.8742H89.8769L92.8465 18.1706H96.0671L90.9225 32.5755C90.6827 33.2558 90.3648 33.8386 89.9689 34.3238C89.5729 34.8145 89.0877 35.1882 88.5133 35.4447C87.9445 35.7068 87.2641 35.8379 86.4722 35.8379ZM98.7676 31.0195V13.8876H101.871V21.1402H109.81V13.8876H112.921V31.0195H109.81V23.7418H101.871V31.0195H98.7676ZM116.768 31.0195V13.8876H123.192C124.509 13.8876 125.613 14.1163 126.505 14.5736C127.403 15.0309 128.08 15.6722 128.538 16.4976C129.001 17.3173 129.232 18.2738 129.232 19.3668C129.232 20.4654 128.998 21.4191 128.529 22.2277C128.067 23.0308 127.383 23.6526 126.48 24.0931C125.577 24.5281 124.467 24.7456 123.151 24.7456H118.575V22.1692H122.732C123.502 22.1692 124.132 22.0632 124.623 21.8513C125.114 21.6338 125.476 21.3187 125.71 20.906C125.95 20.4877 126.07 19.9747 126.07 19.3668C126.07 18.7589 125.95 18.2403 125.71 17.8109C125.471 17.3759 125.105 17.0469 124.615 16.8238C124.124 16.5951 123.491 16.4808 122.716 16.4808H119.871V31.0195H116.768ZM125.618 23.2566L129.859 31.0195H126.396L122.23 23.2566H125.618ZM132.56 13.8876H136.358L141.444 26.3016H141.645L146.731 13.8876H150.528V31.0195H147.55V19.2497H147.391L142.657 30.9693H140.432L135.697 19.2246H135.538V31.0195H132.56V13.8876ZM163.69 18.5972C163.611 17.8667 163.282 17.2978 162.702 16.8907C162.128 16.4836 161.381 16.2801 160.461 16.2801C159.814 16.2801 159.259 16.3777 158.796 16.5728C158.333 16.768 157.979 17.0329 157.733 17.3675C157.488 17.7021 157.363 18.0842 157.357 18.5136C157.357 18.8705 157.438 19.18 157.6 19.4421C157.767 19.7042 157.993 19.9273 158.277 20.1113C158.562 20.2898 158.877 20.4403 159.222 20.563C159.568 20.6857 159.917 20.7889 160.268 20.8725L161.874 21.2741C162.521 21.4247 163.143 21.6282 163.74 21.8847C164.342 22.1413 164.88 22.4647 165.354 22.8551C165.834 23.2455 166.213 23.7167 166.492 24.2688C166.771 24.8209 166.91 25.4678 166.91 26.2095C166.91 27.2134 166.654 28.0973 166.141 28.8613C165.627 29.6198 164.886 30.2137 163.915 30.6431C162.951 31.0669 161.782 31.2789 160.41 31.2789C159.077 31.2789 157.92 31.0725 156.939 30.6598C155.963 30.2471 155.199 29.6449 154.647 28.8529C154.1 28.061 153.805 27.0963 153.76 25.9586H156.813C156.858 26.5553 157.042 27.0516 157.365 27.4476C157.689 27.8435 158.11 28.1391 158.629 28.3343C159.153 28.5295 159.738 28.6271 160.385 28.6271C161.06 28.6271 161.651 28.5267 162.159 28.3259C162.672 28.1196 163.073 27.8352 163.363 27.4727C163.653 27.1046 163.801 26.6752 163.807 26.1844C163.801 25.7383 163.67 25.3702 163.413 25.0802C163.157 24.7847 162.797 24.5393 162.334 24.3441C161.877 24.1433 161.342 23.9649 160.728 23.8087L158.779 23.3068C157.368 22.9443 156.253 22.395 155.433 21.6589C154.619 20.9172 154.212 19.9329 154.212 18.706C154.212 17.6966 154.485 16.8126 155.032 16.0542C155.584 15.2958 156.334 14.7074 157.282 14.2891C158.23 13.8653 159.303 13.6534 160.502 13.6534C161.718 13.6534 162.783 13.8653 163.698 14.2891C164.618 14.7074 165.34 15.2902 165.864 16.0375C166.389 16.7792 166.659 17.6324 166.676 18.5972H163.69Z" fill="#3D3D3D"/>
</svg>
