<svg width="37" height="37" viewBox="0 0 37 37" fill="none" xmlns="http://www.w3.org/2000/svg">
<path d="M27.5144 32.1699C27.5144 28.9873 26.2501 25.9351 23.9997 23.6846C21.7492 21.4342 18.697 20.1699 15.5144 20.1699C12.3318 20.1699 9.27956 21.4342 7.02912 23.6846C4.77869 25.9351 3.5144 28.9873 3.5144 32.1699" stroke="#3D3D3D" stroke-width="2.25" stroke-linecap="round" stroke-linejoin="round"/>
<path d="M15.5144 20.1699C19.6565 20.1699 23.0144 16.8121 23.0144 12.6699C23.0144 8.52779 19.6565 5.16992 15.5144 5.16992C11.3723 5.16992 8.0144 8.52779 8.0144 12.6699C8.0144 16.8121 11.3723 20.1699 15.5144 20.1699Z" stroke="#3D3D3D" stroke-width="2.25" stroke-linecap="round" stroke-linejoin="round"/>
<path d="M33.5144 30.6697C33.5144 25.6147 30.5144 20.9197 27.5144 18.6697C28.5005 17.9299 29.289 16.9584 29.8102 15.8411C30.3314 14.7239 30.5691 13.4954 30.5024 12.2644C30.4356 11.0334 30.0665 9.83786 29.4276 8.78353C28.7887 7.7292 27.8997 6.84862 26.8394 6.21973" stroke="#3D3D3D" stroke-width="2.25" stroke-linecap="round" stroke-linejoin="round"/>
</svg>
