<svg width="36" height="36" viewBox="0 0 36 36" fill="none" xmlns="http://www.w3.org/2000/svg">
<path d="M19.9252 10.3792C19.9252 13.6009 17.3135 16.2126 14.0919 16.2126C10.8702 16.2126 8.25854 13.6009 8.25854 10.3792C8.25854 7.15757 10.8702 4.5459 14.0919 4.5459C17.3135 4.5459 19.9252 7.15757 19.9252 10.3792Z" stroke="#3D3D3D" stroke-width="2"/>
<path d="M22.8418 16.2126C26.0634 16.2126 28.6751 13.6009 28.6751 10.3792C28.6751 7.15757 26.0634 4.5459 22.8418 4.5459" stroke="#3D3D3D" stroke-width="2" stroke-linecap="round" stroke-linejoin="round"/>
<path d="M17.0085 20.5879H11.1752C7.14814 20.5879 3.88354 23.8525 3.88354 27.8796C3.88354 29.4904 5.18938 30.7962 6.80021 30.7962H21.3835C22.9944 30.7962 24.3002 29.4904 24.3002 27.8796C24.3002 23.8525 21.0356 20.5879 17.0085 20.5879Z" stroke="#3D3D3D" stroke-width="2" stroke-linejoin="round"/>
<path d="M25.7585 20.5879C29.7856 20.5879 33.0502 23.8525 33.0502 27.8796C33.0502 29.4904 31.7444 30.7962 30.1335 30.7962H27.946" stroke="#3D3D3D" stroke-width="2" stroke-linecap="round" stroke-linejoin="round"/>
</svg>
