<svg width="35" height="36" viewBox="0 0 35 36" fill="none" xmlns="http://www.w3.org/2000/svg">
<path d="M21.8655 3.08789C22.639 3.08806 23.3807 3.39545 23.9276 3.94247L29.7609 9.77581C30.3079 10.3227 30.6153 11.0644 30.6155 11.8379V22.0462C30.6155 22.8198 30.3082 23.5616 29.7612 24.1086C29.2142 24.6556 28.4724 24.9629 27.6988 24.9629H16.0321C15.2586 24.9629 14.5167 24.6556 13.9698 24.1086C13.4228 23.5616 13.1155 22.8198 13.1155 22.0462V6.00456C13.1155 5.23101 13.4228 4.48914 13.9698 3.94216C14.5167 3.39518 15.2586 3.08789 16.0321 3.08789H21.8655Z" stroke="#3D3D3D" stroke-width="2.25" stroke-linecap="round" stroke-linejoin="round"/>
<path d="M21.8655 3.08789V8.92122C21.8655 9.69477 22.1728 10.4366 22.7198 10.9836C23.2667 11.5306 24.0086 11.8379 24.7821 11.8379H30.6155" stroke="#3D3D3D" stroke-width="2.25" stroke-linecap="round" stroke-linejoin="round"/>
<path d="M7.28215 10.3789C6.5086 10.3789 5.76673 10.6862 5.21975 11.2332C4.67277 11.7802 4.36548 12.522 4.36548 13.2956V29.3372C4.36548 30.1108 4.67277 30.8527 5.21975 31.3996C5.76673 31.9466 6.5086 32.2539 7.28215 32.2539H18.9488C19.4608 32.2539 19.9637 32.1191 20.4071 31.8631C20.8505 31.6071 21.2187 31.239 21.4746 30.7956" stroke="#3D3D3D" stroke-width="2.25" stroke-linecap="round" stroke-linejoin="round"/>
</svg>
