<svg width="703" height="579" viewBox="0 0 703 579" fill="none" xmlns="http://www.w3.org/2000/svg">
<g filter="url(#filter0_d_747_8246)">
<path d="M546.71 324.967C546.449 315.377 547.194 299.023 538.786 292.289C531.4 286.377 525.657 294.4 523.584 300.873C518.562 316.575 520.919 333.889 520.935 350.098C520.935 350.344 520.935 350.589 520.935 350.866C520.543 362.798 519.107 375.705 520.412 387.614C520.412 387.614 519.13 375.682 509.763 380.795C500.395 385.909 514.447 412.744 514.447 412.744C514.447 412.744 503.375 404.651 498.261 411.47C493.147 418.288 504.649 425.951 504.649 425.951C504.649 425.951 494 422.972 494 425.951C494 428.93 497.409 431.487 507.206 432.769H560.017C560.017 432.769 568.539 428.078 566.835 422.972C565.13 417.866 556.177 420.806 556.177 420.806C556.177 420.806 569.814 404.191 568.962 396.95C568.109 389.71 550.641 398.232 550.641 398.232C550.641 398.232 564.27 363.727 561.713 348.393C559.702 336.316 550.327 344.554 545.221 349.223C546.423 341.196 546.921 333.08 546.71 324.967Z" fill="#ADA4EE" stroke="white" stroke-width="0.117243" stroke-linecap="round" stroke-linejoin="round"/>
<path opacity="0.5" d="M546.71 324.967C546.449 315.377 547.194 299.023 538.786 292.289C531.4 286.377 525.657 294.4 523.584 300.873C518.562 316.575 520.919 333.889 520.935 350.098C520.935 350.344 520.935 350.589 520.935 350.866C520.543 362.798 519.107 375.705 520.412 387.614C520.412 387.614 519.13 375.682 509.763 380.795C500.395 385.909 514.447 412.744 514.447 412.744C514.447 412.744 503.375 404.651 498.261 411.47C493.147 418.288 504.649 425.951 504.649 425.951C504.649 425.951 494 422.972 494 425.951C494 428.93 497.409 431.487 507.206 432.769H560.017C560.017 432.769 568.539 428.078 566.835 422.972C565.13 417.866 556.177 420.806 556.177 420.806C556.177 420.806 569.814 404.191 568.962 396.95C568.109 389.71 550.641 398.232 550.641 398.232C550.641 398.232 564.27 363.727 561.713 348.393C559.702 336.316 550.327 344.554 545.221 349.223C546.423 341.196 546.921 333.08 546.71 324.967Z" fill="white"/>
<path d="M529.765 432.308L533.604 315.162" stroke="white" stroke-width="0.117243" stroke-linecap="round" stroke-linejoin="round"/>
<path d="M531.899 383.322L551.916 364.579" stroke="white" stroke-width="0.117243" stroke-linecap="round" stroke-linejoin="round"/>
<path d="M541.266 374.799L545.527 362.875" stroke="white" stroke-width="0.117243" stroke-linecap="round" stroke-linejoin="round"/>
<path d="M515.283 397.803L530.617 414.418" stroke="white" stroke-width="0.117243" stroke-linecap="round" stroke-linejoin="round"/>
<path d="M556.177 407.178L530.617 420.384" stroke="white" stroke-width="0.117243" stroke-linecap="round" stroke-linejoin="round"/>
<path d="M542.549 414.841L551.916 414.419" stroke="white" stroke-width="0.117243" stroke-linecap="round" stroke-linejoin="round"/>
<path d="M529.765 432.308L533.604 315.162" stroke="#ADA4EE" stroke-width="0.117243" stroke-linecap="round" stroke-linejoin="round"/>
<path d="M531.899 383.322L551.916 364.579" stroke="#ADA4EE" stroke-width="0.117243" stroke-linecap="round" stroke-linejoin="round"/>
<path d="M541.266 374.799L545.527 362.875" stroke="#ADA4EE" stroke-width="0.117243" stroke-linecap="round" stroke-linejoin="round"/>
<path d="M515.283 397.803L530.617 414.418" stroke="#ADA4EE" stroke-width="0.117243" stroke-linecap="round" stroke-linejoin="round"/>
<path d="M556.177 407.178L530.617 420.384" stroke="#ADA4EE" stroke-width="0.117243" stroke-linecap="round" stroke-linejoin="round"/>
<path d="M542.549 414.841L551.916 414.419" stroke="#ADA4EE" stroke-width="0.117243" stroke-linecap="round" stroke-linejoin="round"/>
<g opacity="0.8">
<path d="M529.765 432.308L533.604 315.162" stroke="white" stroke-width="0.117243" stroke-linecap="round" stroke-linejoin="round"/>
<path d="M531.899 383.322L551.916 364.579" stroke="white" stroke-width="0.117243" stroke-linecap="round" stroke-linejoin="round"/>
<path d="M541.267 374.799L545.528 362.875" stroke="white" stroke-width="0.117243" stroke-linecap="round" stroke-linejoin="round"/>
<path d="M515.283 397.803L530.617 414.418" stroke="white" stroke-width="0.117243" stroke-linecap="round" stroke-linejoin="round"/>
<path d="M556.177 407.178L530.617 420.384" stroke="white" stroke-width="0.117243" stroke-linecap="round" stroke-linejoin="round"/>
<path d="M542.549 414.841L551.916 414.418" stroke="white" stroke-width="0.117243" stroke-linecap="round" stroke-linejoin="round"/>
</g>
<path d="M456.591 408.637C456.591 420.546 466.028 430.205 466.028 430.205C466.028 430.205 475.464 420.546 475.464 408.637C475.464 396.728 466.028 387.069 466.028 387.069C466.028 387.069 456.591 396.72 456.591 408.637Z" fill="#ADA4EE"/>
<path d="M450.05 427.011C454.657 432.178 462.442 432.738 462.442 432.738C462.442 432.738 462.819 424.914 458.242 419.747C453.666 414.58 445.85 414.019 445.85 414.019C445.85 414.019 445.466 421.843 450.05 427.011Z" fill="#ADA4EE"/>
<path d="M474.097 419.571C469.283 424.523 469.314 432.355 469.314 432.355C469.314 432.355 477.138 432.148 481.945 427.187C486.751 422.227 486.736 414.403 486.736 414.403C486.736 414.403 478.904 414.611 474.097 419.571Z" fill="#ADA4EE"/>
<g opacity="0.5">
<path d="M456.591 408.637C456.591 420.546 466.028 430.205 466.028 430.205C466.028 430.205 475.464 420.546 475.464 408.637C475.464 396.728 466.028 387.069 466.028 387.069C466.028 387.069 456.591 396.72 456.591 408.637Z" fill="white"/>
<path d="M466.028 430.205V387.069" stroke="white" stroke-width="0.117243" stroke-linecap="round" stroke-linejoin="round"/>
<path d="M466.028 402.402L460.745 397.788" stroke="white" stroke-width="0.117243" stroke-linecap="round" stroke-linejoin="round"/>
<path d="M466.112 409.528L472.654 400.053" stroke="white" stroke-width="0.117243" stroke-linecap="round" stroke-linejoin="round"/>
<path d="M466.028 413.635L458.227 406.679" stroke="white" stroke-width="0.117243" stroke-linecap="round" stroke-linejoin="round"/>
<path d="M466.112 419.171L473.829 412.299" stroke="white" stroke-width="0.117243" stroke-linecap="round" stroke-linejoin="round"/>
<path d="M466.112 423.954L460.069 419.171" stroke="white" stroke-width="0.117243" stroke-linecap="round" stroke-linejoin="round"/>
<path d="M450.05 427.01C454.657 432.177 462.442 432.738 462.442 432.738C462.442 432.738 462.819 424.914 458.242 419.746C453.666 414.579 445.85 414.019 445.85 414.019C445.85 414.019 445.466 421.843 450.05 427.01Z" fill="white"/>
<path d="M462.442 432.738L445.85 414.019" stroke="white" stroke-width="0.117243" stroke-linecap="round" stroke-linejoin="round"/>
<path d="M451.747 420.676L447.677 420.707" stroke="white" stroke-width="0.117243" stroke-linecap="round" stroke-linejoin="round"/>
<path d="M454.526 423.732L453.72 417.105" stroke="white" stroke-width="0.117243" stroke-linecap="round" stroke-linejoin="round"/>
<path d="M456.069 425.552L450.011 425.529" stroke="white" stroke-width="0.117243" stroke-linecap="round" stroke-linejoin="round"/>
<path d="M458.234 427.916L458.933 421.966" stroke="white" stroke-width="0.117243" stroke-linecap="round" stroke-linejoin="round"/>
<path d="M460.077 429.99L455.616 430.243" stroke="white" stroke-width="0.117243" stroke-linecap="round" stroke-linejoin="round"/>
<path d="M474.097 419.571C469.283 424.523 469.314 432.355 469.314 432.355C469.314 432.355 477.138 432.148 481.945 427.187C486.751 422.227 486.736 414.403 486.736 414.403C486.736 414.403 478.904 414.611 474.097 419.571Z" fill="white"/>
<path d="M469.314 432.355L486.736 414.403" stroke="white" stroke-width="0.117243" stroke-linecap="round" stroke-linejoin="round"/>
<path d="M480.54 420.784L480.209 416.73" stroke="white" stroke-width="0.117243" stroke-linecap="round" stroke-linejoin="round"/>
<path d="M477.699 423.786L484.248 422.48" stroke="white" stroke-width="0.117243" stroke-linecap="round" stroke-linejoin="round"/>
<path d="M476.002 425.459L475.572 419.417" stroke="white" stroke-width="0.117243" stroke-linecap="round" stroke-linejoin="round"/>
<path d="M473.798 427.793L479.787 428.055" stroke="white" stroke-width="0.117243" stroke-linecap="round" stroke-linejoin="round"/>
<path d="M471.871 429.783L471.287 425.36" stroke="white" stroke-width="0.117243" stroke-linecap="round" stroke-linejoin="round"/>
</g>
<path d="M466.028 430.205V387.069" stroke="#ADA4EE" stroke-width="0.117243" stroke-linecap="round" stroke-linejoin="round"/>
<path d="M466.028 402.402L460.745 397.788" stroke="#ADA4EE" stroke-width="0.117243" stroke-linecap="round" stroke-linejoin="round"/>
<path d="M466.112 409.528L472.654 400.053" stroke="#ADA4EE" stroke-width="0.117243" stroke-linecap="round" stroke-linejoin="round"/>
<path d="M466.028 413.635L458.227 406.679" stroke="#ADA4EE" stroke-width="0.117243" stroke-linecap="round" stroke-linejoin="round"/>
<path d="M466.112 419.171L473.829 412.299" stroke="#ADA4EE" stroke-width="0.117243" stroke-linecap="round" stroke-linejoin="round"/>
<path d="M466.112 423.955L460.069 419.171" stroke="#ADA4EE" stroke-width="0.117243" stroke-linecap="round" stroke-linejoin="round"/>
<g opacity="0.7">
<path d="M466.028 430.205V387.069" stroke="white" stroke-width="0.117243" stroke-linecap="round" stroke-linejoin="round"/>
<path d="M466.028 402.402L460.745 397.788" stroke="white" stroke-width="0.117243" stroke-linecap="round" stroke-linejoin="round"/>
<path d="M466.112 409.528L472.654 400.053" stroke="white" stroke-width="0.117243" stroke-linecap="round" stroke-linejoin="round"/>
<path d="M466.028 413.635L458.227 406.679" stroke="white" stroke-width="0.117243" stroke-linecap="round" stroke-linejoin="round"/>
<path d="M466.112 419.171L473.829 412.299" stroke="white" stroke-width="0.117243" stroke-linecap="round" stroke-linejoin="round"/>
<path d="M466.112 423.954L460.069 419.171" stroke="white" stroke-width="0.117243" stroke-linecap="round" stroke-linejoin="round"/>
</g>
<path d="M462.442 432.738L445.85 414.019" stroke="#ADA4EE" stroke-width="0.117243" stroke-linecap="round" stroke-linejoin="round"/>
<path d="M451.746 420.676L447.677 420.707" stroke="#ADA4EE" stroke-width="0.117243" stroke-linecap="round" stroke-linejoin="round"/>
<path d="M454.526 423.732L453.72 417.105" stroke="#ADA4EE" stroke-width="0.117243" stroke-linecap="round" stroke-linejoin="round"/>
<path d="M456.069 425.552L450.011 425.529" stroke="#ADA4EE" stroke-width="0.117243" stroke-linecap="round" stroke-linejoin="round"/>
<path d="M458.235 427.916L458.934 421.966" stroke="#ADA4EE" stroke-width="0.117243" stroke-linecap="round" stroke-linejoin="round"/>
<path d="M460.077 429.99L455.616 430.243" stroke="#ADA4EE" stroke-width="0.117243" stroke-linecap="round" stroke-linejoin="round"/>
<g opacity="0.7">
<path d="M462.442 432.738L445.85 414.019" stroke="white" stroke-width="0.117243" stroke-linecap="round" stroke-linejoin="round"/>
<path d="M451.747 420.676L447.677 420.707" stroke="white" stroke-width="0.117243" stroke-linecap="round" stroke-linejoin="round"/>
<path d="M454.526 423.732L453.72 417.106" stroke="white" stroke-width="0.117243" stroke-linecap="round" stroke-linejoin="round"/>
<path d="M456.069 425.552L450.011 425.529" stroke="white" stroke-width="0.117243" stroke-linecap="round" stroke-linejoin="round"/>
<path d="M458.234 427.916L458.933 421.966" stroke="white" stroke-width="0.117243" stroke-linecap="round" stroke-linejoin="round"/>
<path d="M460.077 429.99L455.616 430.243" stroke="white" stroke-width="0.117243" stroke-linecap="round" stroke-linejoin="round"/>
</g>
<path d="M469.314 432.355L486.736 414.403" stroke="#ADA4EE" stroke-width="0.117243" stroke-linecap="round" stroke-linejoin="round"/>
<path d="M480.54 420.784L480.209 416.73" stroke="#ADA4EE" stroke-width="0.117243" stroke-linecap="round" stroke-linejoin="round"/>
<path d="M477.699 423.786L484.248 422.48" stroke="#ADA4EE" stroke-width="0.117243" stroke-linecap="round" stroke-linejoin="round"/>
<path d="M476.002 425.46L475.572 419.417" stroke="#ADA4EE" stroke-width="0.117243" stroke-linecap="round" stroke-linejoin="round"/>
<path d="M473.798 427.794L479.787 428.055" stroke="#ADA4EE" stroke-width="0.117243" stroke-linecap="round" stroke-linejoin="round"/>
<path d="M471.871 429.783L471.287 425.36" stroke="#ADA4EE" stroke-width="0.117243" stroke-linecap="round" stroke-linejoin="round"/>
<g opacity="0.7">
<path d="M469.314 432.355L486.736 414.403" stroke="white" stroke-width="0.117243" stroke-linecap="round" stroke-linejoin="round"/>
<path d="M480.54 420.784L480.209 416.73" stroke="white" stroke-width="0.117243" stroke-linecap="round" stroke-linejoin="round"/>
<path d="M477.699 423.786L484.248 422.48" stroke="white" stroke-width="0.117243" stroke-linecap="round" stroke-linejoin="round"/>
<path d="M476.002 425.46L475.572 419.417" stroke="white" stroke-width="0.117243" stroke-linecap="round" stroke-linejoin="round"/>
<path d="M473.798 427.794L479.787 428.055" stroke="white" stroke-width="0.117243" stroke-linecap="round" stroke-linejoin="round"/>
<path d="M471.871 429.783L471.287 425.36" stroke="white" stroke-width="0.117243" stroke-linecap="round" stroke-linejoin="round"/>
</g>
<path d="M156.29 324.967C156.543 315.377 155.806 299.023 164.214 292.289C171.6 286.377 177.343 294.4 179.409 300.873C184.438 316.575 182.073 333.889 182.065 350.098C182.065 350.344 182.065 350.589 182.065 350.866C182.465 362.798 183.893 375.705 182.595 387.614C182.595 387.614 183.87 375.682 193.245 380.795C202.62 385.909 188.554 412.744 188.554 412.744C188.554 412.744 199.633 404.651 204.747 411.47C209.86 418.288 198.374 425.92 198.374 425.92C198.374 425.92 209.024 422.941 209.024 425.92C209.024 428.899 205.614 431.456 195.817 432.738H142.983C142.983 432.738 134.461 428.047 136.165 422.941C137.87 417.835 146.815 420.806 146.815 420.806C146.815 420.806 133.186 404.191 134.038 396.95C134.891 389.71 152.359 398.232 152.359 398.232C152.359 398.232 138.722 363.727 141.279 348.416C143.291 336.339 152.673 344.577 157.772 349.246C156.571 341.211 156.075 333.088 156.29 324.967Z" fill="#ADA4EE" stroke="white" stroke-width="0.117243" stroke-linecap="round" stroke-linejoin="round"/>
<path opacity="0.5" d="M156.29 324.967C156.543 315.377 155.806 299.023 164.214 292.289C171.6 286.377 177.343 294.4 179.409 300.873C184.438 316.575 182.073 333.889 182.065 350.098C182.065 350.344 182.065 350.589 182.065 350.866C182.465 362.798 183.893 375.705 182.595 387.614C182.595 387.614 183.87 375.682 193.245 380.795C202.62 385.909 188.554 412.744 188.554 412.744C188.554 412.744 199.633 404.651 204.747 411.47C209.86 418.288 198.374 425.92 198.374 425.92C198.374 425.92 209.024 422.941 209.024 425.92C209.024 428.899 205.614 431.456 195.817 432.738H142.983C142.983 432.738 134.461 428.047 136.165 422.941C137.87 417.835 146.815 420.806 146.815 420.806C146.815 420.806 133.186 404.191 134.038 396.95C134.891 389.71 152.359 398.232 152.359 398.232C152.359 398.232 138.722 363.727 141.279 348.416C143.291 336.339 152.673 344.577 157.772 349.246C156.571 341.211 156.075 333.088 156.29 324.967Z" fill="white"/>
<path d="M173.227 432.308L169.396 315.162" stroke="white" stroke-width="0.117243" stroke-linecap="round" stroke-linejoin="round"/>
<path d="M171.101 383.322L151.076 364.579" stroke="white" stroke-width="0.117243" stroke-linecap="round" stroke-linejoin="round"/>
<path d="M161.726 374.799L157.464 362.875" stroke="white" stroke-width="0.117243" stroke-linecap="round" stroke-linejoin="round"/>
<path d="M187.709 397.803L172.376 414.418" stroke="white" stroke-width="0.117243" stroke-linecap="round" stroke-linejoin="round"/>
<path d="M146.815 407.178L172.376 420.384" stroke="white" stroke-width="0.117243" stroke-linecap="round" stroke-linejoin="round"/>
<path d="M160.451 414.841L151.076 414.419" stroke="white" stroke-width="0.117243" stroke-linecap="round" stroke-linejoin="round"/>
<path d="M173.227 432.308L169.396 315.162" stroke="#ADA4EE" stroke-width="0.117243" stroke-linecap="round" stroke-linejoin="round"/>
<path d="M171.101 383.322L151.076 364.579" stroke="#ADA4EE" stroke-width="0.117243" stroke-linecap="round" stroke-linejoin="round"/>
<path d="M161.726 374.799L157.464 362.875" stroke="#ADA4EE" stroke-width="0.117243" stroke-linecap="round" stroke-linejoin="round"/>
<path d="M187.709 397.803L172.376 414.418" stroke="#ADA4EE" stroke-width="0.117243" stroke-linecap="round" stroke-linejoin="round"/>
<path d="M146.815 407.178L172.376 420.384" stroke="#ADA4EE" stroke-width="0.117243" stroke-linecap="round" stroke-linejoin="round"/>
<path d="M160.451 414.841L151.076 414.419" stroke="#ADA4EE" stroke-width="0.117243" stroke-linecap="round" stroke-linejoin="round"/>
<g opacity="0.8">
<path d="M173.227 432.308L169.396 315.162" stroke="white" stroke-width="0.117243" stroke-linecap="round" stroke-linejoin="round"/>
<path d="M171.101 383.322L151.076 364.579" stroke="white" stroke-width="0.117243" stroke-linecap="round" stroke-linejoin="round"/>
<path d="M161.726 374.799L157.464 362.875" stroke="white" stroke-width="0.117243" stroke-linecap="round" stroke-linejoin="round"/>
<path d="M187.709 397.803L172.376 414.418" stroke="white" stroke-width="0.117243" stroke-linecap="round" stroke-linejoin="round"/>
<path d="M146.815 407.178L172.376 420.384" stroke="white" stroke-width="0.117243" stroke-linecap="round" stroke-linejoin="round"/>
<path d="M160.451 414.841L151.076 414.418" stroke="white" stroke-width="0.117243" stroke-linecap="round" stroke-linejoin="round"/>
</g>
<path d="M247.945 408.637C247.945 420.546 238.508 430.205 238.508 430.205C238.508 430.205 229.087 420.546 229.087 408.637C229.087 396.728 238.523 387.069 238.523 387.069C238.523 387.069 247.945 396.72 247.945 408.637Z" fill="#ADA4EE"/>
<path d="M254.478 427.011C249.871 432.178 242.086 432.738 242.086 432.738C242.086 432.738 241.709 424.914 246.293 419.747C250.877 414.58 258.686 414.019 258.686 414.019C258.686 414.019 259.031 421.843 254.478 427.011Z" fill="#ADA4EE"/>
<path d="M230.438 419.571C235.245 424.523 235.222 432.355 235.222 432.355C235.222 432.355 227.398 432.148 222.583 427.187C217.769 422.227 217.8 414.403 217.8 414.403C217.8 414.403 225.624 414.611 230.438 419.571Z" fill="#ADA4EE"/>
<g opacity="0.5">
<path d="M247.945 408.637C247.945 420.546 238.508 430.205 238.508 430.205C238.508 430.205 229.087 420.546 229.087 408.637C229.087 396.728 238.523 387.069 238.523 387.069C238.523 387.069 247.945 396.72 247.945 408.637Z" fill="white"/>
<path d="M238.508 430.205V387.069" stroke="white" stroke-width="0.117243" stroke-linecap="round" stroke-linejoin="round"/>
<path d="M238.508 402.402L243.79 397.788" stroke="white" stroke-width="0.117243" stroke-linecap="round" stroke-linejoin="round"/>
<path d="M238.424 409.528L231.882 400.053" stroke="white" stroke-width="0.117243" stroke-linecap="round" stroke-linejoin="round"/>
<path d="M238.508 413.635L246.309 406.679" stroke="white" stroke-width="0.117243" stroke-linecap="round" stroke-linejoin="round"/>
<path d="M238.423 419.171L230.707 412.299" stroke="white" stroke-width="0.117243" stroke-linecap="round" stroke-linejoin="round"/>
<path d="M238.423 423.954L244.458 419.171" stroke="white" stroke-width="0.117243" stroke-linecap="round" stroke-linejoin="round"/>
<path d="M254.478 427.01C249.871 432.177 242.086 432.738 242.086 432.738C242.086 432.738 241.709 424.914 246.293 419.746C250.877 414.579 258.686 414.019 258.686 414.019C258.686 414.019 259.031 421.843 254.478 427.01Z" fill="white"/>
<path d="M242.086 432.738L258.686 414.019" stroke="white" stroke-width="0.117243" stroke-linecap="round" stroke-linejoin="round"/>
<path d="M252.789 420.676L256.851 420.707" stroke="white" stroke-width="0.117243" stroke-linecap="round" stroke-linejoin="round"/>
<path d="M250.01 423.732L250.816 417.105" stroke="white" stroke-width="0.117243" stroke-linecap="round" stroke-linejoin="round"/>
<path d="M248.459 425.552L254.525 425.529" stroke="white" stroke-width="0.117243" stroke-linecap="round" stroke-linejoin="round"/>
<path d="M246.293 427.916L245.595 421.966" stroke="white" stroke-width="0.117243" stroke-linecap="round" stroke-linejoin="round"/>
<path d="M244.458 429.99L248.92 430.243" stroke="white" stroke-width="0.117243" stroke-linecap="round" stroke-linejoin="round"/>
<path d="M230.438 419.571C235.245 424.523 235.222 432.355 235.222 432.355C235.222 432.355 227.398 432.148 222.583 427.187C217.769 422.227 217.8 414.403 217.8 414.403C217.8 414.403 225.624 414.611 230.438 419.571Z" fill="white"/>
<path d="M235.222 432.355L217.8 414.403" stroke="white" stroke-width="0.117243" stroke-linecap="round" stroke-linejoin="round"/>
<path d="M223.988 420.784L224.326 416.73" stroke="white" stroke-width="0.117243" stroke-linecap="round" stroke-linejoin="round"/>
<path d="M226.837 423.786L220.288 422.48" stroke="white" stroke-width="0.117243" stroke-linecap="round" stroke-linejoin="round"/>
<path d="M228.526 425.459L228.964 419.417" stroke="white" stroke-width="0.117243" stroke-linecap="round" stroke-linejoin="round"/>
<path d="M230.73 427.793L224.741 428.055" stroke="white" stroke-width="0.117243" stroke-linecap="round" stroke-linejoin="round"/>
<path d="M232.665 429.783L233.24 425.36" stroke="white" stroke-width="0.117243" stroke-linecap="round" stroke-linejoin="round"/>
</g>
<path d="M238.508 430.205V387.069" stroke="#ADA4EE" stroke-width="0.117243" stroke-linecap="round" stroke-linejoin="round"/>
<path d="M238.508 402.402L243.79 397.788" stroke="#ADA4EE" stroke-width="0.117243" stroke-linecap="round" stroke-linejoin="round"/>
<path d="M238.424 409.528L231.882 400.053" stroke="#ADA4EE" stroke-width="0.117243" stroke-linecap="round" stroke-linejoin="round"/>
<path d="M238.508 413.635L246.309 406.679" stroke="#ADA4EE" stroke-width="0.117243" stroke-linecap="round" stroke-linejoin="round"/>
<path d="M238.423 419.171L230.707 412.299" stroke="#ADA4EE" stroke-width="0.117243" stroke-linecap="round" stroke-linejoin="round"/>
<path d="M238.423 423.955L244.458 419.171" stroke="#ADA4EE" stroke-width="0.117243" stroke-linecap="round" stroke-linejoin="round"/>
<g opacity="0.7">
<path d="M238.508 430.205V387.069" stroke="white" stroke-width="0.117243" stroke-linecap="round" stroke-linejoin="round"/>
<path d="M238.508 402.402L243.79 397.788" stroke="white" stroke-width="0.117243" stroke-linecap="round" stroke-linejoin="round"/>
<path d="M238.424 409.528L231.882 400.053" stroke="white" stroke-width="0.117243" stroke-linecap="round" stroke-linejoin="round"/>
<path d="M238.508 413.635L246.309 406.679" stroke="white" stroke-width="0.117243" stroke-linecap="round" stroke-linejoin="round"/>
<path d="M238.423 419.171L230.707 412.299" stroke="white" stroke-width="0.117243" stroke-linecap="round" stroke-linejoin="round"/>
<path d="M238.423 423.954L244.458 419.171" stroke="white" stroke-width="0.117243" stroke-linecap="round" stroke-linejoin="round"/>
</g>
<path d="M242.086 432.738L258.686 414.019" stroke="#ADA4EE" stroke-width="0.117243" stroke-linecap="round" stroke-linejoin="round"/>
<path d="M252.789 420.676L256.851 420.707" stroke="#ADA4EE" stroke-width="0.117243" stroke-linecap="round" stroke-linejoin="round"/>
<path d="M250.01 423.732L250.816 417.105" stroke="#ADA4EE" stroke-width="0.117243" stroke-linecap="round" stroke-linejoin="round"/>
<path d="M248.459 425.552L254.525 425.529" stroke="#ADA4EE" stroke-width="0.117243" stroke-linecap="round" stroke-linejoin="round"/>
<path d="M246.293 427.916L245.595 421.966" stroke="#ADA4EE" stroke-width="0.117243" stroke-linecap="round" stroke-linejoin="round"/>
<path d="M244.458 429.99L248.92 430.243" stroke="#ADA4EE" stroke-width="0.117243" stroke-linecap="round" stroke-linejoin="round"/>
<g opacity="0.7">
<path d="M242.086 432.738L258.686 414.019" stroke="white" stroke-width="0.117243" stroke-linecap="round" stroke-linejoin="round"/>
<path d="M252.789 420.676L256.851 420.707" stroke="white" stroke-width="0.117243" stroke-linecap="round" stroke-linejoin="round"/>
<path d="M250.01 423.732L250.816 417.106" stroke="white" stroke-width="0.117243" stroke-linecap="round" stroke-linejoin="round"/>
<path d="M248.459 425.552L254.525 425.529" stroke="white" stroke-width="0.117243" stroke-linecap="round" stroke-linejoin="round"/>
<path d="M246.293 427.916L245.595 421.966" stroke="white" stroke-width="0.117243" stroke-linecap="round" stroke-linejoin="round"/>
<path d="M244.458 429.99L248.92 430.243" stroke="white" stroke-width="0.117243" stroke-linecap="round" stroke-linejoin="round"/>
</g>
<path d="M235.222 432.355L217.8 414.403" stroke="#ADA4EE" stroke-width="0.117243" stroke-linecap="round" stroke-linejoin="round"/>
<path d="M223.988 420.784L224.326 416.73" stroke="#ADA4EE" stroke-width="0.117243" stroke-linecap="round" stroke-linejoin="round"/>
<path d="M226.837 423.786L220.287 422.48" stroke="#ADA4EE" stroke-width="0.117243" stroke-linecap="round" stroke-linejoin="round"/>
<path d="M228.526 425.46L228.964 419.417" stroke="#ADA4EE" stroke-width="0.117243" stroke-linecap="round" stroke-linejoin="round"/>
<path d="M230.73 427.794L224.741 428.055" stroke="#ADA4EE" stroke-width="0.117243" stroke-linecap="round" stroke-linejoin="round"/>
<path d="M232.665 429.783L233.24 425.36" stroke="#ADA4EE" stroke-width="0.117243" stroke-linecap="round" stroke-linejoin="round"/>
<g opacity="0.7">
<path d="M235.222 432.355L217.8 414.403" stroke="white" stroke-width="0.117243" stroke-linecap="round" stroke-linejoin="round"/>
<path d="M223.988 420.784L224.326 416.73" stroke="white" stroke-width="0.117243" stroke-linecap="round" stroke-linejoin="round"/>
<path d="M226.837 423.786L220.288 422.48" stroke="white" stroke-width="0.117243" stroke-linecap="round" stroke-linejoin="round"/>
<path d="M228.526 425.46L228.964 419.417" stroke="white" stroke-width="0.117243" stroke-linecap="round" stroke-linejoin="round"/>
<path d="M230.73 427.794L224.741 428.055" stroke="white" stroke-width="0.117243" stroke-linecap="round" stroke-linejoin="round"/>
<path d="M232.665 429.783L233.24 425.36" stroke="white" stroke-width="0.117243" stroke-linecap="round" stroke-linejoin="round"/>
</g>
<path d="M460.493 204.543H252.928C252.866 204.544 252.804 204.532 252.747 204.509C252.689 204.486 252.636 204.452 252.592 204.408C252.548 204.365 252.513 204.313 252.489 204.255C252.465 204.198 252.452 204.136 252.452 204.074C252.452 203.948 252.502 203.827 252.592 203.738C252.681 203.648 252.802 203.598 252.928 203.598H460.493C460.555 203.598 460.616 203.611 460.674 203.635C460.731 203.659 460.783 203.694 460.827 203.738C460.87 203.782 460.905 203.835 460.928 203.893C460.951 203.95 460.962 204.012 460.961 204.074C460.961 204.198 460.912 204.318 460.824 204.405C460.736 204.493 460.617 204.543 460.493 204.543Z" fill="#ADA4EE"/>
<g opacity="0.3">
<path d="M460.493 204.543H252.928C252.866 204.544 252.804 204.532 252.747 204.509C252.689 204.486 252.636 204.452 252.592 204.408C252.548 204.365 252.513 204.313 252.489 204.255C252.465 204.198 252.452 204.136 252.452 204.074C252.452 203.948 252.502 203.827 252.592 203.738C252.681 203.648 252.802 203.598 252.928 203.598H460.493C460.555 203.598 460.616 203.611 460.674 203.635C460.731 203.659 460.783 203.694 460.827 203.738C460.87 203.782 460.905 203.835 460.928 203.893C460.951 203.95 460.962 204.012 460.961 204.074C460.961 204.198 460.912 204.318 460.824 204.405C460.736 204.493 460.617 204.543 460.493 204.543Z" fill="white"/>
</g>
<path d="M460.078 286.868H252.514C252.451 286.869 252.39 286.858 252.332 286.835C252.274 286.812 252.222 286.777 252.177 286.734C252.133 286.69 252.098 286.638 252.074 286.581C252.05 286.524 252.038 286.462 252.038 286.4C252.038 286.274 252.088 286.153 252.177 286.063C252.266 285.974 252.387 285.924 252.514 285.924H460.078C460.14 285.924 460.202 285.936 460.259 285.96C460.316 285.984 460.368 286.019 460.412 286.064C460.456 286.108 460.49 286.161 460.513 286.218C460.536 286.276 460.548 286.338 460.547 286.4C460.547 286.461 460.534 286.522 460.511 286.579C460.487 286.636 460.453 286.688 460.409 286.731C460.366 286.775 460.314 286.809 460.257 286.833C460.201 286.856 460.14 286.868 460.078 286.868Z" fill="#ADA4EE"/>
<g opacity="0.3">
<path d="M460.078 286.868H252.514C252.451 286.869 252.39 286.858 252.332 286.835C252.274 286.812 252.222 286.777 252.177 286.734C252.133 286.69 252.098 286.638 252.074 286.581C252.05 286.524 252.038 286.462 252.038 286.4C252.038 286.274 252.088 286.153 252.177 286.063C252.266 285.974 252.387 285.924 252.514 285.924H460.078C460.14 285.924 460.202 285.936 460.259 285.96C460.316 285.984 460.368 286.019 460.412 286.064C460.456 286.108 460.49 286.161 460.513 286.218C460.536 286.276 460.548 286.338 460.547 286.4C460.547 286.461 460.534 286.522 460.511 286.579C460.487 286.636 460.453 286.688 460.409 286.731C460.366 286.775 460.314 286.809 460.257 286.833C460.201 286.856 460.14 286.868 460.078 286.868Z" fill="white"/>
</g>
<path d="M460.078 354.168H252.514C252.387 354.168 252.266 354.117 252.177 354.028C252.088 353.939 252.038 353.818 252.038 353.692C252.038 353.629 252.05 353.568 252.074 353.511C252.098 353.453 252.133 353.401 252.177 353.358C252.222 353.314 252.274 353.28 252.332 353.257C252.39 353.234 252.451 353.222 252.514 353.223H460.078C460.14 353.223 460.201 353.235 460.257 353.259C460.314 353.282 460.366 353.317 460.409 353.36C460.453 353.404 460.487 353.456 460.511 353.512C460.534 353.569 460.547 353.63 460.547 353.692C460.548 353.754 460.536 353.815 460.513 353.873C460.49 353.931 460.456 353.983 460.412 354.028C460.368 354.072 460.316 354.107 460.259 354.131C460.202 354.155 460.14 354.168 460.078 354.168Z" fill="#ADA4EE"/>
<g opacity="0.3">
<path d="M460.078 354.168H252.514C252.387 354.168 252.266 354.117 252.177 354.028C252.088 353.939 252.038 353.818 252.038 353.692C252.038 353.629 252.05 353.568 252.074 353.511C252.098 353.453 252.133 353.401 252.177 353.358C252.222 353.314 252.274 353.28 252.332 353.257C252.39 353.234 252.451 353.222 252.514 353.223H460.078C460.14 353.223 460.201 353.235 460.257 353.259C460.314 353.282 460.366 353.317 460.409 353.36C460.453 353.404 460.487 353.456 460.511 353.512C460.534 353.569 460.547 353.63 460.547 353.692C460.548 353.754 460.536 353.815 460.513 353.873C460.49 353.931 460.456 353.983 460.412 354.028C460.368 354.072 460.316 354.107 460.259 354.131C460.202 354.155 460.14 354.168 460.078 354.168Z" fill="white"/>
</g>
<path d="M296.639 365.554V435.595" stroke="#263238" stroke-width="0.0310894" stroke-miterlimit="10"/>
<path d="M306.644 365.554V435.595" stroke="#263238" stroke-width="0.0310894" stroke-miterlimit="10"/>
<path d="M316.648 365.554V435.595" stroke="#263238" stroke-width="0.0310894" stroke-miterlimit="10"/>
<path d="M326.653 365.554V435.595" stroke="#263238" stroke-width="0.0310894" stroke-miterlimit="10"/>
<path d="M336.658 365.554V435.595" stroke="#263238" stroke-width="0.0310894" stroke-miterlimit="10"/>
<path d="M346.663 365.554V435.595" stroke="#263238" stroke-width="0.0310894" stroke-miterlimit="10"/>
<path d="M356.667 365.554V435.595" stroke="#263238" stroke-width="0.0310894" stroke-miterlimit="10"/>
<path d="M366.672 365.554V435.595" stroke="#263238" stroke-width="0.0310894" stroke-miterlimit="10"/>
<path d="M376.677 365.554V435.595" stroke="#263238" stroke-width="0.0310894" stroke-miterlimit="10"/>
<path d="M386.682 365.554V435.595" stroke="#263238" stroke-width="0.0310894" stroke-miterlimit="10"/>
<path d="M396.686 365.554V435.595" stroke="#263238" stroke-width="0.0310894" stroke-miterlimit="10"/>
<path d="M406.691 365.554V435.595" stroke="#263238" stroke-width="0.0310894" stroke-miterlimit="10"/>
<path d="M297.139 372.058H406.192" stroke="#263238" stroke-width="0.0310894" stroke-miterlimit="10"/>
<path d="M297.139 381.563H406.192" stroke="#263238" stroke-width="0.0310894" stroke-miterlimit="10"/>
<path d="M297.139 391.069H406.192" stroke="#263238" stroke-width="0.0310894" stroke-miterlimit="10"/>
<path d="M297.139 400.575H406.192" stroke="#263238" stroke-width="0.0310894" stroke-miterlimit="10"/>
<path d="M297.139 410.081H406.192" stroke="#263238" stroke-width="0.0310894" stroke-miterlimit="10"/>
<path d="M297.139 419.586H406.192" stroke="#263238" stroke-width="0.0310894" stroke-miterlimit="10"/>
<path d="M297.139 429.091H406.192" stroke="#263238" stroke-width="0.0310894" stroke-miterlimit="10"/>
<path d="M320.05 390.125L305.416 435.242H336.067L321.425 390.125C321.378 389.979 321.286 389.852 321.163 389.762C321.039 389.672 320.89 389.624 320.737 389.624C320.584 389.624 320.436 389.672 320.312 389.762C320.189 389.852 320.097 389.979 320.05 390.125Z" fill="#ADA4EE" stroke="#263238" stroke-width="0.124357" stroke-miterlimit="10"/>
<path d="M347.953 375.183L328.473 435.242H368.83L349.327 375.183C349.28 375.037 349.189 374.91 349.065 374.82C348.942 374.73 348.793 374.682 348.64 374.682C348.487 374.682 348.338 374.73 348.215 374.82C348.091 374.91 347.999 375.037 347.953 375.183Z" fill="#263238" stroke="#263238" stroke-width="0.124357" stroke-miterlimit="10"/>
<path d="M373.629 400.444L362.334 435.241H386.29L374.972 400.444C374.919 400.309 374.827 400.193 374.707 400.111C374.587 400.03 374.445 399.986 374.3 399.986C374.155 399.986 374.014 400.03 373.894 400.111C373.774 400.193 373.682 400.309 373.629 400.444Z" fill="#ADA4EE" stroke="#263238" stroke-width="0.124357" stroke-miterlimit="10"/>
<path d="M389.1 412.391L381.69 435.242H397.884L390.474 412.391C390.428 412.246 390.336 412.119 390.212 412.029C390.089 411.939 389.94 411.89 389.787 411.89C389.634 411.89 389.485 411.939 389.362 412.029C389.238 412.119 389.147 412.246 389.1 412.391Z" fill="#263238" stroke="#263238" stroke-width="0.124357" stroke-miterlimit="10"/>
<path d="M295.318 343.418C290.928 343.418 286.636 342.116 282.986 339.677C279.336 337.238 276.49 333.771 274.81 329.715C273.13 325.659 272.691 321.196 273.547 316.89C274.404 312.584 276.518 308.629 279.622 305.525C282.727 302.42 286.682 300.306 290.988 299.449C295.294 298.593 299.757 299.033 303.813 300.713C307.869 302.393 311.336 305.238 313.775 308.888C316.214 312.539 317.516 316.83 317.516 321.221C317.51 327.106 315.169 332.748 311.008 336.91C306.846 341.072 301.204 343.412 295.318 343.418ZM295.318 305.542C292.218 305.543 289.187 306.464 286.61 308.188C284.032 309.912 282.024 312.361 280.838 315.226C279.653 318.091 279.343 321.243 279.949 324.284C280.555 327.325 282.049 330.118 284.242 332.31C286.435 334.502 289.229 335.994 292.27 336.599C295.311 337.203 298.463 336.892 301.328 335.705C304.192 334.518 306.64 332.509 308.363 329.931C310.085 327.352 311.005 324.321 311.005 321.221C311.001 317.062 309.346 313.075 306.405 310.136C303.464 307.196 299.477 305.544 295.318 305.542Z" fill="#263238" stroke="#263238" stroke-width="0.124357" stroke-miterlimit="10"/>
<path d="M295.318 343.418C292.322 343.427 289.356 342.826 286.601 341.649C283.846 340.473 281.359 338.747 279.294 336.577L284.001 332.07C285.459 333.603 287.215 334.822 289.161 335.653C291.107 336.483 293.202 336.907 295.318 336.899C297.377 336.899 299.416 336.494 301.318 335.706C303.221 334.918 304.949 333.763 306.405 332.307C307.861 330.851 309.016 329.123 309.804 327.221C310.592 325.318 310.997 323.28 310.997 321.221C310.997 319.162 310.592 317.123 309.804 315.221C309.016 313.318 307.861 311.59 306.405 310.134C304.949 308.678 303.221 307.523 301.318 306.735C299.416 305.947 297.377 305.542 295.318 305.542V299.023C298.233 299.023 301.12 299.597 303.813 300.713C306.506 301.828 308.953 303.463 311.014 305.524C313.076 307.586 314.711 310.033 315.826 312.726C316.942 315.419 317.516 318.306 317.516 321.221C317.516 324.136 316.942 327.022 315.826 329.715C314.711 332.408 313.076 334.855 311.014 336.917C308.953 338.978 306.506 340.613 303.813 341.729C301.12 342.844 298.233 343.418 295.318 343.418Z" fill="#ADA4EE" stroke="#263238" stroke-width="0.124357" stroke-miterlimit="10"/>
<path d="M350.064 343.418C345.673 343.42 341.381 342.119 337.729 339.681C334.078 337.243 331.232 333.777 329.55 329.721C327.869 325.665 327.428 321.201 328.284 316.895C329.14 312.588 331.253 308.632 334.357 305.527C337.461 302.422 341.417 300.307 345.723 299.45C350.029 298.593 354.492 299.032 358.549 300.712C362.605 302.392 366.073 305.237 368.512 308.887C370.952 312.538 372.254 316.83 372.254 321.221C372.248 327.105 369.908 332.746 365.748 336.907C361.588 341.069 355.948 343.41 350.064 343.418ZM350.064 305.542C346.963 305.545 343.934 306.467 341.357 308.192C338.781 309.916 336.774 312.366 335.589 315.231C334.405 318.096 334.097 321.248 334.703 324.289C335.31 327.329 336.805 330.121 338.998 332.313C341.191 334.504 343.985 335.996 347.026 336.599C350.067 337.203 353.219 336.892 356.083 335.705C358.947 334.517 361.395 332.508 363.117 329.93C364.839 327.352 365.758 324.321 365.758 321.221C365.752 317.062 364.096 313.075 361.154 310.135C358.211 307.196 354.223 305.544 350.064 305.542Z" fill="#263238" stroke="#263238" stroke-width="0.124357" stroke-miterlimit="10"/>
<path d="M358.702 341.668L356.168 335.671C359.498 334.26 362.238 331.741 363.924 328.541C365.61 325.342 366.139 321.658 365.421 318.113C364.702 314.569 362.782 311.381 359.983 309.09C357.185 306.799 353.681 305.546 350.064 305.542V299.023C355.186 299.023 360.15 300.795 364.114 304.038C368.079 307.28 370.801 311.794 371.817 316.814C372.834 321.834 372.084 327.051 369.693 331.58C367.303 336.11 363.42 339.674 358.702 341.668Z" fill="#ADA4EE" stroke="#263238" stroke-width="0.124357" stroke-miterlimit="10"/>
<path d="M404.802 343.418C400.411 343.418 396.12 342.116 392.469 339.677C388.819 337.238 385.974 333.771 384.294 329.715C382.614 325.659 382.174 321.196 383.031 316.89C383.887 312.584 386.001 308.629 389.106 305.525C392.21 302.42 396.165 300.306 400.471 299.449C404.777 298.593 409.24 299.033 413.296 300.713C417.352 302.393 420.819 305.238 423.258 308.888C425.697 312.539 426.999 316.83 426.999 321.221C426.993 327.106 424.653 332.748 420.491 336.91C416.329 341.072 410.687 343.412 404.802 343.418ZM404.802 305.542C401.701 305.542 398.669 306.461 396.091 308.184C393.513 309.907 391.503 312.356 390.316 315.221C389.13 318.085 388.819 321.238 389.424 324.279C390.029 327.321 391.522 330.115 393.715 332.307C395.908 334.5 398.701 335.993 401.743 336.598C404.784 337.203 407.937 336.893 410.802 335.706C413.667 334.519 416.115 332.51 417.838 329.931C419.561 327.353 420.481 324.322 420.481 321.221C420.476 317.064 418.823 313.078 415.884 310.138C412.944 307.199 408.959 305.546 404.802 305.542Z" fill="#263238" stroke="#263238" stroke-width="0.124357" stroke-miterlimit="10"/>
<path d="M420.173 318.096C419.445 314.558 417.521 311.378 414.724 309.092C411.927 306.806 408.429 305.552 404.817 305.542V299.023C409.933 299.036 414.888 300.81 418.85 304.047C422.811 307.285 425.537 311.787 426.569 316.798L420.173 318.096Z" fill="#ADA4EE" stroke="#263238" stroke-width="0.124357" stroke-miterlimit="10"/>
<path d="M304.172 274.445H408.419" stroke="#263238" stroke-width="0.124357" stroke-miterlimit="10"/>
<path d="M304.172 274.445V272.226" stroke="#263238" stroke-width="0.124357" stroke-miterlimit="10"/>
<path d="M325.018 274.445V272.226" stroke="#263238" stroke-width="0.124357" stroke-miterlimit="10"/>
<path d="M345.872 274.445V272.226" stroke="#263238" stroke-width="0.124357" stroke-miterlimit="10"/>
<path d="M366.719 274.445V272.226" stroke="#263238" stroke-width="0.124357" stroke-miterlimit="10"/>
<path d="M387.564 274.445V272.226" stroke="#263238" stroke-width="0.124357" stroke-miterlimit="10"/>
<path d="M408.418 274.445V272.226" stroke="#263238" stroke-width="0.124357" stroke-miterlimit="10"/>
<path d="M322.1 244.815H307.089V262.59H322.1V244.815Z" fill="#ADA4EE" stroke="#263238" stroke-width="0.124357" stroke-miterlimit="10"/>
<path d="M342.947 224.076H327.936V265.554H342.947V224.076Z" fill="#ADA4EE" stroke="#263238" stroke-width="0.124357" stroke-miterlimit="10"/>
<path d="M363.8 195.045H348.79V241.268H363.8V195.045Z" fill="#ADA4EE" stroke="#263238" stroke-width="0.124357" stroke-miterlimit="10"/>
<path d="M384.647 238.304H369.636V247.195H384.647V238.304Z" fill="#ADA4EE" stroke="#263238" stroke-width="0.124357" stroke-miterlimit="10"/>
<path d="M405.493 232.967H390.482V256.079H405.493V232.967Z" fill="#ADA4EE" stroke="#263238" stroke-width="0.124357" stroke-miterlimit="10"/>
<path d="M322.1 262.598H307.089V274.453H322.1V262.598Z" fill="#263238" stroke="#263238" stroke-width="0.124357" stroke-miterlimit="10"/>
<path d="M342.947 265.562H327.936V274.453H342.947V265.562Z" fill="#263238" stroke="#263238" stroke-width="0.124357" stroke-miterlimit="10"/>
<path d="M363.8 241.26H348.79V274.445H363.8V241.26Z" fill="#263238" stroke="#263238" stroke-width="0.124357" stroke-miterlimit="10"/>
<path d="M384.647 247.188H369.636V274.445H384.647V247.188Z" fill="#263238" stroke="#263238" stroke-width="0.124357" stroke-miterlimit="10"/>
<path d="M405.493 256.079H390.482V274.445H405.493V256.079Z" fill="#263238" stroke="#263238" stroke-width="0.124357" stroke-miterlimit="10"/>
<path d="M436.198 186.652C436.017 186.654 435.84 186.61 435.68 186.526C435.521 186.441 435.385 186.319 435.284 186.169L402.99 139.071L370.227 174.006L336.773 152.2L304.409 159.71L271.539 186.407C271.311 186.592 271.019 186.679 270.726 186.649C270.434 186.619 270.166 186.474 269.98 186.245C269.795 186.017 269.708 185.725 269.738 185.433C269.769 185.14 269.914 184.872 270.142 184.687L303.411 157.667L337.195 149.828L369.889 171.142L403.266 135.546L437.112 184.917C437.226 185.083 437.294 185.277 437.306 185.478C437.319 185.679 437.276 185.88 437.183 186.058C437.09 186.237 436.949 186.387 436.777 186.492C436.605 186.596 436.407 186.652 436.206 186.652H436.198Z" fill="#263238"/>
<path d="M273.62 185.547C273.62 186.089 273.46 186.619 273.158 187.07C272.857 187.52 272.429 187.872 271.928 188.079C271.427 188.287 270.876 188.341 270.345 188.235C269.813 188.129 269.324 187.868 268.941 187.485C268.558 187.102 268.297 186.613 268.191 186.082C268.085 185.55 268.139 184.999 268.347 184.498C268.554 183.997 268.906 183.569 269.356 183.268C269.807 182.966 270.337 182.806 270.879 182.806C271.606 182.806 272.303 183.094 272.818 183.609C273.332 184.123 273.62 184.82 273.62 185.547Z" fill="#ADA4EE"/>
<path d="M303.911 161.43C305.424 161.43 306.652 160.203 306.652 158.689C306.652 157.175 305.424 155.948 303.911 155.948C302.397 155.948 301.169 157.175 301.169 158.689C301.169 160.203 302.397 161.43 303.911 161.43Z" fill="#ADA4EE"/>
<path d="M336.98 153.752C338.494 153.752 339.721 152.525 339.721 151.011C339.721 149.497 338.494 148.27 336.98 148.27C335.466 148.27 334.239 149.497 334.239 151.011C334.239 152.525 335.466 153.752 336.98 153.752Z" fill="#ADA4EE"/>
<path d="M370.051 175.312C371.565 175.312 372.792 174.085 372.792 172.571C372.792 171.057 371.565 169.83 370.051 169.83C368.537 169.83 367.31 171.057 367.31 172.571C367.31 174.085 368.537 175.312 370.051 175.312Z" fill="#ADA4EE"/>
<path d="M405.862 137.312C405.862 137.855 405.701 138.385 405.4 138.835C405.098 139.286 404.67 139.637 404.169 139.845C403.669 140.052 403.117 140.107 402.586 140.001C402.054 139.895 401.566 139.634 401.182 139.251C400.799 138.867 400.538 138.379 400.432 137.847C400.326 137.315 400.381 136.764 400.588 136.263C400.796 135.763 401.147 135.334 401.598 135.033C402.048 134.732 402.578 134.571 403.121 134.571C403.847 134.571 404.545 134.86 405.059 135.374C405.573 135.888 405.862 136.585 405.862 137.312Z" fill="#ADA4EE"/>
<path d="M438.932 185.547C438.932 186.089 438.771 186.619 438.47 187.07C438.169 187.52 437.741 187.872 437.24 188.079C436.739 188.287 436.188 188.341 435.656 188.235C435.124 188.129 434.636 187.868 434.253 187.485C433.869 187.102 433.608 186.613 433.502 186.082C433.397 185.55 433.451 184.999 433.658 184.498C433.866 183.997 434.217 183.569 434.668 183.268C435.119 182.966 435.649 182.806 436.191 182.806C436.918 182.806 437.615 183.094 438.129 183.609C438.643 184.123 438.932 184.82 438.932 185.547Z" fill="#ADA4EE"/>
<path d="M495.305 446.805C524.573 446.805 548.3 443.618 548.3 439.687C548.3 435.757 524.573 432.57 495.305 432.57C466.037 432.57 442.31 435.757 442.31 439.687C442.31 443.618 466.037 446.805 495.305 446.805Z" fill="#ADA4EE"/>
<path opacity="0.7" d="M495.305 446.805C524.573 446.805 548.3 443.618 548.3 439.687C548.3 435.757 524.573 432.57 495.305 432.57C466.037 432.57 442.31 435.757 442.31 439.687C442.31 443.618 466.037 446.805 495.305 446.805Z" fill="white"/>
<path d="M204.962 446.805C231.97 446.805 253.864 443.618 253.864 439.687C253.864 435.757 231.97 432.57 204.962 432.57C177.954 432.57 156.06 435.757 156.06 439.687C156.06 443.618 177.954 446.805 204.962 446.805Z" fill="#ADA4EE"/>
<path opacity="0.7" d="M204.962 446.805C231.97 446.805 253.864 443.618 253.864 439.687C253.864 435.757 231.97 432.57 204.962 432.57C177.954 432.57 156.06 435.757 156.06 439.687C156.06 443.618 177.954 446.805 204.962 446.805Z" fill="white"/>
<path d="M480.348 188.941C480.348 188.941 500.48 186.991 501.632 190.346C502.783 193.701 502.399 201.364 502.399 201.364C503.414 201.628 504.403 201.98 505.356 202.416C505.624 202.677 508.603 204.628 505.824 207.829C505.098 208.641 504.219 209.301 503.236 209.772C502.011 210.315 500.845 210.984 499.758 211.768L495.719 216.352L496.487 222.257C496.487 222.257 498.292 223.562 500.495 228.115C500.495 228.115 505.701 231.186 508.757 232.929C511.27 234.25 513.884 235.369 516.573 236.277C516.573 236.277 517.971 236.73 517.871 237.736C517.771 238.742 510.915 261.538 510.915 261.538L507.306 273.056C507.237 274.471 507.052 275.878 506.753 277.263C506.239 279.743 504.304 281.371 502.3 280.864L502.499 289.31C502.499 289.31 493.086 294.017 477.56 293.218C477.56 293.218 470.251 292.512 464.845 288.512L464.746 268.779L439.838 263.957C439.838 263.957 436.682 263.289 438.302 260.448C439.922 257.607 445.366 250.558 445.366 250.558L462.864 229.152C462.864 229.152 464.07 227.731 464.515 227.278C464.961 226.825 466.051 226.51 470.374 226.15C474.697 225.789 479.541 224.952 479.541 224.952C479.541 224.952 482.167 222.694 482.544 222.694C482.92 222.694 482.997 219.316 482.997 219.316C481.669 218.358 480.564 217.123 479.76 215.697C478.955 214.27 478.469 212.686 478.336 211.054C477.96 205.572 480.363 192.726 480.363 192.726L480.348 188.941Z" fill="white"/>
<path d="M465.153 288.435C465.153 288.435 463.034 319.915 463.034 334.98C463.034 350.044 463.978 362.245 464.446 372.826C464.915 383.406 463.034 390.693 464.677 398.448C466.32 406.203 470.09 428.777 470.09 428.777L474.52 431.449C474.52 431.449 475.288 413.489 476.9 407.147C478.513 400.805 479.02 374 479.972 365.769C480.924 357.538 483.972 328.392 483.972 328.392C483.972 328.392 495.727 358.951 498.561 370.944C501.394 382.938 511.022 409.965 513.149 416.545C515.276 423.125 518.555 432.877 518.555 432.877C519.551 433.168 520.597 433.246 521.626 433.107C522.07 433.071 522.498 432.923 522.869 432.676C523.24 432.428 523.541 432.091 523.745 431.694C523.745 431.694 520.62 412.007 519.246 402.44C517.549 390.608 514.785 372.826 513.103 366.245C511.422 359.665 508.872 349.315 508.872 344.378C508.872 339.441 502.53 289.863 502.53 289.863C502.53 289.863 480.432 299.483 465.153 288.435Z" fill="#263238"/>
<path d="M483.957 328.392L474.528 317.397" stroke="white" stroke-width="0.0621787" stroke-miterlimit="10" stroke-linecap="round"/>
<path d="M472.117 318.203L479.879 325.428" stroke="white" stroke-width="0.0621787" stroke-miterlimit="10" stroke-linecap="round"/>
<path d="M488.709 319.009C490.697 313.98 494.391 309.81 499.144 307.23" stroke="white" stroke-width="0.0621787" stroke-miterlimit="10" stroke-linecap="round"/>
<path d="M499.674 292.52C499.674 292.52 498.606 296.528 499.942 298.938C501.278 301.349 502.622 301.349 502.622 301.349C502.622 301.349 505.025 314.456 505.025 321.95C505.025 329.444 503.421 330.242 505.025 338.535C506.63 346.827 507.705 349.507 507.705 354.321C507.705 359.135 509.84 362.353 511.713 365.293C513.587 368.234 514.124 376.811 514.124 380.274C514.124 383.736 515.191 387.499 516.266 390.977C516.266 390.977 516.52 398.778 517.871 400.605C519.222 402.433 519.476 408.637 519.476 408.637" stroke="white" stroke-width="0.0621787" stroke-miterlimit="10" stroke-linecap="round"/>
<path d="M482.022 327.302C482.022 327.302 482.552 333.444 480.678 344.155C478.805 354.866 477.469 357.8 477.2 370.108C476.931 382.416 478.006 384.558 477.469 390.977C476.931 397.396 473.722 407.539 473.722 412.146C473.722 416.753 474.213 431.479 474.213 431.479" stroke="white" stroke-width="0.0621787" stroke-miterlimit="10" stroke-linecap="round"/>
<path d="M476.132 294.124L476.67 296.266L480.148 297.065L479.611 294.393" stroke="white" stroke-width="0.0621787" stroke-miterlimit="10" stroke-linecap="round"/>
<path d="M480.163 297.065C480.163 297.065 486.582 296.796 489.792 295.729L489.024 293.586" stroke="white" stroke-width="0.0621787" stroke-miterlimit="10" stroke-linecap="round"/>
<path d="M491.918 293.049L492.686 295.729C492.686 295.729 497.823 295.437 498.591 294.669" stroke="white" stroke-width="0.0621787" stroke-miterlimit="10" stroke-linecap="round"/>
<path d="M476.67 296.266C474.895 296.21 473.157 295.751 471.587 294.922L469.176 293.586L469.944 291.713" stroke="white" stroke-width="0.0621787" stroke-miterlimit="10" stroke-linecap="round"/>
<path d="M470.09 428.776C470.09 428.776 458.572 436.293 456.921 439.818C455.271 443.342 461.859 441.937 466.558 440.056C471.257 438.174 474.236 431.448 474.236 431.448L470.09 428.776Z" fill="white" stroke="#263238" stroke-width="0.124357" stroke-miterlimit="10" stroke-linecap="round"/>
<path d="M518.923 432.977C519.504 436.197 520.647 439.29 522.301 442.114C524.835 446.052 529.619 449.431 529.619 443.235C529.619 437.038 523.714 431.717 523.714 431.717C523.714 431.717 520.781 433.307 518.923 432.977Z" fill="white" stroke="#263238" stroke-width="0.124357" stroke-miterlimit="10" stroke-linecap="round"/>
<path d="M480.278 193.194C480.278 193.194 477.783 208.674 478.628 212.513C480.555 221.105 487.319 220.736 491.55 219.093C495.504 217.557 499.451 212.129 499.958 211.415C499.994 211.364 500.045 211.327 500.104 211.307C500.733 211.131 504.641 209.887 506.361 206.869C508.242 203.575 504.718 202.17 504.718 202.17" fill="white"/>
<mask id="mask0_747_8246" style="mask-type:luminance" maskUnits="userSpaceOnUse" x="478" y="193" width="29" height="28">
<path d="M480.278 193.194C480.278 193.194 477.783 208.674 478.628 212.513C480.555 221.105 487.319 220.736 491.55 219.093C495.504 217.557 499.451 212.129 499.958 211.415C499.994 211.364 500.045 211.327 500.104 211.307C500.733 211.131 504.641 209.887 506.361 206.869C508.242 203.575 504.718 202.17 504.718 202.17" fill="white"/>
</mask>
<g mask="url(#mask0_747_8246)">
<g style="mix-blend-mode:multiply" opacity="0.5">
<path d="M496.288 215.4L500.019 211.3C500.019 211.3 504.434 209.941 506.362 206.831C507.49 205.011 506.868 203.422 506.185 202.992C505.249 202.485 504.282 202.036 503.29 201.648L502.039 204.405L500.971 204.589C500.971 204.589 501.417 201.748 500.127 200.067C498.837 198.385 498.545 193.517 498.545 193.517C498.545 193.517 496.741 203.222 496.518 207.284C496.461 209.545 495.755 211.741 494.483 213.611C494.483 213.611 494.714 216.091 495.159 218.571C495.213 218.863 495.267 219.3 495.32 219.846L495.935 218.863L496.272 219.8C495.888 218.187 495.712 216.475 496.288 215.4Z" fill="#ADA4EE"/>
</g>
</g>
<path d="M480.278 193.194C480.278 193.194 477.783 208.674 478.628 212.513C480.555 221.105 487.319 220.736 491.55 219.093C495.504 217.557 499.451 212.129 499.958 211.415C499.994 211.364 500.045 211.327 500.104 211.307C500.733 211.131 504.641 209.887 506.361 206.869C508.242 203.575 504.718 202.17 504.718 202.17" stroke="#263238" stroke-width="0.124357" stroke-miterlimit="10" stroke-linecap="round"/>
<path d="M489.83 201.065C489.684 201.679 489.83 202.232 490.114 202.301C490.399 202.37 490.782 201.94 490.928 201.333C491.074 200.727 490.928 200.174 490.644 200.097C490.36 200.02 489.976 200.458 489.83 201.065Z" fill="#263238"/>
<path d="M483.235 199.46C483.089 200.074 483.235 200.627 483.519 200.696C483.803 200.765 484.187 200.335 484.333 199.728C484.479 199.122 484.333 198.561 484.049 198.492C483.765 198.423 483.373 198.845 483.235 199.46Z" fill="#263238"/>
<path d="M493.923 198.377C493.56 197.739 493.043 197.201 492.42 196.814C491.796 196.426 491.086 196.201 490.353 196.158" stroke="#263238" stroke-width="0.124357" stroke-miterlimit="10" stroke-linecap="round"/>
<path d="M485.3 196.273C484.696 196.009 484.025 195.935 483.378 196.061C482.73 196.188 482.137 196.508 481.676 196.98" stroke="#263238" stroke-width="0.124357" stroke-miterlimit="10" stroke-linecap="round"/>
<path d="M485.745 199.068C485.76 200.096 485.683 201.124 485.515 202.139C485.262 203.421 484.264 203.675 484.517 204.665C484.77 205.656 486.053 205.756 486.053 205.756" stroke="#263238" stroke-width="0.124357" stroke-miterlimit="10" stroke-linecap="round"/>
<path d="M487.389 209.756C487.932 209.929 488.507 209.982 489.073 209.912C489.639 209.842 490.183 209.65 490.667 209.349" stroke="#263238" stroke-width="0.124357" stroke-miterlimit="10" stroke-linecap="round"/>
<path d="M499.551 182.384C499.551 182.384 494.383 177.915 489.446 177.915C484.509 177.915 480.509 180.741 477.453 180.986C474.397 181.232 472.286 178.399 470.404 182.161C468.523 185.923 475.58 192.273 480.279 193.21C484.978 194.147 491.558 192.742 493.439 192.504C495.241 192.38 497.05 192.38 498.852 192.504C498.852 192.504 497.439 196.972 498.852 198.385C500.265 199.798 500.495 200.735 500.495 201.671C500.576 202.705 500.732 203.732 500.964 204.743L502.376 205.219L503.083 202.631C504.989 200.599 506.292 198.076 506.845 195.345C507.544 191.114 504.02 186.899 504.02 186.899L499.551 182.384Z" fill="#263238"/>
<path d="M479.756 191.283C479.756 191.283 487.795 192.818 494.092 190.2C500.388 187.582 494.959 182.384 494.959 182.384" stroke="white" stroke-width="0.0621787" stroke-miterlimit="10" stroke-linecap="round"/>
<path d="M496.288 181.946C496.94 181.946 502.369 186.069 501.278 189.11C500.188 192.15 498.023 192.373 498.023 192.373" stroke="white" stroke-width="0.0621787" stroke-miterlimit="10" stroke-linecap="round"/>
<path d="M495.397 275.213L488.609 271.635C486.865 271.538 485.13 271.312 483.419 270.959C481.837 270.506 465.606 268.955 465.606 268.955L465.36 272.794C465.36 272.794 483.872 275.282 487.703 275.735C491.535 276.188 494.929 277.992 495.604 279.121C496.28 280.25 497.639 281.378 496.963 284.496C496.288 287.613 491.773 292.174 491.773 292.174C491.558 291.851 502.63 291.053 502.522 289.87C502.284 287.521 501.033 280.657 501.033 280.657L495.397 275.213Z" fill="#ADA4EE"/>
<path opacity="0.5" d="M495.397 275.213L488.609 271.635C486.865 271.538 485.13 271.312 483.419 270.959C481.837 270.506 465.606 268.955 465.606 268.955L465.36 272.794C465.36 272.794 483.872 275.282 487.703 275.735C491.535 276.188 494.929 277.992 495.604 279.121C496.28 280.25 497.639 281.378 496.963 284.496C496.288 287.613 491.773 292.174 491.773 292.174C491.596 291.828 502.653 291.045 502.522 289.87C502.161 286.876 501.033 280.657 501.033 280.657L495.397 275.213Z" fill="white"/>
<path d="M517.786 237.651C517.187 234.841 512.719 235.217 510.024 233.658C507.329 232.1 500.81 228.491 500.81 228.491L497.654 223.746C497.085 222.467 496.625 221.141 496.28 219.784L495.942 218.847L495.328 219.83C495.719 224.038 496.095 234.81 496.095 234.81L497.447 241.582C497.447 241.582 502.645 263.926 503.996 268.894C505.348 273.861 505.348 277.24 504.449 278.821C503.551 280.403 503.85 281.125 503.85 281.125C503.85 281.125 507.375 278.399 507.16 275.696C506.876 272.518 518.209 239.555 517.786 237.651Z" fill="#ADA4EE"/>
<path opacity="0.5" d="M517.786 237.651C517.479 234.795 512.719 235.217 510.024 233.658C507.329 232.1 500.81 228.491 500.81 228.491L497.654 223.746C497.085 222.467 496.625 221.141 496.28 219.784L495.942 218.847L495.328 219.83C495.719 224.038 496.095 234.81 496.095 234.81L497.447 241.582C497.447 241.582 502.645 263.926 503.996 268.894C505.348 273.861 505.348 277.24 504.449 278.821C503.551 280.403 503.85 281.125 503.85 281.125C503.85 281.125 507.475 278.392 507.16 275.696C506.799 272.802 518.063 240.024 517.786 237.651Z" fill="white"/>
<path d="M498.062 234.833C498.062 234.833 496.649 222.141 495.942 218.847C495.236 215.553 495.712 213.68 492.656 213.68C489.6 213.68 485.838 213.204 486.514 214.855C487.189 216.505 491.888 215.085 492.656 215.791C493.424 216.498 492.887 218.141 492.887 218.141C492.887 218.141 486.744 218.617 486.744 220.26C486.744 221.903 486.982 226.403 488.157 226.84C489.332 227.278 489.8 224.729 489.8 224.729C489.8 224.729 490.038 230.104 491.213 232.015C491.961 233.196 492.828 234.297 493.8 235.302L498.062 234.833Z" fill="white" stroke="#263238" stroke-width="0.124357" stroke-miterlimit="10" stroke-linecap="round"/>
<path d="M493.831 238.358C493.831 238.358 493.124 267.535 494.299 272.211C495.474 276.887 501.824 283.26 505.11 280.204C508.396 277.148 506.761 270.568 506.761 267.512C506.761 264.456 499.236 241.89 499.236 240.239C499.124 238.868 498.806 237.522 498.292 236.246" stroke="#263238" stroke-width="0.124357" stroke-miterlimit="10" stroke-linecap="round"/>
<path d="M494.299 241.89L498.998 241.414" stroke="#263238" stroke-width="0.124357" stroke-miterlimit="10" stroke-linecap="round"/>
<path d="M464.247 256.478L465.153 230.518C465.153 230.518 464.024 229.842 463.571 232.323C463.118 234.803 462.895 239.778 462.895 239.778C462.895 239.778 457.474 236.392 458.833 238.419C460.192 240.446 462.442 244.968 462.442 244.968L454.058 253.315L457.897 254.896L464.247 256.478Z" fill="#ADA4EE"/>
<path opacity="0.5" d="M464.247 256.478L465.153 230.518C465.153 230.518 464.024 229.842 463.571 232.323C463.118 234.803 462.895 239.778 462.895 239.778C462.895 239.778 457.474 236.392 458.833 238.419C460.192 240.446 462.442 244.968 462.442 244.968L454.058 253.315L457.897 254.896L464.247 256.478Z" fill="white"/>
<path d="M475.487 236.315C475.487 236.315 475.057 237.85 476.862 237.85C478.666 237.85 481.837 236.568 481.837 236.568L481.607 234.019C481.607 234.019 477.269 236.131 475.487 236.315Z" fill="#ADA4EE"/>
<path opacity="0.5" d="M475.487 236.315C475.487 236.315 475.057 237.85 476.862 237.85C478.666 237.85 481.837 236.568 481.837 236.568L481.607 234.019C481.607 234.019 477.269 236.131 475.487 236.315Z" fill="white"/>
<path d="M483.235 219.146C483.235 219.146 480.885 232.967 482.298 236.038C483.711 239.11 485.822 238.388 487.465 236.983C489.108 235.578 491.228 232.046 491.228 232.046" stroke="#263238" stroke-width="0.124357" stroke-miterlimit="10" stroke-linecap="round"/>
<path d="M464.676 269.155L465.152 288.435C465.152 288.435 470.527 293.602 480.9 293.602C491.274 293.602 502.53 289.84 502.53 289.84V283.022" stroke="#263238" stroke-width="0.124357" stroke-miterlimit="10" stroke-linecap="round"/>
<path d="M496.418 221.903C496.418 221.903 500.649 226.134 500.649 230.134C500.649 234.135 499.942 235.071 499.942 235.071" stroke="#263238" stroke-width="0.124357" stroke-miterlimit="10" stroke-linecap="round"/>
<path d="M500.172 227.785C500.172 227.785 506.522 231.539 510.047 233.658C513.571 235.778 517.809 235.77 517.809 237.651C517.809 239.532 507.935 271.504 507.935 271.504" stroke="#263238" stroke-width="0.124357" stroke-miterlimit="10" stroke-linecap="round"/>
<path d="M504.173 238.357L501.824 247.763" stroke="#263238" stroke-width="0.124357" stroke-miterlimit="10" stroke-linecap="round"/>
<path d="M464.738 243.878L460.938 235.908" stroke="#263238" stroke-width="0.0621787" stroke-miterlimit="10" stroke-linecap="round"/>
<path d="M464.738 246.159L459.041 242.742" stroke="#263238" stroke-width="0.0621787" stroke-miterlimit="10" stroke-linecap="round"/>
<path d="M483.326 263.987L482.19 269.685" stroke="#263238" stroke-width="0.0621787" stroke-miterlimit="10" stroke-linecap="round"/>
<path d="M514.062 237.429C514.062 237.429 508.373 238.565 503.06 245.015" stroke="#263238" stroke-width="0.0621787" stroke-miterlimit="10" stroke-linecap="round"/>
<path d="M510.27 237.083C510.27 237.083 508.734 236.699 503.444 241.252" stroke="#263238" stroke-width="0.0621787" stroke-miterlimit="10" stroke-linecap="round"/>
<path d="M483.327 238.949L481.054 256.777L482.951 257.161L484.471 251.472" stroke="#263238" stroke-width="0.0621787" stroke-miterlimit="10" stroke-linecap="round"/>
<path d="M484.847 285.617C478.013 291.314 468.531 290.93 468.531 290.93" stroke="#263238" stroke-width="0.0621787" stroke-miterlimit="10" stroke-linecap="round"/>
<path d="M455.969 254.651C455.969 254.651 451.324 250.397 444.744 255.81" stroke="#263238" stroke-width="0.0621787" stroke-miterlimit="10" stroke-linecap="round"/>
<path d="M482.782 222.609C482.782 222.609 480.901 223.078 478.782 226.372C476.662 229.666 474.083 235.301 475.964 235.77C477.845 236.238 481.338 234.127 481.338 234.127" stroke="#263238" stroke-width="0.124357" stroke-miterlimit="10" stroke-linecap="round"/>
<path d="M490.068 235.071L492.418 237.183" stroke="#263238" stroke-width="0.124357" stroke-miterlimit="10" stroke-linecap="round"/>
<path d="M479.488 224.959C479.488 224.959 470.789 226.134 467.264 226.372C463.74 226.61 464.423 227.908 463.272 228.722C461.414 230.019 440.099 257.039 438.701 259.626C437.304 262.214 437.527 263.389 439.876 264.095C442.226 264.802 465.629 268.917 465.629 268.917L486.306 271.036L487.949 265.861C487.949 265.861 492.756 266.498 493.601 266.498" stroke="#263238" stroke-width="0.124357" stroke-miterlimit="10" stroke-linecap="round"/>
<path d="M485.599 263.957C481.036 262.633 476.625 260.831 472.439 258.582" stroke="#263238" stroke-width="0.124357" stroke-miterlimit="10" stroke-linecap="round"/>
<path d="M470.558 258.106C470.558 258.106 463.648 255.541 459.909 255.073C456.169 254.604 450.441 254.451 450.441 254.451" stroke="#263238" stroke-width="0.124357" stroke-miterlimit="10" stroke-linecap="round"/>
<path d="M464.208 255.05L464.914 236.477" stroke="#263238" stroke-width="0.124357" stroke-miterlimit="10" stroke-linecap="round"/>
<path d="M486.306 271.036C487.919 271.847 489.609 272.495 491.351 272.971" stroke="#263238" stroke-width="0.124357" stroke-miterlimit="10" stroke-linecap="round"/>
<path d="M178.664 256.071L181.436 240.922L198.981 234.012C198.981 234.012 199.833 229.305 200.693 229.098C201.553 228.89 202.397 226.955 202.397 226.955L201.975 223.078C201.975 223.078 203.58 216.935 211.65 221.719C211.65 221.719 209.208 223.347 209.63 224.022C210.053 224.698 209.162 226.848 210.229 226.848C211.296 226.848 213.454 228.207 214.544 229.305C215.307 230.125 215.982 231.023 216.556 231.985L225.639 232.507C226.57 232.514 227.497 232.641 228.396 232.883C228.549 228.445 228.004 225.059 226.929 222.425C223.021 212.92 215.896 209.526 214.874 204.765C213.853 200.005 214.368 199.506 214.368 199.506C215.406 198.45 216.166 197.153 216.58 195.731C216.994 194.31 217.049 192.807 216.74 191.359C215.727 186.269 211.819 182.698 197.729 182.023C183.64 181.347 185.682 191.014 185.682 191.014L185.851 191.689C185.851 191.689 176.852 194.761 178.557 206.117C180.261 217.473 185.175 222.41 185.006 225.973C184.837 229.535 179.57 230.894 172.099 239.025C164.628 247.157 163.108 259.388 166.164 267.366C167.7 271.289 170.702 274.56 174.472 277.002L178.664 256.071Z" fill="#263238"/>
<path d="M190.427 257.568V260.993L183.924 281.087C187.988 282.162 192.249 282.251 196.355 281.348C198.672 280.744 200.887 279.799 202.927 278.545L190.427 257.568Z" fill="#263238"/>
<path d="M209.123 223.899L209.891 227.355C209.891 227.355 212.195 225.051 216.694 232.046C216.694 232.046 226.046 231.823 228.595 233.098C228.595 233.098 229.125 233.251 230.853 235.087C232.58 236.922 239.076 242.765 239.076 242.765C239.076 242.765 247.415 250.504 248.244 251.103C249.073 251.702 252.183 254.674 254.509 255.71L260.744 241.513L263.523 234.488L265.059 228.706H265.55L265.658 224.045L265.282 218.486C265.343 218.204 265.472 217.94 265.658 217.719C266.302 216.826 266.797 215.836 267.124 214.785C267.124 214.263 266.595 211.177 266.595 211.177C266.595 211.177 266.334 210.409 266.902 210.317C267.47 210.225 269.566 210.954 269.827 212.421L270.595 212.16C271.231 210.64 272.023 209.192 272.96 207.837C274.204 206.224 275.478 205.211 276.269 205.733C276.486 205.883 276.643 206.105 276.71 206.36C276.778 206.614 276.752 206.885 276.638 207.123L274.165 211.668C274.165 211.668 273.075 213.135 274.426 213.657C274.426 213.657 277.352 215.538 277.544 217.189C277.736 218.84 276.676 220.26 275.739 221.473C274.803 222.686 273.152 225.312 273.152 225.312L271.232 227.009L270.464 229.935L271.371 231.063L270.019 236.922L269.044 241.314L268.553 243.978L265.481 254.497L262.41 263.665C262.41 263.665 260.828 268.917 256.997 268.771C253.166 268.625 248.966 266.552 247.607 265.876C246.247 265.2 235.045 259.35 235.045 259.35L232.742 258.259C233.049 259.308 233.181 260.4 233.133 261.492C233.095 263.519 230.914 267.988 230.277 269.001L229.901 276.925C229.752 278.3 229.778 279.688 229.977 281.056C230.315 283.121 232.043 294.808 232.419 296.266C232.419 296.266 228.687 299.645 217.569 301.25C206.451 302.854 201.246 300.251 201.246 300.251L196.293 297.341L202.397 285.279C202.397 285.279 203.933 281.693 203.779 280.749C203.626 279.804 201 275.735 201 275.735L191.364 258.582L190.911 258.735L189.414 263.742L184 280.718L176.875 301.91C176.875 301.91 174.925 307.285 174.119 308.874L171.869 315.731C171.994 316.955 172.296 318.156 172.767 319.293L167.108 315.631L168.114 310.256L169.366 302.24L170.901 293.525L172.253 286.315L174.41 276.702L175.178 274.046L176.714 266.536L179.417 252.915L181.72 241.252L197.844 234.841L198.85 234.073C199.074 232.589 199.619 231.171 200.447 229.919C201.022 229.096 201.707 228.354 202.482 227.716C202.482 227.716 202.405 226.71 202.351 225.758C202.298 224.805 202.052 223.055 202.052 223.055C202.052 223.055 207.035 225.197 209.123 223.899Z" fill="white"/>
<path d="M187.525 193.041C187.525 193.041 190.512 186.43 196.485 186.43C202.459 186.43 214.829 198.162 214.829 198.162" stroke="white" stroke-width="0.0621787" stroke-miterlimit="10" stroke-linecap="round"/>
<path d="M190.081 194.085C190.081 194.085 193.705 190.246 198.189 191.735C202.673 193.225 203.311 198.561 203.311 198.561" stroke="white" stroke-width="0.0621787" stroke-miterlimit="10" stroke-linecap="round"/>
<path d="M187.094 194.745C187.094 194.745 181.766 197.732 181.336 203.283C180.906 208.835 188.799 215.438 189.866 222.909C190.934 230.38 185.39 232.076 176.429 238.265C167.469 244.454 168.966 258.313 170.886 261.3" stroke="white" stroke-width="0.0621787" stroke-miterlimit="10" stroke-linecap="round"/>
<path d="M171.954 263.012C171.954 263.012 173.228 265.784 175.148 266.636" stroke="white" stroke-width="0.0621787" stroke-miterlimit="10" stroke-linecap="round"/>
<path d="M187.74 209.25C187.487 209.791 187.374 210.388 187.41 210.984C187.447 211.581 187.631 212.159 187.947 212.666C189.014 214.586 197.161 224.184 196.485 228.668C195.81 233.152 191.579 235.916 191.579 235.916" stroke="white" stroke-width="0.0621787" stroke-miterlimit="10" stroke-linecap="round"/>
<path d="M191.786 194.745C191.786 194.745 186.88 196.88 187.095 201.786C187.31 206.692 188.377 207.975 188.377 207.975" stroke="white" stroke-width="0.0621787" stroke-miterlimit="10" stroke-linecap="round"/>
<path d="M214.829 210.977C216.353 214.428 218.445 217.6 221.017 220.36C224.856 224.199 225.279 229.75 225.279 229.75" stroke="white" stroke-width="0.0621787" stroke-miterlimit="10" stroke-linecap="round"/>
<path d="M219.305 223.117C219.305 223.117 221.224 227.601 221.224 230.373" stroke="white" stroke-width="0.0621787" stroke-miterlimit="10" stroke-linecap="round"/>
<path d="M208.686 224.306L202.658 229.735C202.658 229.735 202.013 231.378 200.8 234.011C199.587 236.645 199.787 241.69 199.787 241.69L203.503 249.084C203.503 249.084 196.355 240.883 195.948 239.87C195.541 238.856 188.062 240.684 186.649 241.29C185.237 241.897 183.409 243.11 183.816 244.93C184.223 246.749 186.043 249.168 185.229 249.575C184.415 249.982 182.196 248.968 182.196 250.182C182.196 251.395 184.83 256.048 183.616 257.66C182.403 259.273 174.717 285.363 174.717 285.363C174.717 285.363 179.57 281.317 178.357 282.937C177.144 284.557 171.285 297.694 171.285 297.694L169.059 305.372L174.318 278.084L178.764 255.05L181.436 240.922C184.016 240.062 198.98 234.011 198.98 234.011C198.98 234.011 200.163 229.036 202.397 226.955L201.975 223.078C201.975 223.078 206.052 224.506 208.686 224.306Z" fill="#ADA4EE"/>
<path opacity="0.5" d="M208.686 224.306L202.658 229.735C202.658 229.735 202.013 231.378 200.8 234.011C199.587 236.645 199.787 241.69 199.787 241.69L203.503 249.084C203.503 249.084 196.355 240.883 195.948 239.87C195.541 238.856 188.062 240.684 186.649 241.29C185.237 241.897 183.409 243.11 183.816 244.93C184.223 246.749 186.043 249.168 185.229 249.575C184.415 249.982 182.196 248.968 182.196 250.182C182.196 251.395 184.83 256.048 183.616 257.66C182.403 259.273 174.717 285.363 174.717 285.363C174.717 285.363 179.57 281.317 178.357 282.937C177.144 284.557 171.285 297.694 171.285 297.694L169.059 305.372L174.318 278.084L178.764 255.05L181.436 240.922C184.016 240.062 198.98 234.011 198.98 234.011C198.98 234.011 199.303 229.404 202.405 227.792L201.975 223.078C201.975 223.078 206.052 224.506 208.686 224.306Z" fill="white"/>
<path d="M231.121 251.595C231.121 251.595 234.761 245.537 235.168 246.949C235.574 248.362 234.154 253.207 234.154 253.207C234.154 253.207 237.993 251.794 237.594 253.008C237.195 254.221 236.381 254.827 236.58 255.434C236.78 256.04 249.925 262.912 251.545 263.719C253.165 264.525 257.004 259.879 258.824 261.292C260.644 262.705 258.824 267.55 255.185 267.558C251.545 267.565 241.034 262.951 241.034 262.951L232.757 258.137" fill="#ADA4EE"/>
<path opacity="0.5" d="M231.121 251.595C231.121 251.595 234.761 245.537 235.168 246.949C235.574 248.362 234.154 253.207 234.154 253.207C234.154 253.207 237.993 251.794 237.594 253.008C237.195 254.221 236.381 254.827 236.58 255.434C236.78 256.04 249.925 262.912 251.545 263.719C253.165 264.525 257.004 259.879 258.824 261.292C260.644 262.705 258.824 267.55 255.185 267.558C251.545 267.565 241.034 262.951 241.034 262.951L232.787 258.152" fill="white"/>
<path d="M209.292 276.057C209.292 276.057 232.926 263.526 229.087 268.171C225.248 272.817 212.525 278.084 209.292 276.057Z" fill="#ADA4EE"/>
<path opacity="0.5" d="M209.292 276.057C209.292 276.057 232.926 263.526 229.087 268.171C225.248 272.817 212.525 278.084 209.292 276.057Z" fill="white"/>
<path d="M201.975 223.117C201.975 223.117 202.144 226.342 202.658 229.735C203.173 233.129 202.996 233.129 206.221 237.198C209.446 241.268 212.84 244.669 213.346 243.994" stroke="#263238" stroke-width="0.124357" stroke-miterlimit="10" stroke-linecap="round"/>
<path d="M213.515 242.803C213.515 242.803 213.853 236.86 212.671 232.96C211.488 229.059 209.784 227.693 209.784 226.817C209.726 225.905 209.613 224.997 209.446 224.099" stroke="#263238" stroke-width="0.124357" stroke-miterlimit="10" stroke-linecap="round"/>
<path d="M201.975 228.038C200.619 229.259 199.67 230.867 199.257 232.645C198.75 235.355 198.243 238.58 198.243 238.58L203.503 249.107C203.961 247.274 204.644 245.505 205.537 243.84C205.98 243.018 206.553 242.274 207.234 241.636" stroke="#263238" stroke-width="0.124357" stroke-miterlimit="10" stroke-linecap="round"/>
<path d="M214.706 239.916C215.077 239.823 215.463 239.805 215.841 239.863C216.22 239.921 216.583 240.054 216.909 240.254C218.268 240.938 220.986 244.5 220.986 244.5C220.986 244.5 219.12 235.67 215.896 231.094C212.671 226.518 210.459 226.848 210.459 226.848" stroke="#263238" stroke-width="0.124357" stroke-miterlimit="10" stroke-linecap="round"/>
<path d="M197.728 234.657L181.435 240.922C181.435 240.922 175.5 273.339 173.289 281.993C171.077 290.646 167.354 315.093 167.354 315.093L171.761 315.938L173.296 311.531" stroke="#263238" stroke-width="0.117243" stroke-linecap="round" stroke-linejoin="round"/>
<path d="M174.142 308.997C174.142 308.997 175.155 307.461 177.873 299.015C180.591 290.569 187.855 269.838 189.076 265.746C190.297 261.653 191.279 258.958 191.279 258.958" stroke="#263238" stroke-width="0.124357" stroke-miterlimit="10" stroke-linecap="round"/>
<path d="M188.393 253.975C188.393 253.975 202.137 278.545 203.327 279.604C204.517 280.664 202.82 283.505 202.474 285.033" stroke="#263238" stroke-width="0.124357" stroke-miterlimit="10" stroke-linecap="round"/>
<path d="M200.954 288.12L196.546 297.288C196.546 297.288 199.433 301.703 211.649 301.703C218.919 301.725 226.085 299.975 232.526 296.605C232.526 296.605 229.639 281.333 229.808 278.615C229.977 275.897 230.323 268.771 230.323 268.771C230.323 268.771 233.394 264.164 233.033 260.625C232.672 257.085 231.167 252.985 231.167 252.309C231.167 251.633 230.83 244.332 230.83 244.332" stroke="#263238" stroke-width="0.124357" stroke-miterlimit="10" stroke-linecap="round"/>
<path d="M211.626 273.032L223.789 265.569" stroke="#263238" stroke-width="0.0621787" stroke-miterlimit="10" stroke-linecap="round"/>
<path d="M218.03 270.69L224.641 266.851" stroke="#263238" stroke-width="0.0621787" stroke-miterlimit="10" stroke-linecap="round"/>
<path d="M254.425 255.871L251.945 261.945" stroke="#263238" stroke-width="0.0621787" stroke-miterlimit="10" stroke-linecap="round"/>
<path d="M253.434 258.528L251.092 260.877" stroke="#263238" stroke-width="0.0621787" stroke-miterlimit="10" stroke-linecap="round"/>
<path d="M184.108 280.081C184.108 280.081 180.054 284.772 177.282 286.692" stroke="#263238" stroke-width="0.0621787" stroke-miterlimit="10" stroke-linecap="round"/>
<path d="M181.766 281.355C181.766 281.355 174.725 286.899 173.021 288.181" stroke="#263238" stroke-width="0.0621787" stroke-miterlimit="10" stroke-linecap="round"/>
<path d="M183.018 241.889C185.14 244.89 187.064 248.027 188.776 251.28" stroke="#263238" stroke-width="0.0621787" stroke-miterlimit="10" stroke-linecap="round"/>
<path d="M189.444 252.769L190.934 255.326" stroke="#263238" stroke-width="0.0621787" stroke-miterlimit="10" stroke-linecap="round"/>
<path d="M231.167 252.309L233.033 242.803" stroke="#263238" stroke-width="0.0621787" stroke-miterlimit="10" stroke-linecap="round"/>
<path d="M231.851 252.984L234.73 248.915" stroke="#263238" stroke-width="0.0621787" stroke-miterlimit="10" stroke-linecap="round"/>
<path d="M191.279 258.928L183.133 254.513" stroke="#263238" stroke-width="0.0621787" stroke-miterlimit="10" stroke-linecap="round"/>
<path d="M213.178 244.837C213.178 244.837 216.249 250.98 217.255 255.364" stroke="#263238" stroke-width="0.0621787" stroke-miterlimit="10" stroke-linecap="round"/>
<path d="M263.585 234.142C264.397 234.082 265.213 234.188 265.984 234.452C266.755 234.715 267.464 235.133 268.069 235.678" stroke="#263238" stroke-width="0.0621787" stroke-miterlimit="10" stroke-linecap="round"/>
<path d="M170.302 310.878L172.406 311.661" stroke="#263238" stroke-width="0.0621787" stroke-miterlimit="10" stroke-linecap="round"/>
<path d="M167.3 315.401C167.327 318.32 167.173 321.238 166.84 324.139C166.333 327.709 166.502 335.856 167.177 338.397C167.853 340.939 168.199 341.468 168.874 339.933C169.55 338.397 171.592 329.414 171.592 329.414C171.592 329.414 171.93 335.349 173.458 334.842C174.986 334.335 174.142 331.448 174.142 328.899C174.142 326.35 174.31 325.505 174.142 323.471C173.973 321.436 171.708 316.407 171.708 316.407" fill="white"/>
<path d="M167.3 315.401C167.327 318.32 167.173 321.238 166.84 324.139C166.333 327.709 166.502 335.856 167.177 338.397C167.853 340.939 168.199 341.468 168.874 339.933C169.55 338.397 171.592 329.414 171.592 329.414C171.592 329.414 171.93 335.349 173.458 334.842C174.986 334.335 174.142 331.448 174.142 328.899C174.142 326.35 174.31 325.505 174.142 323.471C173.973 321.436 171.708 316.407 171.708 316.407" stroke="#263238" stroke-width="0.117243" stroke-miterlimit="10" stroke-linecap="round"/>
<path d="M265.565 228.575C265.488 227.074 265.488 225.569 265.565 224.068C265.704 222.655 265.143 220.544 265.281 218.693C265.42 216.843 267.255 216.159 266.971 213.764C266.686 211.368 266.126 211.084 266.548 210.524C266.971 209.963 269.62 210.8 269.788 212.351C269.939 213.947 269.939 215.554 269.788 217.15C269.65 217.572 270.633 220.221 270.073 221.373C269.751 221.997 269.514 222.66 269.366 223.346" stroke="#263238" stroke-width="0.103273" stroke-miterlimit="10" stroke-linecap="round"/>
<path d="M270.357 212.229C270.357 212.229 273.598 205.749 275.433 205.603C277.268 205.457 276.7 207.138 276.131 207.998C275.563 208.858 273.736 211.945 273.598 213.219C273.459 214.494 271.763 218.709 271.763 218.709" stroke="#263238" stroke-width="0.103273" stroke-miterlimit="10" stroke-linecap="round"/>
<path d="M273.62 213.219C273.62 213.219 278.557 216.175 277.459 218.594C276.361 221.013 275.762 221.98 274.918 221.665C274.169 221.283 273.499 220.762 272.944 220.13" stroke="#263238" stroke-width="0.103273" stroke-miterlimit="10" stroke-linecap="round"/>
<path d="M275.432 221.672C275.432 221.672 274.157 223.784 273.174 225.058C272.609 225.795 271.939 226.444 271.186 226.986L270.587 229.066" stroke="#263238" stroke-width="0.103273" stroke-miterlimit="10" stroke-linecap="round"/>
<path d="M216.233 231.938C216.233 231.938 227.943 231.769 229.471 233.635C230.999 235.501 249.503 252.477 251.737 254.005C253.972 255.533 254.455 255.871 254.455 255.871C254.455 255.871 263.616 235.14 263.616 234.142C263.616 233.144 265.151 228.544 265.151 228.544C265.151 228.544 268.038 228.882 268.721 228.882C269.405 228.882 271.263 231.094 271.263 231.094C271.263 231.094 268.721 241.444 268.721 242.611C268.721 243.778 263.969 259.925 261.757 264.878C259.546 269.83 256.498 269.116 251.576 267.588C246.654 266.06 233.248 258.428 233.248 258.428" stroke="#263238" stroke-width="0.124357" stroke-miterlimit="10" stroke-linecap="round"/>
<path d="M196.547 297.288C196.547 297.288 189.751 314.287 187.916 325.858C186.081 337.429 186.864 364.487 186.335 367.382C185.805 370.276 178.449 383.936 178.449 390.509C178.449 397.081 174.51 430.98 174.51 430.98L177.136 432.554C177.136 432.554 186.35 404.145 189.751 396.812C193.153 389.48 197.898 372.112 199.211 368.695C200.524 365.278 209.73 337.944 210.252 334.527C210.774 331.11 213.93 322.702 213.93 322.702C213.93 322.702 220.764 364.487 222.077 373.163C223.39 381.84 232.588 428.876 232.588 428.876C233.192 429.024 233.809 429.112 234.431 429.137C235.199 429.137 235.483 427.825 235.483 427.825C235.483 427.825 239.161 394.447 238.109 385.51C237.057 376.573 233.909 365.547 233.909 362.383C233.909 359.22 238.638 331.901 238.638 322.457C238.638 313.013 232.496 296.62 232.496 296.62C232.496 296.62 210.698 307.615 196.547 297.288Z" fill="#263238"/>
<path d="M233.809 364.119C233.809 364.119 231.467 374.146 228.265 379.475" stroke="white" stroke-width="0.0621787" stroke-miterlimit="10" stroke-linecap="round"/>
<path d="M233.171 374.361C233.171 374.361 231.252 381.61 227.413 385.026" stroke="white" stroke-width="0.0621787" stroke-miterlimit="10" stroke-linecap="round"/>
<path d="M187.739 371.16C187.739 371.16 189.229 379.905 190.933 383.529" stroke="white" stroke-width="0.0621787" stroke-miterlimit="10" stroke-linecap="round"/>
<path d="M187.31 376.281C187.31 376.281 188.592 382.469 190.934 386.093" stroke="white" stroke-width="0.0621787" stroke-miterlimit="10" stroke-linecap="round"/>
<path d="M214.614 322.741L223.144 315.7" stroke="white" stroke-width="0.0621787" stroke-miterlimit="10" stroke-linecap="round"/>
<path d="M218.667 319.754L228.695 315.27" stroke="white" stroke-width="0.0621787" stroke-miterlimit="10" stroke-linecap="round"/>
<path d="M196.692 307.807C196.692 307.807 203.311 312.068 207.15 315.7" stroke="white" stroke-width="0.0621787" stroke-miterlimit="10" stroke-linecap="round"/>
<path d="M174.786 430.957C174.786 430.957 164.805 439.403 164.805 443.595C164.805 447.788 168.744 447.534 172.951 443.595C177.159 439.656 177.374 431.541 177.374 431.541L174.786 430.957Z" fill="white" stroke="#263238" stroke-width="0.124357" stroke-miterlimit="10" stroke-linecap="round"/>
<path d="M232.588 428.876C232.588 428.876 236.005 437.284 239.69 440.969C243.376 444.655 245.472 445.96 245.472 442.013C245.472 438.067 243.107 433.606 235.49 427.824C235.483 427.824 237.586 429.398 232.588 428.876Z" fill="white" stroke="#263238" stroke-width="0.124357" stroke-miterlimit="10" stroke-linecap="round"/>
<path d="M197.33 196.158C196.646 195.905 196.001 195.598 195.333 195.314C194.665 195.03 193.444 194.876 192.984 196.972C192.3 200.044 197.053 202.577 195.525 205.119C194.575 206.665 193.146 207.859 191.456 208.52C191.181 208.615 190.894 208.672 190.604 208.689C189.245 208.858 187.041 208.689 187.717 211.062C188.392 213.434 190.604 215.477 191.963 215.477H193.322C193.322 215.477 194.857 220.084 200.616 222.602C206.375 225.121 210.29 224.982 211.649 221.758C213.009 218.533 214.03 215.815 214.03 211.569C214.03 207.323 212.494 200.197 212.494 200.197C212.494 200.197 211.135 202.071 205.875 199.69C202.397 198.116 199.142 196.842 197.33 196.158Z" fill="white"/>
<mask id="mask1_747_8246" style="mask-type:luminance" maskUnits="userSpaceOnUse" x="187" y="195" width="28" height="30">
<path d="M197.33 196.158C196.646 195.905 196.001 195.598 195.333 195.314C194.665 195.03 193.444 194.876 192.984 196.972C192.3 200.044 197.053 202.577 195.525 205.119C194.575 206.665 193.146 207.859 191.456 208.52C191.181 208.615 190.894 208.672 190.604 208.689C189.245 208.858 187.041 208.689 187.717 211.062C188.392 213.434 190.604 215.477 191.963 215.477H193.322C193.322 215.477 194.857 220.084 200.616 222.602C206.375 225.121 210.29 224.982 211.649 221.758C213.009 218.533 214.03 215.815 214.03 211.569C214.03 207.323 212.494 200.197 212.494 200.197C212.494 200.197 211.135 202.071 205.875 199.69C202.397 198.116 199.142 196.842 197.33 196.158Z" fill="white"/>
</mask>
<g mask="url(#mask1_747_8246)">
<g style="mix-blend-mode:multiply" opacity="0.5">
<path d="M205.883 199.69C205.883 199.69 197.767 199.237 196.554 199.437C195.341 199.636 196.754 203.276 196.354 206.915C195.955 210.555 196.147 216.421 197.767 218.241C199.679 220.117 201.705 221.873 203.833 223.5C203.833 223.5 197.606 222.494 195.341 219.861C193.076 217.227 192.715 215.814 192.715 215.814C192.715 215.814 187.455 212.743 187.048 210.355C186.642 207.967 190.12 209.234 191.786 208.052C192.723 207.407 196.6 206.194 195.625 202.961C194.65 199.729 193.076 199.122 193.014 196.957C192.968 195.421 194.32 194.976 195.149 194.838C195.523 194.775 195.907 194.831 196.247 194.999L205.883 199.69Z" fill="#ADA4EE"/>
</g>
</g>
<path d="M197.33 196.158C196.646 195.905 196.001 195.598 195.333 195.314C194.665 195.03 193.444 194.876 192.984 196.972C192.3 200.044 197.053 202.577 195.525 205.119C194.575 206.665 193.146 207.859 191.456 208.52C191.181 208.615 190.894 208.672 190.604 208.689C189.245 208.858 187.041 208.689 187.717 211.062C188.392 213.434 190.604 215.477 191.963 215.477H193.322C193.322 215.477 194.857 220.084 200.616 222.602C206.375 225.121 210.29 224.982 211.649 221.758C213.009 218.533 214.03 215.815 214.03 211.569C214.03 207.323 212.494 200.197 212.494 200.197C212.494 200.197 211.135 202.071 205.875 199.69C202.397 198.116 199.142 196.842 197.33 196.158Z" stroke="#263238" stroke-width="0.124357" stroke-miterlimit="10" stroke-linecap="round"/>
<path d="M203.326 206.217C203.434 206.862 203.257 207.43 202.927 207.484C202.597 207.537 202.259 207.054 202.159 206.409C202.059 205.764 202.236 205.188 202.558 205.134C202.881 205.08 203.219 205.603 203.326 206.217Z" fill="#263238"/>
<path d="M210.351 205.042C210.451 205.687 210.275 206.255 209.952 206.309C209.63 206.363 209.284 205.879 209.184 205.234C209.085 204.589 209.253 204.021 209.576 203.967C209.898 203.913 210.244 204.397 210.351 205.042Z" fill="#263238"/>
<path d="M199.257 203.084C199.686 202.446 200.269 201.925 200.952 201.569C201.635 201.214 202.395 201.035 203.165 201.05" stroke="#263238" stroke-width="0.124357" stroke-miterlimit="10" stroke-linecap="round"/>
<path d="M208.425 201.556C209.077 201.328 209.783 201.303 210.45 201.486C211.116 201.668 211.711 202.049 212.156 202.577" stroke="#263238" stroke-width="0.124357" stroke-miterlimit="10" stroke-linecap="round"/>
<path d="M207.749 204.443C207.655 205.516 207.655 206.595 207.749 207.668C207.918 209.027 208.932 209.365 208.594 210.386C208.256 211.407 206.897 211.399 206.897 211.399" stroke="#263238" stroke-width="0.124357" stroke-miterlimit="10" stroke-linecap="round"/>
<path d="M205.2 215.477C204.618 215.614 204.014 215.624 203.428 215.506C202.843 215.388 202.289 215.145 201.806 214.793" stroke="#263238" stroke-width="0.124357" stroke-miterlimit="10" stroke-linecap="round"/>
</g>
<defs>
<filter id="filter0_d_747_8246" x="0.8414" y="0.471283" width="701.317" height="578.434" filterUnits="userSpaceOnUse" color-interpolation-filters="sRGB">
<feFlood flood-opacity="0" result="BackgroundImageFix"/>
<feColorMatrix in="SourceAlpha" type="matrix" values="0 0 0 0 0 0 0 0 0 0 0 0 0 0 0 0 0 0 127 0" result="hardAlpha"/>
<feOffset dy="-1"/>
<feGaussianBlur stdDeviation="66.55"/>
<feComposite in2="hardAlpha" operator="out"/>
<feColorMatrix type="matrix" values="0 0 0 0 0.662745 0 0 0 0 0.627451 0 0 0 0 0.866667 0 0 0 0.46 0"/>
<feBlend mode="normal" in2="BackgroundImageFix" result="effect1_dropShadow_747_8246"/>
<feBlend mode="normal" in="SourceGraphic" in2="effect1_dropShadow_747_8246" result="shape"/>
</filter>
</defs>
</svg>
