<svg width="25" height="25" viewBox="0 0 25 25" fill="none" xmlns="http://www.w3.org/2000/svg">
<circle cx="12.689" cy="12.0529" r="11.504" stroke="#333333" stroke-width="0.981516"/>
<path d="M12.6898 7.49131C14.176 7.49131 14.352 7.49687 14.9391 7.52364C15.2922 7.52796 15.6418 7.59279 15.9729 7.71529C16.213 7.80789 16.4311 7.94974 16.6131 8.13171C16.795 8.31369 16.9369 8.53175 17.0295 8.77186C17.152 9.10296 17.2168 9.45262 17.2211 9.80563C17.2476 10.3928 17.2535 10.5688 17.2535 12.055C17.2535 13.5413 17.2479 13.7173 17.2211 14.3044C17.2168 14.6574 17.152 15.0071 17.0295 15.3382C16.9369 15.5783 16.795 15.7963 16.6131 15.9783C16.4311 16.1603 16.213 16.3021 15.9729 16.3947C15.6418 16.5172 15.2922 16.5821 14.9391 16.5864C14.3523 16.6129 14.1763 16.6187 12.6898 16.6187C11.2032 16.6187 11.0272 16.6132 10.4404 16.5864C10.0874 16.5821 9.73771 16.5172 9.4066 16.3947C9.16649 16.3021 8.94843 16.1603 8.76646 15.9783C8.58449 15.7963 8.44264 15.5783 8.35004 15.3382C8.22753 15.0071 8.16271 14.6574 8.15839 14.3044C8.13188 13.7173 8.12605 13.5413 8.12605 12.055C8.12605 10.5688 8.13162 10.3928 8.15839 9.80563C8.16271 9.45262 8.22753 9.10296 8.35004 8.77186C8.44264 8.53175 8.58449 8.31369 8.76646 8.13171C8.94843 7.94974 9.16649 7.80789 9.4066 7.71529C9.73771 7.59279 10.0874 7.52796 10.4404 7.52364C11.0275 7.49714 11.2035 7.49131 12.6898 7.49131ZM12.6898 6.48828C11.1789 6.48828 10.9885 6.49464 10.3948 6.52168C9.93278 6.53087 9.47568 6.61835 9.04293 6.78039C8.6717 6.92026 8.33545 7.13944 8.05766 7.42265C7.7742 7.70055 7.55482 8.03698 7.41487 8.40845C7.25283 8.8412 7.16535 9.2983 7.15616 9.7603C7.12965 10.3535 7.12329 10.5439 7.12329 12.0548C7.12329 13.5656 7.12965 13.756 7.15669 14.3497C7.16588 14.8117 7.25336 15.2688 7.4154 15.7016C7.5552 16.073 7.77439 16.4094 8.05766 16.6874C8.33561 16.9707 8.67204 17.1898 9.04346 17.3296C9.47621 17.4917 9.93331 17.5792 10.3953 17.5884C10.9891 17.6149 11.1786 17.6217 12.6903 17.6217C14.202 17.6217 14.3915 17.6154 14.9853 17.5884C15.4473 17.5792 15.9044 17.4917 16.3371 17.3296C16.7068 17.1864 17.0425 16.9675 17.3227 16.6871C17.603 16.4066 17.8216 16.0708 17.9647 15.7011C18.1267 15.2683 18.2142 14.8112 18.2234 14.3492C18.2499 13.756 18.2562 13.5656 18.2562 12.0548C18.2562 10.5439 18.2499 10.3535 18.2228 9.75977C18.2136 9.29777 18.1262 8.84067 17.9641 8.40792C17.8243 8.0365 17.6051 7.70007 17.3219 7.42212C17.0439 7.13885 16.7075 6.91966 16.3361 6.77986C15.9033 6.61782 15.4462 6.53034 14.9842 6.52115C14.391 6.49464 14.2007 6.48828 12.6898 6.48828Z" fill="#333333"/>
<path d="M12.6908 9.19727C12.1254 9.19727 11.5728 9.36491 11.1027 9.67901C10.6326 9.99311 10.2662 10.4395 10.0499 10.9619C9.83351 11.4842 9.77691 12.059 9.8872 12.6134C9.9975 13.1679 10.2697 13.6773 10.6695 14.0771C11.0693 14.4768 11.5786 14.7491 12.1331 14.8594C12.6876 14.9697 13.2624 14.9131 13.7847 14.6967C14.307 14.4803 14.7535 14.114 15.0676 13.6439C15.3817 13.1738 15.5493 12.6211 15.5493 12.0558C15.5493 11.2977 15.2481 10.5706 14.7121 10.0345C14.176 9.49843 13.4489 9.19727 12.6908 9.19727ZM12.6908 13.9113C12.3238 13.9113 11.9651 13.8024 11.6599 13.5986C11.3548 13.3947 11.117 13.1049 10.9765 12.7658C10.8361 12.4268 10.7994 12.0537 10.871 11.6938C10.9425 11.3339 11.1193 11.0032 11.3788 10.7438C11.6383 10.4843 11.9689 10.3075 12.3288 10.2359C12.6887 10.1643 13.0618 10.2011 13.4009 10.3415C13.7399 10.482 14.0297 10.7198 14.2336 11.0249C14.4375 11.3301 14.5463 11.6888 14.5463 12.0558C14.5463 12.5479 14.3508 13.0198 14.0028 13.3678C13.6548 13.7158 13.1829 13.9113 12.6908 13.9113Z" fill="#333333"/>
<path d="M15.6616 9.75197C16.0305 9.75197 16.3296 9.45291 16.3296 9.08399C16.3296 8.71508 16.0305 8.41602 15.6616 8.41602C15.2927 8.41602 14.9937 8.71508 14.9937 9.08399C14.9937 9.45291 15.2927 9.75197 15.6616 9.75197Z" fill="#333333"/>
</svg>
