<svg width="65" height="64" viewBox="0 0 65 64" fill="none" xmlns="http://www.w3.org/2000/svg">
<path d="M53.8337 26.6663C53.8337 39.981 39.063 53.8477 34.103 58.1303C33.6409 58.4778 33.0785 58.6657 32.5003 58.6657C31.9222 58.6657 31.3597 58.4778 30.8977 58.1303C25.9377 53.8477 11.167 39.981 11.167 26.6663C11.167 21.0084 13.4146 15.5822 17.4154 11.5814C21.4162 7.58062 26.8424 5.33301 32.5003 5.33301C38.1583 5.33301 43.5845 7.58062 47.5853 11.5814C51.586 15.5822 53.8337 21.0084 53.8337 26.6663Z" stroke="#14161A" stroke-width="3" stroke-linecap="round" stroke-linejoin="round"/>
<path d="M32.5 34.667C36.9183 34.667 40.5 31.0853 40.5 26.667C40.5 22.2487 36.9183 18.667 32.5 18.667C28.0817 18.667 24.5 22.2487 24.5 26.667C24.5 31.0853 28.0817 34.667 32.5 34.667Z" stroke="#14161A" stroke-width="3" stroke-linecap="round" stroke-linejoin="round"/>
</svg>
