<?xml version="1.0" encoding="UTF-8"?>
<svg id="Layer_1" xmlns="http://www.w3.org/2000/svg" version="1.1" viewBox="0 0 135 28">
  <!-- Generator: Adobe Illustrator 29.4.0, SVG Export Plug-In . SVG Version: 2.1.0 Build 152)  -->
  <defs>
    <style>
      .st0 {
        display: none;
      }

      .st0, .st1 {
        fill: #29415b;
      }

      .st2 {
        fill: #fec107;
      }

      .st3 {
        fill: #fff;
      }

      .st4 {
        fill: #bb5d5e;
      }

      .st5 {
        fill: #ee7846;
      }
    </style>
  </defs>
  <g>
    <path class="st5" d="M-114.05,31.03c-1.11,0-2.09-.25-2.92-.77-.83-.51-1.48-1.23-1.94-2.15s-.69-1.99-.69-3.21.23-2.31.69-3.24c.46-.92,1.11-1.64,1.94-2.15s1.81-.77,2.92-.77,2.1.26,2.93.77,1.48,1.23,1.94,2.15c.46.93.69,2,.69,3.24s-.23,2.29-.69,3.21c-.46.92-1.11,1.64-1.94,2.15s-1.81.77-2.93.77ZM-114.05,29.05c.72,0,1.32-.19,1.79-.57s.82-.88,1.05-1.51c.23-.63.35-1.32.35-2.07s-.12-1.46-.35-2.09c-.23-.63-.58-1.14-1.05-1.52-.47-.38-1.07-.57-1.79-.57s-1.31.19-1.78.57-.82.88-1.05,1.51c-.23.63-.35,1.33-.35,2.1s.12,1.44.35,2.07c.23.63.58,1.13,1.05,1.51.47.38,1.06.57,1.78.57Z"/>
    <path class="st5" d="M-102.35,31.05c-.75,0-1.43-.14-2.04-.42s-1.09-.69-1.45-1.23c-.35-.54-.53-1.2-.53-1.98,0-.67.13-1.23.39-1.66s.61-.78,1.05-1.03.94-.45,1.48-.57c.54-.13,1.09-.22,1.65-.29.7-.08,1.27-.15,1.71-.21.44-.05.76-.14.97-.27s.31-.32.31-.6v-.06c0-.45-.09-.82-.26-1.13-.17-.3-.42-.54-.76-.71-.34-.17-.76-.25-1.26-.25s-.96.08-1.33.24-.67.36-.9.61-.4.51-.52.78l-2.2-.58c.27-.71.66-1.28,1.16-1.71s1.08-.75,1.73-.95,1.33-.3,2.02-.3c.48,0,.99.06,1.53.17s1.05.32,1.52.62.86.72,1.16,1.25c.3.54.45,1.24.45,2.11v7.89h-2.27v-1.63h-.12c-.16.3-.39.6-.69.89-.31.29-.69.53-1.15.72-.46.19-1.02.28-1.66.28v.02ZM-101.83,29.17c.64,0,1.18-.12,1.64-.37.45-.25.8-.58,1.04-.99s.36-.85.36-1.31v-1.52c-.08.08-.25.16-.48.23-.24.07-.51.13-.81.18-.3.05-.6.1-.88.13-.28.04-.52.06-.7.08-.44.06-.84.15-1.21.29-.37.13-.66.33-.87.58-.22.25-.32.58-.32.99,0,.38.1.69.29.95.2.25.46.45.79.57.33.13.72.19,1.16.19h-.01Z"/>
    <path class="st5" d="M-90.97,23.75v7.04h-2.34v-11.89h2.23l.02,2.91h-.24c.35-1.06.85-1.84,1.51-2.33s1.46-.73,2.39-.73c.81,0,1.51.17,2.12.51.6.34,1.07.84,1.41,1.5.34.66.51,1.49.51,2.47v7.55h-2.34v-7.26c0-.86-.22-1.53-.67-2.01s-1.06-.72-1.84-.72c-.52,0-1,.12-1.41.35s-.75.57-.99,1c-.24.44-.36.98-.36,1.61h0Z"/>
    <path class="st1" d="M-73.44,31c-1.37,0-2.59-.32-3.67-.97s-1.92-1.58-2.54-2.8-.92-2.67-.92-4.35.31-3.15.92-4.37c.62-1.22,1.46-2.15,2.54-2.8,1.08-.65,2.3-.98,3.67-.98.84,0,1.62.12,2.36.36.73.24,1.39.59,1.97,1.05.58.46,1.06,1.02,1.44,1.68.38.66.64,1.41.77,2.24h-2.44c-.1-.5-.28-.95-.53-1.33-.25-.39-.56-.71-.92-.98s-.77-.47-1.21-.61c-.45-.13-.92-.2-1.41-.2-.91,0-1.72.23-2.44.69-.72.46-1.29,1.13-1.7,2.01s-.62,1.96-.62,3.24.21,2.36.63,3.24.99,1.55,1.7,2c.72.45,1.52.68,2.42.68.5,0,.97-.07,1.41-.21s.85-.34,1.21-.61c.37-.27.67-.59.93-.98.25-.39.43-.83.53-1.33h2.45c-.12.78-.37,1.49-.73,2.14-.37.65-.84,1.21-1.41,1.7-.57.48-1.23.85-1.97,1.11s-1.55.39-2.42.39h-.02Z"/>
    <path class="st1" d="M-64.05,30.79v-15.85h5.68c1.22,0,2.24.21,3.05.63s1.42,1.01,1.83,1.76.61,1.61.61,2.58-.2,1.83-.61,2.57c-.41.73-1.02,1.3-1.83,1.71s-1.84.61-3.06.61h-4.26v-2.07h4.03c.78,0,1.41-.11,1.89-.33s.83-.54,1.06-.96c.23-.42.34-.92.34-1.51s-.11-1.11-.34-1.54-.58-.77-1.06-1c-.48-.24-1.12-.36-1.9-.36h-2.98v13.77h-2.45ZM-55.05,30.79l-3.84-7.16h2.69l3.9,7.16h-2.75Z"/>
    <path class="st1" d="M-49.94,30.79v-15.85h3.57l3.46,9.09c.1.27.21.61.33,1.02s.25.86.39,1.34c.13.48.26.96.38,1.43.12.47.23.89.32,1.27h-.51c.09-.35.2-.76.32-1.23.12-.46.25-.94.38-1.42s.27-.94.39-1.36c.13-.43.24-.77.34-1.04l3.4-9.09h3.59v15.85h-2.41v-8.53c0-.33,0-.72,0-1.17,0-.45.02-.93.03-1.44s.02-1.02.03-1.54.02-1.01.03-1.49h.18c-.14.52-.3,1.05-.46,1.6-.17.55-.33,1.08-.49,1.59s-.31.98-.46,1.4c-.15.42-.27.77-.37,1.05l-3.24,8.53h-2.07l-3.29-8.53c-.11-.27-.23-.61-.37-1.03-.14-.41-.29-.88-.45-1.38-.16-.51-.33-1.04-.5-1.58-.17-.55-.34-1.1-.51-1.64h.21c0,.43.03.9.04,1.41,0,.51.02,1.02.03,1.54,0,.52.02,1.01.03,1.47s.02.87.02,1.22v8.53h-2.36v-.02Z"/>
  </g>
  <path class="st0" d="M33.88,13.91h-1.45c.21.26.35.54.42.86h1.03v1.12h-1.07c-.11.38-.32.72-.62.99-.59.53-1.44.74-2.13.82l.63.63.22.22.66.66.22.22.65.66.22.22.7.71.22.22.12.12h-1.58l-.32-.33-.22-.22-.65-.66-.22-.22-.66-.66-.22-.22-.7-.7-.22-.22-.72-.72v-.77h.11c1.04.02,2.19,0,2.89-.39.1-.05.18-.12.26-.19.05-.04.09-.09.12-.14,0,0,0-.01.01-.02h-3.6v-1.12h3.67c-.24-.42-.82-.73-1.59-.86h-2.08v-1.12h5.9v1.12h0Z"/>
  <rect class="st3" x="-1.54" y="-77.86" width="134.59" height="52.71"/>
  <g>
    <path class="st5" d="M26.85,72.1c-1.21,0-2.27-.28-3.18-.83-.91-.56-1.61-1.34-2.11-2.34s-.75-2.17-.75-3.5.25-2.52.75-3.53,1.21-1.79,2.11-2.35c.91-.56,1.97-.83,3.18-.83s2.28.28,3.19.83c.91.56,1.61,1.34,2.11,2.35s.75,2.18.75,3.53-.25,2.49-.75,3.5-1.21,1.78-2.11,2.34c-.91.56-1.97.83-3.19.83ZM26.85,69.95c.79,0,1.44-.21,1.95-.62s.9-.96,1.15-1.65c.25-.68.38-1.43.38-2.25s-.13-1.58-.38-2.28c-.25-.69-.63-1.24-1.15-1.66-.51-.41-1.16-.62-1.95-.62s-1.42.21-1.93.62c-.51.41-.89.96-1.14,1.65-.25.69-.38,1.45-.38,2.28s.13,1.57.38,2.25.63,1.23,1.14,1.65c.51.41,1.15.62,1.93.62h0Z"/>
    <path class="st5" d="M39.59,72.12c-.82,0-1.56-.15-2.22-.46-.66-.31-1.19-.75-1.58-1.34s-.58-1.31-.58-2.15c0-.73.14-1.34.42-1.81s.66-.85,1.15-1.12c.48-.28,1.02-.49,1.61-.63s1.19-.24,1.8-.31c.76-.09,1.39-.17,1.87-.23s.83-.15,1.06-.29.34-.35.34-.65v-.07c0-.49-.09-.9-.28-1.23-.19-.33-.46-.59-.83-.77-.37-.18-.82-.27-1.37-.27s-1.05.09-1.45.26c-.41.17-.73.4-.98.67-.25.27-.44.55-.56.85l-2.4-.63c.29-.77.71-1.39,1.26-1.87.55-.47,1.18-.81,1.89-1.03s1.44-.32,2.2-.32c.52,0,1.08.06,1.67.19s1.14.35,1.66.67.94.78,1.26,1.37.49,1.35.49,2.29v8.6h-2.47v-1.77h-.13c-.17.33-.42.66-.75.97-.33.32-.75.58-1.26.78-.51.2-1.11.31-1.81.31h0ZM40.16,70.07c.7,0,1.29-.14,1.78-.41.49-.27.87-.63,1.14-1.08.26-.45.39-.92.39-1.42v-1.66c-.09.09-.27.18-.53.25s-.55.14-.89.2-.65.11-.96.15c-.31.04-.56.07-.76.09-.48.06-.92.17-1.31.31-.4.15-.71.36-.95.63s-.35.63-.35,1.08c0,.41.11.75.32,1.03s.5.49.86.63.78.21,1.26.21h0Z"/>
    <path class="st5" d="M51.98,64.17v7.67h-2.55v-12.95h2.43l.02,3.17h-.27c.38-1.16.93-2,1.65-2.54.72-.53,1.59-.8,2.61-.8.88,0,1.65.19,2.31.56.66.37,1.17.92,1.54,1.64s.56,1.62.56,2.69v8.22h-2.55v-7.91c0-.93-.24-1.66-.73-2.19-.49-.53-1.16-.79-2-.79-.57,0-1.09.13-1.54.38-.46.25-.81.62-1.08,1.09-.26.48-.39,1.06-.39,1.75h0Z"/>
    <path class="st1" d="M71.07,72.07c-1.49,0-2.82-.35-4-1.06s-2.1-1.72-2.77-3.05c-.67-1.32-1.01-2.91-1.01-4.74s.34-3.43,1.01-4.75c.67-1.32,1.59-2.34,2.77-3.05,1.17-.71,2.51-1.07,4-1.07.91,0,1.77.13,2.57.39s1.51.65,2.14,1.15,1.15,1.11,1.56,1.83c.41.72.69,1.53.84,2.44h-2.65c-.11-.55-.3-1.03-.57-1.45-.27-.42-.61-.78-1-1.07s-.83-.51-1.32-.66-1-.22-1.54-.22c-.99,0-1.88.25-2.66.75-.78.5-1.4,1.23-1.85,2.19s-.67,2.14-.67,3.53.23,2.57.68,3.53,1.07,1.69,1.85,2.18,1.66.74,2.64.74c.54,0,1.05-.08,1.53-.23.48-.15.92-.37,1.32-.66s.73-.65,1.01-1.07c.27-.42.46-.91.57-1.45h2.66c-.13.85-.4,1.63-.8,2.33-.4.71-.92,1.32-1.54,1.85-.63.53-1.34.93-2.15,1.21-.81.28-1.69.42-2.63.42h.01Z"/>
    <path class="st1" d="M81.3,71.83v-17.26h6.19c1.33,0,2.44.23,3.32.69.89.46,1.55,1.1,1.99,1.92.44.82.66,1.76.66,2.81s-.22,2-.67,2.8-1.11,1.42-2,1.86c-.89.44-2,.66-3.34.66h-4.65v-2.26h4.39c.85,0,1.54-.12,2.06-.36s.91-.59,1.15-1.05c.25-.46.37-1,.37-1.65s-.12-1.21-.37-1.68-.63-.84-1.16-1.09c-.52-.26-1.22-.39-2.07-.39h-3.24v15h-2.64,0ZM91.11,71.83l-4.18-7.8h2.93l4.25,7.8h-3Z"/>
    <path class="st1" d="M96.67,71.83v-17.26h3.89l3.76,9.9c.11.29.23.66.37,1.11.13.45.28.93.42,1.46.15.53.29,1.04.42,1.55s.25.97.35,1.38h-.56c.1-.39.22-.83.35-1.34s.27-1.02.42-1.55c.15-.52.29-1.02.43-1.48s.26-.84.37-1.14l3.71-9.9h3.92v17.26h-2.63v-9.29c0-.35,0-.78.01-1.27s.02-1.02.03-1.57.02-1.11.03-1.67c.01-.56.02-1.1.03-1.62h.2c-.15.56-.32,1.15-.5,1.74-.18.6-.36,1.18-.53,1.73s-.34,1.06-.5,1.52-.29.84-.4,1.14l-3.53,9.29h-2.26l-3.58-9.29c-.12-.29-.25-.67-.4-1.12s-.31-.95-.49-1.51-.36-1.13-.54-1.73c-.19-.6-.37-1.19-.56-1.79h.23c.02.47.03.98.04,1.53s.02,1.11.03,1.67c.01.56.02,1.1.04,1.6s.02.95.02,1.33v9.29h-2.57l-.02.03Z"/>
  </g>
  <g>
    <g>
      <rect class="st1" x="7.14" y="15.65" width="2.72" height="9.27"/>
      <rect class="st4" x="11.28" y="11" width="2.72" height="13.92"/>
      <rect class="st2" x="15.42" y="6.77" width="2.72" height="18.15"/>
      <g>
        <rect class="st5" x="19.87" y="22.2" width="10.99" height="2.72"/>
        <rect class="st5" x="19.56" y="1.66" width="2.72" height="23.26"/>
      </g>
    </g>
    <g>
      <path class="st5" d="M38.29,24.96c-1.21,0-2.27-.28-3.18-.83-.91-.56-1.61-1.34-2.11-2.34s-.75-2.17-.75-3.5.25-2.52.75-3.53c.5-1.01,1.21-1.79,2.11-2.35.91-.56,1.97-.83,3.18-.83s2.28.28,3.19.83c.91.56,1.61,1.34,2.11,2.35s.75,2.18.75,3.53-.25,2.49-.75,3.5-1.21,1.78-2.11,2.34c-.91.56-1.97.83-3.19.83ZM38.29,22.8c.79,0,1.44-.21,1.95-.62s.9-.96,1.15-1.65c.25-.68.38-1.43.38-2.25s-.13-1.58-.38-2.28c-.25-.69-.63-1.24-1.15-1.66-.51-.41-1.16-.62-1.95-.62s-1.42.21-1.93.62c-.51.41-.89.96-1.14,1.65s-.38,1.45-.38,2.28.13,1.57.38,2.25.63,1.23,1.14,1.65c.51.41,1.15.62,1.93.62h0Z"/>
      <path class="st5" d="M51.04,24.98c-.82,0-1.56-.15-2.22-.46s-1.19-.75-1.58-1.34-.58-1.31-.58-2.16c0-.73.14-1.34.42-1.81s.66-.85,1.15-1.12c.48-.28,1.02-.49,1.61-.62.59-.14,1.19-.24,1.8-.31.76-.09,1.39-.17,1.87-.23s.83-.15,1.06-.29c.23-.14.34-.35.34-.66v-.07c0-.49-.09-.9-.28-1.23s-.46-.59-.83-.77c-.37-.18-.82-.27-1.37-.27s-1.05.09-1.45.26c-.41.17-.73.4-.98.67s-.44.55-.56.85l-2.4-.63c.29-.77.71-1.39,1.26-1.87.55-.47,1.18-.81,1.89-1.03s1.44-.32,2.2-.32c.52,0,1.08.06,1.67.19s1.14.35,1.66.67.94.78,1.26,1.37.49,1.35.49,2.29v8.6h-2.47v-1.77h-.13c-.17.33-.42.66-.75.97-.33.32-.75.58-1.26.78s-1.11.31-1.81.31h0ZM51.6,22.93c.7,0,1.29-.14,1.78-.41.49-.27.87-.63,1.14-1.08.26-.45.39-.92.39-1.42v-1.66c-.09.09-.27.18-.53.25s-.55.14-.89.2c-.33.06-.65.11-.96.14-.31.04-.56.07-.76.09-.48.06-.92.17-1.31.31-.4.15-.71.36-.95.63-.24.27-.35.63-.35,1.08,0,.41.11.75.32,1.03s.5.49.86.62c.36.14.78.21,1.26.21h0Z"/>
      <path class="st5" d="M63.43,17.02v7.67h-2.55v-12.95h2.43l.02,3.17h-.27c.38-1.16.93-2,1.65-2.54.72-.53,1.59-.8,2.61-.8.88,0,1.65.19,2.31.56s1.17.92,1.54,1.64.56,1.62.56,2.69v8.22h-2.55v-7.91c0-.93-.24-1.66-.73-2.19s-1.15-.79-2-.79c-.57,0-1.09.13-1.54.38-.46.25-.81.62-1.08,1.1-.26.48-.39,1.06-.39,1.75h0Z"/>
      <path class="st1" d="M82.52,24.92c-1.49,0-2.82-.35-4-1.06-1.17-.71-2.1-1.72-2.77-3.05-.67-1.32-1.01-2.91-1.01-4.74s.34-3.43,1.01-4.75c.67-1.32,1.59-2.34,2.77-3.05,1.17-.71,2.51-1.07,4-1.07.91,0,1.77.13,2.57.39.8.26,1.51.65,2.14,1.15s1.15,1.11,1.56,1.83c.41.72.69,1.53.84,2.44h-2.65c-.11-.55-.3-1.03-.57-1.45s-.61-.78-1-1.07-.83-.51-1.32-.66-1-.22-1.54-.22c-.99,0-1.88.25-2.66.75-.78.5-1.4,1.23-1.85,2.19s-.67,2.14-.67,3.53.23,2.57.68,3.53c.46.96,1.07,1.69,1.85,2.18s1.66.74,2.64.74c.54,0,1.05-.08,1.53-.23.48-.15.92-.37,1.32-.66.4-.29.73-.65,1.01-1.07.27-.42.46-.91.57-1.45h2.66c-.13.85-.4,1.63-.8,2.33-.4.71-.92,1.32-1.54,1.85-.63.53-1.34.93-2.15,1.21-.81.28-1.69.42-2.63.42h.01Z"/>
      <path class="st1" d="M92.75,24.69V7.43h6.19c1.33,0,2.44.23,3.32.69.89.46,1.55,1.1,1.99,1.92.44.82.66,1.76.66,2.81s-.22,2-.67,2.8c-.44.8-1.11,1.42-2,1.86s-2,.66-3.34.66h-4.65v-2.26h4.39c.85,0,1.54-.12,2.06-.36s.91-.59,1.15-1.05c.25-.46.37-1,.37-1.65s-.12-1.21-.37-1.68-.63-.84-1.16-1.09c-.52-.26-1.22-.39-2.07-.39h-3.24v15h-2.64,0ZM102.56,24.69l-4.18-7.8h2.93l4.25,7.8s-3,0-3,0Z"/>
      <path class="st1" d="M108.12,24.69V7.43h3.89l3.76,9.9c.11.29.23.67.37,1.11.13.45.28.93.42,1.46.15.53.29,1.04.42,1.55.13.51.25.97.35,1.38h-.56c.1-.39.22-.83.35-1.34s.27-1.02.42-1.55c.15-.52.29-1.02.43-1.48s.26-.84.37-1.14l3.71-9.9h3.92v17.26h-2.63v-9.29c0-.35,0-.78.01-1.27s.02-1.02.03-1.57c.01-.55.02-1.11.03-1.67s.02-1.1.03-1.62h.2c-.15.56-.32,1.15-.5,1.74-.18.6-.36,1.18-.53,1.73s-.34,1.06-.5,1.52-.29.84-.4,1.14l-3.53,9.29h-2.26l-3.58-9.29c-.12-.29-.25-.67-.4-1.12s-.31-.95-.49-1.51-.36-1.13-.54-1.73c-.19-.6-.37-1.19-.56-1.79h.23c.02.47.03.98.04,1.53.01.55.02,1.11.03,1.67s.02,1.1.04,1.6.02.95.02,1.33v9.29h-2.57l-.02.03Z"/>
    </g>
  </g>
  <g>
    <g>
      <rect class="st1" x="6.34" y="-49.17" width="2.72" height="9.27"/>
      <rect class="st4" x="10.48" y="-53.82" width="2.72" height="13.92"/>
      <rect class="st2" x="14.62" y="-58.05" width="2.72" height="18.15"/>
      <g>
        <rect class="st5" x="19.07" y="-42.62" width="10.99" height="2.72"/>
        <rect class="st5" x="18.76" y="-63.16" width="2.72" height="23.26"/>
      </g>
    </g>
    <g>
      <path class="st5" d="M37.49-39.86c-1.21,0-2.27-.28-3.18-.83-.91-.56-1.61-1.34-2.11-2.34s-.75-2.17-.75-3.5.25-2.52.75-3.53c.5-1.01,1.21-1.79,2.11-2.35.91-.56,1.97-.83,3.18-.83s2.28.28,3.19.83c.91.56,1.61,1.34,2.11,2.35s.75,2.18.75,3.53-.25,2.49-.75,3.5-1.21,1.78-2.11,2.34c-.91.56-1.97.83-3.19.83ZM37.49-42.02c.79,0,1.44-.21,1.95-.62s.9-.96,1.15-1.65c.25-.68.38-1.43.38-2.25s-.13-1.58-.38-2.28c-.25-.69-.63-1.24-1.15-1.66-.51-.41-1.16-.62-1.95-.62s-1.42.21-1.93.62c-.51.41-.89.96-1.14,1.65s-.38,1.45-.38,2.28.13,1.57.38,2.25.63,1.23,1.14,1.65c.51.41,1.15.62,1.93.62h0Z"/>
      <path class="st5" d="M50.24-39.84c-.82,0-1.56-.15-2.22-.46s-1.19-.75-1.58-1.34-.58-1.31-.58-2.16c0-.73.14-1.34.42-1.81s.66-.85,1.15-1.12c.48-.28,1.02-.49,1.61-.62.59-.14,1.19-.24,1.8-.31.76-.09,1.39-.17,1.87-.23s.83-.15,1.06-.29c.23-.14.34-.35.34-.66v-.07c0-.49-.09-.9-.28-1.23s-.46-.59-.83-.77c-.37-.18-.82-.27-1.37-.27s-1.05.09-1.45.26c-.41.17-.73.4-.98.67s-.44.55-.56.85l-2.4-.63c.29-.77.71-1.39,1.26-1.87.55-.47,1.18-.81,1.89-1.03s1.44-.32,2.2-.32c.52,0,1.08.06,1.67.19s1.14.35,1.66.67.94.78,1.26,1.37.49,1.35.49,2.29v8.6h-2.47v-1.77h-.13c-.17.33-.42.66-.75.97-.33.32-.75.58-1.26.78s-1.11.31-1.81.31h0ZM50.8-41.89c.7,0,1.29-.14,1.78-.41.49-.27.87-.63,1.14-1.08.26-.45.39-.92.39-1.42v-1.66c-.09.09-.27.18-.53.25s-.55.14-.89.2c-.33.06-.65.11-.96.14-.31.04-.56.07-.76.09-.48.06-.92.17-1.31.31-.4.15-.71.36-.95.63-.24.27-.35.63-.35,1.08,0,.41.11.75.32,1.03s.5.49.86.62c.36.14.78.21,1.26.21h0Z"/>
      <path class="st5" d="M62.63-47.8v7.67h-2.55v-12.95h2.43l.02,3.17h-.27c.38-1.16.93-2,1.65-2.54.72-.53,1.59-.8,2.61-.8.88,0,1.65.19,2.31.56s1.17.92,1.54,1.64.56,1.62.56,2.69v8.22h-2.55v-7.91c0-.93-.24-1.66-.73-2.19s-1.15-.79-2-.79c-.57,0-1.09.13-1.54.38-.46.25-.81.62-1.08,1.1-.26.48-.39,1.06-.39,1.75h0Z"/>
      <path class="st1" d="M81.72-39.9c-1.49,0-2.82-.35-4-1.06-1.17-.71-2.1-1.72-2.77-3.05-.67-1.32-1.01-2.91-1.01-4.74s.34-3.43,1.01-4.75c.67-1.32,1.59-2.34,2.77-3.05,1.17-.71,2.51-1.07,4-1.07.91,0,1.77.13,2.57.39.8.26,1.51.65,2.14,1.15s1.15,1.11,1.56,1.83c.41.72.69,1.53.84,2.44h-2.65c-.11-.55-.3-1.03-.57-1.45s-.61-.78-1-1.07-.83-.51-1.32-.66-1-.22-1.54-.22c-.99,0-1.88.25-2.66.75-.78.5-1.4,1.23-1.85,2.19s-.67,2.14-.67,3.53.23,2.57.68,3.53c.46.96,1.07,1.69,1.85,2.18s1.66.74,2.64.74c.54,0,1.05-.08,1.53-.23.48-.15.92-.37,1.32-.66.4-.29.73-.65,1.01-1.07.27-.42.46-.91.57-1.45h2.66c-.13.85-.4,1.63-.8,2.33-.4.71-.92,1.32-1.54,1.85-.63.53-1.34.93-2.15,1.21-.81.28-1.69.42-2.63.42h.01Z"/>
      <path class="st1" d="M91.95-40.13v-17.26h6.19c1.33,0,2.44.23,3.32.69.89.46,1.55,1.1,1.99,1.92.44.82.66,1.76.66,2.81s-.22,2-.67,2.8c-.44.8-1.11,1.42-2,1.86s-2,.66-3.34.66h-4.65v-2.26h4.39c.85,0,1.54-.12,2.06-.36s.91-.59,1.15-1.05c.25-.46.37-1,.37-1.65s-.12-1.21-.37-1.68-.63-.84-1.16-1.09c-.52-.26-1.22-.39-2.07-.39h-3.24v15h-2.64,0ZM101.76-40.13l-4.18-7.8h2.93l4.25,7.8s-3,0-3,0Z"/>
      <path class="st1" d="M107.32-40.13v-17.26h3.89l3.76,9.9c.11.29.23.67.37,1.11.13.45.28.93.42,1.46.15.53.29,1.04.42,1.55.13.51.25.97.35,1.38h-.56c.1-.39.22-.83.35-1.34s.27-1.02.42-1.55c.15-.52.29-1.02.43-1.48s.26-.84.37-1.14l3.71-9.9h3.92v17.26h-2.63v-9.29c0-.35,0-.78.01-1.27s.02-1.02.03-1.57c.01-.55.02-1.11.03-1.67s.02-1.1.03-1.62h.2c-.15.56-.32,1.15-.5,1.74-.18.6-.36,1.18-.53,1.73s-.34,1.06-.5,1.52-.29.84-.4,1.14l-3.53,9.29h-2.26l-3.58-9.29c-.12-.29-.25-.67-.4-1.12s-.31-.95-.49-1.51-.36-1.13-.54-1.73c-.19-.6-.37-1.19-.56-1.79h.23c.02.47.03.98.04,1.53.01.55.02,1.11.03,1.67s.02,1.1.04,1.6.02.95.02,1.33v9.29h-2.57l-.02.03Z"/>
    </g>
  </g>
  <g>
    <path class="st5" d="M108.2-77.9c-1.21,0-2.27-.28-3.18-.83-.91-.56-1.61-1.34-2.11-2.34s-.75-2.17-.75-3.5.25-2.52.75-3.53,1.21-1.79,2.11-2.35c.91-.56,1.97-.83,3.18-.83s2.28.28,3.19.83c.91.56,1.61,1.34,2.11,2.35s.75,2.18.75,3.53-.25,2.49-.75,3.5-1.21,1.78-2.11,2.34c-.91.56-1.97.83-3.19.83ZM108.2-80.05c.79,0,1.44-.21,1.95-.62s.9-.96,1.15-1.65.38-1.43.38-2.25-.13-1.58-.38-2.28c-.25-.69-.63-1.24-1.15-1.66-.51-.41-1.16-.62-1.95-.62s-1.42.21-1.93.62-.89.96-1.14,1.65-.38,1.45-.38,2.28.13,1.57.38,2.25.63,1.23,1.14,1.65,1.15.62,1.93.62h0Z"/>
    <path class="st5" d="M120.94-77.88c-.82,0-1.56-.15-2.22-.46-.67-.31-1.19-.75-1.58-1.34s-.58-1.31-.58-2.15c0-.73.14-1.34.42-1.81s.66-.85,1.15-1.12c.48-.28,1.02-.49,1.61-.63s1.19-.24,1.8-.31c.76-.09,1.39-.17,1.87-.23.48-.06.83-.15,1.06-.29s.34-.35.34-.65v-.07c0-.49-.09-.9-.28-1.23-.18-.33-.46-.59-.83-.77s-.82-.27-1.37-.27-1.05.09-1.45.26-.73.4-.98.67-.44.55-.56.85l-2.4-.63c.29-.77.71-1.39,1.26-1.87.55-.47,1.18-.81,1.89-1.03s1.44-.32,2.2-.32c.53,0,1.08.06,1.67.19s1.14.35,1.66.67c.52.32.94.78,1.26,1.37.33.59.49,1.35.49,2.29v8.6h-2.47v-1.77h-.13c-.17.33-.42.66-.75.97-.33.32-.75.58-1.26.78s-1.11.31-1.81.31h0ZM121.51-79.93c.7,0,1.29-.14,1.78-.41.49-.27.87-.63,1.14-1.08.26-.45.39-.92.39-1.42v-1.66c-.09.09-.27.18-.53.25s-.55.14-.89.2-.65.11-.96.15-.56.07-.76.09c-.48.06-.92.17-1.31.31-.4.15-.71.36-.95.63s-.35.63-.35,1.08c0,.41.11.75.32,1.03s.5.49.86.63.78.21,1.26.21h0Z"/>
    <path class="st5" d="M133.34-85.83v7.67h-2.55v-12.95h2.43l.02,3.17h-.27c.38-1.16.93-2,1.64-2.54.72-.53,1.59-.8,2.61-.8.88,0,1.65.19,2.31.56.66.37,1.17.92,1.54,1.64s.56,1.62.56,2.69v8.22h-2.55v-7.91c0-.93-.24-1.66-.73-2.19-.49-.53-1.16-.79-2-.79-.57,0-1.09.13-1.54.38-.46.25-.81.62-1.08,1.09-.26.48-.39,1.06-.39,1.75h0Z"/>
    <path class="st1" d="M152.43-77.93c-1.49,0-2.82-.35-4-1.06s-2.1-1.72-2.77-3.05c-.67-1.32-1.01-2.91-1.01-4.74s.34-3.43,1.01-4.75,1.59-2.34,2.77-3.05c1.17-.71,2.51-1.07,4-1.07.91,0,1.77.13,2.57.39s1.51.65,2.14,1.15,1.15,1.11,1.56,1.83.69,1.53.84,2.44h-2.65c-.11-.55-.3-1.03-.57-1.45s-.61-.78-1-1.07-.83-.51-1.32-.66-1-.22-1.54-.22c-.99,0-1.88.25-2.66.75s-1.4,1.23-1.85,2.19-.67,2.14-.67,3.53.23,2.57.68,3.53,1.07,1.69,1.85,2.18,1.66.74,2.64.74c.54,0,1.05-.08,1.53-.23s.92-.37,1.32-.66c.4-.29.73-.65,1.01-1.07.27-.42.46-.91.57-1.45h2.66c-.13.85-.4,1.63-.8,2.33-.4.71-.92,1.32-1.54,1.85-.63.53-1.34.93-2.15,1.21s-1.69.42-2.63.42h0Z"/>
    <path class="st1" d="M162.66-78.17v-17.26h6.19c1.33,0,2.44.23,3.32.69.89.46,1.55,1.1,1.99,1.92s.66,1.76.66,2.81-.22,2-.67,2.8-1.11,1.42-2,1.86-2,.66-3.34.66h-4.65v-2.26h4.39c.85,0,1.54-.12,2.06-.36s.91-.59,1.15-1.05c.25-.46.37-1,.37-1.65s-.12-1.21-.37-1.68-.63-.84-1.16-1.09c-.52-.26-1.22-.39-2.07-.39h-3.24v15h-2.64,0ZM172.47-78.17l-4.18-7.8h2.93l4.25,7.8h-3Z"/>
    <path class="st1" d="M178.03-78.17v-17.26h3.89l3.76,9.9c.11.29.23.66.37,1.11.13.45.28.93.42,1.46.15.53.29,1.04.42,1.55s.25.97.35,1.38h-.56c.1-.39.22-.83.35-1.34.13-.51.27-1.02.42-1.55.15-.52.29-1.02.43-1.48s.26-.84.37-1.14l3.71-9.9h3.92v17.26h-2.63v-9.29c0-.35,0-.78,0-1.27s.02-1.02.03-1.57.02-1.11.03-1.67.02-1.1.03-1.62h.2c-.15.56-.32,1.15-.5,1.74-.18.6-.36,1.18-.53,1.73s-.34,1.06-.5,1.52-.29.84-.4,1.14l-3.53,9.29h-2.26l-3.58-9.29c-.12-.29-.25-.67-.4-1.12s-.31-.95-.49-1.51-.36-1.13-.54-1.73c-.19-.6-.37-1.19-.56-1.79h.23c.02.47.03.98.04,1.53,0,.55.02,1.11.03,1.67s.02,1.1.04,1.6.02.95.02,1.33v9.29h-2.57l-.02.03Z"/>
  </g>
  <path class="st0" d="M28.68-51.65h-1.58c.23.28.38.59.46.94h1.12v1.22h-1.17c-.12.42-.34.78-.67,1.08-.64.58-1.57.8-2.32.89l.68.69.24.24.71.72.24.24.71.72.24.24.77.77.24.24.13.13h-1.73l-.35-.36-.24-.24-.71-.72-.24-.24-.71-.72-.24-.24-.76-.76-.24-.24-.78-.79v-.84h.11c1.14.02,2.39,0,3.14-.43.11-.06.2-.13.29-.2.05-.05.1-.1.14-.15,0,0,0,0,.02-.02h-3.92v-1.22h4c-.26-.45-.89-.8-1.73-.94h-2.27v-1.22h6.42v1.22h0Z"/>
  <g>
    <rect class="st1" x="-32.76" y="-47.41" width="2.96" height="10.09"/>
    <rect class="st4" x="-29.34" y="-52.48" width="2.96" height="15.16"/>
    <rect class="st5" x="-25.92" y="-57.09" width="2.96" height="19.77"/>
    <g>
      <rect class="st2" x="-22.16" y="-40.28" width="11.97" height="2.96"/>
      <rect class="st2" x="-22.5" y="-62.65" width="2.96" height="25.33"/>
    </g>
  </g>
</svg>