<svg width="127" height="25" viewBox="0 0 127 25" fill="none" xmlns="http://www.w3.org/2000/svg">
<path d="M15.6765 5.12402V19.4859H12.7928V10.1436L8.9397 19.4859H6.75668L2.88372 10.1436V19.4859H0V5.12402H3.27606L7.84972 15.8036L12.4234 5.12402H15.6765Z" fill="#535AB4"/>
<path d="M29.4371 8.08496L22.3706 24.8759H19.3006L21.7721 19.1961L17.1985 8.08496H20.4333L23.3796 16.0489L26.3672 8.08496H29.4371Z" fill="#535AB4"/>
<path d="M34.3225 17.396H39.0641V19.6816H31.4373V5.31055H34.3225V17.396Z" fill="#8E89D0"/>
<path d="M43.0012 19.134C42.1219 18.6476 41.4303 17.9568 40.9296 17.0648C40.4274 16.1728 40.177 15.1436 40.177 13.9756C40.177 12.8092 40.435 11.7799 40.9495 10.8864C41.4654 9.99442 42.1692 9.30522 43.0623 8.81729C43.9553 8.32936 44.9522 8.08691 46.0513 8.08691C47.1505 8.08691 48.1473 8.33088 49.0404 8.81729C49.9334 9.30522 50.6387 9.99442 51.1532 10.8864C51.6692 11.7784 51.9256 12.8076 51.9256 13.9756C51.9256 15.1421 51.6615 16.1728 51.1318 17.0648C50.6021 17.9568 49.8876 18.6476 48.9885 19.134C48.0878 19.6219 47.0818 19.8643 45.9689 19.8643C44.8697 19.8659 43.8805 19.6219 43.0012 19.134ZM47.4436 16.9718C47.9031 16.7187 48.271 16.3375 48.5458 15.8298C48.8205 15.322 48.9579 14.7045 48.9579 13.9771C48.9579 12.893 48.6725 12.059 48.1031 11.475C47.5321 10.8925 46.836 10.5998 46.0101 10.5998C45.1857 10.5998 44.4957 10.891 43.9385 11.475C43.3813 12.059 43.1035 12.893 43.1035 13.9771C43.1035 15.0613 43.3752 15.8953 43.9171 16.4793C44.4591 17.0633 45.143 17.3545 45.9689 17.3545C46.491 17.353 46.9825 17.2265 47.4436 16.9718Z" fill="#8E89D0"/>
<path d="M53.9987 10.8686C54.4597 9.97655 55.0841 9.2904 55.8749 8.81009C56.6656 8.32978 57.548 8.08887 58.5235 8.08887C59.3753 8.08887 60.1218 8.26117 60.7599 8.60424C61.3996 8.94732 61.911 9.38036 62.2957 9.90184V8.27489H65.2023V19.6818H62.2957V18.0137C61.9247 18.5489 61.4118 18.9911 60.7599 19.3418C60.1066 19.6925 59.3539 19.8663 58.5021 19.8663C57.5404 19.8663 56.6641 19.6193 55.8733 19.1252C55.0826 18.6312 54.4582 17.9344 53.9971 17.0348C53.5361 16.1352 53.3071 15.1029 53.3071 13.9364C53.3071 12.7822 53.5376 11.759 53.9987 10.8686ZM61.882 12.1738C61.6072 11.6721 61.2362 11.2879 60.7691 11.021C60.302 10.7542 59.7997 10.62 59.2639 10.62C58.728 10.62 58.2334 10.7511 57.78 11.0104C57.3266 11.2711 56.9587 11.6523 56.6778 12.1524C56.3954 12.6541 56.255 13.2472 56.255 13.9334C56.255 14.6195 56.3954 15.2203 56.6778 15.7341C56.9587 16.2495 57.3297 16.6444 57.7907 16.9189C58.2517 17.1933 58.7418 17.3306 59.2654 17.3306C59.8012 17.3306 60.3035 17.1964 60.7706 16.9296C61.2378 16.6612 61.6087 16.2785 61.8835 15.7768C62.1583 15.2752 62.2957 14.6759 62.2957 13.9745C62.2957 13.2731 62.1568 12.6769 61.882 12.1738Z" fill="#8E89D0"/>
<path d="M77.6518 9.39532C78.4899 10.2538 78.9097 11.4507 78.9097 12.9877V19.68H76.0245V13.3796C76.0245 12.4738 75.797 11.777 75.3436 11.2891C74.8902 10.8027 74.272 10.5587 73.4888 10.5587C72.6919 10.5587 72.063 10.8027 71.6019 11.2891C71.1409 11.777 70.9119 12.4723 70.9119 13.3796V19.68H68.0251V8.27307H70.9119V9.69417C71.2966 9.20014 71.7882 8.81285 72.3851 8.53076C72.9835 8.2502 73.6384 8.1084 74.3544 8.1084C75.7131 8.1084 76.8122 8.53839 77.6518 9.39532Z" fill="#8E89D0"/>
<path d="M82.3139 8.67524C82.9536 7.55605 83.8252 6.6854 84.932 6.06024C86.0388 5.43508 87.2784 5.12402 88.6523 5.12402C90.2598 5.12402 91.6689 5.53572 92.8779 6.3591C94.087 7.18248 94.9327 8.32149 95.4136 9.77766H92.0948C91.765 9.09151 91.301 8.57613 90.7041 8.23305C90.1056 7.88998 89.4156 7.71768 88.6325 7.71768C87.7944 7.71768 87.0479 7.91285 86.396 8.30472C85.7426 8.69506 85.2343 9.24856 84.871 9.96216C84.5061 10.6758 84.3244 11.5129 84.3244 12.4735C84.3244 13.4204 84.5061 14.2544 84.871 14.9756C85.2343 15.6969 85.7442 16.2519 86.396 16.6438C87.0479 17.0356 87.7944 17.2308 88.6325 17.2308C89.4156 17.2308 90.1072 17.0554 90.7041 16.7063C91.3025 16.3556 91.765 15.8387 92.0948 15.151H95.4136C94.9327 16.6194 94.09 17.763 92.8886 18.5787C91.6857 19.396 90.2736 19.8031 88.6523 19.8031C87.2784 19.8031 86.0373 19.4905 84.932 18.8669C83.8252 18.2417 82.9536 17.3741 82.3139 16.2626C81.6743 15.151 81.3552 13.8885 81.3552 12.4735C81.3537 11.06 81.6743 9.79443 82.3139 8.67524Z" fill="#535AB4"/>
<path d="M105.308 19.6816L102.132 14.0811H100.772V19.6816H97.8853V5.31055H103.286C104.399 5.31055 105.347 5.50572 106.13 5.89759C106.914 6.28946 107.501 6.81703 107.894 7.48336C108.286 8.14969 108.481 8.89379 108.481 9.71717C108.481 10.6641 108.207 11.5195 107.657 12.2803C107.107 13.0427 106.289 13.5672 105.204 13.8554L108.646 19.6816H105.308ZM100.772 11.9174H103.184C103.967 11.9174 104.552 11.7284 104.937 11.3517C105.321 10.9736 105.514 10.4491 105.514 9.77664C105.514 9.11793 105.321 8.60712 104.937 8.2427C104.552 7.8798 103.967 7.69683 103.184 7.69683H100.772V11.9174Z" fill="#535AB4"/>
<path d="M126.787 5.30957V19.6806H123.9V10.3337L120.045 19.6806H117.861L113.985 10.3337V19.6806H111.099V5.30957H114.377L118.954 15.9953L123.53 5.30957H126.787Z" fill="#535AB4"/>
</svg>
