<svg width="212" height="36" viewBox="0 0 212 36" fill="none" xmlns="http://www.w3.org/2000/svg">
<path d="M30.2202 25.1779C29.9084 25.1779 29.607 25.3234 29.4095 25.5729C27.2063 28.3477 23.808 30.1248 20.0043 30.1352C13.3531 30.1248 7.96975 24.7415 7.96975 18.0902C7.96975 11.439 13.3531 6.05569 19.9939 6.0453C23.6833 6.05569 26.9777 7.7185 29.1809 10.327C29.3784 10.5557 29.6693 10.6908 29.9707 10.6908C30.8541 10.6908 31.3321 9.6619 30.7606 8.98639C28.1832 5.93098 24.3276 3.98758 20.0251 3.9668C20.0147 3.9668 20.0043 3.9668 20.0043 3.9668C19.9939 3.9668 19.9835 3.9668 19.9731 3.9668C12.1995 4.00837 5.90164 10.3166 5.90164 18.0902C5.90164 25.8638 12.1891 32.1721 19.9627 32.2137C19.9731 32.2137 19.9835 32.2137 20.0043 32.2137C20.0147 32.2137 20.0147 32.2137 20.0251 32.2137C24.4835 32.1929 28.4534 30.1144 31.0204 26.8719C31.5712 26.186 31.0931 25.1779 30.2202 25.1779Z" fill="#535AB4"/>
<path d="M25.8553 13.5292C25.4188 13.1239 24.8369 12.916 24.2341 12.916H22.2595C21.4593 12.916 20.8253 13.2486 20.3681 13.9033C19.9108 13.2382 19.2769 12.916 18.4662 12.916H16.4501C15.785 12.916 15.2134 13.1654 14.7561 13.6539C14.3508 14.0904 14.1429 14.6724 14.1429 15.2647V22.8409C14.1637 23.506 14.7145 24.0464 15.39 24.0464C17.3335 24.0464 19.2769 24.0464 21.2203 24.0464C21.2203 23.4021 20.95 22.7681 20.4928 22.3212C19.5471 21.3963 18.0401 21.6457 16.8242 21.6457C16.6787 21.6457 16.554 21.521 16.554 21.3755V15.8259C16.6372 15.1296 17.084 14.7763 17.8635 14.7763C18.6429 14.7763 19.0794 15.1296 19.1729 15.8259V20.3155C19.6094 20.3155 20.0251 20.1908 20.3785 19.9829C21.0644 19.5672 21.5216 18.819 21.5216 17.9668V15.8259C21.6152 15.1296 22.062 14.7763 22.8623 14.7763C23.6625 14.7763 24.1094 15.1296 24.2029 15.8259V20.3155C25.5332 20.3155 26.6036 19.2347 26.6036 17.9148V15.2024C26.6036 14.558 26.3542 13.9968 25.8553 13.5292Z" fill="#8E89D0"/>
<path d="M42.8451 10.2118H46.6429L51.729 22.6258H51.9297L57.0158 10.2118H60.8136V27.3438H57.8356V15.5739H57.6766L52.9419 27.2936H50.7168L45.9821 15.5488H45.8231V27.3438H42.8451V10.2118ZM66.4126 32.1621C65.9999 32.1621 65.6179 32.1286 65.2665 32.0617C64.9208 32.0004 64.6447 31.9279 64.4384 31.8442L65.1411 29.4852C65.5816 29.6135 65.9748 29.6749 66.3206 29.6693C66.6663 29.6637 66.9702 29.555 67.2324 29.343C67.5 29.1367 67.7259 28.7909 67.9099 28.3057L68.1693 27.6114L63.5098 14.4948H66.7221L69.6834 24.1984H69.8172L72.7868 14.4948H76.0074L70.8629 28.8997C70.623 29.58 70.3052 30.1628 69.9092 30.648C69.5133 31.1388 69.0281 31.5124 68.4537 31.7689C67.8848 32.031 67.2045 32.1621 66.4126 32.1621ZM79.2976 27.3438H75.985L82.0163 10.2118H85.8476L91.8873 27.3438H88.5746L83.9989 13.7252H83.865L79.2976 27.3438ZM79.4064 20.6265H88.4408V23.1193H79.4064V20.6265ZM99.6947 27.5947C98.412 27.5947 97.3106 27.3131 96.3904 26.7498C95.4758 26.1866 94.7704 25.4086 94.274 24.4159C93.7833 23.4177 93.5379 22.2689 93.5379 20.9695C93.5379 19.6645 93.7888 18.5129 94.2908 17.5146C94.7927 16.5108 95.5009 15.7301 96.4155 15.1724C97.3357 14.6091 98.4232 14.3275 99.6779 14.3275C100.721 14.3275 101.644 14.5199 102.447 14.9047C103.255 15.2839 103.9 15.8221 104.379 16.5192C104.859 17.2107 105.132 18.0193 105.199 18.9451H102.305C102.187 18.3261 101.909 17.8102 101.468 17.3975C101.033 16.9793 100.45 16.7701 99.7198 16.7701C99.1007 16.7701 98.557 16.9374 98.0886 17.2721C97.6201 17.6011 97.2548 18.0751 96.9927 18.6941C96.7362 19.3132 96.6079 20.0549 96.6079 20.9193C96.6079 21.7948 96.7362 22.5477 96.9927 23.1779C97.2492 23.8025 97.6089 24.2849 98.0718 24.6251C98.5403 24.9597 99.0896 25.127 99.7198 25.127C100.166 25.127 100.565 25.0433 100.916 24.876C101.273 24.7031 101.571 24.455 101.811 24.1315C102.051 23.8081 102.215 23.4149 102.305 22.952H105.199C105.126 23.861 104.859 24.6669 104.396 25.3696C103.933 26.0667 103.303 26.6132 102.505 27.0091C101.708 27.3995 100.771 27.5947 99.6947 27.5947ZM113.761 27.5947C112.479 27.5947 111.377 27.3131 110.457 26.7498C109.542 26.1866 108.837 25.4086 108.341 24.4159C107.85 23.4177 107.605 22.2689 107.605 20.9695C107.605 19.6645 107.856 18.5129 108.357 17.5146C108.859 16.5108 109.568 15.7301 110.482 15.1724C111.402 14.6091 112.49 14.3275 113.745 14.3275C114.787 14.3275 115.71 14.5199 116.513 14.9047C117.322 15.2839 117.966 15.8221 118.446 16.5192C118.925 17.2107 119.199 18.0193 119.266 18.9451H116.371C116.254 18.3261 115.975 17.8102 115.535 17.3975C115.1 16.9793 114.517 16.7701 113.786 16.7701C113.167 16.7701 112.624 16.9374 112.155 17.2721C111.687 17.6011 111.321 18.0751 111.059 18.6941C110.803 19.3132 110.675 20.0549 110.675 20.9193C110.675 21.7948 110.803 22.5477 111.059 23.1779C111.316 23.8025 111.676 24.2849 112.138 24.6251C112.607 24.9597 113.156 25.127 113.786 25.127C114.233 25.127 114.631 25.0433 114.983 24.876C115.34 24.7031 115.638 24.455 115.878 24.1315C116.118 23.8081 116.282 23.4149 116.371 22.952H119.266C119.193 23.861 118.925 24.6669 118.463 25.3696C118 26.0667 117.37 26.6132 116.572 27.0091C115.775 27.3995 114.838 27.5947 113.761 27.5947ZM127.828 27.5947C126.573 27.5947 125.486 27.3187 124.566 26.7666C123.645 26.2144 122.932 25.4421 122.424 24.4494C121.922 23.4567 121.671 22.2967 121.671 20.9695C121.671 19.6422 121.922 18.4794 122.424 17.4812C122.932 16.4829 123.645 15.7078 124.566 15.1557C125.486 14.6036 126.573 14.3275 127.828 14.3275C129.083 14.3275 130.17 14.6036 131.09 15.1557C132.011 15.7078 132.722 16.4829 133.224 17.4812C133.731 18.4794 133.985 19.6422 133.985 20.9695C133.985 22.2967 133.731 23.4567 133.224 24.4494C132.722 25.4421 132.011 26.2144 131.09 26.7666C130.17 27.3187 129.083 27.5947 127.828 27.5947ZM127.845 25.1688C128.525 25.1688 129.094 24.982 129.551 24.6083C130.009 24.2291 130.349 23.7216 130.572 23.0859C130.8 22.4501 130.915 21.7419 130.915 20.9611C130.915 20.1748 130.8 19.4637 130.572 18.828C130.349 18.1866 130.009 17.6764 129.551 17.2971C129.094 16.9179 128.525 16.7283 127.845 16.7283C127.148 16.7283 126.568 16.9179 126.105 17.2971C125.647 17.6764 125.304 18.1866 125.076 18.828C124.853 19.4637 124.741 20.1748 124.741 20.9611C124.741 21.7419 124.853 22.4501 125.076 23.0859C125.304 23.7216 125.647 24.2291 126.105 24.6083C126.568 24.982 127.148 25.1688 127.845 25.1688ZM145.216 21.9398V14.4948H148.244V27.3438H145.308V25.0601H145.174C144.884 25.7795 144.407 26.3678 143.743 26.8251C143.085 27.2824 142.274 27.5111 141.309 27.5111C140.467 27.5111 139.722 27.3242 139.076 26.9506C138.434 26.5714 137.932 26.022 137.57 25.3026C137.207 24.5777 137.026 23.7021 137.026 22.676V14.4948H140.054V22.2075C140.054 23.0217 140.277 23.6686 140.724 24.1482C141.17 24.6278 141.755 24.8677 142.48 24.8677C142.926 24.8677 143.359 24.7589 143.777 24.5414C144.195 24.3239 144.538 24.0005 144.806 23.571C145.079 23.1361 145.216 22.5923 145.216 21.9398ZM154.857 19.8151V27.3438H151.829V14.4948H154.723V16.6781H154.874C155.169 15.9587 155.641 15.3871 156.288 14.9633C156.94 14.5394 157.746 14.3275 158.705 14.3275C159.592 14.3275 160.364 14.5171 161.022 14.8963C161.686 15.2756 162.199 15.8249 162.561 16.5443C162.93 17.2637 163.111 18.1365 163.105 19.1626V27.3438H160.077V19.631C160.077 18.7722 159.854 18.1002 159.408 17.615C158.967 17.1298 158.357 16.8873 157.576 16.8873C157.046 16.8873 156.575 17.0044 156.162 17.2386C155.755 17.4672 155.434 17.7991 155.2 18.2341C154.971 18.669 154.857 19.196 154.857 19.8151ZM173.071 14.4948V16.8371H165.684V14.4948H173.071ZM167.508 11.4164H170.536V23.479C170.536 23.8861 170.598 24.1984 170.72 24.4159C170.848 24.6278 171.016 24.7728 171.222 24.8509C171.428 24.929 171.657 24.968 171.908 24.968C172.098 24.968 172.271 24.9541 172.427 24.9262C172.588 24.8983 172.711 24.8732 172.795 24.8509L173.305 27.2183C173.143 27.274 172.912 27.3354 172.611 27.4023C172.315 27.4692 171.953 27.5083 171.523 27.5194C170.765 27.5417 170.082 27.4274 169.474 27.1764C168.866 26.9199 168.384 26.524 168.027 25.9886C167.675 25.4532 167.502 24.784 167.508 23.9809V11.4164ZM176.075 27.3438V14.4948H179.103V27.3438H176.075ZM177.597 12.6712C177.117 12.6712 176.705 12.5123 176.359 12.1944C176.013 11.8709 175.84 11.4833 175.84 11.0316C175.84 10.5743 176.013 10.1867 176.359 9.86886C176.705 9.5454 177.117 9.38367 177.597 9.38367C178.082 9.38367 178.495 9.5454 178.835 9.86886C179.181 10.1867 179.354 10.5743 179.354 11.0316C179.354 11.4833 179.181 11.8709 178.835 12.1944C178.495 12.5123 178.082 12.6712 177.597 12.6712ZM185.716 19.8151V27.3438H182.688V14.4948H185.582V16.6781H185.733C186.028 15.9587 186.5 15.3871 187.146 14.9633C187.799 14.5394 188.605 14.3275 189.564 14.3275C190.451 14.3275 191.223 14.5171 191.881 14.8963C192.545 15.2756 193.058 15.8249 193.42 16.5443C193.788 17.2637 193.97 18.1365 193.964 19.1626V27.3438H190.936V19.631C190.936 18.7722 190.713 18.1002 190.267 17.615C189.826 17.1298 189.215 16.8873 188.435 16.8873C187.905 16.8873 187.434 17.0044 187.021 17.2386C186.614 17.4672 186.293 17.7991 186.059 18.2341C185.83 18.669 185.716 19.196 185.716 19.8151ZM203.102 32.4298C202.014 32.4298 201.08 32.282 200.299 31.9864C199.518 31.6964 198.891 31.3061 198.417 30.8153C197.943 30.3245 197.614 29.7808 197.43 29.1841L200.157 28.5232C200.28 28.7742 200.458 29.0224 200.692 29.2677C200.927 29.5187 201.242 29.725 201.638 29.8868C202.039 30.0541 202.544 30.1377 203.152 30.1377C204.011 30.1377 204.722 29.9286 205.285 29.5103C205.848 29.0977 206.13 28.4173 206.13 27.4692V25.035H205.979C205.823 25.3473 205.594 25.6679 205.293 25.997C204.998 26.326 204.604 26.602 204.114 26.8251C203.629 27.0482 203.018 27.1597 202.282 27.1597C201.295 27.1597 200.4 26.9283 199.597 26.4654C198.799 25.997 198.163 25.2999 197.689 24.3741C197.221 23.4428 196.987 22.2772 196.987 20.8775C196.987 19.4665 197.221 18.2759 197.689 17.3055C198.163 16.3296 198.802 15.5907 199.605 15.0887C200.408 14.5812 201.303 14.3275 202.29 14.3275C203.043 14.3275 203.662 14.4558 204.147 14.7123C204.638 14.9633 205.028 15.2672 205.318 15.6241C205.608 15.9754 205.829 16.3073 205.979 16.6196H206.146V14.4948H209.133V27.5529C209.133 28.6515 208.871 29.5605 208.347 30.2799C207.822 30.9993 207.106 31.5375 206.197 31.8944C205.288 32.2513 204.256 32.4298 203.102 32.4298ZM203.127 24.784C203.768 24.784 204.314 24.6278 204.766 24.3155C205.218 24.0032 205.561 23.5543 205.795 22.9688C206.029 22.3832 206.146 21.6805 206.146 20.8607C206.146 20.0521 206.029 19.3438 205.795 18.736C205.566 18.1281 205.226 17.6569 204.775 17.3222C204.328 16.9821 203.779 16.812 203.127 16.812C202.452 16.812 201.889 16.9876 201.437 17.339C200.985 17.6903 200.645 18.1727 200.416 18.7862C200.188 19.394 200.073 20.0855 200.073 20.8607C200.073 21.6471 200.188 22.3358 200.416 22.9269C200.651 23.5125 200.994 23.9698 201.445 24.2988C201.903 24.6223 202.463 24.784 203.127 24.784Z" fill="#3D3D3D"/>
</svg>
