<svg width="190" height="36" viewBox="0 0 190 36" fill="none" xmlns="http://www.w3.org/2000/svg">
<path d="M29.6772 24.8537C29.3654 24.8537 29.064 24.9992 28.8665 25.2486C26.6633 28.0234 23.265 29.8006 19.4613 29.811C12.8101 29.8006 7.42675 24.4172 7.42675 17.766C7.42675 11.1148 12.8101 5.73148 19.4509 5.72108C23.1403 5.73148 26.4347 7.39428 28.6379 10.0028C28.8354 10.2314 29.1263 10.3665 29.4277 10.3665C30.3111 10.3665 30.7892 9.33768 30.2176 8.66217C27.6402 5.60677 23.7846 3.66336 19.4821 3.64258C19.4717 3.64258 19.4613 3.64258 19.4613 3.64258C19.4509 3.64258 19.4405 3.64258 19.4301 3.64258C11.6565 3.68415 5.35864 9.99241 5.35864 17.766C5.35864 25.5396 11.6461 31.8479 19.4197 31.8895C19.4301 31.8895 19.4405 31.8895 19.4613 31.8895C19.4717 31.8895 19.4717 31.8895 19.4821 31.8895C23.9405 31.8687 27.9104 29.7902 30.4774 26.5477C31.0282 25.8618 30.5501 24.8537 29.6772 24.8537Z" fill="#535AB4"/>
<path d="M25.3122 13.205C24.8757 12.7996 24.2938 12.5918 23.691 12.5918H21.7164C20.9162 12.5918 20.2822 12.9244 19.825 13.5791C19.3677 12.914 18.7338 12.5918 17.9231 12.5918H15.907C15.2419 12.5918 14.6703 12.8412 14.213 13.3297C13.8077 13.7662 13.5999 14.3481 13.5999 14.9405V22.5167C13.6206 23.1818 14.1714 23.7222 14.847 23.7222C16.7904 23.7222 18.7338 23.7222 20.6772 23.7222C20.6772 23.0779 20.407 22.4439 19.9497 21.997C19.004 21.0721 17.4971 21.3215 16.2811 21.3215C16.1356 21.3215 16.0109 21.1968 16.0109 21.0513V15.5017C16.0941 14.8054 16.5409 14.4521 17.3204 14.4521C18.0998 14.4521 18.5363 14.8054 18.6298 15.5017V19.9913C19.0663 19.9913 19.482 19.8666 19.8354 19.6587C20.5213 19.243 20.9785 18.4948 20.9785 17.6426V15.5017C21.0721 14.8054 21.519 14.4521 22.3192 14.4521C23.1194 14.4521 23.5663 14.8054 23.6598 15.5017V19.9913C24.9901 19.9913 26.0605 18.9105 26.0605 17.5906V14.8782C26.0605 14.2338 25.8111 13.6726 25.3122 13.205Z" fill="#8E89D0"/>
<path d="M42.3021 9.88761H46.0999L51.1859 22.3016H51.3867L56.4727 9.88761H60.2705V27.0195H57.2925V15.2497H57.1336L52.3989 26.9693H50.1737L45.439 15.2246H45.2801V27.0195H42.3021V9.88761ZM65.8695 31.8379C65.4568 31.8379 65.0748 31.8044 64.7235 31.7375C64.3777 31.6762 64.1017 31.6037 63.8953 31.52L64.598 29.161C65.0386 29.2893 65.4317 29.3506 65.7775 29.3451C66.1233 29.3395 66.4272 29.2307 66.6893 29.0188C66.957 28.8125 67.1828 28.4667 67.3669 27.9815L67.6262 27.2872L62.9668 14.1706H66.179L69.1403 23.8742H69.2741L72.2438 14.1706H75.4644L70.3198 28.5755C70.08 29.2558 69.7621 29.8386 69.3662 30.3238C68.9702 30.8145 68.485 31.1882 67.9106 31.4447C67.3418 31.7068 66.6614 31.8379 65.8695 31.8379ZM78.1648 27.0195V9.88761H81.2683V24.418H88.8137V27.0195H78.1648ZM97.4493 27.2705C96.1945 27.2705 95.107 26.9944 94.1869 26.4423C93.2667 25.8902 92.5529 25.1178 92.0454 24.1252C91.5435 23.1325 91.2925 21.9725 91.2925 20.6453C91.2925 19.318 91.5435 18.1552 92.0454 17.157C92.5529 16.1587 93.2667 15.3835 94.1869 14.8314C95.107 14.2793 96.1945 14.0033 97.4493 14.0033C98.7041 14.0033 99.7915 14.2793 100.712 14.8314C101.632 15.3835 102.343 16.1587 102.845 17.157C103.352 18.1552 103.606 19.318 103.606 20.6453C103.606 21.9725 103.352 23.1325 102.845 24.1252C102.343 25.1178 101.632 25.8902 100.712 26.4423C99.7915 26.9944 98.7041 27.2705 97.4493 27.2705ZM97.466 24.8446C98.1464 24.8446 98.7152 24.6578 99.1725 24.2841C99.6298 23.9049 99.97 23.3974 100.193 22.7616C100.422 22.1259 100.536 21.4176 100.536 20.6369C100.536 19.8506 100.422 19.1395 100.193 18.5038C99.97 17.8624 99.6298 17.3522 99.1725 16.9729C98.7152 16.5937 98.1464 16.4041 97.466 16.4041C96.7689 16.4041 96.1889 16.5937 95.7261 16.9729C95.2688 17.3522 94.9258 17.8624 94.6971 18.5038C94.4741 19.1395 94.3625 19.8506 94.3625 20.6369C94.3625 21.4176 94.4741 22.1259 94.6971 22.7616C94.9258 23.3974 95.2688 23.9049 95.7261 24.2841C96.1889 24.6578 96.7689 24.8446 97.466 24.8446ZM110.345 27.2789C109.531 27.2789 108.797 27.1339 108.145 26.8439C107.498 26.5483 106.985 26.1133 106.606 25.5389C106.232 24.9645 106.045 24.2562 106.045 23.4141C106.045 22.6891 106.179 22.0896 106.447 21.6156C106.714 21.1416 107.08 20.7624 107.542 20.4779C108.005 20.1935 108.527 19.9788 109.107 19.8338C109.692 19.6833 110.297 19.5745 110.922 19.5076C111.675 19.4295 112.286 19.3598 112.754 19.2985C113.222 19.2315 113.563 19.1312 113.775 18.9973C113.992 18.8579 114.101 18.6432 114.101 18.3532V18.303C114.101 17.6728 113.914 17.1848 113.54 16.8391C113.167 16.4933 112.629 16.3204 111.926 16.3204C111.184 16.3204 110.596 16.4822 110.161 16.8056C109.731 17.1291 109.441 17.5111 109.291 17.9517L106.463 17.5501C106.686 16.7694 107.055 16.1169 107.568 15.5927C108.081 15.0629 108.708 14.6669 109.45 14.4048C110.191 14.1371 111.011 14.0033 111.909 14.0033C112.528 14.0033 113.144 14.0758 113.758 14.2208C114.371 14.3658 114.932 14.6056 115.439 14.9402C115.947 15.2692 116.354 15.7182 116.661 16.287C116.973 16.8558 117.129 17.5669 117.129 18.4201V27.0195H114.218V25.2545H114.118C113.933 25.6114 113.674 25.946 113.34 26.2583C113.011 26.565 112.595 26.8132 112.093 27.0028C111.597 27.1868 111.014 27.2789 110.345 27.2789ZM111.131 25.0537C111.739 25.0537 112.266 24.9338 112.712 24.694C113.158 24.4486 113.501 24.1252 113.741 23.7236C113.986 23.3221 114.109 22.8843 114.109 22.4103V20.8962C114.014 20.9743 113.853 21.0468 113.624 21.1137C113.401 21.1806 113.15 21.2392 112.871 21.2894C112.592 21.3396 112.316 21.3842 112.043 21.4232C111.77 21.4623 111.533 21.4957 111.332 21.5236C110.88 21.5849 110.476 21.6853 110.119 21.8247C109.762 21.9642 109.48 22.1594 109.274 22.4103C109.068 22.6557 108.965 22.9736 108.965 23.3639C108.965 23.9216 109.168 24.3427 109.575 24.6271C109.982 24.9115 110.501 25.0537 111.131 25.0537ZM123.673 19.4909V27.0195H120.645V14.1706H123.539V16.3539H123.69C123.986 15.6345 124.457 15.0629 125.104 14.639C125.756 14.2152 126.562 14.0033 127.521 14.0033C128.408 14.0033 129.18 14.1929 129.838 14.5721C130.502 14.9513 131.015 15.5007 131.378 16.2201C131.746 16.9395 131.927 17.8122 131.921 18.8384V27.0195H128.893V19.3068C128.893 18.448 128.67 17.776 128.224 17.2908C127.783 16.8056 127.173 16.563 126.392 16.563C125.862 16.563 125.391 16.6801 124.978 16.9144C124.571 17.143 124.25 17.4748 124.016 17.9098C123.788 18.3448 123.673 18.8718 123.673 19.4909ZM150.269 15.668H147.14C147.051 15.1549 146.887 14.7004 146.647 14.3044C146.407 13.9029 146.109 13.5627 145.752 13.2839C145.395 13.005 144.988 12.7959 144.53 12.6565C144.079 12.5115 143.591 12.439 143.066 12.439C142.135 12.439 141.31 12.6732 140.59 13.1417C139.871 13.6045 139.308 14.2849 138.901 15.1828C138.493 16.0751 138.29 17.1653 138.29 18.4536C138.29 19.7641 138.493 20.8683 138.901 21.7662C139.313 22.6585 139.877 23.3333 140.59 23.7906C141.31 24.2423 142.132 24.4681 143.058 24.4681C143.571 24.4681 144.051 24.4012 144.497 24.2674C144.949 24.128 145.353 23.9244 145.71 23.6567C146.072 23.389 146.376 23.06 146.622 22.6696C146.873 22.2793 147.046 21.8331 147.14 21.3312L150.269 21.3479C150.152 22.1621 149.898 22.9262 149.508 23.64C149.123 24.3538 148.618 24.984 147.994 25.5305C147.369 26.0715 146.638 26.4953 145.802 26.802C144.965 27.1032 144.037 27.2538 143.016 27.2538C141.511 27.2538 140.167 26.9052 138.984 26.2081C137.802 25.511 136.871 24.5044 136.19 23.1883C135.51 21.8721 135.17 20.2939 135.17 18.4536C135.17 16.6077 135.513 15.0294 136.199 13.7189C136.885 12.4027 137.819 11.3961 139.001 10.699C140.183 10.0019 141.522 9.65338 143.016 9.65338C143.97 9.65338 144.857 9.78723 145.676 10.0549C146.496 10.3226 147.227 10.7158 147.868 11.2344C148.509 11.7475 149.036 12.3777 149.449 13.1249C149.867 13.8667 150.141 14.7143 150.269 15.668ZM153.582 27.0195V9.88761H160.007C161.323 9.88761 162.427 10.1163 163.319 10.5736C164.217 11.0309 164.895 11.6722 165.352 12.4976C165.815 13.3173 166.046 14.2738 166.046 15.3668C166.046 16.4654 165.812 17.4191 165.344 18.2277C164.881 19.0308 164.198 19.6526 163.294 20.0931C162.391 20.5281 161.281 20.7456 159.965 20.7456H155.389V18.1692H159.546C160.316 18.1692 160.946 18.0632 161.437 17.8513C161.928 17.6338 162.29 17.3187 162.524 16.906C162.764 16.4877 162.884 15.9747 162.884 15.3668C162.884 14.7589 162.764 14.2403 162.524 13.8109C162.285 13.3759 161.919 13.0469 161.429 12.8238C160.938 12.5951 160.305 12.4808 159.53 12.4808H156.686V27.0195H153.582ZM162.432 19.2566L166.674 27.0195H163.21L159.045 19.2566H162.432ZM169.374 9.88761H173.172L178.258 22.3016H178.459L183.545 9.88761H187.343V27.0195H184.365V15.2497H184.206L179.471 26.9693H177.246L172.511 15.2246H172.352V27.0195H169.374V9.88761Z" fill="#3D3D3D"/>
</svg>
