<svg width="64" height="64" viewBox="0 0 64 64" fill="none" xmlns="http://www.w3.org/2000/svg">
<path d="M34.667 5.33301C41.0322 5.33301 47.1367 7.86157 51.6376 12.3624C56.1384 16.8633 58.667 22.9678 58.667 29.333" stroke="#14161A" stroke-width="3" stroke-linecap="round" stroke-linejoin="round"/>
<path d="M34.667 16C38.2032 16 41.5946 17.4048 44.0951 19.9052C46.5956 22.4057 48.0003 25.7971 48.0003 29.3333" stroke="#14161A" stroke-width="3" stroke-linecap="round" stroke-linejoin="round"/>
<path d="M36.885 44.181C37.4357 44.4339 38.0562 44.4917 38.6442 44.3448C39.2322 44.198 39.7526 43.8552 40.1197 43.373L41.0663 42.133C41.5631 41.4706 42.2073 40.933 42.9479 40.5627C43.6884 40.1924 44.505 39.9997 45.333 39.9997H53.333C54.7475 39.9997 56.1041 40.5616 57.1042 41.5618C58.1044 42.562 58.6663 43.9185 58.6663 45.333V53.333C58.6663 54.7475 58.1044 56.1041 57.1042 57.1042C56.1041 58.1044 54.7475 58.6663 53.333 58.6663C40.6026 58.6663 28.3936 53.6092 19.3919 44.6075C10.3901 35.6057 5.33301 23.3967 5.33301 10.6663C5.33301 9.25185 5.89491 7.8953 6.8951 6.8951C7.8953 5.89491 9.25185 5.33301 10.6663 5.33301H18.6663C20.0808 5.33301 21.4374 5.89491 22.4376 6.8951C23.4378 7.8953 23.9997 9.25185 23.9997 10.6663V18.6663C23.9997 19.4943 23.8069 20.3109 23.4366 21.0515C23.0663 21.792 22.5287 22.4362 21.8663 22.933L20.6183 23.869C20.1288 24.2428 19.7837 24.7746 19.6418 25.3739C19.4998 25.9733 19.5698 26.6033 19.8397 27.157C23.4842 34.5593 29.4781 40.5458 36.885 44.181Z" stroke="#14161A" stroke-width="3" stroke-linecap="round" stroke-linejoin="round"/>
</svg>
