<svg width="491" height="296" viewBox="0 0 491 296" fill="none" xmlns="http://www.w3.org/2000/svg">
<g filter="url(#filter0_d_518_6484)">
<circle cx="245.5" cy="197.882" r="62.8819" fill="url(#paint0_radial_518_6484)"/>
<circle cx="245.5" cy="197.882" r="62.8819" fill="url(#paint1_radial_518_6484)"/>
<circle cx="245.5" cy="197.882" r="60.656" stroke="url(#paint2_radial_518_6484)" stroke-opacity="0.27" stroke-width="4.45182"/>
<g clip-path="url(#clip0_518_6484)">
<path d="M255.469 189.91H235.532V187.916C235.53 182.411 239.992 177.946 245.498 177.945C249.125 177.944 252.467 179.914 254.223 183.088C254.758 184.05 255.972 184.398 256.935 183.863C257.897 183.329 258.245 182.115 257.71 181.152C253.977 174.409 245.484 171.969 238.74 175.702C234.298 178.162 231.543 182.839 231.544 187.917V190.756C227.916 192.339 225.568 195.92 225.563 199.879V211.841C225.57 217.344 230.029 221.804 235.532 221.81H255.469C260.972 221.804 265.431 217.344 265.438 211.841V199.879C265.431 194.376 260.972 189.917 255.469 189.91ZM247.494 207.854C247.494 208.955 246.602 209.848 245.5 209.848C244.399 209.848 243.507 208.955 243.507 207.854V203.866C243.507 202.765 244.399 201.873 245.5 201.873C246.602 201.873 247.494 202.765 247.494 203.866V207.854Z" fill="white"/>
</g>
</g>
<defs>
<filter id="filter0_d_518_6484" x="49.5182" y="0.899994" width="391.964" height="391.964" filterUnits="userSpaceOnUse" color-interpolation-filters="sRGB">
<feFlood flood-opacity="0" result="BackgroundImageFix"/>
<feColorMatrix in="SourceAlpha" type="matrix" values="0 0 0 0 0 0 0 0 0 0 0 0 0 0 0 0 0 0 127 0" result="hardAlpha"/>
<feOffset dy="-1"/>
<feGaussianBlur stdDeviation="66.55"/>
<feComposite in2="hardAlpha" operator="out"/>
<feColorMatrix type="matrix" values="0 0 0 0 0.662745 0 0 0 0 0.627451 0 0 0 0 0.866667 0 0 0 1 0"/>
<feBlend mode="normal" in2="BackgroundImageFix" result="effect1_dropShadow_518_6484"/>
<feBlend mode="normal" in="SourceGraphic" in2="effect1_dropShadow_518_6484" result="shape"/>
</filter>
<radialGradient id="paint0_radial_518_6484" cx="0" cy="0" r="1" gradientUnits="userSpaceOnUse" gradientTransform="translate(324.102 135) rotate(90) scale(85.1074 215.154)">
<stop stop-color="#8E89D0" stop-opacity="0.62"/>
<stop offset="1" stop-color="#535AB4"/>
</radialGradient>
<radialGradient id="paint1_radial_518_6484" cx="0" cy="0" r="1" gradientUnits="userSpaceOnUse" gradientTransform="translate(245.5 132.577) rotate(89.5657) scale(168.437 161.247)">
<stop stop-color="#AAA0DD" stop-opacity="0.71"/>
<stop offset="1" stop-color="#B2A9E3" stop-opacity="0.42"/>
</radialGradient>
<radialGradient id="paint2_radial_518_6484" cx="0" cy="0" r="1" gradientUnits="userSpaceOnUse" gradientTransform="translate(324.102 135) rotate(90) scale(85.1074 215.154)">
<stop stop-color="#8E89D0" stop-opacity="0.62"/>
<stop offset="1" stop-color="#535AB4"/>
</radialGradient>
<clipPath id="clip0_518_6484">
<rect width="47.857" height="47.857" fill="white" transform="translate(221.572 173.953)"/>
</clipPath>
</defs>
</svg>
