<svg width="24" height="23" viewBox="0 0 24 23" fill="none" xmlns="http://www.w3.org/2000/svg">
<path d="M5.53906 11.0781L10.1086 15.6475L19.9013 5.85596" stroke="#EE7846" stroke-width="2" stroke-linecap="round" stroke-linejoin="round"/>
<path d="M6.92233 3.17451C8.8739 2.59157 10.9597 2.6388 12.8833 3.3083L12.5542 4.25263L12.226 5.19697C10.6993 4.66559 9.04354 4.6288 7.4946 5.0915C5.94593 5.55418 4.58216 6.4927 3.59714 7.77412C2.61208 9.05583 2.05585 10.6164 2.00729 12.2321C1.95888 13.8478 2.42035 15.4377 3.32663 16.7761C4.23297 18.1145 5.53789 19.1333 7.05612 19.6882C8.57455 20.243 10.2297 20.3058 11.7856 19.8669C13.3414 19.428 14.7195 18.5102 15.7241 17.2438C16.7287 15.9774 17.3089 14.4261 17.3823 12.8112L18.3813 12.8571L19.3803 12.902C19.2879 14.9367 18.5573 16.8913 17.2915 18.487C16.0257 20.0826 14.2888 21.2387 12.3286 21.7917C10.3682 22.3446 8.28276 22.2661 6.3696 21.5671C4.45663 20.868 2.81236 19.5836 1.67038 17.8972C0.528507 16.2107 -0.0538263 14.2073 0.00729282 12.1716C0.0684702 10.1358 0.770055 8.17029 2.0112 6.55537C3.25237 4.94064 4.97088 3.75746 6.92233 3.17451Z" fill="#EE7846"/>
</svg>
