<svg width="25" height="25" viewBox="0 0 25 25" fill="none" xmlns="http://www.w3.org/2000/svg">
<circle cx="12.9514" cy="12.0529" r="11.504" stroke="#333333" stroke-width="0.981516"/>
<path d="M18.0519 9.57564C17.7076 9.72867 17.3442 9.82431 16.9616 9.8817C17.3442 9.65215 17.6502 9.28871 17.7841 8.84875C17.4207 9.05916 17.019 9.21219 16.579 9.30784C16.2347 8.94439 15.7373 8.71484 15.2017 8.71484C14.1688 8.71484 13.3271 9.55651 13.3271 10.5895C13.3271 10.7425 13.3462 10.8764 13.3845 11.0103C11.8351 10.9338 10.4387 10.1878 9.50137 9.04003C9.34834 9.32696 9.25269 9.63302 9.25269 9.97734C9.25269 10.6277 9.57788 11.2016 10.0944 11.5459C9.7883 11.5268 9.50137 11.4503 9.23356 11.3164V11.3355C9.23356 12.2537 9.88394 13.0188 10.7447 13.191C10.5917 13.2292 10.4195 13.2484 10.2474 13.2484C10.1326 13.2484 9.99871 13.2292 9.88394 13.2101C10.1326 13.9561 10.8213 14.5109 11.6438 14.5109C10.9934 15.0082 10.19 15.3143 9.31008 15.3143C9.15705 15.3143 9.00402 15.3143 8.87012 15.2951C9.71178 15.8307 10.6873 16.1368 11.7586 16.1368C15.2209 16.1368 17.1146 13.2675 17.1146 10.7808C17.1146 10.7042 17.1146 10.6086 17.1146 10.5321C17.4781 10.2834 17.8032 9.95821 18.0519 9.57564Z" fill="#333333"/>
</svg>
