<svg width="82" height="32" viewBox="0 0 82 32" fill="none" xmlns="http://www.w3.org/2000/svg">
<g clip-path="url(#clip0_1849_29038)">
<rect x="0.779602" y="0.78125" width="80.4408" height="30.8842" rx="15.4421" fill="#A9A0DD"/>
<path d="M9.82747 13.8232V12.7669H15.3771V13.8232H13.2272V19.7227H11.9774V13.8232H9.82747ZM15.6596 19.7227V14.5059H16.8517V15.3753H16.9061C17.0012 15.0742 17.1642 14.8421 17.3952 14.6791C17.6284 14.5138 17.8944 14.4311 18.1933 14.4311C18.2612 14.4311 18.3371 14.4345 18.4209 14.4413C18.5069 14.4459 18.5782 14.4538 18.6348 14.4651V15.5961C18.5828 15.578 18.5001 15.5621 18.3869 15.5485C18.2759 15.5327 18.1684 15.5248 18.0642 15.5248C17.8401 15.5248 17.6386 15.5734 17.4597 15.6708C17.2831 15.7659 17.1438 15.8984 17.0419 16.0682C16.94 16.238 16.8891 16.4339 16.8891 16.6557V19.7227H15.6596ZM20.1833 21.679C20.0158 21.679 19.8607 21.6654 19.718 21.6382C19.5776 21.6133 19.4656 21.5839 19.3818 21.5499L19.6671 20.5921C19.846 20.6442 20.0056 20.6691 20.146 20.6668C20.2864 20.6646 20.4098 20.6204 20.5162 20.5344C20.6249 20.4506 20.7166 20.3102 20.7913 20.1132L20.8966 19.8313L19.0048 14.5059H20.309L21.5113 18.4456H21.5656L22.7714 14.5059H24.0789L21.9902 20.3544C21.8928 20.6306 21.7638 20.8672 21.603 21.0642C21.4422 21.2635 21.2453 21.4152 21.012 21.5193C20.7811 21.6257 20.5049 21.679 20.1833 21.679ZM32.6899 12.7669V19.7227H31.5691L28.2916 14.9847H28.2339V19.7227H26.9739V12.7669H28.1015L31.3755 17.5082H31.4367V12.7669H32.6899ZM36.0928 19.8245C35.5834 19.8245 35.1419 19.7125 34.7683 19.4883C34.3947 19.2641 34.1048 18.9506 33.8988 18.5475C33.695 18.1445 33.5931 17.6735 33.5931 17.1346C33.5931 16.5957 33.695 16.1237 33.8988 15.7184C34.1048 15.3131 34.3947 14.9983 34.7683 14.7742C35.1419 14.55 35.5834 14.4379 36.0928 14.4379C36.6023 14.4379 37.0438 14.55 37.4174 14.7742C37.791 14.9983 38.0797 15.3131 38.2835 15.7184C38.4895 16.1237 38.5925 16.5957 38.5925 17.1346C38.5925 17.6735 38.4895 18.1445 38.2835 18.5475C38.0797 18.9506 37.791 19.2641 37.4174 19.4883C37.0438 19.7125 36.6023 19.8245 36.0928 19.8245ZM36.0996 18.8396C36.3759 18.8396 36.6068 18.7638 36.7925 18.612C36.9781 18.4581 37.1163 18.252 37.2068 17.9939C37.2997 17.7358 37.3461 17.4482 37.3461 17.1312C37.3461 16.812 37.2997 16.5233 37.2068 16.2652C37.1163 16.0048 36.9781 15.7976 36.7925 15.6436C36.6068 15.4897 36.3759 15.4127 36.0996 15.4127C35.8166 15.4127 35.5811 15.4897 35.3932 15.6436C35.2075 15.7976 35.0683 16.0048 34.9754 16.2652C34.8849 16.5233 34.8396 16.812 34.8396 17.1312C34.8396 17.4482 34.8849 17.7358 34.9754 17.9939C35.0683 18.252 35.2075 18.4581 35.3932 18.612C35.5811 18.7638 35.8166 18.8396 36.0996 18.8396ZM40.372 19.7227L38.898 14.5059H40.1512L41.0683 18.1739H41.1158L42.0532 14.5059H43.2929L44.2303 18.1535H44.2812L45.1846 14.5059H46.4413L44.9639 19.7227H43.6834L42.7053 16.1972H42.634L41.6558 19.7227H40.372Z" fill="white"/>
<g filter="url(#filter0_f_1849_29038)">
<ellipse cx="65.7784" cy="17.2378" rx="12.0065" ry="11.5366" fill="#EFEFEF"/>
</g>
<rect x="53.4047" y="3.84925" width="24.7472" height="24.7472" rx="12.3736" fill="#9C84F6"/>
<rect x="53.4047" y="3.84925" width="24.7472" height="24.7472" rx="12.3736" stroke="url(#paint0_linear_1849_29038)" stroke-width="0.358655"/>
<path d="M69.4169 16.2227H62.1399" stroke="white" stroke-width="1.15567" stroke-linecap="round" stroke-linejoin="round"/>
<path d="M67.1433 13.9479C67.1433 13.9479 69.4173 15.6227 69.4174 16.222C69.4174 16.8213 67.1433 18.4961 67.1433 18.4961" stroke="white" stroke-width="1.15567" stroke-linecap="round" stroke-linejoin="round"/>
</g>
<rect x="1.01871" y="1.02035" width="79.9626" height="30.406" rx="15.203" stroke="#E5EBF1" stroke-width="0.478207"/>
<defs>
<filter id="filter0_f_1849_29038" x="50.1853" y="2.11462" width="31.1862" height="30.2454" filterUnits="userSpaceOnUse" color-interpolation-filters="sRGB">
<feFlood flood-opacity="0" result="BackgroundImageFix"/>
<feBlend mode="normal" in="SourceGraphic" in2="BackgroundImageFix" result="shape"/>
<feGaussianBlur stdDeviation="1.79327" result="effect1_foregroundBlur_1849_29038"/>
</filter>
<linearGradient id="paint0_linear_1849_29038" x1="61.4253" y1="5.15019" x2="69.4837" y2="28.7758" gradientUnits="userSpaceOnUse">
<stop stop-color="#BAC8D1" stop-opacity="0.2"/>
<stop offset="1" stop-color="#BAC8D1" stop-opacity="0.5"/>
</linearGradient>
<clipPath id="clip0_1849_29038">
<rect x="0.779602" y="0.78125" width="80.4408" height="30.8842" rx="15.4421" fill="white"/>
</clipPath>
</defs>
</svg>
