<svg width="24" height="24" viewBox="0 0 24 24" fill="none" xmlns="http://www.w3.org/2000/svg">
<circle cx="11.5574" cy="12.0529" r="11.0133" stroke="#333333" stroke-width="0.981516"/>
<path d="M4.84967 14.8487C4.39256 12.6915 4.39256 10.4625 4.84967 8.30527C4.90973 8.0862 5.02578 7.88653 5.1864 7.72591C5.34702 7.56529 5.54668 7.44924 5.76575 7.38918C9.27529 6.80777 12.8566 6.80777 16.3661 7.38918C16.5852 7.44924 16.7849 7.56529 16.9455 7.72591C17.1061 7.88653 17.2221 8.0862 17.2822 8.30527C17.7393 10.4625 17.7393 12.6915 17.2822 14.8487C17.2221 15.0678 17.1061 15.2674 16.9455 15.4281C16.7849 15.5887 16.5852 15.7047 16.3661 15.7648C12.8566 16.3463 9.27528 16.3463 5.76575 15.7648C5.54668 15.7047 5.34702 15.5887 5.1864 15.4281C5.02578 15.2674 4.90973 15.0678 4.84967 14.8487Z" stroke="#333333" stroke-width="0.981516" stroke-linecap="round" stroke-linejoin="round"/>
<path d="M9.75708 13.5393L13.0288 11.5763L9.75708 9.61328V13.5393Z" stroke="#333333" stroke-width="0.981516" stroke-linecap="round" stroke-linejoin="round"/>
</svg>
