<svg width="60" height="40" viewBox="0 0 60 40" fill="none" xmlns="http://www.w3.org/2000/svg">
<path d="M52.6472 15.1983C54.8686 15.9388 56.6457 17.2717 57.9785 19.1969C59.3114 20.974 59.9778 22.9732 59.9778 25.1946C60.1259 27.416 59.5335 29.6374 58.2007 31.8588C57.0159 33.9322 55.0907 35.7093 52.425 37.1902C48.1303 39.4116 44.3539 40.004 41.0959 38.9673C37.8378 37.7826 35.5424 36.0055 34.2095 33.636C33.4691 32.4512 32.8767 30.8222 32.4324 28.7489C32.1362 26.6756 31.9882 24.5282 31.9882 22.3068C32.1362 19.9373 32.4324 17.6419 32.8767 15.4205C33.321 13.1991 33.9874 11.3479 34.876 9.86699C35.6164 8.83033 36.505 7.71964 37.5416 6.53489C38.4302 5.49824 39.4669 4.46158 40.6516 3.42493C41.9845 2.38828 43.4654 1.42567 45.0944 0.537109L52.8693 0.981389C51.8327 2.16614 50.87 3.27684 49.9815 4.31349C49.241 5.20205 48.5746 6.01656 47.9822 6.75703C47.3899 7.4975 46.7975 8.16392 46.2051 8.75629C45.1685 9.79294 44.3539 10.8296 43.7616 11.8662C43.1692 12.7548 42.6509 13.7174 42.2066 14.7541C41.9104 15.7907 41.9104 16.8274 42.2066 17.864C44.1318 15.7907 46.3532 14.7541 48.8708 14.7541C50.0555 14.7541 51.3143 14.9022 52.6472 15.1983ZM21.9919 16.309C24.0652 17.4938 25.5461 19.1228 26.4347 21.1961C27.4713 23.1213 27.8415 25.1946 27.5454 27.416C27.2492 29.6374 26.2866 31.7108 24.6575 33.636C23.1766 35.5612 20.9552 37.0421 17.9933 38.0788C13.4024 39.5597 9.62606 39.4856 6.6642 37.8566C3.70233 36.0795 1.70307 33.9322 0.66642 31.4146C0.22214 30.0817 0 28.3787 0 26.3053C0 24.232 0.22214 22.0847 0.66642 19.8633C1.1107 17.6419 1.70307 15.4945 2.44354 13.4212C3.18401 11.3479 4.14661 9.64485 5.33136 8.31201C6.21992 7.27536 7.25657 6.31275 8.44132 5.42419C9.47797 4.68372 10.6627 3.86921 11.9956 2.98065C13.4765 2.09209 15.1055 1.27758 16.8826 0.537109L24.6575 2.53637C23.4728 3.57302 22.3621 4.46158 21.3254 5.20205C20.4369 5.94252 19.6224 6.60893 18.8819 7.20131C18.1414 7.79368 17.401 8.38605 16.6605 8.97843C15.6238 9.86699 14.7353 10.7555 13.9948 11.6441C13.2544 12.3846 12.5879 13.2731 11.9956 14.3098C11.4032 15.1983 11.181 16.161 11.3291 17.1976C12.5139 16.309 13.6986 15.7907 14.8834 15.6426C16.2162 15.3464 17.401 15.2724 18.4376 15.4205C19.6224 15.5686 20.8071 15.8648 21.9919 16.309Z" fill="#E9E9E9"/>
</svg>
