<svg width="125" height="25" viewBox="0 0 125 25" fill="none" xmlns="http://www.w3.org/2000/svg">
<circle cx="12.7207" cy="12.4179" r="11.7207" stroke="black"/>
<path d="M17.9172 9.89165C17.5664 10.0476 17.1961 10.145 16.8063 10.2035C17.1961 9.96961 17.5079 9.59932 17.6444 9.15107C17.2741 9.36545 16.8648 9.52136 16.4166 9.61881C16.0658 9.24852 15.559 9.01465 15.0134 9.01465C13.9609 9.01465 13.1034 9.87216 13.1034 10.9246C13.1034 11.0805 13.1229 11.2169 13.1619 11.3533C11.5833 11.2754 10.1606 10.5153 9.20564 9.34596C9.04972 9.6383 8.95228 9.95012 8.95228 10.3009C8.95228 10.9635 9.28359 11.5482 9.8098 11.899C9.49797 11.8795 9.20564 11.8016 8.93279 11.6652V11.6846C8.93279 12.6201 9.59542 13.3997 10.4724 13.5751C10.3165 13.614 10.1411 13.6335 9.96571 13.6335C9.84877 13.6335 9.71235 13.6141 9.59542 13.5946C9.84877 14.3546 10.5504 14.9198 11.3884 14.9198C10.7258 15.4265 9.90724 15.7383 9.01075 15.7383C8.85483 15.7383 8.69892 15.7384 8.5625 15.7189C9.42002 16.2646 10.414 16.5764 11.5053 16.5764C15.0328 16.5764 16.9623 13.653 16.9623 11.1195C16.9623 11.0415 16.9623 10.9441 16.9623 10.8661C17.3325 10.6127 17.6639 10.2814 17.9172 9.89165Z" fill="black"/>
<circle cx="46.208" cy="12.4179" r="11.7207" stroke="black"/>
<path d="M45.1271 17.6947V13.0453H43.5625V11.2333H45.1271V9.89708C45.1271 8.34635 46.0742 7.50195 47.4576 7.50195C48.1202 7.50195 48.6897 7.55129 48.8557 7.57334V9.19394L47.8963 9.19437C47.1439 9.19437 46.9983 9.55188 46.9983 10.0765V11.2333H48.7925L48.5589 13.0453H46.9983V17.6947H45.1271Z" fill="black"/>
<circle cx="79.6963" cy="12.4179" r="11.7207" stroke="black"/>
<path d="M79.6967 7.76996C81.2109 7.76996 81.3902 7.77563 81.9884 7.80291C82.3481 7.80731 82.7043 7.87335 83.0417 7.99816C83.2863 8.09251 83.5085 8.23703 83.6939 8.42243C83.8793 8.60783 84.0238 8.83 84.1181 9.07463C84.2429 9.41197 84.309 9.76821 84.3134 10.1279C84.3404 10.7261 84.3463 10.9054 84.3463 12.4196C84.3463 13.9338 84.3407 14.1132 84.3134 14.7114C84.309 15.071 84.2429 15.4273 84.1181 15.7646C84.0238 16.0092 83.8793 16.2314 83.6939 16.4168C83.5085 16.6022 83.2863 16.7467 83.0417 16.8411C82.7043 16.9659 82.3481 17.0319 81.9884 17.0363C81.3905 17.0633 81.2112 17.0693 79.6967 17.0693C78.1822 17.0693 78.0029 17.0636 77.4049 17.0363C77.0453 17.0319 76.689 16.9659 76.3517 16.8411C76.1071 16.7467 75.8849 16.6022 75.6995 16.4168C75.5141 16.2314 75.3696 16.0092 75.2752 15.7646C75.1504 15.4273 75.0844 15.071 75.08 14.7114C75.053 14.1132 75.047 13.9338 75.047 12.4196C75.047 10.9054 75.0527 10.7261 75.08 10.1279C75.0844 9.76821 75.1504 9.41197 75.2752 9.07463C75.3696 8.83 75.5141 8.60783 75.6995 8.42243C75.8849 8.23703 76.1071 8.09251 76.3517 7.99816C76.689 7.87335 77.0453 7.80731 77.4049 7.80291C78.0031 7.7759 78.1825 7.76996 79.6967 7.76996ZM79.6967 6.74805C78.1573 6.74805 77.9634 6.75453 77.3585 6.78207C76.8878 6.79144 76.4221 6.88056 75.9812 7.04565C75.603 7.18816 75.2604 7.41147 74.9774 7.70001C74.6886 7.98314 74.465 8.32591 74.3225 8.70437C74.1574 9.14528 74.0682 9.61098 74.0589 10.0817C74.0319 10.6861 74.0254 10.88 74.0254 12.4193C74.0254 13.9587 74.0319 14.1526 74.0594 14.7575C74.0688 15.2282 74.1579 15.6939 74.323 16.1349C74.4654 16.5133 74.6887 16.856 74.9774 17.1392C75.2605 17.4278 75.6033 17.6511 75.9817 17.7936C76.4226 17.9587 76.8883 18.0478 77.359 18.0572C77.964 18.0842 78.1571 18.0912 79.6972 18.0912C81.2374 18.0912 81.4305 18.0847 82.0354 18.0572C82.5061 18.0478 82.9718 17.9587 83.4127 17.7936C83.7894 17.6476 84.1314 17.4246 84.4169 17.1389C84.7024 16.8532 84.9252 16.511 85.0709 16.1343C85.236 15.6934 85.3251 15.2277 85.3345 14.757C85.3615 14.1526 85.368 13.9587 85.368 12.4193C85.368 10.88 85.3615 10.6861 85.334 10.0811C85.3246 9.61044 85.2355 9.14474 85.0704 8.70383C84.9279 8.32542 84.7046 7.98265 84.416 7.69947C84.1328 7.41087 83.7901 7.18755 83.4117 7.04511C82.9708 6.88002 82.505 6.7909 82.0343 6.78153C81.4299 6.75453 81.236 6.74805 79.6967 6.74805Z" fill="black"/>
<path d="M79.698 9.50781C79.122 9.50781 78.5589 9.67862 78.08 9.99863C77.601 10.3186 77.2278 10.7735 77.0073 11.3057C76.7869 11.8378 76.7292 12.4234 76.8416 12.9883C76.954 13.5533 77.2314 14.0722 77.6387 14.4795C78.046 14.8868 78.5649 15.1642 79.1298 15.2765C79.6948 15.3889 80.2803 15.3312 80.8125 15.1108C81.3447 14.8904 81.7995 14.5171 82.1195 14.0382C82.4395 13.5592 82.6103 12.9962 82.6103 12.4202C82.6103 11.6478 82.3035 10.907 81.7573 10.3608C81.2112 9.81465 80.4704 9.50781 79.698 9.50781ZM79.698 14.3106C79.3241 14.3106 78.9586 14.1997 78.6477 13.992C78.3368 13.7843 78.0945 13.489 77.9515 13.1436C77.8084 12.7982 77.7709 12.4181 77.8439 12.0514C77.9168 11.6846 78.0969 11.3478 78.3613 11.0834C78.6256 10.819 78.9625 10.639 79.3292 10.5661C79.6959 10.4931 80.076 10.5305 80.4214 10.6736C80.7669 10.8167 81.0621 11.059 81.2698 11.3699C81.4776 11.6808 81.5884 12.0463 81.5884 12.4202C81.5884 12.9215 81.3893 13.4024 81.0347 13.7569C80.6802 14.1114 80.1994 14.3106 79.698 14.3106Z" fill="black"/>
<path d="M82.7245 10.073C83.1004 10.073 83.4051 9.76833 83.4051 9.39247C83.4051 9.01661 83.1004 8.71191 82.7245 8.71191C82.3486 8.71191 82.0439 9.01661 82.0439 9.39247C82.0439 9.76833 82.3486 10.073 82.7245 10.073Z" fill="black"/>
<circle cx="113.184" cy="12.4179" r="11.2207" stroke="black"/>
<path d="M106.35 15.265C105.884 13.0672 105.884 10.7961 106.35 8.59831C106.411 8.37511 106.529 8.17169 106.693 8.00804C106.856 7.8444 107.06 7.72617 107.283 7.66497C110.859 7.07261 114.507 7.07261 118.083 7.66497C118.306 7.72617 118.51 7.8444 118.673 8.00804C118.837 8.17169 118.955 8.37511 119.016 8.59831C119.482 10.7961 119.482 13.0672 119.016 15.265C118.955 15.4882 118.837 15.6916 118.673 15.8552C118.51 16.0189 118.306 16.1371 118.083 16.1983C114.507 16.7908 110.859 16.7908 107.283 16.1983C107.06 16.1371 106.856 16.0189 106.693 15.8552C106.529 15.6916 106.411 15.4882 106.35 15.265Z" stroke="black" stroke-linecap="round" stroke-linejoin="round"/>
<path d="M111.35 13.9316L114.683 11.9316L111.35 9.93164V13.9316Z" stroke="black" stroke-linecap="round" stroke-linejoin="round"/>
</svg>
