<?xml version="1.0" encoding="utf-8"?>
<!-- Generator: Adobe Illustrator 29.7.1, SVG Export Plug-In . SVG Version: 9.03 Build 0)  -->
<svg version="1.0" id="Layer_1" xmlns="http://www.w3.org/2000/svg" xmlns:xlink="http://www.w3.org/1999/xlink" x="0px" y="0px"
	 viewBox="0 0 34 34" style="enable-background:new 0 0 34 34;" xml:space="preserve">
<style type="text/css">
	.st0{fill:#8E89D0;}
	.st1{fill:#535AB4;stroke:#535AB4;stroke-miterlimit:10;}
	.st2{fill:none;stroke:#535AB4;stroke-miterlimit:10;}
</style>
<g>
	<g>
		<g>
			<path class="st0" d="M25.8,12.37c-0.41-0.38-0.95-0.57-1.51-0.57h-1.84c-0.74,0-1.33,0.31-1.76,0.92c0,0,0,0,0,0.01
				c-0.43-0.62-1.02-0.92-1.77-0.92h-1.88c-0.62,0-1.15,0.23-1.59,0.69c-0.38,0.41-0.57,0.95-0.57,1.51v7.07h0l2.24,0v-6.54
				c0.08-0.65,0.49-0.98,1.22-0.98c0.73,0,1.14,0.32,1.22,0.98v4.19c0.41,0,0.8-0.11,1.13-0.31c0.64-0.38,1.07-1.08,1.07-1.88v-2
				c0.09-0.65,0.51-0.98,1.25-0.98c0.74,0,1.16,0.32,1.25,0.98v4.19c1.24,0,2.24-1,2.24-2.24v-2.53
				C26.49,13.33,26.26,12.81,25.8,12.37z"/>
		</g>
		<path class="st0" d="M21.48,22.2c-1.81,0-3.63,0-5.44,0c-0.64,0-1.16-0.52-1.16-1.16c0,0,0-1.08,0-1.08c0.83,0,1.66,0,2.49,0
			c1.13,0,2.54-0.23,3.43,0.63C21.23,21.01,21.48,21.6,21.48,22.2z"/>
	</g>
	<path class="st1" d="M20.68,5.76L20.68,5.76l0.01-1.94C13.41,3.82,7.51,9.72,7.51,17c0,7.28,5.9,13.18,13.18,13.18v-1.94h-0.01
		c-6.21,0-11.24-5.03-11.24-11.24S14.47,5.76,20.68,5.76z"/>
	<path class="st2" d="M20.69,28.24L20.69,28.24c-6.22,0-11.25-5.03-11.25-11.24S14.47,5.76,20.68,5.76h0.01"/>
	<path class="st2" d="M20.69,28.24L20.69,28.24c-6.22,0-11.25-5.03-11.25-11.24S14.47,5.76,20.68,5.76h0.01"/>
</g>
</svg>
